<?xml version="1.0" encoding="utf-8"?>
<!-- Generator: Adobe Illustrator 16.0.0, SVG Export Plug-In . SVG Version: 6.00 Build 0)  -->
<!DOCTYPE svg PUBLIC "-//W3C//DTD SVG 1.1//EN" "http://www.w3.org/Graphics/SVG/1.1/DTD/svg11.dtd">
<svg version="1.1" id="Layer_1" xmlns="http://www.w3.org/2000/svg" xmlns:xlink="http://www.w3.org/1999/xlink" x="0px" y="0px"
	 width="135.983px" height="115.985px" viewBox="0 0 135.983 115.985" enable-background="new 0 0 135.983 115.985"
	 xml:space="preserve">
<g>
	<g>
		<path fill-rule="evenodd" clip-rule="evenodd" fill="none" d="M69.476,117.985c-21.976,0-43.952-0.032-65.927,0.054
			c-2.028,0.008-2.619-0.271-2.614-2.5C1.026,78.248,1.04,40.956,0.914,3.664C0.905,1.062,1.716,0.952,3.83,0.955
			c43.785,0.06,87.569,0.063,131.354-0.009c2.206-0.004,2.886,0.241,2.879,2.75c-0.115,37.291-0.107,74.583-0.012,111.875
			c0.006,2.292-0.686,2.471-2.648,2.464C113.427,117.957,91.451,117.985,69.476,117.985z M70.946,16.331
			c0-2.434,0.021-4.1-0.007-5.766c-0.03-1.825,0.136-3.696-0.793-5.377c-0.475-0.859-1.016-1.929-2.175-1.69
			c-0.982,0.201-0.837,1.292-0.891,2.092c-0.056,0.83-0.07,1.667-0.041,2.499c0.284,8.172-1.332,16.246-1.161,24.432
			c0.095,4.553-1.24,5.303-5.617,4.017c-5.163-1.518-9.772-4.168-14.227-7.16c-7.21-4.842-12.303-11.648-17.385-18.458
			c-5.268-7.058-5.213-7.099-13.365-4.183c-3.01,1.077-3.41,1.956-1.825,4.789c2.203,3.94,5.045,7.442,7.899,10.919
			c10.087,12.289,22.768,20.343,38.487,23.342c4.876,0.931,5.534,1.479,5.06,6.571c-0.433,4.643-0.941,9.26-0.919,13.939
			c0.024,5.15-0.817,6.01-5.959,6.663C49.04,74.1,40.351,76.34,32.143,80.186c-12.72,5.958-22.002,15.388-27.792,28.204
			c-0.595,1.317-1.627,2.878,0.172,3.972c1.458,0.888,2.899,0.195,4.107-0.846c0.375-0.323,0.706-0.71,1.007-1.104
			c3.771-4.918,8.34-9.087,12.802-13.323c9.518-9.034,20.89-14.124,34.025-15.061c5.583-0.398,6.324,0.475,6.579,5.952
			c0.219,4.705-1.127,9.26-1.009,13.938c0.051,2.004-0.096,4.104,1.36,5.697c1.396,1.528,2.581,4.322,4.777,3.643
			c1.575-0.487,0.592-3.309,0.777-5.083c0.069-0.659,0.013-1.332,0.016-1.998c0.021-5.999-0.069-12.001,0.108-17.995
			c0.105-3.537,1.326-4.508,4.771-3.872c2.771,0.512,5.525,1.296,8.165,2.284c13.924,5.212,24.968,14.463,34.672,25.399
			c5.245,5.911,5.122,6.117,12.475,3.101c0.925-0.379,1.885-0.693,2.763-1.16c2.701-1.437,2.971-2.339,0.919-4.516
			c-10.101-10.718-21.064-20.42-34.103-27.461c-7.087-3.827-14.702-6.182-22.757-7.138c-5.297-0.63-5.951-1.486-6.01-6.609
			c-0.057-4.832-0.09-9.667,0.027-14.497c0.106-4.333,0.951-5.271,5.265-5.669c24.952-2.304,40.743-17.898,54.041-37.134
			c0.372-0.539,0.852-1.202,0.437-1.828c-0.442-0.666-1.19-0.269-1.833-0.168c-5.628,0.883-8.665,5.054-11.956,9.092
			c-8.78,10.771-19.688,18.318-33.445,21.383c-2.97,0.662-5.943,0.71-8.945,0.562c-2.19-0.107-3.362-1.273-3.468-3.454
			c-0.073-1.497-0.133-3-0.085-4.497C70.159,25.179,71.476,20.432,70.946,16.331z"/>
		<path fill-rule="evenodd" clip-rule="evenodd" d="M70.946,16.331c0.529,4.101-0.787,8.848-0.94,13.668
			c-0.048,1.497,0.012,3,0.085,4.497c0.105,2.18,1.277,3.346,3.468,3.454c3.002,0.148,5.976,0.101,8.945-0.562
			c13.757-3.065,24.665-10.612,33.445-21.383c3.291-4.038,6.328-8.209,11.956-9.092c0.643-0.101,1.391-0.498,1.833,0.168
			c0.415,0.626-0.064,1.289-0.437,1.828c-13.298,19.236-29.089,34.83-54.041,37.134c-4.313,0.398-5.158,1.337-5.265,5.669
			c-0.117,4.829-0.084,9.665-0.027,14.497c0.059,5.123,0.713,5.979,6.01,6.609c8.055,0.956,15.67,3.311,22.757,7.138
			c13.038,7.041,24.002,16.743,34.103,27.461c2.052,2.177,1.782,3.079-0.919,4.516c-0.878,0.467-1.838,0.781-2.763,1.16
			c-7.353,3.017-7.229,2.811-12.475-3.101c-9.704-10.937-20.748-20.188-34.672-25.399c-2.64-0.988-5.395-1.772-8.165-2.284
			c-3.444-0.636-4.665,0.335-4.771,3.872c-0.178,5.994-0.087,11.996-0.108,17.995c-0.003,0.666,0.054,1.339-0.016,1.998
			c-0.186,1.774,0.798,4.596-0.777,5.083c-2.197,0.68-3.382-2.114-4.777-3.643c-1.456-1.593-1.309-3.693-1.36-5.697
			c-0.119-4.678,1.228-9.232,1.009-13.938c-0.255-5.478-0.996-6.351-6.579-5.952C43.33,82.964,31.958,88.054,22.44,97.088
			c-4.462,4.236-9.031,8.405-12.802,13.323c-0.302,0.395-0.632,0.781-1.007,1.104c-1.208,1.041-2.65,1.733-4.107,0.846
			c-1.8-1.094-0.767-2.654-0.172-3.972c5.791-12.816,15.072-22.246,27.792-28.204c8.208-3.846,16.897-6.086,25.885-7.227
			c5.142-0.653,5.983-1.513,5.959-6.663c-0.022-4.68,0.486-9.296,0.919-13.939c0.474-5.092-0.184-5.641-5.06-6.571
			c-15.719-2.999-28.4-11.053-38.487-23.342c-2.854-3.477-5.696-6.979-7.899-10.919c-1.584-2.833-1.185-3.711,1.825-4.789
			c8.152-2.916,8.097-2.875,13.365,4.183c5.083,6.811,10.175,13.617,17.385,18.458c4.455,2.991,9.064,5.642,14.227,7.16
			c4.377,1.286,5.712,0.536,5.617-4.017c-0.171-8.186,1.445-16.26,1.161-24.432c-0.029-0.832-0.015-1.669,0.041-2.499
			c0.054-0.8-0.092-1.891,0.891-2.092c1.16-0.238,1.701,0.831,2.175,1.69c0.929,1.681,0.763,3.552,0.793,5.377
			C70.968,12.231,70.946,13.897,70.946,16.331z"/>
	</g>
</g>
</svg>
