<?xml version="1.0" encoding="utf-8"?>
<!-- Generator: Adobe Illustrator 16.0.0, SVG Export Plug-In . SVG Version: 6.00 Build 0)  -->
<!DOCTYPE svg PUBLIC "-//W3C//DTD SVG 1.1//EN" "http://www.w3.org/Graphics/SVG/1.1/DTD/svg11.dtd">
<svg version="1.1" id="Layer_1" xmlns="http://www.w3.org/2000/svg" xmlns:xlink="http://www.w3.org/1999/xlink" x="0px" y="0px"
	 width="585.327px" height="615.287px" viewBox="15.911 0 585.327 615.287" enable-background="new 15.911 0 585.327 615.287"
	 xml:space="preserve">
<g>
	<g>
		<path d="M301.913,2.043c5.449,0,10.897,0,16.347,0c14.038,8.594,17.37,19.735,9.232,33.397c-2.221,3.729-1.673,5.114,0.768,8.409
			c3.054,4.113,6.997,6.194,10.999,8.678c5.11,3.177,9.47,7.122,8.029,13.96c-1.297,6.158-6.438,7.226-11.678,7.85
			c-6.094,0.726-6.995,3.438-7.789,9.963c-0.929,7.633,6.062,10.79,5.489,17.059c-0.641,7.008,2.874,11.518,8.737,14.784
			c12.784,7.126,18.001,18.256,20.542,32.626c2.045,11.581,4.188,24.759,13.714,33.138c9.347,8.223,16.624,17.362,21.819,28.549
			c3.374,7.265,8.441,13.515,16.789,15.062c5.997,1.109,10.834,4.09,15.373,7.521c4.223,3.193,8.428,4.927,13.779,5.595
			c13.519,1.692,17.42,5.821,19.978,18.947c1.618,8.295,0.865,17.025-3.902,23.373c-3.623,4.823-10.856,0.659-16.438-0.153
			c-11.154-1.621-20.617,0.868-27.884,10.149c-3.318,4.24-3.701,9.037-2.438,13.501c1.262,4.461,6.211,4.667,10.203,5.216
			c5.972,0.82,12.929,0.363,16.189-4.181c6.034-8.399,15.478-13.342,21.024-21.395c6.149-8.93,12.091-17.516,20.507-24.546
			c8.41-7.026,17.446-12.404,28.078-14.958c20.233-4.861,41.236-0.136,61.688-5.631c10.996-2.955,15.825,5.216,11.396,16.179
			c-0.812,2.007-1.533,3.871-0.347,5.789c6.245,10.095,8.561,21.745,12.913,32.588c11.771,29.354,5.587,57.178-8.416,83.97
			c-12.328,23.583-33.095,40.733-48.241,62.198c-1.282,1.814-3.549,3.674-5.623,4.049c-7.896,1.434-12.182,7.476-16.433,12.962
			c-11.509,14.846-20.546,31.079-25.554,49.401c-2.27,8.307-6.613,9.622-13.259,4.658c-12.776-9.547-26.265-4.634-27.468,11.082
			c-0.576,7.535-4.406,10.913-8.71,15.776c-16.192,18.298-29.924,32.853-6.636,56.062c8.683,8.652,4.977,16.628-8.142,21.373
			c-4.769,0-9.535,0-14.304,0c-2.041-3.479-5.855-5.348-7.35-9.565c-4.294-12.107-9.343-23.946-13.834-35.989
			c-4.862-13.046-4.67-12.758-18.905-9.999c-18.277,3.542-36.628,6.813-55.321,7.301c-24.6,0.643-48.739-2.764-72.351-9.342
			c-6.71-1.87-9.07-0.11-10.781,5.998c-3.092,11.043-7.521,21.752-10.027,32.905c-4.494,20.014-13.709,18.486-27.07,14.114
			c-4.729-1.549-9.65-3.443-9.462-9.125c0.182-5.484,0.612-11.121,6.439-14.944c11.095-7.276,13.742-22.724,4.398-31.535
			c-17.386-16.396-25.865-37.825-35.574-58.604c-2.544-5.445-5.201-8.369-11.51-9.607c-23.166-4.535-45.399-12.269-63.901-27.329
			c-28.142-22.908-32.838-54.035-28.096-87.744c2.463-17.51,3.101-34.896,0.736-52.528c-3.146-23.446-19.107-36.424-37.18-48.014
			c-3.151-2.021-7.259-3.895-6.443-8.213c0.821-4.344,5.01-7.066,9.013-7.299c16.925-0.994,33.958-2.782,50.734,1.301
			c6.671,1.625,10.141,6.168,10.349,13.286c0.199,6.765-0.182,13.481,1.161,20.302c4.115,20.909,6.966,42.068,11.395,62.9
			c5.804,27.296,20.168,44.86,50.409,46.779c8.244,0.525,12.144-2.366,14.528-9.115c6.167-17.46,19.632-29.682,31.574-42.714
			c8.845-9.652,15.217-20.15,17.459-32.638c1.654-9.213,2.896-19.867-4.748-26.992c-6.832-6.368-11.866-13.591-16.895-21.214
			c-8.427-12.772-9.047-22.89,2.958-32.416c16.11-12.781,33.064-24.255,42.903-43.11c0.141-0.27,0.539-0.401,0.806-0.61
			c12.35-9.706,23.325-20.308,25.814-36.978c0.694-4.647,2.661-9.199,3.474-13.703c3.325-18.45,27.661-24.673,26.107-45.701
			c-0.058-0.778,1.601-1.637,1.616-2.475c0.111-5.737,2.826-12.372-6.538-14.327c-5.671-1.186-13.175-1.706-14.297-9.329
			c-1.14-7.752,4.891-11.971,10.41-15.992c2.193-1.596,4.922-2.754,6.524-4.801c2.831-3.62,5.352-6.97,1.955-12.562
			C284.426,21.742,287.883,10.634,301.913,2.043z M570.841,322.771c-0.002-25.448-11.563-44.265-30.644-49.884
			c-25.514-7.513-52.478,8.916-57.684,35.145c-3.079,15.501-9.224,21.707-24.094,24.341c-13.214,2.339-23.574,22.959-15.482,32.491
			c15.066,17.762,22.741,38.731,29.77,60.349c2.073,6.371,6.816,12.007,10.926,17.542c4.043,5.447,7.995,3.047,11.684-1.073
			c11.335-12.654,18.56-29.044,36.074-36.061c9.437-3.779,12.795-14.626,18.252-22.602
			C561.997,364.963,571.445,345.543,570.841,322.771z"/>
		<path fill="none" d="M301.913,2.043c-14.03,8.59-17.487,19.699-9.18,33.37c3.397,5.591,0.876,8.941-1.955,12.562
			c-1.602,2.047-4.331,3.205-6.524,4.801c-5.519,4.021-11.55,8.239-10.41,15.992c1.123,7.623,8.626,8.143,14.297,9.329
			c9.364,1.956,6.649,8.59,6.538,14.327c-0.016,0.838-1.674,1.696-1.616,2.475c1.554,21.028-22.783,27.251-26.107,45.701
			c-0.813,4.504-2.78,9.056-3.474,13.703c-2.489,16.67-13.464,27.271-25.814,36.979c-0.267,0.209-0.666,0.341-0.806,0.61
			c-9.838,18.855-26.792,30.329-42.903,43.11c-12.006,9.526-11.385,19.643-2.958,32.416c5.029,7.623,10.063,14.846,16.895,21.214
			c7.645,7.125,6.402,17.779,4.748,26.992c-2.242,12.487-8.614,22.985-17.459,32.638c-11.942,13.032-25.407,25.254-31.574,42.714
			c-2.384,6.749-6.284,9.641-14.528,9.115c-30.241-1.919-44.605-19.483-50.409-46.779c-4.429-20.832-7.28-41.991-11.395-62.9
			c-1.343-6.82-0.962-13.537-1.161-20.302c-0.208-7.118-3.678-11.661-10.349-13.286c-16.777-4.083-33.809-2.294-50.734-1.301
			c-4.003,0.233-8.192,2.955-9.013,7.299c-0.816,4.32,3.292,6.192,6.443,8.213c18.073,11.589,34.035,24.568,37.18,48.014
			c2.365,17.632,1.727,35.019-0.736,52.528c-4.742,33.709-0.046,64.836,28.096,87.744c18.502,15.062,40.735,22.794,63.901,27.329
			c6.309,1.238,8.965,4.163,11.51,9.607c9.708,20.778,18.188,42.207,35.574,58.604c9.344,8.813,6.697,24.259-4.398,31.536
			c-5.828,3.822-6.258,9.459-6.439,14.943c-0.188,5.682,4.733,7.576,9.462,9.125c13.361,4.372,22.577,5.898,27.07-14.114
			c2.506-11.153,6.935-21.862,10.027-32.905c1.71-6.108,4.071-7.868,10.781-5.998c23.612,6.578,47.751,9.983,72.351,9.342
			c18.693-0.486,37.044-3.759,55.321-7.301c14.236-2.758,14.043-3.047,18.906,9.999c4.491,12.043,9.54,23.882,13.833,35.99
			c1.494,4.218,5.309,6.088,7.35,9.564c-134.075,0-268.151-0.096-402.225,0.244c-7.909,0.02-8.644-2.291-8.638-9.115
			C1.579,407.78,1.607,209.39,1.316,10.999c-0.012-8.173,2.418-9.146,9.648-9.125C107.946,2.127,204.93,2.043,301.913,2.043z"/>
		<path fill="none" d="M426.557,615.043c13.117-4.745,16.823-12.721,8.142-21.373c-23.288-23.209-9.558-37.764,6.636-56.062
			c4.304-4.863,8.134-8.241,8.71-15.776c1.203-15.716,14.691-20.629,27.468-11.082c6.646,4.964,10.989,3.647,13.259-4.658
			c5.009-18.321,14.046-34.557,25.554-49.401c4.251-5.486,8.536-11.528,16.433-12.961c2.074-0.375,4.341-2.234,5.623-4.05
			c15.147-21.465,35.913-38.614,48.241-62.198c14.003-26.792,20.188-54.615,8.416-83.97c-4.354-10.843-6.668-22.493-12.913-32.588
			c-1.188-1.917-0.465-3.781,0.347-5.789c4.431-10.963-0.398-19.134-11.396-16.179c-20.452,5.496-41.455,0.771-61.688,5.631
			c-10.632,2.554-19.668,7.932-28.078,14.958c-8.416,7.03-14.356,15.616-20.507,24.546c-5.548,8.053-14.99,12.996-21.023,21.395
			c-3.263,4.544-10.22,5.001-16.19,4.181c-3.992-0.549-8.941-0.755-10.203-5.216c-1.265-4.464-0.882-9.261,2.438-13.501
			c7.267-9.281,16.729-11.77,27.884-10.149c5.582,0.812,12.816,4.977,16.438,0.153c4.769-6.347,5.521-15.077,3.902-23.373
			c-2.558-13.126-6.459-17.254-19.977-18.947c-5.354-0.668-9.559-2.402-13.78-5.595c-4.539-3.43-9.376-6.411-15.373-7.521
			c-8.348-1.546-13.415-7.796-16.789-15.062c-5.195-11.187-12.474-20.326-21.819-28.549c-9.524-8.379-11.669-21.557-13.714-33.138
			c-2.541-14.37-7.758-25.5-20.542-32.626c-5.862-3.267-9.378-7.776-8.736-14.784c0.57-6.27-6.418-9.426-5.49-17.059
			c0.794-6.525,1.696-9.237,7.789-9.963c5.241-0.625,10.381-1.692,11.678-7.85c1.44-6.838-2.919-10.784-8.029-13.96
			c-4.002-2.484-7.945-4.565-10.999-8.678c-2.439-3.294-2.987-4.679-0.768-8.409c8.138-13.663,4.806-24.803-9.232-33.397
			c96.037,0,192.073,0.096,288.108-0.2c7.001-0.021,8.378,1.377,8.37,8.373c-0.241,201.609-0.196,403.217-0.196,604.826
			C551.882,615.043,489.22,615.043,426.557,615.043z"/>
		<path fill="none" d="M570.852,322.774c0.595,22.769-8.854,42.188-21.209,60.243c-5.457,7.976-8.815,18.822-18.252,22.602
			c-17.516,7.017-24.739,23.405-36.074,36.061c-3.688,4.12-7.641,6.521-11.684,1.073c-4.108-5.535-8.853-11.171-10.926-17.542
			c-7.027-21.617-14.702-42.587-29.771-60.349c-8.091-9.532,2.271-30.152,15.483-32.491c14.87-2.634,21.015-8.84,24.094-24.341
			c5.206-26.228,32.17-42.656,57.684-35.144C559.277,278.506,570.839,297.323,570.852,322.774z"/>
	</g>
</g>
</svg>
