<?xml version="1.0" encoding="utf-8"?>
<!-- Generator: Adobe Illustrator 16.0.0, SVG Export Plug-In . SVG Version: 6.00 Build 0)  -->
<!DOCTYPE svg PUBLIC "-//W3C//DTD SVG 1.1//EN" "http://www.w3.org/Graphics/SVG/1.1/DTD/svg11.dtd">
<svg version="1.1" id="Layer_1" xmlns="http://www.w3.org/2000/svg" xmlns:xlink="http://www.w3.org/1999/xlink" x="0px" y="0px"
	 width="1496px" height="1775px" viewBox="0 0 1496 1775" enable-background="new 0 0 1496 1775" xml:space="preserve">
<g>
	<g>
		<path fill-rule="evenodd" clip-rule="evenodd" fill="#FFFFFF" d="M747,1c250,0,500,0,750,0c0,591.667,0,1183.333,0,1775
			c-498.667,0-997.333,0-1496,0C1,1184.333,1,592.667,1,1c241,0,482,0,723,0c-0.495,0.322-0.975,0.898-1.487,0.928
			c-6.933,0.402-13.872,0.702-20.807,1.08c-5.937,0.324-11.891,0.505-17.797,1.124c-10.923,1.145-21.793,3.233-32.731,3.632
			c-7.31,0.267-13.622,2.503-18.818,6.747c-10.836,8.853-12.688,14.187-8.263,25.519c4.918,12.591,9.832,25.185,14.928,37.703
			c2.88,7.074,5.473,14.385,9.346,20.906c6.655,11.207,13.909,22.096,21.484,32.709c6.048,8.473,12.83,16.436,19.521,24.429
			c3.178,3.796,5.83,7.469,7.019,12.576c1.142,4.908,3.782,9.617,6.475,13.975c2.908,4.706,7.376,8.523,9.89,13.387
			c13.122,25.385,12.021,52.093,6.989,79.071c-3.404,0.447-6.318,1.083-9.25,1.176c-28.89,0.915-57.78,1.766-86.673,2.581
			c-18.876,0.532-37.756,0.939-56.632,1.476c-7.26,0.206-14.514,0.61-21.771,0.928c-15.623,0.684-31.27,1.051-46.854,2.242
			c-4.949,0.378-11.088-0.862-14.651,4.763c5.259,4.505,10.369,6.292,20.706,5.895c4.45-0.171,6.287,1.708,7.313,5.312
			c2.083,7.323,4.424,14.6,5.976,22.038c1.887,9.04,7.262,16.311,12.144,23.54c3.899,5.773,9.884,10.478,15.733,14.508
			c7.095,4.888,14.582,10.491,22.686,12.342c14.023,3.202,28.627,4.86,43.033,5.189c31.815,0.728,63.659,0.227,95.492,0.227
			c7.176,0,14.353,0,20.409,0c4.317,11.485-2.646,21.863-0.196,33.047c-20.033,0-39.011,0-57.989,0
			c-0.002,0.586-0.004,1.171-0.006,1.757c13.453,0,26.906,0,40.559,0c0.11,1.511,0.164,2.31,0.229,3.107
			c0.518,6.39,0.201,12.988,1.739,19.123c2.868,11.448,7.338,22.496,10.185,33.947c3.849,15.477,7.125,31.115,10.027,46.799
			c2.467,13.333,4.843,26.771,5.832,40.267c1.191,16.278,0.899,32.666,1.209,49.008c0.4,21.166-1.637,42.16-5.061,63.001
			c-2.161,13.152-5.013,26.192-7.646,39.265c-2.119,10.521-6.815,20.426-6.645,31.577c0.039,2.553,1.73,6.857-2.888,9.249
			c-5.329,2.759-9.099,3.282-12.074-2.829c-0.72-1.479-2.521-2.494-3.948-3.554c-3.328-2.47-5.38-5.259-4.938-9.86
			c0.179-1.858-1.597-4.087-2.883-5.857c-1.763-2.427-4.038-4.476-5.857-6.867c-4.04-5.313-7.815-10.827-11.919-16.088
			c-3.575-4.581-7.536-8.859-11.175-13.394c-6.667-8.308-13.059-16.842-19.895-25.005c-3.283-3.921-5.846-7.532-2.42-12.232
			c-2.415-2.504-4.566-4.673-6.645-6.909c-1.657-1.783-3.105-3.775-4.868-5.441c-1.519-1.436-4.175-2.19-4.884-3.859
			c-1.923-4.526-4.101-4.365-7.684-1.909c-1.095,0.751-4.204,0.497-4.907-0.426c-4.813-6.319-10.704-11.849-13.259-19.833
			c-3.169-9.902-10.313-16.247-19.897-20.164c-6.433-2.628-12.988-5.255-16.265-12.275c-6.444-13.809-14.307-26.534-24.616-38.049
			c-7.854-8.773-16.919-15.447-26.635-21.528c-7.252-4.539-14.683-8.841-17.13-17.729c-2.026-7.357-6.15-13.146-11.41-18.453
			c-5.283-5.33-10.179-11.043-15.361-16.476c-7.892-8.271-15.792-16.538-23.881-24.614c-3.219-3.214-6.738-2.767-9.991,0.447
			c-4.779,4.724-5.645,4.591-10.541-0.327c-6.526-6.554-13.146-13.016-19.763-19.48c-6.272-6.128-12.669-12.13-18.86-18.338
			c-3.914-3.925-6.155-4.142-9.645-1.096c-3.738-1.113-6.955-1.889-10.024-3.055c-1.763-0.671-3.883-1.598-4.808-3.063
			c-3.12-4.942-6.925-8.073-13.14-8.022c-1.776,0.015-4.295-1.194-5.217-2.642c-2.891-4.542-6.782-6.096-11.967-6.396
			c-2.536-0.146-5.41-1.655-7.348-3.411c-3.981-3.609-8.593-6.084-13.62-5.087c-3.331,0.661-4.759-0.357-6.73-2.227
			c-4.05-3.84-8.439-6.725-14.468-4.253c-0.878,0.36-2.398,0.004-3.254-0.57c-5.74-3.849-11.864-4.294-18.739-4.851
			c-8.023-0.65-15.744-4.088-24.361-2.782c-4.481,0.679-9.488-2.026-13.947-1.299c-3.925,0.641-7.389,0.078-11.11,0.01
			c-9.481-0.173-19.7-0.673-28.281,2.543c-7.995,2.995-17.436-0.817-24.095,6.088c-10.018-0.452-18.335,5.197-27.535,7.684
			c-2.332,0.63-4.823,1.017-6.913,2.131c-7.366,3.926-14.928,7.628-21.773,12.346c-7.414,5.109-14.819,10.346-21.948,15.892
			c-6.915,5.38-11.521,12.98-19.053,17.395c-0.773,0.453-1.596,1.088-2.009,1.849c-3.495,6.439-9.965,10.342-13.173,17.449
			c-3.269,7.24-9.576,13.109-14.536,19.591c-0.188,0.245-0.206,0.62-0.304,0.935c-2.309,7.431-3.588,9.022-9.809,12.204
			c2.718,3.221,2.693,11.102-0.933,12.223c-4.997,1.544-2.419,4.888-3.256,7.341c-0.351,1.029-0.059,2.277-0.059,3.584
			c-1.442,0.282-2.636,0.517-3.831,0.751c0.276,0.332,0.552,0.663,0.828,0.995c-0.875,1.333-1.749,2.666-2.681,4.085
			c0.942,3.041,3.758,6.242,0.136,9.878c-1.179,1.184-2.108,3.001-2.35,4.646c-0.395,2.694,0.327,5.595-0.298,8.197
			c-0.467,1.941-2.317,3.551-3.552,5.308c-1.243,1.18-2.394,4.077-1.556,4.866c4.324,4.075,0.173,8.169-0.213,11.761
			c-0.397,3.699-1.464,7.766-2.026,11.619c-0.584,4.003,0.462,8.216,0.413,12.333c-0.068,5.69-0.756,11.378-0.706,17.063
			c0.084,9.664,0.552,19.323,0.824,28.985c0.071,2.515,0.002,5.033,0.024,7.55c0.018,2.025,0.107,4.05,0.109,6.075
			c0.004,4.434-0.654,8.598,1.508,13.187c2.359,5.007,4.99,10.515,3.49,16.738c-0.548,2.274-0.691,5.931,0.632,7.119
			c3.358,3.016,3.027,6.526,3.316,10.229c0.187,2.394,1.001,4.74,1.559,7.103c0.437,1.852,1.708,3.945,1.22,5.495
			c-1.397,4.438-0.306,7.954,2.454,11.363c0.543,0.671,0.523,1.825,0.691,2.769c1.503,8.418,2.882,16.859,4.524,25.25
			c0.954,4.873,2.298,9.672,3.528,14.489c0.28,1.096,0.529,2.419,1.273,3.142c6.581,6.387,3.402,16.381,8.67,23.223
			c0.166,0.215,0.033,0.652,0.062,0.983c0.444,5.2-0.151,10.806,5.694,13.847c0.393,0.204,0.314,1.584,0.228,2.393
			c-0.453,4.241,2.178,7.165,3.752,10.712c2.861,6.446,4.868,13.267,8.139,19.67c3.608,7.065,6.135,14.683,9.168,22.044
			c0.177,0.429,0.613,0.854,1.036,1.062c2.936,1.434,3.806,3.769,4.39,6.969c0.509,2.792,2.805,5.28,4.412,7.84
			c0.938,1.495,2.887,2.825,2.965,4.305c0.241,4.559,2.603,7.62,5.746,10.451c0.949,0.854,2.223,2.013,2.276,3.084
			c0.237,4.807,3.332,7.683,6.452,10.646c0.95,0.902,2.403,1.933,2.478,2.985c0.38,5.344,4.667,7.73,7.376,11.43
			c3.317,4.529,3.725,11.163,9.791,13.961c0.251,9.233,11.35,11.925,12.519,20.67c0.099,0.74,1.452,1.276,2.145,1.982
			c1.487,1.517,3.414,2.849,4.281,4.674c1.943,4.088,3.849,7.815,8.958,8.643c0.84,0.136,2.099,1.881,2.025,2.788
			c-0.451,5.52,3.433,7.203,7.362,9.06c1.041,0.492,2.621,1.568,2.59,2.32c-0.202,4.972,2.365,7.457,6.732,9.051
			c1.37,0.501,2.315,2.263,3.364,3.522c2.221,2.669,4.36,5.407,6.578,8.079c1.106,1.332,2.275,2.617,3.478,3.863
			c5.722,5.929,11.421,11.88,17.224,17.729c1.986,2.001,4.818,3.368,6.261,5.656c2.43,3.854,5.354,6.128,10.182,5.839
			c0.481,5.521,3.309,8.975,8.514,10.65c1.202,0.387,2.032,1.89,3.067,2.842c5.591,5.147,11.185,10.292,16.805,15.407
			c0.47,0.428,1.191,0.566,1.708,0.956c5.759,4.344,11.502,8.71,17.242,13.08c0.11,0.084,0.074,0.348,0.181,0.448
			c5.51,5.154,11.013,10.317,16.567,15.424c0.572,0.525,1.497,0.644,2.185,1.069c1.495,0.925,2.987,1.865,4.398,2.909
			c3.186,2.355,6.333,4.763,9.474,7.178c1.292,0.994,2.508,2.088,3.792,3.093c6.165,4.822,12.34,9.633,18.521,14.435
			c0.249,0.193,0.628,0.21,0.906,0.377c2.035,1.216,4.094,2.396,6.08,3.687c6.253,4.064,12.476,8.177,18.726,12.247
			c0.246,0.16,0.709-0.023,0.97,0.129c2.241,1.306,4.461,2.649,6.684,3.986c2.219,1.334,4.4,2.734,6.662,3.99
			c1.904,1.059,4.621,1.455,5.705,3.024c2.198,3.18,5.085,4.269,8.537,5.079c1.95,0.459,3.744,1.688,5.534,2.701
			c1.614,0.914,3.219,2.99,4.67,2.855c7.7-0.713,11.853,8.938,19.978,6.613c0.343-0.098,1.021,0.76,1.46,1.248
			c5.537,6.164,14.325,4.383,20.719,8.466c0.354,0.227,1.03-0.109,1.473,0.05c2.349,0.847,4.777,1.563,6.977,2.712
			c3.105,1.621,5.592,4.424,9.878,2.537c1.318-0.581,3.688,1.402,5.633,2.036c6.868,2.238,13.761,4.406,20.656,6.562
			c0.206,0.064,0.58-0.502,0.83-0.465c2.312,0.34,4.625,0.685,6.911,1.155c1.896,0.391,3.848,1.585,5.612,1.325
			c6.146-0.905,10.642,1.708,15.701,7.033c-3.516,0.235-5.969,0.65-8.383,0.489c-2.356-0.156-5.097-1.927-6.921-1.175
			c-3.802,1.566-7.041,0.444-10.632-0.086c-2.694-0.397-5.575,0.575-8.384,0.806c-1.485,0.122-3.001-0.151-4.49-0.053
			c-4.099,0.27-8.194,0.943-12.284,0.89c-4.139-0.054-8.267-0.809-12.405-1.191c-0.427-0.039-0.885,0.503-1.344,0.534
			c-1.363,0.09-2.952,0.523-4.068,0.001c-7.407-3.468-15.229,3.008-22.552-1.054c-0.095-0.052-0.305,0.087-0.455,0.15
			c-4.069,1.739-7.946,0.803-12.214,0.278c-5.648-0.694-11.482,0.66-17.49,0.168c-4.051-0.332-8.579,2.567-13.835,1.633
			c-4.765-0.848-9.958,2.454-15.061-0.21c-0.591-0.309-1.851,0.435-2.695,0.887c-3.295,1.764-6.51,2.832-10.326,1.184
			c-1.547-0.668-3.629-0.259-5.448-0.107c-7.178,0.596-14.366,1.138-21.516,1.995c-3.954,0.474-7.808,1.946-11.76,2.231
			c-6.005,0.436-11.875,1.026-17.829,2.27c-3.334,0.696-7.132-0.922-10.494,1.87c-0.949,0.789-3.105,0.196-4.701,0.115
			c-1.298-0.066-2.671-0.692-3.865-0.422c-6.81,1.543-13.574,3.287-20.358,4.946c-1.414,0.345-2.836,0.664-4.268,0.92
			c-5.771,1.028-11.608,1.769-17.31,3.097c-9.138,2.128-18.185,4.644-27.274,6.983c-4.252,1.095-8.691,1.712-12.731,3.329
			c-9.709,3.887-19.025,8.838-28.882,12.261c-14.98,5.202-27.772,14.189-40.89,22.523c-16.824,10.689-31.146,24.438-43.892,39.731
			c-12.043,14.451-21.391,30.563-28.71,47.898c-7.51,17.788-10.473,36.667-12.735,55.56c-1.912,15.964-0.297,32.106,4.388,47.484
			c5.918,19.429,12.745,38.447,26.663,54.277c9.356,10.641,18.828,20.884,30.426,29.069c5.34,3.769,10.359,8.022,15.87,11.511
			c5.311,3.362,11.114,5.936,16.614,9.011c5.781,3.232,11.296,6.979,17.217,9.916c11.859,5.882,23.838,11.54,35.926,16.935
			c5.739,2.562,11.841,4.31,17.781,6.417c6.829,2.423,13.708,4.716,20.479,7.288c7.254,2.755,14.221,6.476,21.663,8.47
			c7.405,1.985,14.025,4.852,19.83,9.779c1.107,0.939,2.378,1.839,3.729,2.312c6.861,2.404,13.917,4.322,20.596,7.14
			c2.639,1.114,5.019,3.786,6.583,6.324c4.378,7.103,9.892,12.941,17.725,15.813c8.023,2.943,16.384,4.949,24.537,7.555
			c6.585,2.104,13.051,4.58,19.628,6.711c3.076,0.997,6.441,1.196,9.416,2.398c9.816,3.966,19.953,5.727,30.513,6.428
			c6.187,0.41,13.218,1.423,18.171,4.717c19.986,13.296,41.052,22.186,65.551,21.164c2.495-0.104,5.354,0.442,7.5,1.651
			c5.106,2.876,9.599,6.942,14.861,9.418c9.945,4.677,19.97,9.658,30.507,12.456c8.759,2.326,18.31,1.61,27.49,2.447
			c2.527,0.231,5.324,0.649,7.414,1.933c6.496,3.988,12.475,8.858,19.111,12.568c5.503,3.076,11.467,6.235,17.559,7.152
			c10.883,1.639,22.039,1.372,33.033,2.412c4.063,0.384,8.442,1.445,11.904,3.501c15.197,9.025,31.063,15.234,49.119,14.438
			c2.897-0.127,6.062,0.049,8.704,1.092c6.132,2.419,12.361,3.128,18.858,2.883c5.325-0.201,10.722-0.512,15.979,0.123
			c3.694,0.445,7.52,1.875,10.729,3.796c5.381,3.222,10.408,7.339,17.145,5.923c3.085-0.648,5.805-3.281,8.874-3.717
			c12.377-1.757,23.854,1.223,33.862,8.632c6.193,4.584,13.302,7.871,20.374,6.759c7.424-1.168,13.952-6.126,18.507-12.745
			c6.62-9.622,5.626-20.589,4.51-31.144c-0.713-6.737-5.166-11.96-11.607-15.49c-4.615-2.531-8.537-0.756-12.956-0.61
			c-7.036,0.231-16.085,4.345-20.315-6.049c-0.364-0.896-1.69-1.588-2.721-1.993c-7.431-2.922-12.29-8.627-16.785-14.884
			c-1.338-1.862-3.369-3.996-5.417-4.432c-5.575-1.187-11.315-1.878-17.016-2.088c-3.779-0.14-6.63-1.2-9.121-3.989
			c-6.004-6.723-13.431-11.393-21.756-14.761c-5.25-2.124-11.028-3.62-15.497-6.872c-13.925-10.132-29.425-14.174-46.344-14.705
			c-3.381-0.106-6.925-2.423-9.967-4.382c-5.486-3.534-10.341-8.121-16.008-11.287c-15.763-8.808-32.645-13.386-50.928-12.264
			c-2.889,0.177-6.883-0.538-8.668-2.438c-7.672-8.158-17.765-12.352-27.597-16.06c-13.089-4.938-26.81-8.701-41.269-7.483
			c-2.247,0.189-4.87-0.737-6.898-1.889c-8.541-4.849-16.584-10.7-25.438-14.843c-14.713-6.884-30.311-10.504-46.802-9.265
			c-2.238,0.168-5.274-0.509-6.78-1.981c-9.475-9.27-21.612-13.969-33.394-18.675c-18.267-7.296-37.159-13.024-55.782-19.429
			c-8.88-3.055-16.965-1.652-24.177,4.366c-4.064,3.391-8.477,4.584-13.576,2.728c-4.7-1.712-9.675-2.873-14.07-5.159
			c-4.273-2.223-8.229-2.143-12.269-0.396c-4.781,2.066-9.26,3.543-14.454,0.831c-3.52-1.838-7.611-2.551-11.386-3.936
			c-8.003-2.935-15.967-5.978-23.946-8.98c-1.065-0.401-2.102-0.893-3.187-1.227c-5.218-1.602-10.635-2.722-15.633-4.835
			c-9.693-4.099-19.066-8.949-28.729-13.123c-15.726-6.794-30.619-14.841-44.732-24.715c-13.989-9.787-26.86-20.603-35.331-35.316
			c-5.102-8.862-9.192-19.09-10.527-29.13c-1.518-11.423-2.127-23.525,1.598-34.967c3.296-10.123,6.053-20.623,10.927-29.978
			c5.247-10.07,12.425-19.189,19.229-28.377c7.41-10.005,15.851-19.07,26.502-25.865c6.872-4.384,13.278-9.553,20.364-13.53
			c6.359-3.568,13.359-5.997,20.082-8.915c5.456-2.368,10.909-4.743,16.394-7.041c0.726-0.304,1.677-0.027,2.456-0.254
			c4.96-1.447,9.902-2.958,14.849-4.452c1.665-0.503,3.339-0.978,4.985-1.537c2.406-0.818,4.789-1.701,7.182-2.557
			c1.338-0.479,2.643-1.208,4.02-1.393c5.824-0.778,11.958-0.532,17.408-2.362c3.846-1.292,7.229-2.646,11.277-1.779
			c0.648,0.139,1.637-0.415,2.203-0.937c3.356-3.094,7.421-3.155,11.608-2.998c1.464,0.056,2.957-0.19,4.412-0.439
			c6.709-1.148,13.383-3.064,20.12-3.309c5.766-0.209,11.48-3.338,17.504-0.433c1.18,0.569,3.64-1.608,5.551-2.42
			c0.917-0.391,2.175-1.064,2.866-0.737c8.069,3.812,15.678-3.383,23.652-0.916c0.16,0.049,0.482-0.411,0.724-0.64
			c2.21-2.104,4.392-2.159,6.976-0.417c3.094,2.086,6.092,2.061,8.76-1.124c0.691-0.825,2.745-1.659,3.318-1.26
			c7.042,4.896,14.972-3.063,22.037,1.587c0.616,0.405,2.297-1.111,3.548-1.295c1.889-0.276,4.241-0.886,5.676-0.076
			c3.582,2.022,6.411,1.812,9.372-0.959c0.839-0.785,2.602-1.641,3.378-1.273c8.031,3.799,16.508,0.111,24.672,1.602
			c1.663,0.304,3.647-1.563,5.443-1.485c2.829,0.121,5.605,1.419,8.437,1.554c9.222,0.438,18.641-1.986,27.606,2.039
			c0.278,0.125,0.735,0.148,0.982,0.003c4.857-2.862,9.665-1.658,14.553-0.028c1.198,0.399,2.653-0.039,3.979,0.064
			c7.87,0.611,15.933-2.042,23.671,1.725c1.748,0.852,4.256,0.144,6.414,0.145c1.535,0.001,3.088-0.167,4.603,0.006
			c5.677,0.647,11.341,1.402,17.009,2.12c6.618,0.837,12.241-2.328,18.141-4.434c0.917-0.327,2.168-0.386,3.051-0.034
			c5.981,2.388,11.973,4.341,18.6,3.517c4.988-0.62,10.027-0.829,15.279-1.239c0.476,9.949-2.94,18.096-6.437,26.174
			c-1.141,2.635-2.522,5.406-4.521,7.376c-3.975,3.915-8.218,7.659-12.798,10.827c-3.919,2.711-3.302,7.225-5.395,10.528
			c-7.213,11.38-15.271,22.293-18.764,35.634c-0.174,0.666-0.978,1.141-1.3,1.797c-2.914,5.937-7.041,11.62-8.41,17.902
			c-2.865,13.153-4.451,26.602-6.181,39.978c-0.604,4.682,0.133,9.519-0.12,14.265c-0.824,15.455,4.401,29.653,9.162,43.887
			c3.977,11.889,11.353,21.892,18.803,31.867c12.238,16.388,28.121,27.988,46.69,35.847c13.134,5.558,26.647,10.258,40.146,14.894
			c6.587,2.262,13.482,3.703,20.313,5.166c13.196,2.825,26.548,4.989,39.627,8.261c6.248,1.563,12.174,2.499,18.361,0.766
			c4.263-1.194,8.259-1.87,12.103,1.437c1.005,0.864,3.18,0.569,4.798,0.476c2.607-0.151,5.194-0.622,7.799-0.879
			c6.848-0.678,13.709-1.224,20.546-1.996c4.522-0.512,9.002-1.392,13.52-1.952c1.08-0.135,2.239,0.335,3.358,0.549
			c2.382,0.456,4.78,1.403,7.14,1.311c12.691-0.498,25.381-1.125,38.053-1.983c5.036-0.341,10.03-1.358,15.033-2.133
			c3.521-0.546,7.034-1.155,10.536-1.814c9.259-1.743,18.548-3.355,27.75-5.364c5.52-1.205,10.813-3.531,16.358-4.512
			c9.55-1.691,18.046-5.32,25.15-11.895c3.189-2.952,6.526-4.387,11.009-4.394c3.62-0.005,7.752-0.688,10.756-2.534
			c8.015-4.926,16.069-10.043,23.104-16.226c6.049-5.315,11.003-11.986,15.903-18.464c4.435-5.861,7.089-12.994,10.838-19.104
			c5.219-8.504,7.503-17.672,9.876-26.729c2.425-9.252,2.284-19.173,3.332-28.794c0.187-1.711,0.695-3.388,1.01-4.866
			c3.025,1.213,5.046,2.322,7.208,2.835c6.875,1.631,14.091,2.279,20.624,4.758c5.923,2.248,11.268,5.041,17.965,5.71
			c7.089,0.708,13.829,4.497,20.85,6.488c3.252,0.923,7.04,0.115,10.184,1.226c11.069,3.908,22.428,5.701,34.097,5.985
			c0.593,0.014,1.286,0.398,1.744,0.817c4.589,4.196,10.447,3.946,15.524,2.764c5.258-1.226,6.639,4.249,10.65,4.283
			c4.01,0.035,8.041-0.237,12.023,0.097c2.82,0.235,5.545,1.447,8.364,1.885c4.677,0.727,9.384,1.325,14.1,1.703
			c3.631,0.29,7.606,1.067,10.857-0.044c3.169-1.083,4.85,0.252,7.423,0.95c4.24,1.152,8.94,0.606,13.446,0.781
			c1.677,0.065,3.738-0.459,4.96,0.323c4.77,3.055,9.379,3.346,14.335,0.607c1.203-0.664,3.221-1.46,4.063-0.928
			c10.215,6.453,21.533-1.397,31.869,2.609c0.271,0.104,0.773,0.053,0.961-0.134c3.729-3.712,8.054-2.523,12.524-1.908
			c7.655,1.054,15.311-3.021,23.131-0.09c1.425,0.534,3.609-1.109,5.483-1.59c2.107-0.54,4.441-1.657,6.358-1.197
			c5.518,1.324,10.628,1.27,15.634-1.68c0.83-0.488,2.215,0.024,3.338-0.032c4.018-0.204,8.065-0.212,12.038-0.755
			c4.304-0.589,8.525-1.76,12.808-2.537c1.456-0.264,3.015,0.066,4.481-0.161c8.022-1.244,16.071-2.376,24.033-3.939
			c6.804-1.337,13.593-2.91,20.225-4.918c6.54-1.979,12.892-4.593,19.295-7.009c6.444-2.43,13.388-4.088,19.159-7.635
			c10.461-6.431,21.931-11.803,29.479-22.127c3.787-5.181,7.457-10.491,10.663-16.041c4.238-7.336,2.85-15.603,3.104-23.59
			c0.288-9.046-1.514-16.988-6.436-25.152c-8.555-14.192-20.487-24.195-34.153-32.522c-8.114-4.943-16.744-9.07-25.282-13.28
			c-8.094-3.989-16.31-7.746-24.585-11.345c-6.435-2.799-13.033-5.223-19.578-7.765c-5.674-2.204-11.354-4.395-17.08-6.454
			c-1.038-0.373-2.335,0.047-3.476-0.131c-1.592-0.247-3.171-0.638-4.717-1.099c-3.054-0.911-6.089-1.888-9.116-2.886
			c-1.202-0.396-2.368-0.909-3.542-1.391c-2.072-0.852-4.093-1.864-6.219-2.546c-2.763-0.886-5.638-1.415-8.41-2.272
			c-6.017-1.859-11.99-3.856-18.005-5.72c-0.755-0.233-1.659,0.064-2.485,0.005c-1.969-0.143-3.955-0.229-5.894-0.567
			c-2.067-0.36-4.076-1.043-6.134-1.473c-1.9-0.397-4.192-0.089-5.686-1.058c-6.669-4.326-14.494-3.104-21.651-4.957
			c-3.085-0.798-6.161-1.67-9.287-2.263c-2.579-0.489-5.338-0.242-7.821-0.979c-6.156-1.827-12.352-2.7-18.787-2.711
			c-3.441-0.005-6.877-1.179-10.325-1.769c-1.183-0.201-2.423-0.098-3.586-0.361c-2.467-0.562-4.869-1.471-7.357-1.863
			c-2.278-0.359-4.674,0.015-6.948-0.357c-6.876-1.123-13.683-2.744-20.587-3.604c-5.007-0.623-10.316,1.477-15.046-1.969
			c-0.765-0.557-2.426-0.45-3.418-0.038c-7.048,2.927-13.896-4.963-20.929-0.326c-0.059,0.038-0.265-0.223-0.415-0.241
			c-9.118-1.13-17.97-3.387-27.449-3.007c-5.826,0.233-11.725-1.888-18.148-1.247c-3.835,0.383-8.656-0.086-12.702-0.731
			c-5.729-0.914-11.035-2.636-17.087-1.424c-3.51,0.702-7.442-0.624-11.173-1.127c-4.525-0.61-9.349-2.607-13.468-1.616
			c-4.188,1.008-7.485,0.564-11.535-0.007c-6.106-0.86-12.266-0.354-18.533-2.052c-5.466-1.481-11.681-0.667-17.509-0.184
			c-3.937,0.326-7.339,0.823-11.07-1.621c-1.598-1.047-5.046,0.831-7.676,1.223c-1.586,0.236-3.266,0.438-4.812,0.155
			c-1.193-0.219-2.225-1.731-3.363-1.777c-6.188-0.247-12.419,1.235-18.483-1.902c-1.783-0.923-4.752,0.663-7.188,0.737
			c-4.679,0.143-9.771,1.192-13.952-0.26c-6.033-2.096-11.644-2.104-17.71-1.177c-4.388,0.671-3.768-4.065-5.451-6.305
			c-3.222-4.287-6.314-8.673-9.375-13.077c-0.503-0.724-0.571-2.528-0.832-2.527c-6.041,0.035-4.854-6.058-7.287-8.972
			c-2.529-3.03-3.533-7.551-4.526-11.587c-1.032-4.189-1.116-8.604-1.915-12.865c-0.231-1.238-1.493-2.285-2.443-3.649
			c0.189-0.201,0.724-0.769,0.716-0.76c-2.833-3.152-5.304-5.956-7.834-8.705c-3.049-3.312-6.985-6.139-8.992-9.981
			c-2.063-3.952-3.019-8.855-3.14-13.378c-0.38-14.156-0.142-28.329-0.128-42.495c0.001-1.16-0.257-2.523,0.245-3.443
			c2.328-4.271,3.036-8.378-0.062-12.617c-0.392-0.537-0.193-1.651-0.007-2.437c0.531-2.226,1.227-4.412,1.805-6.629
			c0.884-3.385,1.778-6.769,2.562-10.179c0.541-2.356,1.281-4.757,1.268-7.134c-0.032-5.632-0.692-11.263-0.667-16.893
			c0.029-6.292,0.569-12.581,0.813-18.874c0.085-2.188-0.157-4.387-0.068-6.573c0.242-5.974,0.479-11.951,0.943-17.909
			c0.142-1.827,0.446-4.288,1.647-5.272c4.703-3.853,6.521-8.656,6.609-14.554c0.027-1.754,1.264-3.493,1.966-5.231
			c1.622-4.01,4.743-8.12,4.467-11.991c-0.275-3.853,0.454-5.968,2.897-8.495c4.841-5.008,5.689-11.042,2.533-17.074
			c-0.937-1.791-2.48-3.397-4.07-4.689c-4.792-3.894-2.9-10.997-7.977-15.2c-2.882-2.387-3.71-7.466-5.025-11.476
			c-1.545-4.712-3.304-9.519-3.73-14.393c-0.629-7.184,0.576-14.561-0.362-21.675c-1.011-7.651-3.62-15.089-5.462-22.636
			c-0.267-1.092-0.653-2.687-0.118-3.357c4.735-5.942,9.667-11.729,14.541-17.561c0.257,0.536,0.514,1.073,0.771,1.61
			c1.844-0.268,4.368,0.146,5.423-0.91c7.259-7.271,13.861-15.224,21.379-22.197c5.328-4.943,11.553-9.912,19.382-9.209
			c6.97,0.626,11.109-2.864,14.921-7.432c2.663-3.191,4.519-6.72,2.636-11.305c-2.052-4.995-3.56-10.214-5.37-15.528
			c8.808-10.357,14.913-22.019,10.025-36.691c-0.536-1.609-1.942-3.549-3.417-4.125c-11.493-4.491-21.896-1.185-30.486,6.481
			c-5.661,5.051-11.248,6.842-17.768,3.898c-8.764-3.957-16.063-3.1-21.906,4.765c-1.249,1.68-2.633,4.344-2.151,6.044
			c2.502,8.829-1.669,15.805-6.364,22.104c-7.004,9.396-14.972,18.072-22.643,27.189c2.482,2.719,1.647,5.121-1.175,7.471
			c-1.698,1.413-2.93,3.377-4.573,4.87c-1.969,1.789-4.059,4.511-6.269,4.688c-2.591,0.207-5.934-1.289-7.902-3.153
			c-1.982-1.878-2.927-5.032-3.848-7.786c-0.572-1.711-0.04-3.759-0.374-5.588c-1.843-10.094-3.937-20.144-5.686-30.254
			c-2.89-16.708-6.361-33.368-8.135-50.202c-1.704-16.174-1.785-32.536-2.14-48.826c-0.184-8.426,0.54-16.876,0.95-25.31
			c0.169-3.5,0.502-6.998,0.911-10.479c1.309-11.128,2.348-22.302,4.13-33.354c2.074-12.863,4.436-25.708,7.394-38.393
			c2.72-11.662,6.214-23.156,9.715-34.618c2.415-7.906,5.183-15.727,8.23-23.412c3.352-8.453,4.309-17.046,3.22-26.053
			c-3.029-0.179-5.797-0.342-8.563-0.506c0.025-0.399,0.051-0.8,0.076-1.199c17.55-0.527,35.1-1.055,52.648-1.582
			c0.075-0.532,0.15-1.064,0.226-1.598c-1.362-0.44-2.794-1.4-4.075-1.231c-5.229,0.691-10.496,0.121-15.75,0.489
			c-15.833,1.109-31.794,0.4-48.011,0.4c-0.277-1.267-0.71-3.239-1.168-5.332c9.159,1.299,9.812,0.485,7.018-7.949
			c-0.695-2.097-1.709-4.313-1.577-6.411c0.268-4.255,1.217-8.467,1.954-13.131c-0.13,0.012,0.848-0.142,1.828-0.156
			c22.789-0.344,45.58-0.616,68.369-1.032c8.836-0.161,17.67-0.574,26.499-0.985c13.21-0.616,26.419-1.255,39.618-2.06
			c3.237-0.196,6.442-1.021,9.646-1.641c10.636-2.056,20.873-5.312,29.269-12.397c6.481-5.471,13.571-10.802,18.304-17.64
			c9.443-13.646,14.963-29.257,18.029-45.629c0.493-2.633,0.605-5.375,4.222-5.615c4.769-0.315,9.649-0.151,14.265-1.173
			c3.834-0.849,7.355-3.112,11.015-4.749c-0.141-0.91-0.28-1.819-0.421-2.729c-7.957-1.116-15.882-2.667-23.877-3.254
			c-13.763-1.013-27.564-1.616-41.36-2.041c-17.319-0.533-34.649-0.837-51.977-1.006c-12.851-0.125-25.705,0.148-38.559,0.199
			c-15.355,0.06-30.711,0.021-46.065,0.124c-8.646,0.059-17.292,0.433-25.936,0.343c-1.104-0.011-2.869-1.808-3.154-3.048
			c-0.914-3.965-1.517-8.041-1.797-12.105c-0.508-7.388-1.115-14.811-0.88-22.193c0.17-5.332,1.558-10.637,2.542-15.928
			c2.659-14.305,7.15-27.74,17.533-38.614c2.303-2.411,5.062-5.752,5.111-8.708c0.188-10.984,8.384-16.753,14.222-24.094
			c6.698-8.423,13.784-16.563,20.058-25.289c4.341-6.036,7.826-12.734,11.27-19.358c4.425-8.511,8.861-17.063,12.507-25.92
			c5.856-14.229,10.972-28.762,16.593-43.091c2.986-7.615-2.755-20.514-10.834-22.251c-14.156-3.044-28.359-6.213-42.711-7.906
			c-16.038-1.892-32.251-2.626-48.409-3.095c-24.76-0.719-49.538-0.779-74.309-1.118c-1.166-0.016-2.346,0.079-3.493-0.072
			C747.992,1.855,747.51,1.323,747,1z"/>
		<path fill-rule="evenodd" clip-rule="evenodd" d="M747,1c0.51,0.323,0.992,0.855,1.535,0.927c1.147,0.151,2.327,0.057,3.493,0.072
			c24.771,0.339,49.549,0.399,74.309,1.118c16.158,0.469,32.371,1.203,48.409,3.095c14.352,1.693,28.555,4.862,42.711,7.906
			c8.079,1.737,13.82,14.636,10.834,22.251c-5.621,14.329-10.736,28.861-16.593,43.091c-3.646,8.857-8.082,17.409-12.507,25.92
			c-3.443,6.624-6.929,13.322-11.27,19.358c-6.273,8.726-13.359,16.866-20.058,25.289c-5.838,7.341-14.034,13.109-14.222,24.094
			c-0.05,2.956-2.809,6.297-5.111,8.708c-10.383,10.874-14.874,24.31-17.533,38.614c-0.984,5.291-2.372,10.596-2.542,15.928
			c-0.235,7.383,0.372,14.806,0.88,22.193c0.28,4.064,0.883,8.141,1.797,12.105c0.285,1.24,2.051,3.037,3.154,3.048
			c8.644,0.09,17.289-0.284,25.936-0.343c15.354-0.104,30.71-0.064,46.065-0.124c12.854-0.051,25.708-0.324,38.559-0.199
			c17.327,0.169,34.657,0.473,51.977,1.006c13.796,0.425,27.598,1.028,41.36,2.041c7.995,0.587,15.92,2.138,23.877,3.254
			c0.141,0.91,0.28,1.819,0.421,2.729c-3.659,1.637-7.181,3.9-11.015,4.749c-4.615,1.021-9.496,0.857-14.265,1.173
			c-3.616,0.24-3.729,2.982-4.222,5.615c-3.066,16.372-8.586,31.982-18.029,45.629c-4.732,6.838-11.822,12.169-18.304,17.64
			c-8.396,7.086-18.633,10.342-29.269,12.397c-3.204,0.619-6.409,1.444-9.646,1.641c-13.199,0.805-26.408,1.443-39.618,2.06
			c-8.829,0.411-17.663,0.824-26.499,0.985c-22.789,0.416-45.58,0.688-68.369,1.032c-0.98,0.015-1.958,0.168-1.828,0.156
			c-0.737,4.664-1.687,8.876-1.954,13.131c-0.132,2.099,0.882,4.314,1.577,6.411c2.794,8.435,2.142,9.248-7.018,7.949
			c0.458,2.093,0.891,4.065,1.168,5.332c16.217,0,32.178,0.709,48.011-0.4c5.254-0.368,10.521,0.202,15.75-0.489
			c1.281-0.169,2.713,0.791,4.075,1.231c-0.075,0.533-0.15,1.065-0.226,1.598c-17.549,0.527-35.099,1.055-52.648,1.582
			c-0.025,0.399-0.051,0.8-0.076,1.199c2.767,0.164,5.534,0.327,8.563,0.506c1.089,9.007,0.132,17.6-3.22,26.053
			c-3.048,7.686-5.815,15.506-8.23,23.412c-3.501,11.462-6.995,22.956-9.715,34.618c-2.958,12.685-5.319,25.529-7.394,38.393
			c-1.782,11.053-2.821,22.227-4.13,33.354c-0.409,3.48-0.742,6.979-0.911,10.479c-0.41,8.434-1.134,16.884-0.95,25.31
			c0.354,16.29,0.436,32.652,2.14,48.826c1.773,16.834,5.245,33.494,8.135,50.202c1.749,10.11,3.843,20.16,5.686,30.254
			c0.334,1.829-0.198,3.877,0.374,5.588c0.921,2.754,1.865,5.908,3.848,7.786c1.969,1.864,5.312,3.36,7.902,3.153
			c2.21-0.178,4.3-2.899,6.269-4.688c1.644-1.493,2.875-3.457,4.573-4.87c2.822-2.35,3.657-4.752,1.175-7.471
			c7.671-9.117,15.639-17.794,22.643-27.189c4.695-6.299,8.866-13.274,6.364-22.104c-0.481-1.7,0.902-4.364,2.151-6.044
			c5.844-7.864,13.143-8.722,21.906-4.765c6.52,2.943,12.106,1.152,17.768-3.898c8.591-7.666,18.993-10.973,30.486-6.481
			c1.475,0.576,2.881,2.516,3.417,4.125c4.888,14.673-1.218,26.334-10.025,36.691c1.811,5.314,3.318,10.533,5.37,15.528
			c1.883,4.585,0.027,8.113-2.636,11.305c-3.812,4.567-7.951,8.058-14.921,7.432c-7.829-0.703-14.054,4.266-19.382,9.209
			c-7.518,6.974-14.12,14.927-21.379,22.197c-1.055,1.056-3.579,0.643-5.423,0.91c-0.257-0.537-0.514-1.074-0.771-1.61
			c-4.874,5.832-9.806,11.618-14.541,17.561c-0.535,0.671-0.148,2.266,0.118,3.357c1.842,7.547,4.451,14.984,5.462,22.636
			c0.938,7.114-0.267,14.491,0.362,21.675c0.427,4.874,2.186,9.681,3.73,14.393c1.315,4.01,2.144,9.089,5.025,11.476
			c5.076,4.203,3.185,11.307,7.977,15.2c1.59,1.292,3.134,2.898,4.07,4.689c3.156,6.032,2.308,12.066-2.533,17.074
			c-2.443,2.527-3.173,4.643-2.897,8.495c0.276,3.871-2.845,7.981-4.467,11.991c-0.702,1.738-1.938,3.478-1.966,5.231
			c-0.089,5.897-1.906,10.701-6.609,14.554c-1.201,0.984-1.506,3.445-1.647,5.272c-0.464,5.958-0.701,11.936-0.943,17.909
			c-0.089,2.187,0.153,4.386,0.068,6.573c-0.244,6.293-0.784,12.582-0.813,18.874c-0.025,5.63,0.635,11.261,0.667,16.893
			c0.014,2.377-0.727,4.777-1.268,7.134c-0.783,3.41-1.678,6.794-2.562,10.179c-0.578,2.217-1.273,4.403-1.805,6.629
			c-0.187,0.785-0.385,1.899,0.007,2.437c3.098,4.239,2.39,8.347,0.062,12.617c-0.502,0.92-0.244,2.283-0.245,3.443
			c-0.014,14.166-0.252,28.339,0.128,42.495c0.121,4.522,1.077,9.426,3.14,13.378c2.007,3.843,5.943,6.67,8.992,9.981
			c2.53,2.749,5.001,5.553,7.834,8.705c0.008-0.009-0.526,0.559-0.716,0.76c0.95,1.364,2.212,2.411,2.443,3.649
			c0.799,4.261,0.883,8.676,1.915,12.865c0.993,4.036,1.997,8.557,4.526,11.587c2.434,2.914,1.246,9.007,7.287,8.972
			c0.261-0.001,0.329,1.804,0.832,2.527c3.061,4.404,6.153,8.79,9.375,13.077c1.684,2.239,1.063,6.976,5.451,6.305
			c6.066-0.927,11.677-0.919,17.71,1.177c4.182,1.452,9.273,0.402,13.952,0.26c2.437-0.074,5.405-1.66,7.188-0.737
			c6.064,3.138,12.295,1.655,18.483,1.902c1.139,0.046,2.17,1.559,3.363,1.777c1.546,0.282,3.226,0.081,4.812-0.155
			c2.63-0.392,6.078-2.27,7.676-1.223c3.731,2.444,7.134,1.947,11.07,1.621c5.828-0.483,12.043-1.298,17.509,0.184
			c6.268,1.697,12.427,1.191,18.533,2.052c4.05,0.571,7.348,1.015,11.535,0.007c4.119-0.991,8.942,1.006,13.468,1.616
			c3.73,0.503,7.663,1.829,11.173,1.127c6.052-1.212,11.358,0.51,17.087,1.424c4.046,0.646,8.867,1.114,12.702,0.731
			c6.424-0.641,12.322,1.48,18.148,1.247c9.479-0.38,18.331,1.877,27.449,3.007c0.15,0.019,0.356,0.279,0.415,0.241
			c7.033-4.637,13.881,3.253,20.929,0.326c0.992-0.412,2.653-0.519,3.418,0.038c4.729,3.445,10.039,1.346,15.046,1.969
			c6.904,0.859,13.711,2.48,20.587,3.604c2.274,0.372,4.67-0.002,6.948,0.357c2.488,0.393,4.891,1.302,7.357,1.863
			c1.163,0.264,2.403,0.16,3.586,0.361c3.448,0.59,6.884,1.764,10.325,1.769c6.436,0.011,12.631,0.884,18.787,2.711
			c2.483,0.737,5.242,0.49,7.821,0.979c3.126,0.593,6.202,1.465,9.287,2.263c7.157,1.853,14.982,0.631,21.651,4.957
			c1.493,0.969,3.785,0.66,5.686,1.058c2.058,0.43,4.066,1.112,6.134,1.473c1.938,0.338,3.925,0.425,5.894,0.567
			c0.826,0.06,1.73-0.238,2.485-0.005c6.015,1.863,11.988,3.86,18.005,5.72c2.772,0.857,5.647,1.387,8.41,2.272
			c2.126,0.682,4.146,1.694,6.219,2.546c1.174,0.481,2.34,0.994,3.542,1.391c3.027,0.998,6.063,1.975,9.116,2.886
			c1.546,0.461,3.125,0.852,4.717,1.099c1.141,0.178,2.438-0.242,3.476,0.131c5.727,2.06,11.406,4.25,17.08,6.454
			c6.545,2.542,13.144,4.966,19.578,7.765c8.275,3.599,16.491,7.355,24.585,11.345c8.538,4.21,17.168,8.337,25.282,13.28
			c13.666,8.327,25.599,18.33,34.153,32.522c4.922,8.164,6.724,16.106,6.436,25.152c-0.255,7.987,1.134,16.254-3.104,23.59
			c-3.206,5.55-6.876,10.86-10.663,16.041c-7.548,10.324-19.018,15.696-29.479,22.127c-5.771,3.547-12.715,5.205-19.159,7.635
			c-6.403,2.416-12.755,5.029-19.295,7.009c-6.632,2.008-13.421,3.581-20.225,4.918c-7.962,1.563-16.011,2.695-24.033,3.939
			c-1.467,0.228-3.025-0.103-4.481,0.161c-4.282,0.777-8.504,1.948-12.808,2.537c-3.973,0.543-8.021,0.551-12.038,0.755
			c-1.123,0.057-2.508-0.456-3.338,0.032c-5.006,2.949-10.116,3.004-15.634,1.68c-1.917-0.46-4.251,0.657-6.358,1.197
			c-1.874,0.48-4.059,2.124-5.483,1.59c-7.82-2.932-15.476,1.144-23.131,0.09c-4.471-0.615-8.796-1.804-12.524,1.908
			c-0.188,0.187-0.689,0.238-0.961,0.134c-10.336-4.007-21.654,3.844-31.869-2.609c-0.842-0.532-2.859,0.264-4.063,0.928
			c-4.956,2.738-9.565,2.447-14.335-0.607c-1.222-0.782-3.283-0.258-4.96-0.323c-4.506-0.175-9.206,0.371-13.446-0.781
			c-2.573-0.698-4.254-2.033-7.423-0.95c-3.251,1.111-7.227,0.334-10.857,0.044c-4.716-0.378-9.423-0.977-14.1-1.703
			c-2.819-0.438-5.544-1.649-8.364-1.885c-3.982-0.334-8.014-0.062-12.023-0.097c-4.012-0.034-5.393-5.509-10.65-4.283
			c-5.077,1.183-10.936,1.433-15.524-2.764c-0.458-0.419-1.151-0.804-1.744-0.817c-11.669-0.284-23.027-2.077-34.097-5.985
			c-3.144-1.11-6.932-0.303-10.184-1.226c-7.021-1.991-13.761-5.78-20.85-6.488c-6.697-0.669-12.042-3.462-17.965-5.71
			c-6.533-2.479-13.749-3.127-20.624-4.758c-2.162-0.513-4.183-1.622-7.208-2.835c-0.314,1.479-0.823,3.155-1.01,4.866
			c-1.048,9.621-0.907,19.542-3.332,28.794c-2.373,9.057-4.657,18.225-9.876,26.729c-3.749,6.109-6.403,13.242-10.838,19.104
			c-4.9,6.478-9.854,13.148-15.903,18.464c-7.035,6.183-15.09,11.3-23.104,16.226c-3.004,1.847-7.136,2.529-10.756,2.534
			c-4.482,0.007-7.819,1.441-11.009,4.394c-7.104,6.574-15.601,10.203-25.15,11.895c-5.545,0.98-10.839,3.307-16.358,4.512
			c-9.202,2.009-18.491,3.621-27.75,5.364c-3.502,0.659-7.015,1.269-10.536,1.814c-5.003,0.774-9.997,1.792-15.033,2.133
			c-12.672,0.858-25.361,1.485-38.053,1.983c-2.359,0.093-4.758-0.854-7.14-1.311c-1.119-0.214-2.278-0.684-3.358-0.549
			c-4.518,0.561-8.997,1.44-13.52,1.952c-6.837,0.772-13.698,1.318-20.546,1.996c-2.604,0.257-5.191,0.728-7.799,0.879
			c-1.618,0.094-3.793,0.389-4.798-0.476c-3.844-3.307-7.84-2.631-12.103-1.437c-6.188,1.733-12.113,0.797-18.361-0.766
			c-13.079-3.271-26.431-5.436-39.627-8.261c-6.831-1.463-13.727-2.904-20.313-5.166c-13.498-4.636-27.012-9.336-40.146-14.894
			c-18.569-7.858-34.452-19.459-46.69-35.847c-7.45-9.976-14.826-19.979-18.803-31.867c-4.761-14.233-9.986-28.432-9.162-43.887
			c0.253-4.746-0.484-9.583,0.12-14.265c1.729-13.376,3.315-26.824,6.181-39.978c1.369-6.282,5.496-11.966,8.41-17.902
			c0.322-0.656,1.126-1.131,1.3-1.797c3.493-13.341,11.551-24.254,18.764-35.634c2.093-3.304,1.476-7.817,5.395-10.528
			c4.58-3.168,8.823-6.912,12.798-10.827c1.999-1.97,3.381-4.741,4.521-7.376c3.496-8.078,6.912-16.225,6.437-26.174
			c-5.252,0.41-10.291,0.619-15.279,1.239c-6.627,0.824-12.618-1.129-18.6-3.517c-0.883-0.352-2.134-0.293-3.051,0.034
			c-5.899,2.105-11.522,5.271-18.141,4.434c-5.668-0.718-11.332-1.473-17.009-2.12c-1.515-0.173-3.067-0.005-4.603-0.006
			c-2.158-0.001-4.666,0.707-6.414-0.145c-7.738-3.767-15.801-1.113-23.671-1.725c-1.325-0.104-2.78,0.335-3.979-0.064
			c-4.888-1.63-9.695-2.834-14.553,0.028c-0.247,0.146-0.704,0.122-0.982-0.003c-8.966-4.025-18.385-1.602-27.606-2.039
			c-2.831-0.135-5.607-1.433-8.437-1.554c-1.796-0.077-3.78,1.789-5.443,1.485c-8.164-1.49-16.641,2.197-24.672-1.602
			c-0.776-0.367-2.539,0.488-3.378,1.273c-2.961,2.771-5.79,2.981-9.372,0.959c-1.435-0.81-3.787-0.2-5.676,0.076
			c-1.251,0.184-2.932,1.7-3.548,1.295c-7.065-4.65-14.995,3.309-22.037-1.587c-0.573-0.399-2.627,0.435-3.318,1.26
			c-2.668,3.185-5.666,3.21-8.76,1.124c-2.584-1.742-4.766-1.687-6.976,0.417c-0.241,0.229-0.563,0.688-0.724,0.64
			c-7.975-2.467-15.583,4.728-23.652,0.916c-0.691-0.327-1.949,0.347-2.866,0.737c-1.911,0.812-4.371,2.989-5.551,2.42
			c-6.023-2.905-11.738,0.224-17.504,0.433c-6.737,0.244-13.411,2.16-20.12,3.309c-1.456,0.249-2.948,0.495-4.412,0.439
			c-4.187-0.157-8.251-0.096-11.608,2.998c-0.566,0.521-1.555,1.075-2.203,0.937c-4.048-0.867-7.431,0.487-11.277,1.779
			c-5.45,1.83-11.584,1.584-17.408,2.362c-1.377,0.185-2.681,0.914-4.02,1.393c-2.393,0.855-4.776,1.738-7.182,2.557
			c-1.646,0.56-3.32,1.034-4.985,1.537c-4.947,1.494-9.889,3.005-14.849,4.452c-0.779,0.227-1.73-0.05-2.456,0.254
			c-5.485,2.298-10.938,4.673-16.394,7.041c-6.723,2.918-13.723,5.347-20.082,8.915c-7.086,3.978-13.492,9.146-20.364,13.53
			c-10.651,6.795-19.092,15.86-26.502,25.865c-6.804,9.188-13.982,18.307-19.229,28.377c-4.875,9.354-7.631,19.854-10.927,29.978
			c-3.725,11.441-3.116,23.544-1.598,34.967c1.334,10.04,5.425,20.268,10.527,29.13c8.471,14.714,21.342,25.529,35.331,35.316
			c14.114,9.874,29.006,17.921,44.732,24.715c9.663,4.174,19.036,9.024,28.729,13.123c4.999,2.113,10.416,3.233,15.633,4.835
			c1.085,0.334,2.122,0.825,3.187,1.227c7.979,3.003,15.943,6.046,23.946,8.98c3.774,1.385,7.866,2.098,11.386,3.936
			c5.194,2.712,9.673,1.235,14.454-0.831c4.041-1.746,7.996-1.826,12.269,0.396c4.395,2.286,9.37,3.447,14.07,5.159
			c5.099,1.856,9.512,0.663,13.576-2.728c7.212-6.019,15.297-7.421,24.177-4.366c18.623,6.404,37.516,12.133,55.782,19.429
			c11.781,4.706,23.919,9.405,33.394,18.675c1.506,1.473,4.542,2.149,6.78,1.981c16.491-1.239,32.089,2.381,46.802,9.265
			c8.854,4.143,16.896,9.994,25.438,14.843c2.028,1.151,4.651,2.078,6.898,1.889c14.459-1.218,28.18,2.546,41.269,7.483
			c9.832,3.708,19.925,7.901,27.597,16.06c1.785,1.899,5.779,2.614,8.668,2.438c18.283-1.122,35.165,3.456,50.928,12.264
			c5.667,3.166,10.521,7.753,16.008,11.287c3.042,1.959,6.586,4.275,9.967,4.382c16.919,0.531,32.419,4.573,46.344,14.705
			c4.469,3.252,10.247,4.748,15.497,6.872c8.325,3.368,15.752,8.038,21.756,14.761c2.491,2.789,5.342,3.85,9.121,3.989
			c5.7,0.21,11.44,0.901,17.016,2.088c2.048,0.436,4.079,2.569,5.417,4.432c4.495,6.257,9.354,11.962,16.785,14.884
			c1.03,0.405,2.356,1.098,2.721,1.993c4.23,10.394,13.279,6.28,20.315,6.049c4.419-0.146,8.341-1.921,12.956,0.61
			c6.441,3.53,10.895,8.753,11.607,15.49c1.116,10.555,2.11,21.521-4.51,31.144c-4.555,6.619-11.083,11.577-18.507,12.745
			c-7.072,1.112-14.181-2.175-20.374-6.759c-10.009-7.409-21.485-10.389-33.862-8.632c-3.069,0.436-5.789,3.068-8.874,3.717
			c-6.736,1.416-11.764-2.701-17.145-5.923c-3.21-1.921-7.035-3.351-10.729-3.796c-5.257-0.635-10.653-0.324-15.979-0.123
			c-6.497,0.245-12.727-0.464-18.858-2.883c-2.643-1.043-5.807-1.219-8.704-1.092c-18.056,0.797-33.922-5.412-49.119-14.438
			c-3.462-2.056-7.841-3.117-11.904-3.501c-10.994-1.04-22.15-0.773-33.033-2.412c-6.092-0.917-12.056-4.076-17.559-7.152
			c-6.637-3.71-12.615-8.58-19.111-12.568c-2.09-1.283-4.887-1.701-7.414-1.933c-9.181-0.837-18.731-0.121-27.49-2.447
			c-10.537-2.798-20.562-7.779-30.507-12.456c-5.263-2.476-9.755-6.542-14.861-9.418c-2.146-1.209-5.005-1.756-7.5-1.651
			c-24.499,1.021-45.564-7.868-65.551-21.164c-4.953-3.294-11.984-4.307-18.171-4.717c-10.56-0.701-20.696-2.462-30.513-6.428
			c-2.975-1.202-6.34-1.401-9.416-2.398c-6.577-2.131-13.043-4.606-19.628-6.711c-8.152-2.605-16.514-4.611-24.537-7.555
			c-7.833-2.872-13.347-8.711-17.725-15.813c-1.565-2.538-3.944-5.21-6.583-6.324c-6.679-2.817-13.735-4.735-20.596-7.14
			c-1.351-0.473-2.622-1.372-3.729-2.312c-5.805-4.928-12.425-7.794-19.83-9.779c-7.442-1.994-14.408-5.715-21.663-8.47
			c-6.772-2.572-13.65-4.865-20.479-7.288c-5.94-2.107-12.042-3.855-17.781-6.417c-12.088-5.395-24.067-11.053-35.926-16.935
			c-5.921-2.937-11.436-6.684-17.217-9.916c-5.5-3.075-11.303-5.648-16.614-9.011c-5.51-3.488-10.529-7.742-15.87-11.511
			c-11.598-8.186-21.069-18.429-30.426-29.069c-13.918-15.83-20.745-34.849-26.663-54.277c-4.685-15.378-6.3-31.521-4.388-47.484
			c2.262-18.893,5.225-37.771,12.735-55.56c7.319-17.336,16.667-33.447,28.71-47.898c12.745-15.294,27.068-29.042,43.892-39.731
			c13.118-8.334,25.91-17.321,40.89-22.523c9.856-3.423,19.172-8.374,28.882-12.261c4.041-1.617,8.479-2.234,12.731-3.329
			c9.089-2.34,18.136-4.855,27.274-6.983c5.701-1.328,11.538-2.068,17.31-3.097c1.432-0.256,2.854-0.575,4.268-0.92
			c6.784-1.659,13.548-3.403,20.358-4.946c1.193-0.271,2.567,0.355,3.865,0.422c1.596,0.081,3.751,0.674,4.701-0.115
			c3.361-2.792,7.159-1.174,10.494-1.87c5.954-1.243,11.823-1.834,17.829-2.27c3.952-0.285,7.806-1.758,11.76-2.231
			c7.149-0.857,14.338-1.399,21.516-1.995c1.819-0.151,3.901-0.561,5.448,0.107c3.816,1.648,7.031,0.58,10.326-1.184
			c0.845-0.452,2.104-1.195,2.695-0.887c5.103,2.664,10.296-0.638,15.061,0.21c5.256,0.935,9.784-1.965,13.835-1.633
			c6.008,0.492,11.842-0.862,17.49-0.168c4.268,0.524,8.145,1.461,12.214-0.278c0.15-0.063,0.36-0.202,0.455-0.15
			c7.323,4.062,15.145-2.414,22.552,1.054c1.116,0.522,2.705,0.089,4.068-0.001c0.459-0.031,0.917-0.573,1.344-0.534
			c4.139,0.383,8.267,1.138,12.405,1.191c4.09,0.054,8.186-0.62,12.284-0.89c1.489-0.099,3.005,0.175,4.49,0.053
			c2.809-0.23,5.689-1.203,8.384-0.806c3.591,0.53,6.83,1.652,10.632,0.086c1.824-0.752,4.564,1.019,6.921,1.175
			c2.414,0.161,4.867-0.254,8.383-0.489c-5.06-5.325-9.555-7.938-15.701-7.033c-1.765,0.26-3.717-0.935-5.612-1.325
			c-2.286-0.471-4.6-0.815-6.911-1.155c-0.25-0.037-0.624,0.529-0.83,0.465c-6.896-2.155-13.788-4.323-20.656-6.562
			c-1.945-0.634-4.314-2.617-5.633-2.036c-4.286,1.887-6.772-0.916-9.878-2.537c-2.199-1.148-4.628-1.865-6.977-2.712
			c-0.442-0.159-1.118,0.177-1.473-0.05c-6.394-4.083-15.182-2.302-20.719-8.466c-0.438-0.488-1.117-1.346-1.46-1.248
			c-8.125,2.325-12.277-7.326-19.978-6.613c-1.451,0.135-3.056-1.941-4.67-2.855c-1.79-1.013-3.584-2.242-5.534-2.701
			c-3.452-0.811-6.339-1.899-8.537-5.079c-1.084-1.569-3.801-1.966-5.705-3.024c-2.262-1.256-4.443-2.656-6.662-3.99
			c-2.223-1.337-4.442-2.681-6.684-3.986c-0.261-0.152-0.724,0.031-0.97-0.129c-6.25-4.07-12.473-8.183-18.726-12.247
			c-1.986-1.291-4.045-2.471-6.08-3.687c-0.278-0.167-0.657-0.184-0.906-0.377c-6.182-4.802-12.356-9.612-18.521-14.435
			c-1.284-1.005-2.5-2.099-3.792-3.093c-3.141-2.415-6.288-4.822-9.474-7.178c-1.412-1.044-2.904-1.984-4.398-2.909
			c-0.688-0.426-1.613-0.544-2.185-1.069c-5.554-5.106-11.057-10.27-16.567-15.424c-0.107-0.101-0.071-0.364-0.181-0.448
			c-5.739-4.37-11.482-8.736-17.242-13.08c-0.517-0.39-1.239-0.528-1.708-0.956c-5.62-5.115-11.214-10.26-16.805-15.407
			c-1.035-0.952-1.865-2.455-3.067-2.842c-5.206-1.676-8.033-5.129-8.514-10.65c-4.828,0.289-7.752-1.985-10.182-5.839
			c-1.443-2.288-4.275-3.655-6.261-5.656c-5.803-5.849-11.502-11.8-17.224-17.729c-1.203-1.246-2.372-2.531-3.478-3.863
			c-2.218-2.672-4.356-5.41-6.578-8.079c-1.049-1.26-1.994-3.021-3.364-3.522c-4.367-1.594-6.934-4.079-6.732-9.051
			c0.031-0.752-1.55-1.828-2.59-2.32c-3.929-1.856-7.813-3.54-7.362-9.06c0.074-0.907-1.185-2.652-2.025-2.788
			c-5.109-0.827-7.015-4.555-8.958-8.643c-0.868-1.825-2.794-3.157-4.281-4.674c-0.693-0.706-2.046-1.242-2.145-1.982
			c-1.169-8.745-12.268-11.437-12.519-20.67c-6.066-2.798-6.473-9.432-9.791-13.961c-2.709-3.699-6.997-6.086-7.376-11.43
			c-0.075-1.053-1.528-2.083-2.478-2.985c-3.121-2.964-6.215-5.84-6.452-10.646c-0.053-1.071-1.327-2.229-2.276-3.084
			c-3.144-2.831-5.505-5.893-5.746-10.451c-0.078-1.479-2.027-2.81-2.965-4.305c-1.606-2.56-3.902-5.048-4.412-7.84
			c-0.583-3.2-1.454-5.535-4.39-6.969c-0.423-0.207-0.859-0.633-1.036-1.062c-3.034-7.361-5.56-14.979-9.168-22.044
			c-3.271-6.403-5.278-13.224-8.139-19.67c-1.574-3.547-4.205-6.471-3.752-10.712c0.086-0.809,0.165-2.188-0.228-2.393
			c-5.846-3.041-5.25-8.646-5.694-13.847c-0.028-0.331,0.104-0.769-0.062-0.983c-5.268-6.842-2.089-16.836-8.67-23.223
			c-0.745-0.723-0.994-2.046-1.273-3.142c-1.23-4.817-2.574-9.616-3.528-14.489c-1.642-8.391-3.021-16.832-4.524-25.25
			c-0.168-0.943-0.148-2.098-0.691-2.769c-2.759-3.409-3.851-6.926-2.454-11.363c0.488-1.55-0.783-3.644-1.22-5.495
			c-0.558-2.362-1.372-4.709-1.559-7.103c-0.289-3.702,0.042-7.213-3.316-10.229c-1.323-1.188-1.181-4.845-0.632-7.119
			c1.5-6.224-1.131-11.731-3.49-16.738c-2.162-4.589-1.503-8.753-1.508-13.187c-0.002-2.025-0.092-4.05-0.109-6.075
			c-0.022-2.517,0.047-5.035-0.024-7.55c-0.272-9.662-0.74-19.321-0.824-28.985c-0.05-5.685,0.638-11.372,0.706-17.063
			c0.049-4.117-0.997-8.33-0.413-12.333c0.563-3.854,1.629-7.92,2.026-11.619c0.386-3.592,4.537-7.686,0.213-11.761
			c-0.837-0.789,0.313-3.687,1.556-4.866c1.234-1.757,3.085-3.366,3.552-5.308c0.625-2.603-0.096-5.503,0.298-8.197
			c0.241-1.645,1.171-3.462,2.35-4.646c3.622-3.636,0.807-6.837-0.136-9.878c0.932-1.419,1.806-2.752,2.681-4.085
			c-0.276-0.332-0.552-0.663-0.828-0.995c1.194-0.234,2.389-0.469,3.831-0.751c0-1.307-0.292-2.555,0.059-3.584
			c0.836-2.453-1.741-5.797,3.256-7.341c3.626-1.121,3.651-9.002,0.933-12.223c6.22-3.182,7.5-4.773,9.809-12.204
			c0.098-0.314,0.116-0.689,0.304-0.935c4.96-6.481,11.268-12.351,14.536-19.591c3.208-7.107,9.678-11.01,13.173-17.449
			c0.413-0.761,1.235-1.396,2.009-1.849c7.532-4.414,12.138-12.015,19.053-17.395c7.129-5.546,14.534-10.782,21.948-15.892
			c6.846-4.718,14.408-8.42,21.773-12.346c2.09-1.114,4.582-1.501,6.913-2.131c9.199-2.486,17.517-8.136,27.535-7.684
			c6.659-6.905,16.1-3.093,24.095-6.088c8.581-3.216,18.8-2.716,28.281-2.543c3.721,0.068,7.185,0.631,11.11-0.01
			c4.458-0.728,9.465,1.978,13.947,1.299c8.617-1.306,16.338,2.132,24.361,2.782c6.875,0.557,12.999,1.002,18.739,4.851
			c0.855,0.574,2.376,0.931,3.254,0.57c6.029-2.472,10.418,0.413,14.468,4.253c1.971,1.869,3.399,2.888,6.73,2.227
			c5.027-0.997,9.639,1.478,13.62,5.087c1.938,1.756,4.812,3.265,7.348,3.411c5.185,0.3,9.076,1.854,11.967,6.396
			c0.922,1.447,3.44,2.656,5.217,2.642c6.215-0.051,10.02,3.08,13.14,8.022c0.925,1.465,3.045,2.392,4.808,3.063
			c3.069,1.166,6.286,1.941,10.024,3.055c3.489-3.046,5.73-2.829,9.645,1.096c6.191,6.208,12.588,12.21,18.86,18.338
			c6.616,6.465,13.236,12.927,19.763,19.48c4.896,4.918,5.762,5.051,10.541,0.327c3.253-3.214,6.772-3.661,9.991-0.447
			c8.089,8.076,15.989,16.344,23.881,24.614c5.183,5.433,10.078,11.146,15.361,16.476c5.26,5.307,9.384,11.096,11.41,18.453
			c2.447,8.888,9.878,13.189,17.13,17.729c9.716,6.081,18.78,12.755,26.635,21.528c10.31,11.515,18.172,24.24,24.616,38.049
			c3.276,7.021,9.832,9.647,16.265,12.275c9.585,3.917,16.729,10.262,19.897,20.164c2.555,7.984,8.445,13.514,13.259,19.833
			c0.703,0.923,3.813,1.177,4.907,0.426c3.583-2.456,5.761-2.617,7.684,1.909c0.709,1.669,3.365,2.424,4.884,3.859
			c1.763,1.666,3.211,3.658,4.868,5.441c2.078,2.236,4.229,4.405,6.645,6.909c-3.426,4.7-0.863,8.312,2.42,12.232
			c6.836,8.163,13.228,16.697,19.895,25.005c3.639,4.534,7.6,8.813,11.175,13.394c4.104,5.261,7.879,10.775,11.919,16.088
			c1.819,2.392,4.095,4.44,5.857,6.867c1.286,1.771,3.062,3.999,2.883,5.857c-0.441,4.602,1.61,7.391,4.938,9.86
			c1.428,1.06,3.229,2.074,3.948,3.554c2.976,6.111,6.745,5.588,12.074,2.829c4.618-2.392,2.927-6.696,2.888-9.249
			c-0.171-11.151,4.525-21.057,6.645-31.577c2.634-13.072,5.485-26.112,7.646-39.265c3.424-20.841,5.461-41.835,5.061-63.001
			c-0.31-16.342-0.018-32.729-1.209-49.008c-0.989-13.496-3.365-26.934-5.832-40.267c-2.902-15.684-6.179-31.322-10.027-46.799
			c-2.847-11.451-7.316-22.499-10.185-33.947c-1.538-6.135-1.222-12.733-1.739-19.123c-0.064-0.798-0.118-1.597-0.229-3.107
			c-13.652,0-27.105,0-40.559,0c0.002-0.586,0.004-1.171,0.006-1.757c18.979,0,37.956,0,57.989,0
			c-2.449-11.184,4.514-21.562,0.196-33.047c-6.057,0-13.233,0-20.409,0c-31.833,0-63.677,0.501-95.492-0.227
			c-14.406-0.329-29.01-1.987-43.033-5.189c-8.104-1.851-15.591-7.454-22.686-12.342c-5.85-4.03-11.834-8.734-15.733-14.508
			c-4.882-7.229-10.257-14.5-12.144-23.54c-1.552-7.438-3.893-14.715-5.976-22.038c-1.025-3.604-2.862-5.482-7.313-5.312
			c-10.337,0.397-15.447-1.39-20.706-5.895c3.563-5.625,9.702-4.385,14.651-4.763c15.584-1.191,31.23-1.559,46.854-2.242
			c7.257-0.317,14.511-0.722,21.771-0.928c18.876-0.536,37.756-0.943,56.632-1.476c28.893-0.815,57.783-1.666,86.673-2.581
			c2.932-0.093,5.846-0.729,9.25-1.176c5.031-26.979,6.133-53.687-6.989-79.071c-2.514-4.863-6.981-8.681-9.89-13.387
			c-2.692-4.357-5.333-9.066-6.475-13.975c-1.188-5.107-3.841-8.78-7.019-12.576c-6.69-7.993-13.473-15.956-19.521-24.429
			c-7.575-10.613-14.829-21.502-21.484-32.709c-3.873-6.521-6.466-13.832-9.346-20.906c-5.096-12.519-10.01-25.112-14.928-37.703
			c-4.426-11.332-2.573-16.666,8.263-25.519c5.196-4.244,11.509-6.48,18.818-6.747c10.938-0.398,21.809-2.487,32.731-3.632
			c5.906-0.619,11.86-0.8,17.797-1.124c6.935-0.378,13.874-0.678,20.807-1.08C723.025,1.898,723.505,1.322,724,1
			C731.667,1,739.333,1,747,1z M309.429,437.957c-2.753,0-5.741,0.932-7.181-0.166c-5.313-4.054-11.841-4.769-17.435-7.432
			c-4.031-1.919-7.417-3.815-11.878-3.386c-0.477,0.046-1.041-0.016-1.456-0.233c-4.622-2.42-9.125-5.303-14.716-2.806
			c-0.453,0.202-1.373-0.14-1.827-0.523c-4.413-3.729-9.605-2.437-14.629-2.466c-1.576-0.009-3.134-0.782-4.726-1.053
			c-1.727-0.292-3.489-0.598-5.227-0.555c-2.787,0.069-5.564,0.569-8.351,0.622c-6.202,0.117-12.41-0.011-18.61,0.151
			c-1.407,0.037-2.792,0.849-4.189,1.298c-1.656,0.533-3.279,1.267-4.978,1.555c-6.268,1.064-12.663,1.568-18.817,3.072
			c-5.945,1.453-10.813,5.8-17.061,6.899c-10.907,1.921-18.657,10.091-28.086,14.975c-6.177,3.199-11.488,8.603-16.254,13.865
			c-6.292,6.947-11.902,14.557-17.366,22.196c-4.422,6.182-9.011,12.212-11.373,19.811c-1.964,6.321-6.471,11.845-8.49,18.157
			c-2.635,8.237-4.07,16.876-5.736,25.397c-0.782,4.003-0.196,8.374-1.477,12.156c-1.941,5.731-3.016,11.265-2.734,17.404
			c0.362,7.902-0.734,15.859-0.758,23.794c-0.021,6.791,0.529,13.587,0.933,20.375c0.225,3.771,0.543,7.547,1.047,11.289
			c0.5,3.718,1.537,7.374,1.875,11.1c0.33,3.636,0.049,7.326,0.088,10.992c0.01,0.978-0.049,2.67,0.364,2.819
			c4.362,1.582,2.344,5.194,2.56,7.937c0.518,6.588,0.692,13.202,1.109,19.799c0.069,1.099,0.33,2.67,1.072,3.16
			c3.775,2.49,2.615,6.22,2.936,9.674c0.298,3.212,1.542,6.376,1.557,9.565c0.03,6.07,2.365,11.379,3.988,17.02
			c1.235,4.292,0.908,9.002,4,12.822c0.524,0.647,0.178,1.94,0.415,2.89c0.846,3.395,1.832,6.755,2.649,10.156
			c1.405,5.852,1.972,12.004,6.277,16.765c-2.39,7.267,4.768,11.521,5.751,18.155c1.098,7.405,6.358,14.134,9.384,21.335
			c2.109,5.018,3.292,10.428,7.366,14.447c0.664,0.654,1.442,1.83,1.283,2.576c-0.91,4.271,3.033,5.669,4.57,8.46
			c3.058,5.552,5.391,11.469,9.397,16.528c1.409,1.778,1.477,4.623,2.894,6.392c2.589,3.232,7.316,4.938,6.659,10.357
			c-0.081,0.664,1.232,1.45,1.801,2.25c1.513,2.128,3.989,4.178,4.251,6.468c0.634,5.528,4.992,6.686,8.77,8.847
			c-1.204,4.027-0.55,7.069,3.388,9.479c2.24,1.37,3.721,4.075,5.35,6.32c1.432,1.975,2.539,4.182,3.891,6.218
			c1.386,2.088,2.896,4.094,4.35,6.136c1.128,1.584,2.156,3.252,3.406,4.732c1.443,1.709,3.759,2.998,4.485,4.926
			c1.268,3.37,3.826,5.04,6.192,7.366c4.205,4.134,7.522,9.032,12.056,13.133c6.266,5.667,11.317,12.653,17.515,18.625
			c4.289,4.132,8.014,8.815,12.733,12.757c2.684,2.24,4.799,5.367,7.948,7.552c3.038,2.108,5.163,5.482,8.015,7.918
			c5.258,4.492,10.759,8.7,16.149,13.038c0.386,0.311,0.906,0.661,1.013,1.081c1.615,6.382,6.85,7.475,11.813,8.08
			c0.345,1.752,0.158,3.51,0.948,4.355c4.086,4.382,9.424,7.224,13.408,12.068c2.344,2.851,6.625,4.696,9.812,7.736
			c4.329,4.13,9.393,8.047,14.343,11.188c5.956,3.78,9.637,11.194,17.653,11.772c0.255,0.018,0.353,0.922,0.696,1.204
			c5.361,4.405,10.497,9.147,16.207,13.047c5.394,3.685,11.484,6.331,17.11,9.698c5.739,3.434,11.117,7.495,16.96,10.729
			c7.763,4.296,15.816,8.066,23.762,12.028c0.855,0.427,1.805,0.812,2.742,0.907c6.385,0.658,10.784,6.794,17.609,6.357
			c0.677-0.043,1.403,1.313,2.176,1.935c0.619,0.497,1.291,1.063,2.029,1.258c7.007,1.858,14.254,3.077,20.963,5.687
			c3.445,1.339,6.798,2.131,10.274,3.074c5.677,1.541,11.022,4.301,17.1,4.396c0.309,0.005,0.721,0.139,0.903,0.361
			c2.259,2.756,5.179,2.064,8.241,2.167c3.017,0.102,5.919,2.306,8.981,2.673c4.51,0.542,9.399-0.816,12.824,3.606
			c0.236,0.307,1.188,0.019,1.798,0.083c7.499,0.803,14.998,1.607,22.492,2.456c0.616,0.069,1.204,0.442,1.793,0.704
			c6.203,2.759,13.094,2.324,19.572,3.465c4.403,0.774,8.781,0.175,12.328,3.862c4.332-3.025,8.315-0.854,12.828-0.138
			c6.34,1.005,12.777,1.471,19.203,2.561c4.071,0.691,8.386,1.342,12.397,1.707c6.067,0.553,12.003,0.725,17.975,2.514
			c3.239,0.971,7.015,0.436,10.514,0.147c2.177-0.179,5.643-0.587,6.196-1.886c2.698-6.33,5.164-12.871,6.673-19.571
			c2.392-10.626,6.026-20.258,14.636-27.571c3.16-2.685,7.041-5.882,7.979-9.519c1.576-6.117,1.143-12.771,1.377-19.205
			c0.064-1.753-0.775-3.536-0.729-5.294c0.152-5.77,0.679-11.531,0.771-17.301c0.145-9.036-0.064-18.078,0.104-27.114
			c0.092-4.943,0.128-9.082-5.748-11.523c-6.396-2.658-7.997-8.289-5.55-14.416c0.224-0.558,0.264-1.352,0.046-1.898
			c-3.035-7.597-0.477-15.36-0.729-23.034c-0.04-1.202,0.33-2.421,0.27-3.619c-0.31-6.149-0.705-12.294-1.034-18.442
			c-0.014-0.267,0.388-0.531,0.509-0.832c2.172-5.357-0.039-13.559-4.233-17.902c-1.683-1.743-2.761-4.31-3.473-6.693
			c-0.958-3.203-0.395-7.182-2.091-9.777c-3.267-4.999-4.86-10.115-5.105-15.981c-0.089-2.11-1.055-4.518-2.383-6.182
			c-4.254-5.327-4.553-10.762-0.741-16.553c2.279-3.463,4.242-7.144,6.198-10.805c1.372-2.567,1.868-5.925,3.835-7.793
			c7.578-7.201,8.478-16.758,8.928-25.985c0.612-12.573-0.124-25.186,4.228-37.329c1.985-5.543,0.948-10.49-3.476-14.711
			c-2.737-2.612-4.965-5.761-7.721-8.351c-1.837-1.727-4.103-3.086-6.365-4.242c-1.375-0.702-3.41-0.268-4.62-1.106
			c-3.068-2.129-5.92-4.597-8.713-7.091c-8.345-7.454-16.616-14.989-24.922-22.486c-7.541-6.806-14.585-14.319-22.832-20.123
			c-4.619-3.251-7.149-12.7-15.992-7.618c-0.308,0.178-1.338-0.358-1.643-0.819c-0.898-1.359-1.266-3.666-2.438-4.149
			c-6.145-2.533-8.696-8.368-12.689-12.877c-0.887-1.002-2.304-1.533-4.025-2.631c2-0.887,3.644-1.155,4.497-2.122
			c0.894-1.011,1.792-3.589,1.375-3.945c-4.986-4.259-9.638-10.014-15.5-11.923c-14.102-4.591-23.068-13.181-28.082-26.925
			c-1.348-3.694-4.347-7.515-7.645-9.628c-8.649-5.543-18.241-9.633-26.803-15.293c-14.787-9.774-26.778-22.53-35.895-37.77
			c-4.266-7.131-9.131-13.336-17.03-16.65c-4.18-1.753-9.021-2.871-12.27-5.741c-14.13-12.49-27.813-25.487-41.585-38.381
			c-2.701-2.528-5.181-5.319-7.558-8.161c-2.076-2.481-1.913-4.936,0.72-7.139c2.386-1.997,4.636-4.155,7.118-6.397
			c-3.88-3.49-6.968-6.198-9.979-8.989c-9.188-8.519-18.062-17.407-27.611-25.498c-7.486-6.344-13.739-13.422-18.306-22.377
			C316.391,446.277,311.386,444.488,309.429,437.957z M952.226,1225.83c-1.795,0.878-3.532,1.447-4.944,2.468
			c-5.129,3.704-3.432,7.825-1.535,12.854c3.474,9.215,5.184,19.177,12.49,26.521c3.104,3.121,6.55,5.901,9.788,8.894
			c2.135,1.973,4.491,3.813,6.201,6.118c6.125,8.26,12.058,16.665,17.955,25.09c0.9,1.286,1.398,2.928,1.798,4.479
			c1.885,7.328,9.993,14.171,17.354,14.812c1.701,0.148,3.348,1.1,4.984,1.769c6.664,2.724,14.333,2.938,20.059,8.069
			c0.469,0.42,1.654-0.071,2.445,0.119c6.652,1.601,13.298,3.234,19.924,4.94c0.744,0.191,1.305,1.019,2.045,1.32
			c1.598,0.652,3.218,1.356,4.898,1.683c7.539,1.463,15.108,2.77,22.646,4.236c0.702,0.137,1.354,0.928,1.872,1.546
			c2.134,2.55,4.501,2.903,7.486,1.386c3.431-1.743,6.316-0.447,9.371,1.648c1.843,1.264,4.736,1.896,6.942,1.525
			c3.773-0.633,6.924-0.295,9.396,2.674c1.94,2.33,3.854,2.695,6.75,1.553c3.15-1.243,6.433-1.142,8.957,1.983
			c2.039,2.524,4.375,2.675,7.26,0.843c3.707-2.354,7.504-1.938,10.335,1.604c2.038,2.55,4.354,2.59,7.035,1.729
			c3.978-1.276,7.625-1.149,11.198,1.505c1.116,0.829,3.18,0.454,4.813,0.502c4.016,0.117,8.198-0.506,12.002,0.433
			c3.333,0.822,6.121,2.045,9.873,1.139c2.899-0.7,6.458,0.426,9.491,1.436c2.913,0.971,5.335,2.205,8.227-0.235
			c1.2-1.013,4.15-1.822,4.948-1.139c5.129,4.389,10.446,4.091,16.163,1.708c0.71-0.297,1.861-0.37,2.45,0.01
			c5.736,3.695,11.388,0.318,17.082-0.004c5.779-0.327,11.762,2.945,17.368-1.785c1.112-0.938,4.662,0.601,6.886,1.497
			c2.576,1.038,4.436,1.254,7.267-0.204c2.694-1.387,6.505-0.636,9.827-0.762c2.135-0.082,4.279,0.032,6.41-0.099
			c1.443-0.088,2.862-0.55,4.307-0.672c8.502-0.717,17.009-1.377,25.512-2.078c0.48-0.039,0.938-0.322,1.42-0.403
			c7.048-1.188,14.065-2.677,21.161-3.431c4.858-0.517,9.785,0.377,14.184-2.952c1.49-1.129,4.077-0.8,6.158-1.162
			c5.282-0.919,10.742-1.29,15.803-2.908c7.97-2.548,15.484-6.648,23.541-8.754c6.858-1.792,11.89-5.628,16.543-10.351
			c1.01-1.024,1.755-3.999,1.123-4.677c-3.768-4.038-7.574-8.269-12.127-11.294c-7.405-4.921-15.322-9.097-23.159-13.335
			c-6.665-3.604-13.344-7.284-20.338-10.146c-8.922-3.652-18.212-6.394-27.26-9.752c-9.185-3.41-18.183-7.338-27.422-10.584
			c-7.789-2.736-15.826-4.757-23.715-7.219c-4.745-1.48-9.397-3.255-14.133-4.77c-1.069-0.342-2.321-0.062-3.467-0.227
			c-5.648-0.817-11.935-0.401-16.787-2.832c-7.828-3.922-16.118-3.541-24.174-5.128c-4.989-0.982-9.725-3.563-15.136-2.266
			c-0.922,0.221-2.213-1.22-3.369-1.822c-1.294-0.675-2.573-1.629-3.954-1.84c-9.505-1.452-19.002-3.089-28.564-3.993
			c-11.178-1.058-22.426-1.365-33.632-2.164c-1.868-0.133-3.688-1.078-5.509-1.713c-0.894-0.311-1.916-1.298-2.575-1.075
			c-5.138,1.736-9.832-0.038-14.86-0.879c-9.614-1.609-19.786,1.396-29.18-3.188c-0.543-0.265-1.507,0.479-2.29,0.533
			c-2.477,0.174-5.506,1.207-7.337,0.17c-5.086-2.879-10.344-1.39-15.513-1.812c-1.094-0.09-2.146-0.624-3.241-0.763
			c-1.286-0.162-2.603-0.197-3.9-0.144c-3.23,0.133-6.474,0.635-9.682,0.454c-3.729-0.21-7.412-1.199-11.144-1.47
			c-5.326-0.387-10.665-2.292-16.036-0.091c-0.711,0.292-1.973,0.383-2.433-0.035c-4.52-4.112-9.877-1.271-14.788-1.949
			c-1.108-0.153-2.171-0.698-3.278-0.792c-1.649-0.141-3.323-0.102-4.981-0.029c-3.072,0.132-6.159,0.631-9.206,0.44
			c-3.043-0.189-6.043-1.048-9.066-1.592c-3.186-0.573-6.359-1.271-9.57-1.625c-1.893-0.208-4.317-0.546-5.684,0.382
			c-3.572,2.424-5.996,0.712-8.948-1.051c-1.512-0.902-3.975-1.267-5.604-0.704c-3.838,1.325-7.313,1.675-10.752-0.816
			C953.922,1226.639,953.033,1226.271,952.226,1225.83z"/>
		<path fill-rule="evenodd" clip-rule="evenodd" fill="#FFFFFF" d="M309.429,437.957c1.957,6.531,6.962,8.32,13.531,6.512
			c4.566,8.955,10.819,16.033,18.306,22.377c9.55,8.091,18.423,16.979,27.611,25.498c3.012,2.791,6.1,5.499,9.979,8.989
			c-2.482,2.242-4.732,4.4-7.118,6.397c-2.633,2.203-2.796,4.657-0.72,7.139c2.377,2.842,4.856,5.633,7.558,8.161
			c13.771,12.894,27.455,25.891,41.585,38.381c3.248,2.87,8.09,3.988,12.27,5.741c7.899,3.314,12.765,9.52,17.03,16.65
			c9.116,15.239,21.107,27.995,35.895,37.77c8.562,5.66,18.153,9.75,26.803,15.293c3.298,2.113,6.297,5.934,7.645,9.628
			c5.014,13.744,13.98,22.334,28.082,26.925c5.862,1.909,10.514,7.664,15.5,11.923c0.417,0.356-0.481,2.935-1.375,3.945
			c-0.854,0.967-2.497,1.235-4.497,2.122c1.722,1.098,3.139,1.629,4.025,2.631c3.993,4.509,6.545,10.344,12.689,12.877
			c1.173,0.483,1.54,2.79,2.438,4.149c0.305,0.461,1.335,0.997,1.643,0.819c8.843-5.082,11.373,4.367,15.992,7.618
			c8.247,5.804,15.291,13.317,22.832,20.123c8.306,7.497,16.577,15.032,24.922,22.486c2.793,2.494,5.645,4.962,8.713,7.091
			c1.21,0.839,3.245,0.404,4.62,1.106c2.263,1.156,4.528,2.516,6.365,4.242c2.756,2.59,4.983,5.738,7.721,8.351
			c4.424,4.221,5.461,9.168,3.476,14.711c-4.352,12.144-3.615,24.756-4.228,37.329c-0.45,9.228-1.35,18.784-8.928,25.985
			c-1.967,1.868-2.463,5.226-3.835,7.793c-1.956,3.661-3.919,7.342-6.198,10.805c-3.812,5.791-3.513,11.226,0.741,16.553
			c1.328,1.664,2.294,4.071,2.383,6.182c0.245,5.866,1.839,10.982,5.105,15.981c1.696,2.596,1.133,6.574,2.091,9.777
			c0.712,2.384,1.79,4.95,3.473,6.693c4.194,4.344,6.405,12.545,4.233,17.902c-0.121,0.301-0.522,0.565-0.509,0.832
			c0.329,6.148,0.725,12.293,1.034,18.442c0.061,1.198-0.31,2.417-0.27,3.619c0.252,7.674-2.307,15.438,0.729,23.034
			c0.218,0.547,0.178,1.341-0.046,1.898c-2.447,6.127-0.846,11.758,5.55,14.416c5.876,2.441,5.84,6.58,5.748,11.523
			c-0.169,9.036,0.04,18.078-0.104,27.114c-0.092,5.77-0.618,11.531-0.771,17.301c-0.047,1.758,0.793,3.541,0.729,5.294
			c-0.234,6.435,0.199,13.088-1.377,19.205c-0.938,3.637-4.818,6.834-7.979,9.519c-8.609,7.313-12.244,16.945-14.636,27.571
			c-1.509,6.7-3.975,13.241-6.673,19.571c-0.554,1.299-4.02,1.707-6.196,1.886c-3.499,0.288-7.274,0.823-10.514-0.147
			c-5.972-1.789-11.907-1.961-17.975-2.514c-4.012-0.365-8.326-1.016-12.397-1.707c-6.426-1.09-12.863-1.556-19.203-2.561
			c-4.513-0.716-8.496-2.888-12.828,0.138c-3.547-3.688-7.925-3.088-12.328-3.862c-6.479-1.141-13.369-0.706-19.572-3.465
			c-0.589-0.262-1.177-0.635-1.793-0.704c-7.494-0.849-14.993-1.653-22.492-2.456c-0.61-0.064-1.562,0.224-1.798-0.083
			c-3.425-4.423-8.314-3.064-12.824-3.606c-3.063-0.367-5.965-2.571-8.981-2.673c-3.063-0.103-5.982,0.589-8.241-2.167
			c-0.183-0.223-0.595-0.356-0.903-0.361c-6.077-0.096-11.423-2.855-17.1-4.396c-3.477-0.943-6.829-1.735-10.274-3.074
			c-6.709-2.609-13.956-3.828-20.963-5.687c-0.738-0.195-1.41-0.761-2.029-1.258c-0.772-0.621-1.499-1.978-2.176-1.935
			c-6.825,0.437-11.225-5.699-17.609-6.357c-0.938-0.096-1.887-0.48-2.742-0.907c-7.945-3.962-15.999-7.732-23.762-12.028
			c-5.843-3.233-11.221-7.295-16.96-10.729c-5.626-3.367-11.717-6.014-17.11-9.698c-5.71-3.899-10.846-8.642-16.207-13.047
			c-0.344-0.282-0.441-1.187-0.696-1.204c-8.017-0.578-11.697-7.992-17.653-11.772c-4.95-3.142-10.015-7.059-14.343-11.188
			c-3.186-3.04-7.468-4.886-9.812-7.736c-3.983-4.845-9.321-7.687-13.408-12.068c-0.79-0.846-0.603-2.604-0.948-4.355
			c-4.963-0.605-10.198-1.698-11.813-8.08c-0.106-0.42-0.626-0.771-1.013-1.081c-5.39-4.338-10.891-8.546-16.149-13.038
			c-2.852-2.436-4.977-5.81-8.015-7.918c-3.149-2.185-5.265-5.312-7.948-7.552c-4.719-3.941-8.444-8.625-12.733-12.757
			c-6.198-5.972-11.25-12.958-17.515-18.625c-4.534-4.101-7.851-8.999-12.056-13.133c-2.366-2.326-4.924-3.996-6.192-7.366
			c-0.726-1.928-3.042-3.217-4.485-4.926c-1.25-1.48-2.278-3.148-3.406-4.732c-1.454-2.042-2.964-4.048-4.35-6.136
			c-1.352-2.036-2.458-4.243-3.891-6.218c-1.628-2.245-3.11-4.95-5.35-6.32c-3.938-2.41-4.592-5.452-3.388-9.479
			c-3.778-2.161-8.135-3.318-8.77-8.847c-0.263-2.29-2.738-4.34-4.251-6.468c-0.569-0.8-1.882-1.586-1.801-2.25
			c0.657-5.419-4.069-7.125-6.659-10.357c-1.417-1.769-1.484-4.613-2.894-6.392c-4.007-5.06-6.34-10.977-9.397-16.528
			c-1.538-2.791-5.48-4.189-4.57-8.46c0.159-0.746-0.62-1.922-1.283-2.576c-4.074-4.02-5.257-9.43-7.366-14.447
			c-3.026-7.201-8.286-13.93-9.384-21.335c-0.984-6.634-8.141-10.889-5.751-18.155c-4.306-4.761-4.873-10.913-6.277-16.765
			c-0.817-3.401-1.803-6.762-2.649-10.156c-0.237-0.949,0.109-2.242-0.415-2.89c-3.092-3.82-2.765-8.53-4-12.822
			c-1.624-5.641-3.958-10.949-3.988-17.02c-0.015-3.189-1.259-6.354-1.557-9.565c-0.321-3.454,0.839-7.184-2.936-9.674
			c-0.742-0.49-1.003-2.062-1.072-3.16c-0.417-6.597-0.591-13.211-1.109-19.799c-0.216-2.742,1.802-6.354-2.56-7.937
			c-0.413-0.149-0.354-1.842-0.364-2.819c-0.04-3.666,0.241-7.356-0.088-10.992c-0.338-3.726-1.375-7.382-1.875-11.1
			c-0.504-3.742-0.822-7.518-1.047-11.289c-0.404-6.788-0.954-13.584-0.933-20.375c0.024-7.935,1.12-15.892,0.758-23.794
			c-0.282-6.14,0.792-11.673,2.734-17.404c1.281-3.782,0.695-8.153,1.477-12.156c1.666-8.521,3.101-17.16,5.736-25.397
			c2.02-6.313,6.526-11.836,8.49-18.157c2.361-7.599,6.951-13.629,11.373-19.811c5.464-7.64,11.075-15.249,17.366-22.196
			c4.766-5.263,10.077-10.666,16.254-13.865c9.429-4.884,17.179-13.054,28.086-14.975c6.247-1.1,11.115-5.446,17.061-6.899
			c6.154-1.504,12.549-2.008,18.817-3.072c1.699-0.288,3.322-1.021,4.978-1.555c1.397-0.449,2.782-1.261,4.189-1.298
			c6.201-0.162,12.408-0.034,18.61-0.151c2.787-0.053,5.564-0.553,8.351-0.622c1.738-0.043,3.5,0.263,5.227,0.555
			c1.592,0.271,3.15,1.044,4.726,1.053c5.024,0.029,10.216-1.263,14.629,2.466c0.454,0.384,1.374,0.726,1.827,0.523
			c5.59-2.497,10.094,0.386,14.716,2.806c0.416,0.218,0.979,0.279,1.456,0.233c4.461-0.43,7.847,1.467,11.878,3.386
			c5.593,2.663,12.122,3.378,17.435,7.432C303.688,438.889,306.676,437.957,309.429,437.957z"/>
		<path fill-rule="evenodd" clip-rule="evenodd" fill="#FFFFFF" d="M952.226,1225.83c0.808,0.44,1.696,0.809,2.455,1.358
			c3.439,2.491,6.914,2.142,10.752,0.816c1.63-0.563,4.093-0.198,5.604,0.704c2.952,1.763,5.376,3.475,8.948,1.051
			c1.366-0.928,3.791-0.59,5.684-0.382c3.211,0.354,6.385,1.052,9.57,1.625c3.023,0.544,6.023,1.402,9.066,1.592
			c3.047,0.19,6.134-0.309,9.206-0.44c1.658-0.072,3.332-0.111,4.981,0.029c1.107,0.094,2.17,0.639,3.278,0.792
			c4.911,0.678,10.269-2.163,14.788,1.949c0.46,0.418,1.722,0.327,2.433,0.035c5.371-2.201,10.71-0.296,16.036,0.091
			c3.731,0.271,7.414,1.26,11.144,1.47c3.208,0.181,6.451-0.321,9.682-0.454c1.298-0.054,2.614-0.019,3.9,0.144
			c1.096,0.139,2.147,0.673,3.241,0.763c5.169,0.422,10.427-1.067,15.513,1.812c1.831,1.037,4.86,0.004,7.337-0.17
			c0.783-0.055,1.747-0.798,2.29-0.533c9.394,4.584,19.565,1.578,29.18,3.188c5.028,0.841,9.723,2.615,14.86,0.879
			c0.659-0.223,1.682,0.765,2.575,1.075c1.82,0.635,3.641,1.58,5.509,1.713c11.206,0.799,22.454,1.106,33.632,2.164
			c9.563,0.904,19.06,2.541,28.564,3.993c1.381,0.211,2.66,1.165,3.954,1.84c1.156,0.603,2.447,2.043,3.369,1.822
			c5.411-1.297,10.146,1.283,15.136,2.266c8.056,1.587,16.346,1.206,24.174,5.128c4.853,2.431,11.139,2.015,16.787,2.832
			c1.146,0.165,2.397-0.115,3.467,0.227c4.735,1.515,9.388,3.289,14.133,4.77c7.889,2.462,15.926,4.482,23.715,7.219
			c9.239,3.246,18.237,7.174,27.422,10.584c9.048,3.358,18.338,6.1,27.26,9.752c6.994,2.862,13.673,6.543,20.338,10.146
			c7.837,4.238,15.754,8.414,23.159,13.335c4.553,3.025,8.359,7.256,12.127,11.294c0.632,0.678-0.113,3.652-1.123,4.677
			c-4.653,4.723-9.685,8.559-16.543,10.351c-8.057,2.105-15.571,6.206-23.541,8.754c-5.061,1.618-10.521,1.989-15.803,2.908
			c-2.081,0.362-4.668,0.033-6.158,1.162c-4.398,3.329-9.325,2.436-14.184,2.952c-7.096,0.754-14.113,2.242-21.161,3.431
			c-0.482,0.081-0.939,0.364-1.42,0.403c-8.503,0.701-17.01,1.361-25.512,2.078c-1.444,0.122-2.863,0.584-4.307,0.672
			c-2.131,0.131-4.275,0.017-6.41,0.099c-3.322,0.126-7.133-0.625-9.827,0.762c-2.831,1.458-4.69,1.242-7.267,0.204
			c-2.224-0.896-5.773-2.436-6.886-1.497c-5.606,4.73-11.589,1.458-17.368,1.785c-5.694,0.322-11.346,3.699-17.082,0.004
			c-0.589-0.38-1.74-0.307-2.45-0.01c-5.717,2.383-11.034,2.681-16.163-1.708c-0.798-0.684-3.748,0.126-4.948,1.139
			c-2.892,2.44-5.313,1.206-8.227,0.235c-3.033-1.01-6.592-2.136-9.491-1.436c-3.752,0.906-6.54-0.316-9.873-1.139
			c-3.804-0.938-7.986-0.315-12.002-0.433c-1.633-0.048-3.696,0.327-4.813-0.502c-3.573-2.654-7.221-2.781-11.198-1.505
			c-2.682,0.86-4.997,0.82-7.035-1.729c-2.831-3.542-6.628-3.959-10.335-1.604c-2.885,1.832-5.221,1.682-7.26-0.843
			c-2.524-3.125-5.807-3.227-8.957-1.983c-2.896,1.143-4.81,0.777-6.75-1.553c-2.473-2.969-5.623-3.307-9.396-2.674
			c-2.206,0.37-5.1-0.262-6.942-1.525c-3.055-2.096-5.94-3.392-9.371-1.648c-2.985,1.518-5.353,1.164-7.486-1.386
			c-0.518-0.618-1.17-1.409-1.872-1.546c-7.538-1.467-15.107-2.773-22.646-4.236c-1.681-0.326-3.301-1.03-4.898-1.683
			c-0.74-0.302-1.301-1.129-2.045-1.32c-6.626-1.706-13.271-3.34-19.924-4.94c-0.791-0.19-1.977,0.301-2.445-0.119
			c-5.726-5.131-13.395-5.346-20.059-8.069c-1.637-0.669-3.283-1.62-4.984-1.769c-7.36-0.641-15.469-7.483-17.354-14.812
			c-0.399-1.551-0.897-3.192-1.798-4.479c-5.897-8.425-11.83-16.83-17.955-25.09c-1.71-2.306-4.066-4.146-6.201-6.118
			c-3.238-2.992-6.684-5.772-9.788-8.894c-7.307-7.344-9.017-17.306-12.49-26.521c-1.896-5.029-3.594-9.15,1.535-12.854
			C948.693,1227.277,950.431,1226.708,952.226,1225.83z"/>
	</g>
</g>
</svg>
