<?xml version="1.0" encoding="utf-8"?>
<!-- Generator: Adobe Illustrator 16.0.0, SVG Export Plug-In . SVG Version: 6.00 Build 0)  -->
<!DOCTYPE svg PUBLIC "-//W3C//DTD SVG 1.1//EN" "http://www.w3.org/Graphics/SVG/1.1/DTD/svg11.dtd">
<svg version="1.1" id="Layer_1" xmlns="http://www.w3.org/2000/svg" xmlns:xlink="http://www.w3.org/1999/xlink" x="0px" y="0px"
	 width="1495.813px" height="1774.778px" viewBox="0 0 1495.813 1774.778" enable-background="new 0 0 1495.813 1774.778"
	 xml:space="preserve">
<g>
	<g>
		<path fill-rule="evenodd" clip-rule="evenodd" fill="none" d="M746.906,1c248.802,0,497.604,0.01,746.406-0.094
			c3.749-0.001,4.594,0.845,4.593,4.593c-0.097,588.926-0.097,1177.853,0,1766.778c0.001,3.749-0.844,4.594-4.593,4.593
			c-495.938-0.098-991.875-0.098-1487.813,0c-3.749,0.001-4.593-0.844-4.592-4.593C1.004,1181.852,1,591.426,1,1
			c240.97,0,481.939,0,722.909,0c-0.35,1.871-1.849,1.078-2.793,1.033c-7.628-0.354-15.232,0.637-22.749,1.303
			c-12.852,1.14-25.836,1.247-38.556,3.757c-7.258,1.432-14.922,0.035-21.871,3.935c-6.18,3.467-11.709,7.679-14.693,13.975
			c-2.662,5.617-0.361,10.912,2.325,16.668c5.392,11.556,9.149,23.887,13.405,35.959c2.517,7.141,5.618,14.039,9.104,20.7
			c6.072,11.601,13.167,22.524,21.34,32.884c6.71,8.507,13.371,17.036,20.55,25.146c3.058,3.455,5.324,6.951,6.269,11.746
			c0.97,4.922,2.622,9.775,6.149,14.029c3.697,4.458,8,8.478,10.684,13.868c12.345,24.784,11.733,50.641,6.967,76.935
			c-0.24,1.329-0.33,2.048-1.925,2.148c-3.262,0.202-6.42,1.079-9.766,1.021c-10.466-0.182-20.99-0.726-31.397,0.084
			c-17.447,1.357-34.94,1.003-52.406,2.492c-18.519,1.579-37.244-0.172-55.849,1.338c-7.725,0.627-15.519,0.497-23.231,0.679
			c-15.749,0.37-31.42,1.752-47.134,2.449c-3.969,0.176-8.174,0.278-11.879,2.146c-1.04,0.524-2.542,1.417-2.273,2.922
			c0.206,1.154,1.917,1.18,2.574,1.771c4.814,4.321,10.922,2.84,16.374,3.68c6.88,1.062,8.838,2.179,9.892,8.873
			c1.81,11.491,5.391,22.403,11.038,32.593c1.837,3.312,3.372,7.035,5.985,9.62c5.043,4.99,9.453,10.483,15.511,14.721
			c7.257,5.075,14.481,9.721,22.874,12.363c14.063,4.427,28.758,4.454,43.222,4.848c25.144,0.687,50.321,0.191,75.485,0.191
			c13.8,0,27.6,0,41.438,0c-0.426,2.947-1.46,5.75,0.2,8.276c1.583,2.411,1.236,4.526-0.146,6.791
			c-0.931,1.525-1.277,3.261-1.777,4.975c-1.098,3.761,1.394,7.246,0.219,10.927c-0.356,1.116-0.248,2.845-1.738,2.08
			c-3.956-2.033-7.656,0.352-11.5,0.249c-13.655-0.366-27.325-0.173-40.989-0.111c-1.263,0.006-2.899-0.686-3.943,0.833
			c1.019,1.45,2.274,0.946,3.327,0.949c11.166,0.036,22.333,0.163,33.494-0.075c3.411-0.073,4.698,0.638,4.357,4.259
			c-0.571,6.077-0.045,12.197,1.628,18.038c3.211,11.207,6.871,22.285,10.285,33.435c2.881,9.408,5.114,18.979,6.983,28.637
			c1.994,10.307,4.959,20.535,5.777,30.933c1.083,13.741,3.392,27.348,3.588,41.222c0.165,11.705,0.844,23.399,0.798,35.146
			c-0.086,21.421-2.252,42.599-5.048,63.788c-1.779,13.48-4.96,26.633-8.148,39.783c-2.856,11.784-6.897,23.402-6.685,35.623
			c0.099,5.664-4.539,4.233-6.746,6.262c-1.929,1.772-4.383,0.867-5.589-1.416c-1.472-2.788-3.791-4.667-6.146-6.484
			c-3.371-2.603-5.619-5.378-5.111-10.131c0.221-2.053-1.375-4.162-3.113-6.034c-5.375-5.792-11.176-11.491-15.1-18.225
			c-2.824-4.846-6.864-8.488-9.952-12.997c-7.538-11.006-16.593-20.966-24.832-31.509c-1.186-1.518-3.46-2.982-2.774-5.401
			c1.348-4.754,1.805-8.873-4.647-9.946c-0.236-0.039-0.473-1.218-0.394-1.824c0.489-3.737-2.384-5.539-4.864-5.661
			c-3.115-0.153-4.161-2.215-4.908-3.945c-1.93-4.461-4.046-4.534-7.545-1.682c-1.289,1.052-3.577,1.418-5.008-0.535
			c-4.748-6.477-10.704-12.053-13.306-20.081c-3.222-9.936-10.355-16.227-20.013-20.1c-6.474-2.597-12.993-5.398-16.243-12.457
			c-6.356-13.807-14.297-26.417-24.517-37.937c-7.733-8.717-16.656-15.459-26.279-21.315c-8.957-5.449-16.571-11.214-18.931-22.178
			c-0.512-2.38-1.822-4.916-3.725-7.156c-6.702-7.891-14.061-15.157-20.921-22.869c-7.824-8.794-16.036-17.162-24.524-25.276
			c-3.038-2.904-6.425-2.728-9.549,0.269c-4.816,4.621-7.146,4.588-11.466-0.41c-5.99-6.93-13.406-12.352-19.664-19.083
			c-5.908-6.357-12.482-12.213-18.654-18.416c-2.148-2.16-5.323-5.645-8.939-1.321c-0.971,1.161-1.692,1.138-2.669,0.022
			c-2.118-2.42-5.003-2.93-7.981-2.691c-2.542,0.204-3.721-0.867-4.833-3.098c-2.588-5.195-6.703-8.462-12.871-7.924
			c-2.466,0.215-4.414-0.642-5.41-2.606c-2.584-5.096-6.819-6.634-12.125-6.46c-3.024,0.1-5.304-0.618-7.398-3.5
			c-3.104-4.269-8.339-6.292-13.321-5.15c-3.388,0.775-4.76-0.322-6.659-2.216c-3.593-3.586-7.825-6.386-13.024-4.731
			c-2.82,0.897-4.692,0.193-6.767-1.112c-4.405-2.773-8.652-5.505-14.385-3.402c-2.166,0.795-4.78,0.252-7.104-1.081
			c-4.666-2.673-9.537-3.883-14.979-1.951c-1.856,0.659-4.076,0.229-6.216-0.731c-4.506-2.024-9.528-1.9-13.979-0.338
			c-2.735,0.961-5.064,1.122-7.345,0.097c-3.566-1.604-7.789-1.858-10.618-0.578c-8.097,3.665-17.56-1.077-25.049,4.704
			c-8.831-2.015-16.212,3.423-24.396,4.732c-1.779,0.284-3.936-0.202-5.332,0.64c-8.513,5.133-18.791,5.68-27.233,11.431
			c-8.138,5.543-17.445,9.21-25.861,14.648c-7.012,4.53-13.578,9.582-19.593,15.015c-5.935,5.361-11.697,11.148-17.162,17.159
			c-5.613,6.173-10.025,13.091-15.158,19.526c-2.113,2.648-2.094,6.677-4.625,8.465c-5.938,4.192-6.373,11.597-10.715,16.58
			c-0.856,0.983-0.595,4.428-3.542,1.986c-0.227-0.188-1.207,0.289-1.665,0.666c-1.163,0.957,0.252,1.244,0.593,1.745
			c1.803,2.656,0.208,10.612-2.446,11.986c-0.875,0.453-2.991,2.557-2.779,2.979c2.417,4.81-3.747,6.941-3.4,11.072
			c-4.822,0.886-0.919,3.151-0.86,4.898c0.09,2.693,1.718,6.145-2.486,7.313c-1.408,0.391-1.29,1.233-1.319,2.194
			c-0.093,3.056-0.668,6.208-0.109,9.142c0.525,2.751-2.004,3.598-2.339,5.618c-3.809-0.946-1.796,2.305-2.655,3.477
			c-1.858,2.538,3.114,2.334,1.523,5.701c-1.745,3.691-3.147,8.357-2.667,12.835c0.284,2.649-1.622,4.509-1.439,7.404
			c0.213,3.385,0.994,6.859,0.695,10.328C7.222,579.64,7.292,589.746,6.98,599.84c-0.176,5.664,1.589,11.122,1.11,16.762
			c-0.238,2.799-1.533,5.644,0.044,8.401c1.064,1.86,0.637,3.522,0.333,5.56c-0.639,4.277-0.935,8.416,1.146,12.971
			c2.328,5.097,5.133,10.612,3.59,16.932c-0.551,2.258-1.307,5.746,0.503,7.177c3.751,2.968,3.396,6.683,3.327,10.485
			c-0.047,2.542,0.434,5.086,1.89,6.9c1.767,2.202,1.752,4.885,0.96,6.538c-1.781,3.714-0.111,6.48,1.67,8.984
			c1.305,1.834,1.65,3.497,1.511,5.481c-0.633,9.078,3.659,17.238,5.548,25.759c1.65,7.44,2.192,15.904,7.547,22.343
			c1.179,1.418,1.112,3.127,0.868,4.703c-0.467,3.003,0.667,5.459,2.37,7.658c1.058,1.366,1.357,2.784,1.812,4.378
			c1.176,4.116-1.489,9.144,2.927,12.46c0.999,0.751,2.831,1.758,2.728,2.398c-1.028,6.379,2.26,10.918,5.924,15.435
			c0.513,0.633,0.357,1.945,0.255,2.916c-0.368,3.502,0.338,6.422,3.383,8.692c1.697,1.265,2.372,3.285,2.724,5.518
			c1.283,8.131,7.025,14.48,9.179,22.296c0.077,0.277,0.413,0.564,0.698,0.693c3.181,1.433,4.321,3.979,4.415,7.347
			c0.099,3.558,2.516,5.835,4.943,8.093c1.151,1.07,2.51,1.919,2.755,3.9c1.051,8.481,9.128,13.258,11.393,21.15
			c0.081,0.282,0.419,0.52,0.684,0.714c6.21,4.547,5.469,14.436,13.513,17.661c0.431,0.173,0.155,1.879,0.383,2.828
			c0.562,2.328,0.71,5.005,3.078,6.318c2.895,1.605,5.049,3.146,5.296,7.101c0.176,2.813,2.598,5.361,5.375,6.719
			c2.591,1.268,3.987,3.055,4.257,5.939c0.281,2.992,2.04,5.705,4.622,6.438c2.751,0.782,3.467,2.761,4.218,4.583
			c1.784,4.324,3.618,8.242,9.029,8.799c1.498,0.154,2.252,1.387,2.053,2.905c-0.711,5.423,3.14,7.475,7.096,8.865
			c2.161,0.759,3.261,1.596,2.882,3.7c-0.588,3.271,1.527,5.477,3.689,6.391c4.142,1.75,6.243,4.582,7.676,8.604
			c0.526,1.475,2.058,2.83,3.916,3.562c1.405,0.554,3.344,1.68,3.614,2.874c1.938,8.577,13.064,8.997,15.21,17.402
			c0.287,1.122,2.5,2.17,3.979,2.47c2.075,0.421,2.982,1.675,3.994,3.239c2.551,3.944,4.761,8.422,10.669,7.941
			c1.564-0.127,1.139,1.182,1.306,2.095c0.679,3.698,2.924,6.008,6.155,7.938c6.402,3.824,11.595,9.311,17.126,14.19
			c5.6,4.941,12.417,8.522,16.966,14.687c0.478,0.647,1.767,0.658,2.63,1.07c1.154,0.552,2.938,0.951,3.278,1.856
			c2.844,7.561,12.12,8.442,15.604,15.327c1.507,2.978,5.875,2.031,7.681,4.832c2.648,4.105,7.071,5.795,10.689,8.522
			c4.682,3.531,8.851,7.562,14.483,9.692c0.725,0.274,1.004,1.601,1.606,2.347c4.848,6.003,13.086,7.441,18.033,13.337
			c0.14,0.167,0.642,0.048,0.974,0.032c2.716-0.13,4.689,1.284,6.331,3.202c4.669,5.449,13.205,5.373,17.056,11.998
			c0.712,1.227,2.107,0.628,3.202,0.851c2.176,0.445,4.935,0.379,5.988,2.561c1.917,3.964,5.187,5.217,9.066,5.344
			c2.282,0.075,3.972,1.584,4.849,2.841c1.106,1.584,2.18,2.483,3.834,2.386c7.82-0.46,12.274,8.933,20.61,6.997
			c0.484-0.113,1.268,0.907,1.863,1.453c6.095,5.576,14.322,5.73,21.6,8.179c2.687,0.904,5.418,0.788,7.879,3.01
			c2.325,2.101,5.119,4.528,9.14,2.36c1.91-1.03,4.105,0.439,5.792,1.812c5.873,4.778,14.059,2.871,20.173,6.977
			c0.21,0.142,0.822-0.403,1.275-0.519c2.611-0.666,5.057-0.986,7.372,1.166c0.943,0.878,2.397,1.709,4.029,1.417
			c6.454-1.154,11.757,1.12,16.106,5.8c-1.875,2.287-4.784,3.738-7.436,1.713c-2.417-1.846-5.09-1.93-6.986-1.145
			c-3.729,1.544-6.947,0.84-10.468-0.137c-2.921-0.811-5.961-0.633-8.641,0.971c-1.445,0.865-2.485,0.376-3.965,0.074
			c-8.243-1.677-16.627,0.159-24.953-0.558c-1.395-0.12-3.079,2.266-4.455,1.277c-7.272-5.227-15.486,2.921-22.729-1.771
			c-0.364-0.236-1.229,0.212-1.826,0.435c-7.351,2.729-15.193-2.125-22.504,1.443c-0.351,0.171-1.088-0.008-1.41-0.292
			c-3.507-3.097-6.581-0.86-9.819,0.604c-1.426,0.645-2.583,2.615-4.724,0.946c-2.735-2.13-5.771-1.108-8.875-0.541
			c-6.814,1.245-14.032-1.076-20.675,2.259c-0.535,0.269-1.52-0.36-2.296-0.567c-2.445-0.65-5.236-1.093-7.281,0.048
			c-3.146,1.755-6.405,2.071-9.543,1.486c-10.974-2.047-21.348,3.604-32.243,2.226c-1.109-0.14-2.323,1.102-3.555,1.31
			c-6.667,1.121-13.353,2.125-20.038,3.13c-0.248,0.038-0.551-0.478-0.837-0.487c-1.16-0.037-2.333-0.066-3.484,0.06
			c-9.95,1.089-19.32,4.719-29.271,6.256c-13.862,2.142-27.266,7.111-40.984,10.378c-6.609,1.572-12.783,3.636-18.894,6.757
			c-6.588,3.363-13.884,5.503-20.899,7.974c-14.925,5.253-27.764,14.111-40.821,22.453c-16.469,10.522-30.557,23.992-43.243,38.918
			c-12.402,14.592-21.954,30.907-29.464,48.408c-7.644,17.812-10.621,36.874-12.871,55.901c-1.879,15.896,0.23,31.797,4.202,47.323
			c3.269,12.778,9.045,24.618,14.315,36.64c3.177,7.247,8.631,12.875,13.395,18.96c6.978,8.914,14.827,17.076,24.083,23.667
			c8.515,6.064,16.191,13.168,25.755,17.997c5.3,2.675,10.671,5.744,15.856,8.908c6.921,4.223,14.188,7.885,21.636,11.193
			c10.181,4.524,20.095,9.646,30.28,14.159c9.165,4.061,19.276,5.771,27.986,11.029c2.547,1.538,5.829,0.126,8.319,2.254
			c6.131,5.236,14.229,5.784,21.442,8.215c7.102,2.391,13.843,4.893,19.584,9.773c1.096,0.931,2.321,1.999,3.651,2.317
			c7.018,1.683,13.709,4.289,20.458,6.766c3.391,1.244,5.352,3.277,7.005,6.677c3.743,7.695,9.994,14.06,18.109,16.017
			c8.159,1.97,15.217,6.718,23.825,7.555c6.875,0.669,12.716,5.842,19.866,6.701c3.828,0.46,7.546,1.237,11.164,2.957
			c7.222,3.434,15.185,4.789,23.007,5.312c10.519,0.704,20.663,1.328,29.128,8.803c2.968,2.621,6.655,4.675,10.34,6.193
			c16.418,6.764,32.969,13.17,51.314,11.188c2.022-0.218,4.031,0.016,5.656,1.246c4.774,3.614,9.898,6.675,14.919,9.913
			c9.561,6.168,20.38,9.623,31.049,12.414c8.679,2.271,18.092,3.598,27.393,2.411c2.537-0.323,5.178,0.209,6.931,1.685
			c5.712,4.81,11.689,9.025,18.407,12.409c5.917,2.981,11.967,6.56,18.175,7.528c9.653,1.505,19.503,3.816,29.431,2.326
			c7.464-1.12,13.729,1.748,19.654,5.417c13.255,8.209,27.421,12.961,43.134,12.653c2.826-0.056,6.083-0.838,8.409,0.263
			c9.993,4.73,20.529,3.983,30.961,3.61c7.837-0.281,14.6,0.979,20.833,6.339c4.688,4.032,10.99,5.805,16.909,2.658
			c9.029-4.801,17.934-3.862,26.818-0.465c5.813,2.224,11.178,5.391,16.429,8.911c5.053,3.386,11.371,5.421,17.513,4.16
			c5.35-1.1,9.499-5.286,13.795-8.628c9.786-7.61,10.068-29.708,6.547-39.623c-2.131-6.001-6.911-8.89-11.692-11.806
			c-3.546-2.165-7.492,0.319-11.061,0.294c-7.146-0.052-16.379,4.592-20.669-6.073c-0.356-0.886-1.671-1.579-2.69-1.973
			c-7.653-2.95-12.916-8.591-16.903-15.427c-1.219-2.089-3.421-3.611-4.739-3.711c-5.396-0.403-10.387-3.401-15.938-2.386
			c-5.114,0.936-8.799-1.346-12.066-5.037c-5.029-5.681-11.168-9.951-18.342-12.382c-6.267-2.124-12.634-4.224-17.891-8.141
			c-13.39-9.977-28.486-14.164-44.868-14.354c-4.184-0.049-7.562-1.217-10.64-3.976c-17.207-15.422-37.293-23.695-60.493-24.097
			c-6.724-0.116-12.89,0.443-18.747-5.466c-6.35-6.408-15.417-10.188-23.967-13.102c-12.973-4.42-26.25-8.837-40.415-7.412
			c-2.706,0.271-5.987,0.16-7.499-1.43c-4.822-5.068-11.064-7.514-16.935-10.731c-15.372-8.426-31.446-14.33-49.286-13.825
			c-6.897,0.195-13.646,0.49-18.118-6.291c-0.665-1.009-2.016-1.651-3.162-2.245c-13.635-7.058-27.456-13.611-42.188-18.224
			c-13.334-4.175-26.375-9.274-39.655-13.637c-8.522-2.799-16.499-1.404-23.636,4.398c-2.589,2.104-5.623,4.753-9.057,3.804
			c-5.51-1.524-11.14-2.774-16.401-5.249c-4.224-1.986-8.593-3.91-13.493-1.603c-5.183,2.44-10.209,3.553-16.211,1.345
			c-3.19-1.172-6.448-2.636-9.848-3.52c-8.964-2.33-17.712-5.346-25.823-9.926c-0.894-0.505-1.7-0.815-2.718-0.904
			c-5.83-0.506-10.989-3.396-16.295-5.366c-10.274-3.813-20.05-8.974-30.017-13.609c-6.958-3.237-14.128-6.111-20.786-9.885
			c-17.787-10.076-34.332-21.758-48.319-36.974c-10.611-11.543-17-25.426-19.05-40.148c-3.343-24.003,2.303-46.82,13.982-68.453
			c7.182-13.303,16.267-25.08,26.029-36.133c11.279-12.773,25.934-21.697,40.998-29.971c10.677-5.865,22.012-9.793,33.006-14.689
			c0.904-0.402,1.685-0.882,2.716-0.875c9.095,0.054,16.428-6.381,25.376-6.938c0.725-0.045,1.615-0.602,2.073-1.195
			c1.263-1.639,2.825-1.985,4.796-1.901c3.086,0.131,5.974-0.386,9.037-1.486c4.262-1.532,9.514,0.576,13.433-3.317
			c0.476-0.473,2.223,0.174,3.313,0.518c1.512,0.478,2.835,0.501,4.205-0.463c7.206-5.077,15.992-2.949,23.871-5.089
			c2.89-0.784,5.939-0.414,9.023-1.603c4.583-1.766,10.001-1.561,14.715-1.842c4.608-0.276,9.138,2.009,13.105-2.289
			c1.087-1.179,2.167,0.229,3.084,0.686c3.035,1.512,6.032,1.39,8.907-0.132c2.494-1.318,4.637-2.254,7.739-1.159
			c1.979,0.697,4.886,1.153,7.007-1.044c2.002-2.075,4.086-1.702,6.438-0.168c2.97,1.938,6.083,2.52,8.618-0.957
			c1.454-1.993,3.13-1.946,5.129-0.658c0.892,0.576,1.873,1.184,3.168,1.085c5.688-0.434,11.332-3.642,17.155-0.174
			c0.686,0.408,2.522-0.559,3.501-1.309c2.308-1.768,4.325-1.449,6.543,0.118c2.986,2.11,5.829,1.576,8.324-0.937
			c1.367-1.376,2.432-1.989,4.688-1.154c8.166,3.021,16.731,0.316,25.091,1.162c0.679,0.07,1.449-0.648,2.159-1.034
			c0.695-0.377,1.408-1.198,2.168-0.326c2.269,2.604,5.258,1.446,7.96,1.556c9.295,0.379,18.788-2.005,27.824,2.03
			c0.276,0.123,0.749,0.138,0.979-0.02c4.934-3.342,9.825-1.087,14.747,0.021c0.951,0.215,1.995-0.013,2.992,0.038
			c8.277,0.416,16.723-2.113,24.838,1.834c1.703,0.828,4.337,0.33,6.344-0.247c1.555-0.446,2.726-0.078,4.157,0.045
			c5.842,0.501,11.619,0.802,17.424,2.186c6.378,1.521,12.123-2.146,17.904-4.42c0.891-0.351,1.034-1.513,2.622-0.522
			c6.901,4.307,14.661,5.159,22.502,3.972c2.937-0.445,5.836-0.639,8.765-0.905c2.62-0.239,3.431,0.594,3.27,3.232
			c-0.501,8.201-3.422,15.666-6.663,23.045c-1.155,2.632-1.64,5.823-4.375,7.382c-4.948,2.817-7.812,8.063-12.802,10.75
			c-4.22,2.273-3.434,7.037-5.413,10.383c-6.518,11.011-15.041,20.939-17.976,33.86c-0.273,1.205-0.594,2.732-1.447,3.418
			c-5.952,4.775-7.066,12-9.269,18.518c-4.337,12.843-2.683,26.69-6.059,39.758c-1.229,4.756,0.163,9.658-0.086,14.479
			c-0.792,15.323,4.431,29.414,9.187,43.497c3.902,11.557,11.156,21.285,18.376,31.109c7.436,10.116,16.201,18.706,26.479,25.36
			c15.921,10.31,33.299,17.882,51.604,23.111c9.7,2.771,19.29,6.479,29.195,7.85c13.633,1.888,26.868,5.378,40.152,8.523
			c6.641,1.572,12.89,2.252,19.199,0.531c3.996-1.09,7.335-1.267,10.512,1.425c1.345,1.139,2.965,1.045,4.27,0.691
			c6.543-1.775,13.181-0.55,19.761-0.885c2.291-0.116,4.519-0.106,6.742-0.993c5.322-2.121,11.441-0.016,16.676-2.995
			c0.577-0.329,1.646-0.026,2.404,0.228c11.336,3.8,23.021,1.813,34.449,1.398c13.885-0.504,27.349-4.996,41.35-5.922
			c7.9-0.522,15.582-3.792,23.482-5.099c5.485-0.906,10.468-3.374,15.717-4.407c9.953-1.959,18.717-5.667,26.126-12.554
			c2.721-2.528,5.647-4.154,9.611-3.804c2.376,0.21,4.763,0.34,7.258-0.711c14.42-6.077,26.254-15.668,36.167-27.439
			c7.018-8.334,13.341-17.104,17.57-27.639c2.503-6.234,6.026-12.25,7.873-18.878c1.467-5.264,3.44-10.306,3.855-15.968
			c0.563-7.676,2.021-15.283,1.832-23.046c-0.053-2.194,0.394-4.262,3.503-2.322c5.652,3.525,13.159,1.543,18.518,6.099
			c0.292,0.248,0.98,0.097,1.472,0.034c3.992-0.509,7.354,0.853,10.428,3.306c1.941,1.55,4.46,2.626,6.703,2.507
			c4.49-0.237,8.058,2.298,12.019,3.048c6.588,1.248,12.845,3.429,19.29,4.921c3.856,0.893,7.98,0.58,11.888,2.169
			c11.561,4.7,24.754,1.79,36.231,7.808c2.767,1.451,7.188,0.749,10.768-0.223c0.607-0.165,1.334-0.824,1.77-0.317
			c4.729,5.487,10.614,5.548,16.963,3.842c0.496-0.134,1.302,0.286,1.754,0.685c3.319,2.93,7.342,2.2,11.219,2.265
			c3.598,0.06,7.197-0.293,10.725,1.001c4.592,1.686,9.33,1.785,13.847-0.161c1.458-0.629,2.717-0.322,3.498,0.29
			c5.433,4.258,11.005,3.992,16.854,1.063c1.087-0.545,2.115-0.122,3.12,0.77c4.956,4.403,10.323,3.942,15.723,0.938
			c1.416-0.788,2.558-1.373,4.028-0.187c2.559,2.063,5.652,2.769,8.754,2.194c6.514-1.205,12.948-1.549,19.438,0.049
			c1.093,0.268,2.833,0.49,3.403-0.104c4.503-4.683,9.817-1.981,14.807-1.838c6.987,0.201,13.935-3.155,20.98-0.103
			c1.302,0.564,2.866-0.094,4.202-0.914c3.85-2.359,7.75-3.154,12.197-1.188c1.609,0.712,3.908,0.586,5.844-0.25
			c3.831-1.655,7.524-3.241,12.003-1.72c2.555,0.868,5.789,0.571,8.125-0.962c7.594-4.982,16.491-2.621,24.665-4.493
			c6.157-1.41,12.966-1.811,19.264-2.862c11.205-1.869,22.04-6.093,32.946-9.593c10.893-3.498,21.381-8.049,31.156-14.01
			c7.983-4.867,15.322-10.437,22.02-17.238c6.99-7.102,12.473-15.643,13.175-24.385c1.091-13.582,3.104-27.574-5.827-40.962
			c-9.014-13.512-20.48-23.411-33.517-32.115c-8.23-5.496-17.509-9.154-26.136-13.919c-7.891-4.357-16.184-8.205-24.563-10.432
			c-6.702-1.781-11.968-5.883-18.397-7.95c-5.878-1.89-12.8-1.972-17.826-6.605c-0.641-0.59-2.269-0.238-3.418-0.119
			c-2.257,0.233-4.004-0.961-5.982-1.692c-6.213-2.299-12.501-4.45-18.888-6.188c-1.829-0.498-3.896-0.461-5.548-1.512
			c-5.98-3.802-13.82-2.017-19.554-6.566c-0.406-0.321-1.321-0.14-1.961-0.005c-6.412,1.345-12.506-1.386-17.956-3.323
			c-7.795-2.771-15.638-3.772-23.571-4.594c-6.559-0.679-12.165-6.119-19.27-3.64c-0.328,0.115-0.854-0.381-1.301-0.555
			c-7.312-2.837-15.309-1.686-22.73-3.903c-1.368-0.408-2.331,1.592-4.111,0.387c-6.52-4.41-14.511-1.812-21.598-4.228
			c-3.692-1.26-7.887-0.661-11.98-1.756c-6.319-1.69-13.679-2.241-19.676-1.683c-7.354,0.685-14.167-5.954-21.262-0.821
			c-0.214,0.155-0.942-0.216-1.315-0.494c-2.466-1.839-5.318-1.489-8.093-1.433c-7.079,0.146-13.949-3.788-21.17-1.038
			c-1.103,0.42-1.687-0.813-2.529-1.242c-3.114-1.586-6.325-2.73-9.638-0.511c-1.738,1.164-3.365,1.091-5.059-0.057
			c-1.88-1.276-4.087-1.531-6.173-1.104c-4.553,0.936-8.751,0.734-12.885-1.777c-1.191-0.724-3.638-0.69-4.78,0.079
			c-2.895,1.946-5.306,0.337-8.063,0.097c-6.839-0.594-13.696-0.796-20.409-2.432c-0.626-0.152-1.576-0.275-1.955,0.061
			c-3.291,2.927-6.308,0.915-9.847,0.346c-6.509-1.046-13.173-0.894-19.833-1.896c-4.93-0.742-10.573-0.653-15.899-0.527
			c-1.165,0.027-2.618-0.435-3.446,0.098c-2.809,1.803-4.732,0.3-7.092-1.012c-2.938-1.632-6.357-2.364-8.995,0.572
			c-2.068,2.302-4.11,1.31-5.567,0.013c-1.87-1.661-3.801-1.76-5.961-1.676c-4.536,0.176-9.285,2.292-13.344-1.808
			c-0.594-0.6-2.244-0.193-3.404-0.188c-9.14,0.048-18.38,1.864-27.302-1.769c-1.919-0.78-3.947-0.258-5.64,0.83
			c-1.708,1.098-3.272,0.544-5.074,0.47c-4.693-0.191-3.102-4.721-5.225-6.621c-5.385-4.82-7.672-12.094-13.397-16.91
			c-1.388-1.167-3.182-4.51-4.063-7.118c-1.377-4.072-2.953-8.094-4.319-12.094c-1.192-3.49-3.599-8.06-2.283-11.142
			c1.467-3.435-3.693-4.329-1.284-6.95c-4.757-0.379-5.11-5.329-7.966-7.766c-6.941-5.922-12.045-13.204-12.172-22.77
			c-0.191-14.496-0.064-28.995-0.027-43.493c0.004-1.431-0.064-2.78,0.755-4.269c1.905-3.463,2.398-7.163-0.308-10.628
			c-0.808-1.034-0.813-2.897-0.24-3.197c2.63-1.375,1.73-3.646,1.729-5.592c-0.005-4.104-0.276-8.143,2.773-11.582
			c1.609-1.813,1.836-4.428,1.105-6.57c-1.899-5.573-0.29-11.328-0.29-16.797c0-6.146-0.948-12.541,0.387-18.765
			c0.456-2.128-1.582-3.997-0.425-6.613c2.52-5.696-0.154-11.914,0.961-18.015c0.441-2.411,0.479-4.603,2.315-6.007
			c4.489-3.438,6.311-7.945,6.193-13.398c-0.052-2.36,0.399-4.182,2.132-6.188c2.939-3.405,5.986-7.663,4.564-12.266
			c-1.087-3.519,0.024-5.094,2.104-7.212c5.26-5.363,5.755-11.076,3.456-17.738c-0.972-2.82-3.23-0.942-4.345-2.871
			c-3.12-5.399-2.824-12.499-8.218-16.679c-3.829-2.968-2.96-7.786-4.815-11.444c-2.393-4.717-4.02-9.385-3.917-14.753
			c0.133-6.976,1.548-13.842,0.227-20.972c-1.499-8.092-1.967-16.406-6.359-23.617c-0.907-1.488-0.028-2.198,0.296-2.889
			c2.717-5.807,7.643-9.82,12.021-14.263c1.639-1.663,3.038-4.644,6.103-1.575c0.363,0.363,1.894,0.573,2.842-0.887
			c5.697-8.776,13.596-15.593,21.207-22.563c6.546-5.994,14.117-10.572,23.609-9.338c2.683,0.349,4.364-0.983,5.852-2.397
			c4.119-3.915,9.35-7.661,8.079-14.292c-0.979-5.105-2.091-10.377-5.585-14.684c-0.98-1.208-0.834-2.497,0.493-4.048
			c8.708-10.189,13.655-21.425,9.365-35.213c-0.729-2.343-1.535-3.584-3.875-4.379c-4.533-1.538-8.84-1.804-13.722-1.165
			c-6.405,0.838-12.139,3.442-16.086,7.512c-5.649,5.825-11.55,7.008-18.181,4.201c-8.429-3.568-15.299-3.119-21.481,4.215
			c-2.146,2.544-3.295,4.786-2.201,7.908c1.02,2.908,0.573,5.607-0.264,8.545c-1.879,6.592-6.268,11.795-9.183,17.795
			c-6.644,4.481-9.59,12.594-16.661,16.85c-1.375,0.827-4.625,3.874-1.739,7.336c1.105,1.326-0.449,2.72-1.576,3.938
			c-1.908,2.059-4.059,3.912-5.966,5.958c-1.635,1.755-3.158,6.288-5.84,4.646c-2.51-1.538-5.202-0.871-7.359-2.314
			c-2.142-1.433-3.773-2.997-4.132-6.036c-0.326-2.756-0.523-5.526-0.75-8.285c-0.94-11.461-4.404-22.379-7.037-33.48
			c-3.642-15.352-4.623-31.13-6.726-46.698c-2.047-15.165-1.703-30.66-2.283-46.015c-0.356-9.438,1.199-18.809,1.244-28.265
			c0.016-3.476,0.016-7.222,0.697-10.777c2.123-11.051,2.003-22.344,3.893-33.455c2.085-12.261,4.667-24.409,7.191-36.57
			c1.436-6.915,4.103-13.57,5.729-20.401c2.424-10.168,6.035-19.892,9.28-29.759c3.227-9.807,7.591-19.239,7.107-30.037
			c-0.197-4.396-1.065-6.291-5.656-5.612c-1.046,0.154-3.405,0.854-3.237-0.873c0.235-2.426,2.04-1.06,3.308-0.404
			c0.69,0.356,1.232-0.47,1.685-0.479c10.822-0.222,21.688,0.164,32.455-0.687c5.009-0.396,10.214,0.073,15.406-1.144
			c-1.07-2.76-3.052-2.327-4.797-2.322c-6.2,0.02-12.367,0.318-18.568,0.79c-9.94,0.756-19.98,0.232-29.978,0.188
			c-4.287-0.02-8.414,1.624-12.761,1.033c-3.737-0.508-2.429-3.907-2.768-5.68c-0.554-2.903,1.785-0.394,2.495-0.36
			c6.156,0.297,6.834-0.674,5.12-6.595c-0.843-2.915-4.213-5.369-2.066-8.926c1.858-3.079,1.724-6.584,0.897-9.593
			c-0.738-2.688-0.517-2.985,2.044-3.071c20.819-0.697,41.638,1.094,62.513-1.471c7.992-0.982,16.559-0.291,24.869-0.374
			c17.354-0.173,34.553-1.803,51.801-3.461c7.013-0.674,13.429-2.375,19.933-4.584c6.834-2.32,12.551-6.215,17.962-10.935
			c5.313-4.636,11.184-8.606,15.243-14.57c3.911-5.746,6.111-12.292,9.124-18.451c4.47-9.136,7.026-18.669,8.821-28.541
			c0.551-3.032,2.007-4.665,5.657-4.666c6.589-0.002,13.366,0.367,19.386-3.358c1.518-0.938,4.033-1.798,3.621-3.427
			c-0.479-1.9-3.199-2.562-5.134-2.852c-5.965-0.897-11.984-1.971-17.986-1.993c-20.399-0.074-40.704-2.579-61.115-2.125
			c-6.16,0.137-12.373,0.442-18.476-0.175c-5.058-0.511-10.071,0.086-15.148-0.463c-5.914-0.64-12.044,0.878-18.002,0.433
			c-6.634-0.496-13.188,0.531-19.775,0.088c-1.088-0.264-2.168-0.714-3.267-0.766c-13.573-0.64-27.141,0.474-40.729,0.098
			c-9.335-0.259-18.697,0.482-28.047,0.813c-1.817,0.064-2.811-0.732-3.001-2.497c-1.012-9.411-2.419-18.803-2.873-28.243
			c-0.368-7.64,1.164-15.201,2.729-22.749c2.989-14.406,7.23-28.088,17.894-38.896c2.814-2.852,4.811-6.272,5.151-10.199
			c0.466-5.367,2.671-9.623,6.166-13.614c5.429-6.2,11.534-11.87,16.523-18.343c8.434-10.944,16.264-22.296,22.696-34.731
			c6.009-11.614,11.3-23.448,15.953-35.589c3.885-10.133,6.062-20.87,11.636-30.422c3.144-5.385,4.242-11.129,0.148-17.083
			c-4.678-6.802-11.552-9.89-18.96-11.417c-10.938-2.255-22.037-4.031-33.155-5.055c-16.052-1.477-32.18-2.837-48.281-2.914
			c-24.427-0.116-48.819-1.887-73.251-1.214c-1.664,0.046-3.331,0.012-4.998,0.018C747.449,2.096,746.943,1.826,746.906,1z
			 M43.481,786.322c-1.784-0.34-3.073-0.586-4.362-0.832c0.705,2.438-0.584,5.556,3.368,7.694
			C40.217,790.228,41.761,788.401,43.481,786.322z"/>
		<path fill-rule="evenodd" clip-rule="evenodd" d="M863.913,712.918c2.915-6,7.304-11.204,9.183-17.795
			c0.837-2.938,1.283-5.637,0.264-8.545c-1.094-3.122,0.056-5.364,2.201-7.908c6.183-7.334,13.053-7.783,21.481-4.215
			c6.631,2.807,12.531,1.625,18.181-4.201c3.947-4.07,9.681-6.674,16.086-7.512c4.882-0.639,9.188-0.373,13.722,1.165
			c2.34,0.794,3.146,2.036,3.875,4.379c4.29,13.789-0.657,25.024-9.365,35.213c-1.327,1.552-1.474,2.84-0.493,4.048
			c3.494,4.306,4.605,9.578,5.585,14.684c1.271,6.63-3.96,10.377-8.079,14.292c-1.487,1.414-3.169,2.746-5.852,2.397
			c-9.492-1.234-17.063,3.344-23.609,9.338c-7.611,6.97-15.51,13.786-21.207,22.563c-0.948,1.46-2.479,1.25-2.842,0.887
			c-3.064-3.069-4.464-0.088-6.103,1.575c-4.378,4.443-9.304,8.456-12.021,14.263c-0.324,0.691-1.203,1.401-0.296,2.889
			c4.393,7.211,4.86,15.525,6.359,23.617c1.321,7.13-0.094,13.996-0.227,20.972c-0.103,5.368,1.524,10.036,3.917,14.753
			c1.855,3.658,0.986,8.476,4.815,11.444c5.394,4.18,5.098,11.28,8.218,16.679c1.114,1.929,3.373,0.051,4.345,2.871
			c2.299,6.662,1.804,12.375-3.456,17.738c-2.08,2.118-3.191,3.693-2.104,7.212c1.422,4.603-1.625,8.86-4.564,12.266
			c-1.732,2.006-2.184,3.827-2.132,6.188c0.117,5.453-1.704,9.961-6.193,13.398c-1.836,1.404-1.874,3.596-2.315,6.007
			c-1.115,6.101,1.559,12.318-0.961,18.015c-1.157,2.616,0.881,4.485,0.425,6.613c-1.335,6.224-0.387,12.618-0.387,18.765
			c0,5.469-1.609,11.224,0.29,16.797c0.73,2.143,0.504,4.757-1.105,6.57c-3.05,3.439-2.778,7.478-2.773,11.582
			c0.002,1.946,0.901,4.217-1.729,5.592c-0.572,0.3-0.567,2.163,0.24,3.197c2.706,3.465,2.213,7.165,0.308,10.628
			c-0.819,1.488-0.751,2.838-0.755,4.269c-0.037,14.498-0.164,28.997,0.027,43.493c0.127,9.565,5.23,16.848,12.172,22.77
			c2.855,2.437,3.209,7.387,7.966,7.766c-2.409,2.621,2.751,3.516,1.284,6.95c-1.315,3.082,1.091,7.651,2.283,11.142
			c1.366,4,2.942,8.021,4.319,12.094c0.882,2.608,2.676,5.951,4.063,7.118c5.726,4.816,8.013,12.09,13.397,16.91
			c2.123,1.9,0.531,6.43,5.225,6.621c1.802,0.074,3.366,0.628,5.074-0.47c1.692-1.088,3.721-1.61,5.64-0.83
			c8.922,3.633,18.162,1.816,27.302,1.769c1.16-0.006,2.811-0.412,3.404,0.188c4.059,4.1,8.808,1.983,13.344,1.808
			c2.16-0.084,4.091,0.015,5.961,1.676c1.457,1.297,3.499,2.289,5.567-0.013c2.638-2.937,6.058-2.204,8.995-0.572
			c2.359,1.312,4.283,2.814,7.092,1.012c0.828-0.532,2.281-0.07,3.446-0.098c5.326-0.126,10.97-0.215,15.899,0.527
			c6.66,1.002,13.324,0.85,19.833,1.896c3.539,0.569,6.556,2.581,9.847-0.346c0.379-0.336,1.329-0.213,1.955-0.061
			c6.713,1.636,13.57,1.838,20.409,2.432c2.758,0.24,5.169,1.85,8.063-0.097c1.143-0.77,3.589-0.803,4.78-0.079
			c4.134,2.512,8.332,2.713,12.885,1.777c2.086-0.428,4.293-0.173,6.173,1.104c1.693,1.147,3.32,1.221,5.059,0.057
			c3.313-2.22,6.523-1.075,9.638,0.511c0.843,0.429,1.427,1.662,2.529,1.242c7.221-2.75,14.091,1.185,21.17,1.038
			c2.774-0.057,5.627-0.406,8.093,1.433c0.373,0.278,1.102,0.649,1.315,0.494c7.095-5.133,13.908,1.506,21.262,0.821
			c5.997-0.559,13.356-0.008,19.676,1.683c4.094,1.095,8.288,0.496,11.98,1.756c7.087,2.416,15.078-0.183,21.598,4.228
			c1.78,1.205,2.743-0.795,4.111-0.387c7.422,2.218,15.419,1.066,22.73,3.903c0.447,0.174,0.973,0.67,1.301,0.555
			c7.104-2.479,12.711,2.961,19.27,3.64c7.934,0.821,15.776,1.822,23.571,4.594c5.45,1.938,11.544,4.668,17.956,3.323
			c0.64-0.135,1.555-0.316,1.961,0.005c5.733,4.55,13.573,2.765,19.554,6.566c1.652,1.051,3.719,1.014,5.548,1.512
			c6.387,1.737,12.675,3.889,18.888,6.188c1.979,0.731,3.726,1.926,5.982,1.692c1.149-0.119,2.777-0.471,3.418,0.119
			c5.026,4.634,11.948,4.716,17.826,6.605c6.43,2.067,11.695,6.169,18.397,7.95c8.38,2.227,16.673,6.074,24.563,10.432
			c8.627,4.765,17.905,8.423,26.136,13.919c13.036,8.704,24.503,18.604,33.517,32.115c8.932,13.388,6.918,27.38,5.827,40.962
			c-0.702,8.742-6.185,17.283-13.175,24.385c-6.697,6.802-14.036,12.371-22.02,17.238c-9.775,5.961-20.264,10.512-31.156,14.01
			c-10.906,3.5-21.741,7.724-32.946,9.593c-6.298,1.052-13.106,1.452-19.264,2.862c-8.174,1.872-17.071-0.489-24.665,4.493
			c-2.336,1.533-5.57,1.83-8.125,0.962c-4.479-1.521-8.172,0.064-12.003,1.72c-1.936,0.836-4.234,0.962-5.844,0.25
			c-4.447-1.967-8.348-1.172-12.197,1.188c-1.336,0.82-2.9,1.479-4.202,0.914c-7.046-3.053-13.993,0.304-20.98,0.103
			c-4.989-0.144-10.304-2.845-14.807,1.838c-0.57,0.594-2.311,0.371-3.403,0.104c-6.49-1.598-12.925-1.254-19.438-0.049
			c-3.102,0.574-6.195-0.131-8.754-2.194c-1.471-1.187-2.612-0.602-4.028,0.187c-5.399,3.005-10.767,3.466-15.723-0.938
			c-1.005-0.892-2.033-1.314-3.12-0.77c-5.849,2.93-11.421,3.195-16.854-1.063c-0.781-0.612-2.04-0.919-3.498-0.29
			c-4.517,1.946-9.255,1.847-13.847,0.161c-3.527-1.294-7.127-0.941-10.725-1.001c-3.877-0.064-7.899,0.665-11.219-2.265
			c-0.452-0.398-1.258-0.818-1.754-0.685c-6.349,1.706-12.233,1.646-16.963-3.842c-0.436-0.507-1.162,0.152-1.77,0.317
			c-3.58,0.972-8.001,1.674-10.768,0.223c-11.478-6.018-24.671-3.107-36.231-7.808c-3.907-1.589-8.031-1.276-11.888-2.169
			c-6.445-1.492-12.702-3.673-19.29-4.921c-3.961-0.75-7.528-3.285-12.019-3.048c-2.243,0.119-4.762-0.957-6.703-2.507
			c-3.073-2.453-6.436-3.814-10.428-3.306c-0.491,0.063-1.18,0.214-1.472-0.034c-5.358-4.556-12.865-2.573-18.518-6.099
			c-3.109-1.939-3.556,0.128-3.503,2.322c0.188,7.763-1.27,15.37-1.832,23.046c-0.415,5.662-2.389,10.704-3.855,15.968
			c-1.847,6.628-5.37,12.644-7.873,18.878c-4.229,10.535-10.553,19.305-17.57,27.639c-9.913,11.771-21.747,21.362-36.167,27.439
			c-2.495,1.051-4.882,0.921-7.258,0.711c-3.964-0.351-6.891,1.275-9.611,3.804c-7.409,6.887-16.173,10.595-26.126,12.554
			c-5.249,1.033-10.231,3.501-15.717,4.407c-7.9,1.307-15.582,4.576-23.482,5.099c-14.001,0.926-27.465,5.418-41.35,5.922
			c-11.429,0.414-23.113,2.401-34.449-1.398c-0.759-0.254-1.827-0.557-2.404-0.228c-5.234,2.979-11.354,0.874-16.676,2.995
			c-2.224,0.887-4.451,0.877-6.742,0.993c-6.58,0.335-13.218-0.891-19.761,0.885c-1.305,0.354-2.925,0.447-4.27-0.691
			c-3.177-2.691-6.517-2.515-10.512-1.425c-6.309,1.721-12.558,1.041-19.199-0.531c-13.285-3.146-26.519-6.636-40.152-8.523
			c-9.905-1.371-19.495-5.078-29.195-7.85c-18.305-5.229-35.684-12.802-51.604-23.111c-10.277-6.654-19.042-15.244-26.479-25.36
			c-7.221-9.824-14.475-19.553-18.376-31.109c-4.756-14.083-9.979-28.174-9.187-43.497c0.249-4.821-1.143-9.724,0.086-14.479
			c3.375-13.067,1.721-26.915,6.059-39.758c2.202-6.518,3.317-13.742,9.269-18.518c0.853-0.686,1.173-2.213,1.447-3.418
			c2.935-12.921,11.458-22.85,17.976-33.86c1.979-3.346,1.193-8.109,5.413-10.383c4.991-2.688,7.854-7.933,12.802-10.75
			c2.736-1.559,3.22-4.75,4.375-7.382c3.241-7.379,6.162-14.844,6.663-23.045c0.161-2.639-0.65-3.472-3.27-3.232
			c-2.928,0.267-5.828,0.46-8.765,0.905c-7.841,1.188-15.601,0.335-22.502-3.972c-1.588-0.99-1.73,0.172-2.622,0.522
			c-5.782,2.274-11.526,5.94-17.904,4.42c-5.806-1.384-11.583-1.685-17.424-2.186c-1.431-0.123-2.602-0.491-4.157-0.045
			c-2.007,0.577-4.641,1.075-6.344,0.247c-8.116-3.947-16.561-1.418-24.838-1.834c-0.997-0.051-2.041,0.177-2.992-0.038
			c-4.921-1.108-9.813-3.363-14.747-0.021c-0.23,0.157-0.703,0.143-0.979,0.02c-9.036-4.035-18.528-1.651-27.824-2.03
			c-2.702-0.109-5.691,1.048-7.96-1.556c-0.76-0.872-1.473-0.051-2.168,0.326c-0.709,0.386-1.48,1.104-2.159,1.034
			c-8.359-0.846-16.925,1.858-25.091-1.162c-2.255-0.835-3.321-0.222-4.688,1.154c-2.495,2.513-5.338,3.047-8.324,0.937
			c-2.219-1.567-4.236-1.886-6.543-0.118c-0.979,0.75-2.816,1.717-3.501,1.309c-5.823-3.468-11.466-0.26-17.155,0.174
			c-1.296,0.099-2.276-0.509-3.168-1.085c-1.999-1.288-3.676-1.335-5.129,0.658c-2.536,3.477-5.648,2.896-8.618,0.957
			c-2.351-1.534-4.435-1.907-6.438,0.168c-2.121,2.197-5.028,1.741-7.007,1.044c-3.102-1.095-5.245-0.159-7.739,1.159
			c-2.875,1.521-5.872,1.644-8.907,0.132c-0.918-0.457-1.997-1.864-3.084-0.686c-3.967,4.298-8.498,2.013-13.105,2.289
			c-4.714,0.281-10.132,0.076-14.715,1.842c-3.083,1.188-6.133,0.818-9.023,1.603c-7.879,2.14-16.665,0.012-23.871,5.089
			c-1.369,0.964-2.692,0.94-4.205,0.463c-1.089-0.344-2.837-0.99-3.313-0.518c-3.918,3.894-9.17,1.785-13.433,3.317
			c-3.063,1.101-5.951,1.617-9.037,1.486c-1.971-0.084-3.533,0.263-4.796,1.901c-0.458,0.594-1.348,1.15-2.073,1.195
			c-8.949,0.557-16.282,6.991-25.376,6.938c-1.031-0.007-1.813,0.473-2.716,0.875c-10.995,4.896-22.33,8.824-33.006,14.689
			c-15.064,8.273-29.719,17.197-40.998,29.971c-9.762,11.053-18.847,22.83-26.029,36.133c-11.679,21.633-17.325,44.45-13.982,68.453
			c2.051,14.723,8.439,28.605,19.05,40.148c13.987,15.216,30.532,26.897,48.319,36.974c6.658,3.773,13.828,6.647,20.786,9.885
			c9.967,4.636,19.742,9.797,30.017,13.609c5.307,1.97,10.465,4.86,16.295,5.366c1.018,0.089,1.824,0.399,2.718,0.904
			c8.111,4.58,16.858,7.596,25.823,9.926c3.4,0.884,6.658,2.348,9.848,3.52c6.002,2.208,11.029,1.096,16.211-1.345
			c4.9-2.308,9.27-0.384,13.493,1.603c5.261,2.475,10.891,3.725,16.401,5.249c3.434,0.949,6.468-1.699,9.057-3.804
			c7.137-5.803,15.114-7.197,23.636-4.398c13.28,4.362,26.321,9.462,39.655,13.637c14.733,4.612,28.553,11.166,42.188,18.224
			c1.146,0.594,2.497,1.236,3.162,2.245c4.471,6.781,11.22,6.486,18.118,6.291c17.839-0.505,33.914,5.399,49.286,13.825
			c5.871,3.218,12.113,5.663,16.935,10.731c1.512,1.59,4.793,1.701,7.499,1.43c14.165-1.425,27.442,2.992,40.415,7.412
			c8.55,2.913,17.618,6.693,23.967,13.102c5.857,5.909,12.023,5.35,18.747,5.466c23.2,0.401,43.287,8.675,60.493,24.097
			c3.078,2.759,6.456,3.927,10.64,3.976c16.382,0.189,31.478,4.377,44.868,14.354c5.257,3.917,11.625,6.017,17.891,8.141
			c7.173,2.431,13.313,6.701,18.342,12.382c3.267,3.691,6.952,5.973,12.066,5.037c5.552-1.016,10.543,1.982,15.938,2.386
			c1.318,0.1,3.521,1.622,4.739,3.711c3.987,6.836,9.25,12.477,16.903,15.427c1.02,0.394,2.334,1.087,2.69,1.973
			c4.29,10.665,13.522,6.021,20.669,6.073c3.568,0.025,7.515-2.459,11.061-0.294c4.781,2.916,9.562,5.805,11.692,11.806
			c3.521,9.915,3.239,32.013-6.547,39.623c-4.296,3.342-8.445,7.528-13.795,8.628c-6.142,1.261-12.46-0.774-17.513-4.16
			c-5.251-3.521-10.615-6.688-16.429-8.911c-8.885-3.397-17.789-4.336-26.818,0.465c-5.919,3.146-12.221,1.374-16.909-2.658
			c-6.233-5.36-12.996-6.62-20.833-6.339c-10.433,0.373-20.968,1.12-30.961-3.61c-2.326-1.101-5.583-0.318-8.409-0.263
			c-15.713,0.308-29.879-4.444-43.134-12.653c-5.925-3.669-12.19-6.537-19.654-5.417c-9.928,1.49-19.778-0.821-29.431-2.326
			c-6.208-0.969-12.259-4.547-18.175-7.528c-6.718-3.384-12.695-7.6-18.407-12.409c-1.753-1.476-4.394-2.008-6.931-1.685
			c-9.301,1.187-18.714-0.14-27.393-2.411c-10.669-2.791-21.488-6.246-31.049-12.414c-5.021-3.238-10.146-6.299-14.919-9.913
			c-1.625-1.23-3.634-1.464-5.656-1.246c-18.345,1.981-34.896-4.425-51.314-11.188c-3.685-1.519-7.372-3.572-10.34-6.193
			c-8.466-7.475-18.609-8.099-29.128-8.803c-7.822-0.522-15.785-1.878-23.007-5.312c-3.618-1.72-7.336-2.497-11.164-2.957
			c-7.149-0.859-12.991-6.032-19.866-6.701c-8.608-0.837-15.667-5.585-23.825-7.555c-8.115-1.957-14.366-8.321-18.109-16.017
			c-1.653-3.399-3.614-5.433-7.005-6.677c-6.749-2.477-13.44-5.083-20.458-6.766c-1.33-0.318-2.555-1.387-3.651-2.317
			c-5.741-4.881-12.483-7.383-19.584-9.773c-7.214-2.431-15.312-2.979-21.442-8.215c-2.491-2.128-5.772-0.716-8.319-2.254
			c-8.71-5.259-18.821-6.969-27.986-11.029c-10.185-4.513-20.099-9.635-30.28-14.159c-7.448-3.309-14.715-6.971-21.636-11.193
			c-5.186-3.164-10.557-6.233-15.856-8.908c-9.564-4.829-17.24-11.933-25.755-17.997c-9.256-6.591-17.106-14.753-24.083-23.667
			c-4.764-6.085-10.218-11.713-13.395-18.96c-5.27-12.021-11.046-23.861-14.315-36.64c-3.972-15.526-6.081-31.428-4.202-47.323
			c2.25-19.027,5.227-38.09,12.871-55.901c7.51-17.501,17.062-33.816,29.464-48.408c12.686-14.926,26.773-28.396,43.243-38.918
			c13.058-8.342,25.896-17.2,40.821-22.453c7.016-2.471,14.311-4.61,20.899-7.974c6.11-3.121,12.285-5.185,18.894-6.757
			c13.718-3.267,27.122-8.236,40.984-10.378c9.951-1.537,19.321-5.167,29.271-6.256c1.151-0.126,2.324-0.097,3.484-0.06
			c0.286,0.01,0.59,0.525,0.837,0.487c6.686-1.005,13.372-2.009,20.038-3.13c1.232-0.208,2.446-1.449,3.555-1.31
			c10.895,1.378,21.269-4.272,32.243-2.226c3.138,0.585,6.397,0.269,9.543-1.486c2.045-1.141,4.835-0.698,7.281-0.048
			c0.777,0.207,1.761,0.836,2.296,0.567c6.644-3.335,13.861-1.014,20.675-2.259c3.104-0.567,6.14-1.589,8.875,0.541
			c2.142,1.669,3.298-0.302,4.724-0.946c3.239-1.464,6.312-3.7,9.819-0.604c0.321,0.284,1.059,0.463,1.41,0.292
			c7.312-3.568,15.153,1.285,22.504-1.443c0.597-0.223,1.461-0.671,1.826-0.435c7.242,4.692,15.456-3.455,22.729,1.771
			c1.376,0.988,3.06-1.397,4.455-1.277c8.326,0.717,16.71-1.119,24.953,0.558c1.48,0.302,2.52,0.791,3.965-0.074
			c2.68-1.604,5.72-1.781,8.641-0.971c3.521,0.977,6.739,1.681,10.468,0.137c1.896-0.785,4.57-0.701,6.986,1.145
			c2.652,2.025,5.561,0.574,7.436-1.713c-4.349-4.68-9.652-6.954-16.106-5.8c-1.631,0.292-3.085-0.539-4.029-1.417
			c-2.315-2.152-4.761-1.832-7.372-1.166c-0.453,0.115-1.065,0.66-1.275,0.519c-6.114-4.105-14.3-2.198-20.173-6.977
			c-1.687-1.372-3.881-2.842-5.792-1.812c-4.021,2.168-6.814-0.26-9.14-2.36c-2.46-2.222-5.192-2.105-7.879-3.01
			c-7.277-2.448-15.505-2.603-21.6-8.179c-0.596-0.546-1.379-1.566-1.863-1.453c-8.336,1.936-12.79-7.457-20.61-6.997
			c-1.654,0.098-2.729-0.802-3.834-2.386c-0.877-1.257-2.567-2.766-4.849-2.841c-3.879-0.127-7.149-1.38-9.066-5.344
			c-1.053-2.182-3.812-2.115-5.988-2.561c-1.095-0.223-2.489,0.376-3.202-0.851c-3.851-6.625-12.386-6.549-17.056-11.998
			c-1.642-1.918-3.615-3.332-6.331-3.202c-0.332,0.016-0.834,0.135-0.974-0.032c-4.947-5.896-13.185-7.334-18.033-13.337
			c-0.602-0.746-0.881-2.072-1.606-2.347c-5.633-2.131-9.802-6.161-14.483-9.692c-3.618-2.728-8.042-4.417-10.689-8.522
			c-1.806-2.801-6.174-1.854-7.681-4.832c-3.484-6.885-12.759-7.767-15.604-15.327c-0.34-0.905-2.124-1.305-3.278-1.856
			c-0.863-0.412-2.152-0.423-2.63-1.07c-4.55-6.164-11.367-9.745-16.966-14.687c-5.531-4.88-10.724-10.366-17.126-14.19
			c-3.231-1.93-5.476-4.239-6.155-7.938c-0.167-0.913,0.258-2.222-1.306-2.095c-5.908,0.48-8.118-3.997-10.669-7.941
			c-1.012-1.564-1.919-2.818-3.994-3.239c-1.479-0.3-3.692-1.348-3.979-2.47c-2.146-8.405-13.272-8.825-15.21-17.402
			c-0.27-1.194-2.209-2.32-3.614-2.874c-1.858-0.731-3.39-2.087-3.916-3.562c-1.433-4.022-3.534-6.854-7.676-8.604
			c-2.163-0.914-4.277-3.12-3.689-6.391c0.378-2.104-0.722-2.941-2.882-3.7c-3.956-1.391-7.807-3.442-7.096-8.865
			c0.199-1.519-0.556-2.751-2.053-2.905c-5.411-0.557-7.245-4.475-9.029-8.799c-0.751-1.822-1.467-3.801-4.218-4.583
			c-2.582-0.733-4.341-3.446-4.622-6.438c-0.271-2.885-1.667-4.672-4.257-5.939c-2.778-1.357-5.199-3.905-5.375-6.719
			c-0.248-3.955-2.401-5.495-5.296-7.101c-2.368-1.313-2.516-3.99-3.078-6.318c-0.228-0.949,0.048-2.655-0.383-2.828
			c-8.044-3.225-7.303-13.113-13.513-17.661c-0.265-0.194-0.603-0.433-0.684-0.714c-2.265-7.892-10.342-12.668-11.393-21.15
			c-0.245-1.981-1.604-2.83-2.755-3.9c-2.427-2.258-4.844-4.535-4.943-8.093c-0.094-3.368-1.234-5.914-4.415-7.347
			c-0.285-0.129-0.621-0.416-0.698-0.693c-2.154-7.815-7.896-14.165-9.179-22.296c-0.352-2.233-1.027-4.253-2.724-5.518
			c-3.045-2.27-3.751-5.19-3.383-8.692c0.102-0.971,0.258-2.283-0.255-2.916c-3.665-4.516-6.952-9.056-5.924-15.435
			c0.103-0.64-1.729-1.647-2.728-2.398c-4.416-3.317-1.751-8.345-2.927-12.46c-0.455-1.595-0.754-3.012-1.812-4.378
			c-1.703-2.199-2.836-4.655-2.37-7.658c0.244-1.576,0.311-3.285-0.868-4.703c-5.354-6.438-5.897-14.902-7.547-22.343
			c-1.89-8.521-6.182-16.682-5.548-25.759c0.139-1.984-0.207-3.647-1.511-5.481c-1.782-2.504-3.451-5.27-1.67-8.984
			c0.792-1.653,0.807-4.336-0.96-6.538c-1.456-1.814-1.937-4.358-1.89-6.9c0.069-3.802,0.424-7.518-3.327-10.485
			c-1.81-1.431-1.054-4.919-0.503-7.177c1.543-6.32-1.262-11.835-3.59-16.932c-2.081-4.555-1.784-8.694-1.146-12.971
			c0.304-2.037,0.732-3.7-0.333-5.56c-1.578-2.758-0.283-5.602-0.044-8.401c0.479-5.64-1.286-11.098-1.11-16.762
			c0.313-10.094,0.242-20.2,1.109-30.271c0.298-3.469-0.482-6.943-0.695-10.328c-0.183-2.895,1.723-4.755,1.439-7.404
			c-0.48-4.478,0.922-9.144,2.667-12.835c1.591-3.366-3.382-3.163-1.523-5.701c0.858-1.172-1.154-4.423,2.655-3.477
			c0.335-2.02,2.865-2.867,2.339-5.618c-0.56-2.934,0.016-6.086,0.109-9.142c0.029-0.961-0.089-1.804,1.319-2.194
			c4.205-1.168,2.577-4.619,2.486-7.313c-0.059-1.747-3.962-4.012,0.86-4.898c-0.347-4.13,5.817-6.262,3.4-11.072
			c-0.212-0.422,1.904-2.526,2.779-2.979c2.655-1.374,4.249-9.33,2.446-11.986c-0.341-0.501-1.756-0.788-0.593-1.745
			c0.458-0.376,1.438-0.854,1.665-0.666c2.946,2.442,2.685-1.003,3.542-1.986c4.342-4.983,4.776-12.387,10.715-16.58
			c2.531-1.788,2.512-5.817,4.625-8.465c5.133-6.435,9.545-13.353,15.158-19.526c5.465-6.011,11.228-11.798,17.162-17.159
			c6.015-5.433,12.581-10.485,19.593-15.015c8.416-5.438,17.723-9.105,25.861-14.648c8.442-5.751,18.72-6.298,27.233-11.431
			c1.396-0.842,3.552-0.355,5.332-0.64c8.183-1.309,15.564-6.747,24.396-4.732c7.489-5.781,16.952-1.039,25.049-4.704
			c2.829-1.28,7.052-1.025,10.618,0.578c2.281,1.025,4.61,0.864,7.345-0.097c4.451-1.563,9.473-1.687,13.979,0.338
			c2.14,0.961,4.359,1.391,6.216,0.731c5.442-1.933,10.313-0.723,14.979,1.951c2.325,1.333,4.939,1.876,7.104,1.081
			c5.733-2.103,9.979,0.629,14.385,3.402c2.074,1.306,3.946,2.01,6.767,1.112c5.2-1.655,9.432,1.145,13.024,4.731
			c1.899,1.894,3.271,2.992,6.659,2.216c4.982-1.142,10.217,0.881,13.321,5.15c2.095,2.882,4.375,3.6,7.398,3.5
			c5.305-0.174,9.54,1.364,12.125,6.46c0.996,1.965,2.944,2.821,5.41,2.606c6.168-0.538,10.283,2.729,12.871,7.924
			c1.112,2.231,2.291,3.302,4.833,3.098c2.978-0.239,5.864,0.271,7.981,2.691c0.977,1.115,1.698,1.139,2.669-0.022
			c3.616-4.324,6.791-0.839,8.939,1.321c6.171,6.202,12.746,12.059,18.654,18.416c6.257,6.731,13.673,12.154,19.664,19.083
			c4.32,4.999,6.65,5.031,11.466,0.41c3.124-2.997,6.511-3.172,9.549-0.269c8.488,8.114,16.7,16.482,24.524,25.276
			c6.86,7.712,14.219,14.979,20.921,22.869c1.903,2.241,3.213,4.776,3.725,7.156c2.36,10.963,9.975,16.729,18.931,22.178
			c9.623,5.856,18.546,12.598,26.279,21.315c10.22,11.52,18.161,24.129,24.517,37.937c3.25,7.059,9.77,9.86,16.243,12.457
			c9.658,3.873,16.791,10.164,20.013,20.1c2.602,8.027,8.559,13.604,13.306,20.081c1.431,1.953,3.719,1.587,5.008,0.535
			c3.5-2.852,5.616-2.78,7.545,1.682c0.748,1.73,1.793,3.792,4.908,3.945c2.479,0.122,5.353,1.924,4.864,5.661
			c-0.079,0.606,0.157,1.785,0.394,1.824c6.452,1.073,5.995,5.191,4.647,9.946c-0.687,2.419,1.588,3.883,2.774,5.401
			c8.238,10.542,17.293,20.502,24.832,31.509c3.088,4.509,7.128,8.151,9.952,12.997c3.923,6.734,9.725,12.433,15.1,18.225
			c1.738,1.873,3.333,3.981,3.113,6.034c-0.508,4.752,1.74,7.528,5.111,10.131c2.356,1.818,4.674,3.697,6.146,6.484
			c1.206,2.283,3.66,3.188,5.589,1.416c2.208-2.029,6.845-0.599,6.746-6.262c-0.212-12.22,3.829-23.839,6.685-35.623
			c3.188-13.149,6.369-26.302,8.148-39.783c2.796-21.189,4.962-42.367,5.048-63.788c0.046-11.747-0.633-23.441-0.798-35.146
			c-0.196-13.874-2.505-27.481-3.588-41.222c-0.818-10.398-3.784-20.626-5.777-30.933c-1.869-9.658-4.102-19.229-6.983-28.637
			c-3.414-11.15-7.073-22.228-10.285-33.435c-1.673-5.841-2.2-11.961-1.628-18.038c0.341-3.622-0.946-4.333-4.357-4.259
			c-11.161,0.238-22.329,0.111-33.494,0.075c-1.052-0.003-2.308,0.501-3.327-0.949c1.044-1.518,2.68-0.827,3.943-0.833
			c13.665-0.062,27.334-0.255,40.989,0.111c3.843,0.103,7.544-2.282,11.5-0.249c1.49,0.765,1.381-0.964,1.738-2.08
			c1.175-3.681-1.317-7.166-0.219-10.927c0.5-1.714,0.847-3.45,1.777-4.975c1.381-2.265,1.729-4.38,0.146-6.791
			c-1.66-2.527-0.626-5.33-0.2-8.276c-13.838,0-27.638,0-41.438,0c-25.164,0-50.341,0.495-75.485-0.191
			c-14.464-0.395-29.16-0.421-43.222-4.848c-8.393-2.642-15.617-7.288-22.874-12.363c-6.058-4.238-10.468-9.73-15.511-14.721
			c-2.613-2.585-4.148-6.308-5.985-9.62c-5.646-10.189-9.228-21.102-11.038-32.593c-1.054-6.694-3.012-7.812-9.892-8.873
			c-5.452-0.839-11.56,0.642-16.374-3.68c-0.657-0.591-2.368-0.616-2.574-1.771c-0.27-1.505,1.233-2.398,2.273-2.922
			c3.706-1.868,7.91-1.971,11.879-2.146c15.714-0.697,31.385-2.079,47.134-2.449c7.713-0.182,15.507-0.052,23.231-0.679
			c18.605-1.51,37.33,0.241,55.849-1.338c17.466-1.489,34.959-1.134,52.406-2.492c10.407-0.81,20.931-0.266,31.397-0.084
			c3.345,0.058,6.504-0.819,9.766-1.021c1.595-0.1,1.685-0.819,1.925-2.148c4.766-26.293,5.378-52.151-6.967-76.935
			c-2.684-5.39-6.987-9.409-10.684-13.868c-3.527-4.254-5.179-9.107-6.149-14.029c-0.944-4.794-3.21-8.291-6.269-11.746
			c-7.18-8.109-13.84-16.639-20.55-25.146c-8.173-10.36-15.268-21.283-21.34-32.884c-3.486-6.661-6.587-13.559-9.104-20.7
			c-4.255-12.073-8.013-24.403-13.405-35.959c-2.686-5.757-4.986-11.051-2.325-16.668c2.984-6.296,8.514-10.508,14.693-13.975
			c6.949-3.9,14.613-2.503,21.871-3.935c12.72-2.51,25.704-2.618,38.556-3.757c7.517-0.666,15.121-1.658,22.749-1.303
			c0.945,0.045,2.444,0.837,2.793-1.033c3.333,0,6.666,0,9.999,0c2.333,1.812,4.666,1.731,6.999,0c2,0,4,0,5.999,0
			c0.037,0.826,0.543,1.096,1.287,1.093c1.667-0.006,3.334,0.028,4.998-0.018c24.432-0.673,48.824,1.098,73.251,1.214
			c16.102,0.076,32.229,1.437,48.281,2.914c11.118,1.024,22.217,2.8,33.155,5.055c7.408,1.527,14.282,4.616,18.96,11.417
			c4.094,5.954,2.995,11.698-0.148,17.083c-5.574,9.552-7.751,20.289-11.636,30.422c-4.653,12.141-9.944,23.976-15.953,35.589
			c-6.433,12.435-14.263,23.787-22.696,34.731c-4.989,6.474-11.095,12.143-16.523,18.343c-3.495,3.991-5.7,8.247-6.166,13.614
			c-0.341,3.926-2.337,7.347-5.151,10.199c-10.663,10.808-14.904,24.49-17.894,38.896c-1.565,7.548-3.098,15.109-2.729,22.749
			c0.454,9.439,1.861,18.832,2.873,28.243c0.19,1.765,1.184,2.561,3.001,2.497c9.35-0.331,18.712-1.072,28.047-0.813
			c13.589,0.376,27.156-0.737,40.729-0.098c1.099,0.052,2.179,0.502,3.267,0.766c3.557,1.869,8.227,0.493,11.302,3.897
			c0.322,0.356,1.579-0.122,1.263-0.885c-1.496-3.599,1.301-2.224,2.37-1.876c3.382,1.098,7.444,1.427,10.195,0.73
			c4.773-1.208,9.708-0.888,14.056-0.726c5.204,0.192,10.588,0.078,15.746,0.071c11.132-0.013,22.286,0.117,33.426-0.134
			c1.326-0.03,2.557,0.19,3.854,0.712c6.252,2.511,12.492,6.084,19.246,1.194c0.894-0.647,1.443,0.121,1.943,0.86
			c0.406,0.601,0.842,2.074,1.62,1.325c4.453-4.285,9.976-2.312,14.661-1.816c6.711,0.711,14.237-1.083,20.028,4.319
			c0.343,0.319,0.83,0.48,1.525-0.268c1.203-1.296,1.448-1.07,1.812-0.61c0.763,0.969,0.186,1.539-0.604,1.957
			c-4.831,2.565-9.652,5.258-15.173,1.653c-0.574-0.375-1.285-0.351-1.767,0.27c-1.801,2.318-1.809,2.516-3.737,2.349
			c-3.625-0.313-5.225,1.61-5.687,4.815c-0.238,1.658-0.027,3.558-2.116,4.045c-2.679,0.624-3.244,2.758-4.709,5.381
			c3.878-1.196,5.62-1.058,3.795,2.966c-1.47,3.24-2.118,6.845-3.244,10.25c-1.774,5.371-5.998,9.797-7.349,15.001
			c-1.249,4.813-4.667,7.492-6.783,11.306c-2.38,4.29-7.421,5.67-10.062,9.509c-0.862,1.253-1.777,1.939-2.935,2.785
			c-4.479,3.274-8.309,7.721-13.922,8.968c-4.674,1.037-8.699,6.967-14.314,2.191c-0.34-0.289-1.545,0.436-0.859,1.137
			c2.54,2.6-0.307,2.131-1.413,2.658c-3.453,1.642-7.108-0.066-10.959,1.267c-6.546,2.265-13.824-0.281-20.847,0.814
			c-3.835,0.597-7.938,3.491-12.213-0.729c-1.091-1.077-7.312-2.862-9.491,2.408c-0.215,0.521-2.499,0.158-3.819,0.256
			c-2.572,0.191,2.149-2.123-0.726-2.015c-1.804,0.068-2.463,1.505-3.693,2.225c-0.455,0.266-1.301,0.027-1.912-0.163
			c-6.334-1.977-13.255,3.802-19.354-1.447c-0.125-0.107-0.584,0.146-0.875,0.261c-5.241,2.093-10.813,3.019-16.328,3.037
			c-14.806,0.049-29.62,0.595-44.424-0.293c-4.554-0.272-7.319,4.301-4.835,8.123c0.774,1.192,1.201,1.746,0.286,2.857
			c-2.188,2.657-1.829,5.176-0.216,8.154c1.376,2.541,1.81,5.592,2.78,8.821c-3.188-0.299-6.223-3.379-8.391,0.14
			c-1.763,2.86,1.944,5.706-0.156,9.423c3.449-1.354,6.095-1.123,8.723-1.099c1.116,0.011,2.764-0.321,2.986,1.115
			c1.049,6.745,6.452,3.016,9.473,3.385c2.92,0.357,4.181,0.251,3.865,3.413c-0.44,4.421-3.283,9.357-2.814,12.585
			c0.862,5.935-2.07,10.253-3.486,14.853c-4.016,13.043-9.171,25.739-12.618,38.995c-3.141,12.074-5.853,24.236-8.294,36.471
			c-0.925,4.637-0.543,9.654-2.211,13.877c-2.066,5.233-4.199,9.953-2.27,15.708c0.564,1.687,0.047,3.901-0.463,5.738
			c-0.599,2.157,0.596,4.975-2.151,6.405c3.72,3.584,0.881,8.336,0.526,11.634c-0.763,7.089-0.31,14.18-0.722,21.21
			c-0.609,10.405-2.18,20.811,0.101,31.482c1.113,5.208,1.127,11.45-1.308,17.298c-1.452,3.487-0.266,8.072-0.266,12.194
			c1.291,0.257,1.41-2.406,2.533-1.451c0.845,0.718,1.382,2.489,1.167,3.624c-0.505,2.694-2.975-0.749-3.994,1.017
			c2.143,4.006,2.143,4.006-0.635,8.007c2.05-1.395,4.505-0.581,5.551-3.191c-0.729,4.01,0.566,7.535,1.376,11.116
			c0.699,3.091,1.036,6.185,1.019,9.366c-0.017,3.073-0.222,6.34,0.72,9.169c1.001,3.012,3.275,7.293,1.269,8.69
			c-3.379,2.354,4.829,4.135-0.334,5.155c3.309,0.938,2.086,4.153,2.84,6.226c1.562,4.294,4.121,8.354,4.298,13.045
			c0.137,3.603-0.145,7.17,0.25,10.832c0.933,8.653,7.008,14.435,15.643,13.96c0.8-0.044,2.18-0.002,2.3-0.346
			c1.62-4.627,6.339-6.525,8.963-10.317c1.565-2.26,1.828-3.983,2.1-6.646c0.282-2.767,1.092-8.953,7.41-7.833
			c0.674,0.119,1.417-0.447,1.323-1.175c-0.589-4.565,3.204-5.71,5.684-8.135C862.527,717.353,866.212,716.071,863.913,712.918z
			 M644.401,1154.089c2.502-0.297,3.853,0.184,4.995-1.917c3.421-6.285,5.493-12.886,6.655-19.905
			c1.792-10.817,5.774-20.611,14.746-27.573c3.389-2.631,7.32-6.087,7.699-9.479c0.752-6.738,2.992-13.662,0.88-20.551
			c-0.413-1.348-0.646-2.717-0.258-3.87c1.914-5.697,1.22-11.604,0.671-17.237c-0.884-9.078-1.241-18.006,0.119-27.054
			c0.744-4.95,0.517-9.498-5.674-11.84c-4.625-1.752-7.775-7.389-7.391-11.726c0.177-1.994,3.148-2.121,2.099-4.373
			c-3.437-7.379-0.408-15.042-0.729-22.561c-0.101-2.367-1.205-4.752-0.927-6.491c0.833-5.214-0.713-10.624,0.252-15.209
			c0.946-4.489-0.151-8.56,0.421-12.767c0.3-2.205-0.752-3.753-2.713-5.2c-4.184-3.088-5.751-7.755-6.229-12.789
			c-0.172-1.808,0.573-4.393-0.375-5.323c-5.273-5.176-5.682-11.621-5.653-18.302c0.007-1.445-0.271-2.321-1.677-3.52
			c-5.28-4.494-5.544-10.978-1.598-16.844c2.295-3.413,5.154-6.861,6.044-10.693c0.924-3.981,2.408-7.164,5.502-9.409
			c2.175-1.579,2.871-3.737,3.711-5.922c3.834-9.972,4.556-20.417,3.924-30.903c-0.525-8.718,1.874-16.807,4.129-24.96
			c1.6-5.78,0.992-10.691-3.621-15.002c-2.739-2.56-5.19-5.556-7.823-8.145c-1.58-1.552-2.594-5.882-5.521-4.476
			c-3.569,1.715-5.478-0.469-7.256-2.034c-13.397-11.795-26.848-23.554-39.758-35.872c-7.672-7.319-16.601-13.184-23.707-21.139
			c-1.017-1.138-3.087-1.938-5.23-0.083c-2.142,1.854-5.207-0.108-5.474-3.191c-0.22-2.531-1.961-3.84-4.004-3.803
			c-3.534,0.063-5.018-2.45-5.355-4.778c-0.483-3.338-1.708-5.038-4.956-5.666c-0.8-0.154-1.896-1.293-1.959-2.056
			c-0.07-0.823,1.142-1.21,2.152-1.494c2.17-0.607,4.833-2.504,3.209-4.372c-4.424-5.089-9.466-10.549-15.794-12.424
			c-14.218-4.213-23.378-12.903-27.849-26.698c-2.041-6.295-6.365-10.274-12.074-12.457c-9.149-3.498-17.62-8.197-25.275-14.088
			c-13.612-10.476-25.566-22.587-34.098-37.774c-3.656-6.505-8.511-12.056-15.713-14.87c-4.186-1.635-9.026-2.345-12.259-5.434
			c-10.678-10.206-22.521-19.096-32.92-29.611c-4.052-4.097-8.021-8.263-12.583-11.915c-6.833-5.47-6.696-9.093-0.715-15.198
			c4.522-4.615,4.468-4.542-0.847-8.434c-1.861-1.362-3.362-3.21-5.067-4.794c-9.076-8.43-18.27-16.735-27.197-25.318
			c-3.755-3.611-9.105-5.821-11.16-10.869c-1.684-4.139-6.215-6.244-6.966-10.957c-0.214-1.345-1.604,0.072-2.449,0.142
			c-4.611,0.378-8.541-0.493-10.439-5.35c-0.421-1.079-0.948-2.707-2.127-2.265c-5.641,2.109-8.688-1.903-12.981-4.162
			c-4.962-2.611-11.899-1.18-15.79-6.875c-8.036,4.186-14.477-6.872-22.573-2.385c-0.338,0.188-1.096,0.053-1.411-0.219
			c-4.75-4.09-10.402-2.908-15.855-2.7c-1.437,0.055-2.6-0.465-3.68-1.115c-1.844-1.11-3.829-1.434-5.653-0.604
			c-2.77,1.259-5.874,1.235-8.287,0.491c-6.293-1.941-12.293,2.497-18.458,0.255c-0.552-0.201-1.451,0.534-2.182,0.851
			c-4.651,2.009-9.688,2.203-14.539,3.25c-3.797,0.819-7.716,0.75-11.376,1.824c-5.927,1.741-10.971,5.543-17.155,7.047
			c-11.542,2.805-20.387,10.704-30.082,17.051c-8.931,5.847-16.058,13.21-22.053,21.87c-1.679,2.423-6.239,3.159-4.431,7.611
			c-4.956,0.357-5.039,5.458-7.734,8.043c-3.412,3.273-5.847,7.753-7.411,11.845c-2.193,5.735-5.013,11.318-7.168,17.063
			c-1.965,5.237-4.436,10.412-5.102,15.918c-0.669,5.524-3.861,10.216-3.817,16.103c0.025,3.373,0.687,7.423-0.806,10.613
			c-3.139,6.709-3.407,13.598-2.72,20.701c0.738,7.634-1.39,15.138-0.997,22.754c0.321,6.224,1.467,12.559,0.657,18.632
			c-0.554,4.153-0.375,8.01,1.511,11.109c2.524,4.147,1.563,8.29,1.786,12.459c0.187,3.49,0.018,6.997,0.052,10.496
			c0.009,0.944-0.362,2.617,0.581,2.66c3.933,0.181,2.075,3.021,2.36,4.756c1.556,9.486-2.417,19.939,4.992,28.414
			c0.169,0.193,0.099,0.659,0.042,0.979c-1.362,7.662,1.253,15.016,2.305,22.394c0.859,6.02,4.031,11.747,4.599,18.036
			c0.043,0.479,0.168,1.094,0.491,1.378c2.667,2.347,2.745,5.427,2.629,8.617c-0.077,2.109,0.406,3.877,1.522,5.938
			c3.25,5.996,5.541,13.048,6.657,19.219c1.191,6.58,5.161,11.586,6.755,17.777c1.583,6.153,4.198,13.019,8.052,18.797
			c3.355,5.031,2.862,11.941,7.994,16.212c1.246,1.036,2.313,2.911,1.951,4.796c-0.495,2.568,1.367,3.482,2.693,5.065
			c4.755,5.678,7.349,12.736,10.969,19.107c1.473,2.591,2.73,5.212,4.787,7.484c1.578,1.742,4.732,2.468,4.501,5.37
			c-0.215,2.693,1.071,4.203,2.69,5.969c1.619,1.765,3.687,3.882,3.901,6.012c0.47,4.665,3.539,6.411,7.062,7.699
			c1.688,0.616,1.54,1.357,1.232,2.51c-0.892,3.347,0.168,5.881,3.154,7.579c1.908,1.085,3.569,2.374,4.194,4.588
			c1.942,6.876,9.647,9.801,11.398,17.081c0.668,2.774,5.648,3.521,6.454,6.936c0.905,3.832,4.237,5.142,6.404,7.642
			c3.746,4.32,7.218,8.708,11.4,12.754c3.496,3.384,6.886,7.224,10.536,10.63c0.853,0.795,1.874,1.1,1.656,2.496
			c-0.43,2.762,0.996,3.688,3.543,4.205c1.455,0.296,3.31,1.458,3.886,2.729c2.003,4.419,5.747,6.692,9.128,9.764
			c4.104,3.728,8.121,7.741,12.384,11.462c6.389,5.574,11.418,12.715,18.935,16.972c2.458,1.392,4.098,3.144,5.061,5.62
			c0.959,2.463,2.448,3.846,5.234,4.203c2.718,0.35,5.847,0.476,5.887,4.746c0.021,2.188,2.01,3.329,4.015,4.272
			c1.598,0.752,3.688,0.676,4.622,2.826c2.192,5.041,7.308,6.775,11.425,9.61c0.931,0.641,1.535,1.533,2.308,2.204
			c5.326,4.626,10.478,9.587,16.361,13.399c5.721,3.707,9.405,10.52,17.012,11.367c0.114,0.013,0.1,0.622,0.257,0.887
			c3.777,6.359,10.569,9.416,16.359,12.856c5.645,3.354,11.572,6.927,16.773,10.558c5.514,3.85,11.753,6.175,17.277,9.885
			c7.423,4.984,16.341,7.831,24.165,12.483c0.931,0.554,1.743,0.871,2.732,0.806c3.011-0.199,5.18,1.064,6.797,3.573
			c0.404,0.626,1.43,1.478,1.912,1.337c6.794-1.986,10.904,5.504,17.263,4.813c4.292-0.465,6.302,4.251,10.492,4.356
			c7.15,0.18,13.177,5.125,20.488,5.157c1.77,0.008,2.393,2.981,4.91,2.831c4.244-0.253,8.685-0.753,11.75,3.403
			c0.523,0.709,1.333,0.212,2.157,0.051c7.71-1.502,14.374,3.866,21.952,3.494c0.15-0.007,0.379,0.072,0.452,0.187
			c1.82,2.88,4.416,1.96,7.179,1.978c6.728,0.043,13.465,1.612,19.833,3.28c3.657,0.957,7.104,1.164,10.681,1.742
			c5.587,0.902,10.973,2.116,16.778,2.256c3.862,0.093,7.845,1.722,12.178,2.064c6.049,0.479,12.101,1.901,18.309,1.508
			c0.321-0.021,0.782-0.021,0.959,0.171c2.972,3.237,6.556,2.006,10.277,2.02c6.578,0.023,13.768,0.831,19.506,2.66
			C632.146,1154.046,639.122,1150.189,644.401,1154.089z M1304.521,1371.108c3.623-2.882,7.98-2.152,12.216-2.212
			c1.826-0.026,3.882,0.439,5.438-0.233c7.527-3.259,15.708-2.247,23.494-3.348c7.5-1.062,15.029-3.719,22.865-2.5
			c0.944,0.146,2.259-0.575,3.058-1.282c2.656-2.349,5.832-2.333,9.089-2.723c5.43-0.652,11.242-0.896,16.076-3.104
			c7.603-3.473,15.778-5.061,23.448-8.396c6.352-2.764,11.748-6.081,16.576-10.77c1.412-1.369,1.796-3.319,0.739-4.484
			c-3.688-4.07-7.171-8.458-11.993-11.302c-7.982-4.707-15.973-9.415-24.114-13.84c-6.454-3.507-12.847-7.607-19.796-9.611
			c-9.232-2.663-18.044-6.447-26.834-9.966c-9.159-3.668-18.682-6.279-27.796-10.144c-7.821-3.316-16.372-5.475-24.75-7.574
			c-4.682-1.172-9.046-3.128-13.53-4.548c-8.314-2.635-17.759-0.886-25.632-6.132c-1.049-0.699-2.958,0.023-4.422-0.208
			c-5.896-0.93-11.747-2.239-17.672-2.829c-1.996-0.198-2.205-3.221-4.396-2.096c-4.461,2.29-8.164,0.669-11.747-2.055
			c-1.038-0.788-2.275-1.172-3.681-1.002c-7.117,0.863-13.932-1.649-20.893-2.362c-13.451-1.376-26.669-5.033-40.395-3.642
			c-0.812,0.082-2.016,0.233-2.416-0.209c-3.182-3.514-7.181-2.233-10.803-1.671c-4.497,0.697-8.188-1.842-12.427-2.313
			c-8.488-0.944-17.49,2.581-25.53-2.702c-0.593-0.39-1.895,0.085-2.782,0.398c-2.762,0.976-6.403,1.521-8.187,0.174
			c-4.114-3.111-8.271-1.296-12.386-1.66c-2.206-0.194-4.658,0.81-6.447-1.494c-0.859-1.105-1.734-0.09-2.594,0.323
			c-3.594,1.729-7.214,1.645-10.947,0.321c-2.779-0.985-5.68-1.404-8.68-1.163c-5.946,0.479-11.883-2.432-17.874-0.031
			c-0.85,0.341-2.505,0.406-2.889-0.092c-3.215-4.183-7.413-1.629-11.186-1.853c-2.429-0.144-5.113,0.601-7.129-1.184
			c-1.626-1.438-2.787-0.33-4,0.266c-3.168,1.558-6.656,1.592-9.553,0.33c-2.892-1.261-5.644-1.371-8.569-1.419
			c-3.407-0.055-6.792,0.352-10.021-1.642c-1.56-0.963-4.063-1.075-5.659,0.27c-3.158,2.663-5.969,1.454-8.315-0.721
			c-2.172-2.012-3.931-2.4-6.555-0.978c-3.389,1.84-7.19,1.958-10.091-0.684c-2.845-2.591-5.253-0.642-6.969,0.562
			c-2.065,1.448-5.153,2.939-4.258,6.74c1.949,8.27,4.565,16.339,8.285,23.939c4.054,8.287,9.415,15.614,18.173,19.741
			c1.615,0.761,2.721,2.291,3.756,3.834c3.33,4.967,7.342,9.563,10.046,14.839c2.58,5.036,7.622,8.449,9.38,13.519
			c3.347,9.636,8.338,16.391,19.375,16.808c1.175,0.044,2.417,0.92,3.443,1.665c2.036,1.479,4.289,2.373,6.74,2.208
			c3.557-0.24,6.406,1.263,8.83,3.456c2.262,2.048,4.731,2.431,7.621,2.666c6.817,0.557,12.696,5.088,19.742,4.984
			c0.396-0.006,0.923,0.454,1.18,0.837c1.548,2.308,3.892,2.445,6.2,2.053c7.897-1.344,13.99,6.522,22.066,4.267
			c0.316-0.089,0.969,0.813,1.382,1.319c2.176,2.68,4.563,3.158,7.801,1.582c3.419-1.662,6.59-0.98,9.272,2.133
			c1.694,1.968,4.262,2.37,6.715,1.388c4.106-1.644,7.556-0.526,10.003,2.771c1.781,2.402,3.864,2.229,5.846,1.389
			c3.834-1.624,6.925-1.227,9.697,1.985c1.939,2.248,4.128,2.485,6.749,0.741c3.825-2.546,7.648-2.214,10.552,1.462
			c2.122,2.685,4.462,2.642,7.25,1.709c3.936-1.314,7.635-1.271,11.01,1.655c0.963,0.834,2.103,1.541,3.819,0.828
			c5.257-2.181,10.544-1.943,15.541,0.904c1.859,1.061,3.635,1.157,5.605,0.561c4.087-1.237,7.993-1.154,11.783,1.235
			c1.93,1.216,4.421,2.167,6.427,0.508c4.549-3.765,8.336-1.935,11.965,1.239c1.615,1.412,2.684,1.613,4.693,0.353
			c4.546-2.855,9.385-3.548,13.959,0.23c1.195,0.987,2.237,1.021,3.553,0.136c5.209-3.51,10.59-3.578,16.091-0.632
			c1.386,0.742,2.333-0.116,3.509-0.899c3.105-2.069,6.242-4.031,10.335-1.886c3.627,1.899,7.167,2.762,11.133-0.383
			c1.856-1.472,5.352-1.228,8.028,0.233C1302.147,1370.232,1303.24,1370.577,1304.521,1371.108z"/>
		<path fill-rule="evenodd" clip-rule="evenodd" fill="none" d="M740.907,1c-2.333,1.731-4.667,1.812-6.999,0
			C736.241,1,738.574,1,740.907,1z"/>
		<path fill-rule="evenodd" clip-rule="evenodd" fill="#010101" d="M863.913,712.918c2.299,3.153-1.386,4.434-2.506,5.53
			c-2.479,2.425-6.272,3.57-5.684,8.135c0.094,0.728-0.649,1.294-1.323,1.175c-6.318-1.12-7.128,5.066-7.41,7.833
			c-0.271,2.663-0.534,4.385-2.1,6.646c-2.624,3.792-7.343,5.69-8.963,10.317c-0.12,0.344-1.5,0.302-2.3,0.346
			c-8.635,0.474-14.71-5.307-15.643-13.96c-0.395-3.662-0.113-7.229-0.25-10.832c-0.177-4.691-2.736-8.751-4.298-13.045
			c-0.754-2.073,0.469-5.287-2.84-6.226c5.163-1.02-3.045-2.8,0.334-5.155c2.007-1.397-0.268-5.678-1.269-8.69
			c-0.941-2.829-0.736-6.096-0.72-9.169c0.018-3.181-0.319-6.275-1.019-9.366c-0.81-3.581-2.104-7.105-1.376-11.116
			c-1.046,2.61-3.501,1.796-5.551,3.191c2.777-4,2.777-4,0.635-8.007c1.02-1.766,3.489,1.677,3.994-1.017
			c0.215-1.135-0.322-2.905-1.167-3.624c-1.123-0.955-1.242,1.708-2.533,1.451c0-4.122-1.187-8.707,0.266-12.194
			c2.435-5.849,2.421-12.09,1.308-17.298c-2.28-10.671-0.71-21.078-0.101-31.482c0.412-7.03-0.041-14.122,0.722-21.21
			c0.354-3.298,3.193-8.05-0.526-11.634c2.747-1.43,1.553-4.249,2.151-6.405c0.51-1.837,1.027-4.051,0.463-5.738
			c-1.93-5.755,0.203-10.475,2.27-15.708c1.668-4.223,1.286-9.24,2.211-13.877c2.441-12.235,5.153-24.397,8.294-36.471
			c3.447-13.256,8.603-25.952,12.618-38.995c1.416-4.599,4.349-8.917,3.486-14.853c-0.469-3.228,2.374-8.164,2.814-12.585
			c0.315-3.162-0.945-3.055-3.865-3.413c-3.021-0.369-8.424,3.36-9.473-3.385c-0.223-1.437-1.87-1.104-2.986-1.115
			c-2.628-0.024-5.273-0.255-8.723,1.099c2.101-3.717-1.606-6.563,0.156-9.423c2.168-3.52,5.203-0.439,8.391-0.14
			c-0.971-3.229-1.404-6.281-2.78-8.821c-1.613-2.978-1.972-5.498,0.216-8.154c0.915-1.111,0.488-1.665-0.286-2.857
			c-2.484-3.822,0.281-8.396,4.835-8.123c14.804,0.888,29.618,0.342,44.424,0.293c5.516-0.019,11.087-0.944,16.328-3.037
			c0.291-0.115,0.75-0.368,0.875-0.261c6.1,5.25,13.021-0.53,19.354,1.447c0.611,0.19,1.457,0.429,1.912,0.163
			c1.23-0.72,1.89-2.157,3.693-2.225c2.875-0.107-1.847,2.207,0.726,2.015c1.32-0.098,3.604,0.266,3.819-0.256
			c2.18-5.27,8.4-3.485,9.491-2.408c4.275,4.22,8.378,1.327,12.213,0.729c7.022-1.096,14.301,1.451,20.847-0.814
			c3.851-1.333,7.506,0.375,10.959-1.267c1.106-0.526,3.953-0.058,1.413-2.658c-0.686-0.701,0.52-1.426,0.859-1.137
			c5.615,4.776,9.641-1.154,14.314-2.191c5.613-1.247,9.442-5.694,13.922-8.968c1.157-0.846,2.072-1.532,2.935-2.785
			c2.641-3.838,7.682-5.219,10.062-9.509c2.116-3.814,5.534-6.493,6.783-11.306c1.351-5.204,5.574-9.63,7.349-15.001
			c1.126-3.406,1.774-7.011,3.244-10.25c1.825-4.024,0.083-4.162-3.795-2.966c1.465-2.623,2.03-4.757,4.709-5.381
			c2.089-0.487,1.878-2.388,2.116-4.045c0.462-3.205,2.062-5.127,5.687-4.815c1.929,0.167,1.937-0.031,3.737-2.349
			c0.481-0.62,1.192-0.645,1.767-0.27c5.521,3.605,10.342,0.912,15.173-1.653c0.789-0.418,1.366-0.987,0.604-1.957
			c-0.363-0.46-0.608-0.686-1.812,0.61c-0.695,0.748-1.183,0.586-1.525,0.268c-5.791-5.403-13.317-3.608-20.028-4.319
			c-4.686-0.496-10.208-2.468-14.661,1.816c-0.778,0.749-1.214-0.725-1.62-1.325c-0.5-0.739-1.05-1.507-1.943-0.86
			c-6.754,4.89-12.994,1.317-19.246-1.194c-1.298-0.521-2.528-0.742-3.854-0.712c-11.14,0.251-22.294,0.121-33.426,0.134
			c-5.158,0.007-10.542,0.121-15.746-0.071c-4.348-0.162-9.282-0.482-14.056,0.726c-2.751,0.696-6.813,0.367-10.195-0.73
			c-1.069-0.348-3.866-1.723-2.37,1.876c0.316,0.763-0.94,1.242-1.263,0.885c-3.075-3.404-7.745-2.028-11.302-3.897
			c6.587,0.442,13.142-0.584,19.775-0.088c5.958,0.446,12.088-1.072,18.002-0.433c5.077,0.549,10.091-0.048,15.148,0.463
			c6.103,0.617,12.315,0.312,18.476,0.175c20.411-0.454,40.716,2.051,61.115,2.125c6.002,0.021,12.021,1.095,17.986,1.993
			c1.935,0.29,4.654,0.951,5.134,2.852c0.412,1.629-2.104,2.489-3.621,3.427c-6.02,3.725-12.797,3.356-19.386,3.358
			c-3.65,0.001-5.106,1.633-5.657,4.666c-1.795,9.872-4.352,19.405-8.821,28.541c-3.013,6.159-5.213,12.705-9.124,18.451
			c-4.06,5.963-9.93,9.934-15.243,14.57c-5.411,4.72-11.128,8.615-17.962,10.935c-6.504,2.209-12.92,3.911-19.933,4.584
			c-17.248,1.659-34.447,3.289-51.801,3.461c-8.311,0.083-16.877-0.608-24.869,0.374c-20.875,2.565-41.693,0.773-62.513,1.471
			c-2.561,0.086-2.782,0.383-2.044,3.071c0.826,3.009,0.961,6.515-0.897,9.593c-2.146,3.557,1.224,6.011,2.066,8.926
			c1.714,5.921,1.036,6.892-5.12,6.595c-0.71-0.033-3.049-2.542-2.495,0.36c0.339,1.773-0.97,5.172,2.768,5.68
			c4.347,0.59,8.474-1.053,12.761-1.033c9.997,0.044,20.037,0.567,29.978-0.188c6.201-0.472,12.368-0.771,18.568-0.79
			c1.745-0.005,3.727-0.438,4.797,2.322c-5.192,1.217-10.397,0.748-15.406,1.144c-10.768,0.851-21.633,0.465-32.455,0.687
			c-0.452,0.009-0.994,0.835-1.685,0.479c-1.268-0.655-3.072-2.021-3.308,0.404c-0.168,1.727,2.191,1.027,3.237,0.873
			c4.591-0.679,5.459,1.216,5.656,5.612c0.483,10.798-3.881,20.23-7.107,30.037c-3.245,9.867-6.856,19.591-9.28,29.759
			c-1.627,6.831-4.294,13.486-5.729,20.401c-2.524,12.161-5.106,24.309-7.191,36.57c-1.89,11.111-1.77,22.404-3.893,33.455
			c-0.682,3.555-0.682,7.301-0.697,10.777c-0.045,9.457-1.601,18.828-1.244,28.265c0.58,15.354,0.236,30.85,2.283,46.015
			c2.103,15.568,3.084,31.347,6.726,46.698c2.633,11.101,6.097,22.019,7.037,33.48c0.227,2.759,0.424,5.529,0.75,8.285
			c0.358,3.039,1.99,4.603,4.132,6.036c2.157,1.443,4.85,0.776,7.359,2.314c2.682,1.642,4.205-2.891,5.84-4.646
			c1.907-2.046,4.058-3.899,5.966-5.958c1.127-1.218,2.682-2.612,1.576-3.938c-2.886-3.462,0.364-6.509,1.739-7.336
			C854.323,725.513,857.27,717.399,863.913,712.918z M858.725,410.722c-0.045-0.166-0.09-0.332-0.136-0.497
			c-5.868,0-11.734,0-17.603,0c0.003,0.165,0.005,0.331,0.007,0.497C846.903,410.722,852.814,410.722,858.725,410.722z"/>
		<path fill-rule="evenodd" clip-rule="evenodd" fill="#232323" d="M43.481,786.322c-1.72,2.079-3.264,3.906-0.994,6.862
			c-3.952-2.138-2.663-5.256-3.368-7.694C40.408,785.736,41.697,785.982,43.481,786.322z"/>
		<path fill-rule="evenodd" clip-rule="evenodd" fill="none" d="M644.401,1154.089c-5.279-3.899-12.255-0.043-19.269-2.279
			c-5.738-1.829-12.929-2.637-19.506-2.66c-3.721-0.014-7.305,1.218-10.277-2.02c-0.177-0.191-0.638-0.191-0.959-0.171
			c-6.208,0.394-12.26-1.028-18.309-1.508c-4.333-0.343-8.316-1.972-12.178-2.064c-5.805-0.14-11.191-1.354-16.778-2.256
			c-3.576-0.578-7.024-0.785-10.681-1.742c-6.368-1.668-13.105-3.237-19.833-3.28c-2.763-0.018-5.358,0.902-7.179-1.978
			c-0.073-0.114-0.302-0.193-0.452-0.187c-7.578,0.372-14.242-4.996-21.952-3.494c-0.824,0.161-1.634,0.658-2.157-0.051
			c-3.065-4.156-7.506-3.656-11.75-3.403c-2.517,0.15-3.14-2.823-4.91-2.831c-7.311-0.032-13.337-4.978-20.488-5.157
			c-4.19-0.105-6.2-4.821-10.492-4.356c-6.359,0.69-10.469-6.8-17.263-4.813c-0.481,0.141-1.508-0.711-1.912-1.337
			c-1.617-2.509-3.787-3.772-6.797-3.573c-0.989,0.065-1.801-0.252-2.732-0.806c-7.824-4.652-16.742-7.499-24.165-12.483
			c-5.523-3.71-11.763-6.035-17.277-9.885c-5.202-3.631-11.128-7.203-16.773-10.558c-5.79-3.44-12.583-6.497-16.359-12.856
			c-0.157-0.265-0.143-0.874-0.257-0.887c-7.607-0.848-11.292-7.66-17.012-11.367c-5.883-3.813-11.035-8.773-16.361-13.399
			c-0.773-0.671-1.377-1.563-2.308-2.204c-4.117-2.835-9.232-4.569-11.425-9.61c-0.934-2.15-3.024-2.074-4.622-2.826
			c-2.004-0.943-3.994-2.085-4.015-4.272c-0.04-4.271-3.168-4.396-5.887-4.746c-2.786-0.357-4.275-1.74-5.234-4.203
			c-0.963-2.477-2.604-4.229-5.061-5.62c-7.517-4.257-12.546-11.397-18.935-16.972c-4.264-3.721-8.28-7.734-12.384-11.462
			c-3.382-3.071-7.125-5.345-9.128-9.764c-0.576-1.271-2.431-2.434-3.886-2.729c-2.547-0.518-3.973-1.443-3.543-4.205
			c0.217-1.396-0.804-1.701-1.656-2.496c-3.649-3.406-7.04-7.246-10.536-10.63c-4.183-4.046-7.655-8.434-11.4-12.754
			c-2.167-2.5-5.5-3.81-6.404-7.642c-0.806-3.415-5.786-4.161-6.454-6.936c-1.751-7.28-9.456-10.205-11.398-17.081
			c-0.625-2.214-2.286-3.503-4.194-4.588c-2.986-1.697-4.046-4.231-3.154-7.579c0.308-1.153,0.455-1.895-1.232-2.51
			c-3.523-1.288-6.592-3.034-7.062-7.699c-0.215-2.13-2.283-4.247-3.901-6.012c-1.619-1.766-2.905-3.276-2.69-5.969
			c0.231-2.902-2.923-3.628-4.501-5.37c-2.057-2.272-3.314-4.893-4.787-7.484c-3.621-6.371-6.214-13.429-10.969-19.107
			c-1.326-1.583-3.188-2.497-2.693-5.065c0.363-1.886-0.705-3.76-1.951-4.796c-5.132-4.271-4.639-11.181-7.994-16.212
			c-3.854-5.778-6.468-12.644-8.052-18.797c-1.594-6.19-5.564-11.197-6.755-17.777c-1.116-6.171-3.407-13.223-6.657-19.219
			c-1.117-2.061-1.6-3.829-1.522-5.938c0.116-3.19,0.037-6.27-2.629-8.617c-0.322-0.284-0.447-0.899-0.491-1.378
			c-0.568-6.289-3.74-12.016-4.599-18.036c-1.052-7.378-3.667-14.731-2.305-22.394c0.057-0.32,0.127-0.786-0.042-0.979
			c-7.409-8.475-3.436-18.928-4.992-28.414c-0.285-1.735,1.573-4.576-2.36-4.756c-0.943-0.043-0.572-1.715-0.581-2.66
			c-0.034-3.5,0.135-7.006-0.052-10.496c-0.223-4.169,0.738-8.312-1.786-12.459c-1.886-3.1-2.065-6.957-1.511-11.109
			c0.811-6.073-0.336-12.408-0.657-18.632c-0.393-7.616,1.735-15.12,0.997-22.754c-0.688-7.103-0.419-13.991,2.72-20.701
			c1.493-3.19,0.832-7.24,0.806-10.613c-0.044-5.887,3.148-10.579,3.817-16.103c0.667-5.506,3.137-10.681,5.102-15.918
			c2.156-5.745,4.976-11.328,7.168-17.063c1.564-4.092,3.999-8.572,7.411-11.845c2.695-2.585,2.779-7.686,7.734-8.043
			c-1.808-4.453,2.752-5.188,4.431-7.611c5.996-8.659,13.123-16.022,22.053-21.87c9.695-6.348,18.54-14.246,30.082-17.051
			c6.185-1.504,11.228-5.306,17.155-7.047c3.66-1.074,7.579-1.005,11.376-1.824c4.851-1.047,9.887-1.24,14.539-3.25
			c0.731-0.316,1.63-1.052,2.182-0.851c6.165,2.242,12.165-2.196,18.458-0.255c2.413,0.744,5.517,0.768,8.287-0.491
			c1.825-0.83,3.809-0.507,5.653,0.604c1.08,0.65,2.243,1.17,3.68,1.115c5.453-0.208,11.106-1.391,15.855,2.7
			c0.315,0.271,1.073,0.406,1.411,0.219c8.096-4.487,14.537,6.571,22.573,2.385c3.891,5.695,10.828,4.264,15.79,6.875
			c4.293,2.258,7.34,6.271,12.981,4.162c1.18-0.441,1.707,1.186,2.127,2.265c1.898,4.857,5.829,5.728,10.439,5.35
			c0.845-0.069,2.235-1.486,2.449-0.142c0.751,4.713,5.282,6.817,6.966,10.957c2.055,5.047,7.404,7.258,11.16,10.869
			c8.927,8.583,18.121,16.889,27.197,25.318c1.705,1.583,3.206,3.432,5.067,4.794c5.315,3.892,5.369,3.818,0.847,8.434
			c-5.981,6.105-6.119,9.729,0.715,15.198c4.563,3.652,8.531,7.817,12.583,11.915c10.398,10.515,22.242,19.405,32.92,29.611
			c3.233,3.088,8.073,3.798,12.259,5.434c7.202,2.814,12.057,8.365,15.713,14.87c8.532,15.187,20.486,27.298,34.098,37.774
			c7.655,5.891,16.126,10.59,25.275,14.088c5.709,2.183,10.034,6.162,12.074,12.457c4.471,13.795,13.631,22.484,27.849,26.698
			c6.328,1.875,11.37,7.335,15.794,12.424c1.623,1.868-1.04,3.764-3.209,4.372c-1.01,0.283-2.222,0.671-2.152,1.494
			c0.063,0.763,1.16,1.901,1.959,2.056c3.248,0.628,4.472,2.328,4.956,5.666c0.338,2.328,1.822,4.841,5.355,4.778
			c2.043-0.037,3.785,1.272,4.004,3.803c0.268,3.083,3.332,5.045,5.474,3.191c2.143-1.855,4.213-1.055,5.23,0.083
			c7.106,7.955,16.035,13.82,23.707,21.139c12.91,12.318,26.361,24.076,39.758,35.872c1.778,1.565,3.687,3.749,7.256,2.034
			c2.927-1.406,3.941,2.924,5.521,4.476c2.633,2.588,5.084,5.584,7.823,8.145c4.613,4.311,5.22,9.222,3.621,15.002
			c-2.255,8.153-4.655,16.242-4.129,24.96c0.632,10.486-0.09,20.932-3.924,30.903c-0.841,2.185-1.537,4.343-3.711,5.922
			c-3.094,2.245-4.578,5.428-5.502,9.409c-0.891,3.832-3.749,7.28-6.044,10.693c-3.947,5.866-3.682,12.35,1.598,16.844
			c1.407,1.198,1.684,2.074,1.677,3.52c-0.029,6.681,0.38,13.126,5.653,18.302c0.948,0.931,0.203,3.516,0.375,5.323
			c0.479,5.034,2.045,9.701,6.229,12.789c1.961,1.447,3.013,2.995,2.713,5.2c-0.572,4.207,0.525,8.277-0.421,12.767
			c-0.965,4.585,0.581,9.995-0.252,15.209c-0.277,1.739,0.827,4.124,0.927,6.491c0.321,7.519-2.708,15.182,0.729,22.561
			c1.049,2.252-1.922,2.379-2.099,4.373c-0.385,4.337,2.765,9.974,7.391,11.726c6.19,2.342,6.418,6.89,5.674,11.84
			c-1.36,9.048-1.003,17.976-0.119,27.054c0.549,5.633,1.242,11.54-0.671,17.237c-0.389,1.153-0.155,2.522,0.258,3.87
			c2.112,6.889-0.128,13.813-0.88,20.551c-0.379,3.393-4.31,6.849-7.699,9.479c-8.972,6.962-12.955,16.756-14.746,27.573
			c-1.162,7.02-3.233,13.62-6.655,19.905C648.254,1154.272,646.903,1153.792,644.401,1154.089z"/>
		<path fill-rule="evenodd" clip-rule="evenodd" fill="none" d="M1304.521,1371.108c-1.281-0.531-2.374-0.876-3.361-1.415
			c-2.677-1.461-6.172-1.705-8.028-0.233c-3.966,3.145-7.506,2.282-11.133,0.383c-4.093-2.146-7.229-0.184-10.335,1.886
			c-1.176,0.783-2.123,1.642-3.509,0.899c-5.501-2.946-10.882-2.878-16.091,0.632c-1.315,0.885-2.357,0.852-3.553-0.136
			c-4.574-3.778-9.413-3.086-13.959-0.23c-2.01,1.261-3.078,1.06-4.693-0.353c-3.629-3.174-7.416-5.004-11.965-1.239
			c-2.006,1.659-4.497,0.708-6.427-0.508c-3.79-2.39-7.696-2.473-11.783-1.235c-1.971,0.597-3.746,0.5-5.605-0.561
			c-4.997-2.848-10.284-3.085-15.541-0.904c-1.717,0.713-2.856,0.006-3.819-0.828c-3.375-2.926-7.074-2.97-11.01-1.655
			c-2.788,0.933-5.128,0.976-7.25-1.709c-2.903-3.676-6.727-4.008-10.552-1.462c-2.621,1.744-4.81,1.507-6.749-0.741
			c-2.772-3.212-5.863-3.609-9.697-1.985c-1.981,0.84-4.064,1.014-5.846-1.389c-2.447-3.297-5.896-4.414-10.003-2.771
			c-2.453,0.982-5.021,0.58-6.715-1.388c-2.683-3.113-5.854-3.795-9.272-2.133c-3.238,1.576-5.625,1.098-7.801-1.582
			c-0.413-0.507-1.065-1.408-1.382-1.319c-8.076,2.256-14.169-5.61-22.066-4.267c-2.309,0.393-4.652,0.255-6.2-2.053
			c-0.257-0.383-0.783-0.843-1.18-0.837c-7.046,0.104-12.925-4.428-19.742-4.984c-2.89-0.235-5.359-0.618-7.621-2.666
			c-2.424-2.193-5.273-3.696-8.83-3.456c-2.451,0.165-4.704-0.729-6.74-2.208c-1.026-0.745-2.269-1.621-3.443-1.665
			c-11.037-0.417-16.028-7.172-19.375-16.808c-1.758-5.069-6.8-8.482-9.38-13.519c-2.704-5.276-6.716-9.872-10.046-14.839
			c-1.035-1.543-2.141-3.073-3.756-3.834c-8.758-4.127-14.119-11.454-18.173-19.741c-3.72-7.601-6.336-15.67-8.285-23.939
			c-0.896-3.801,2.192-5.292,4.258-6.74c1.716-1.203,4.124-3.152,6.969-0.562c2.9,2.642,6.702,2.523,10.091,0.684
			c2.624-1.423,4.383-1.034,6.555,0.978c2.347,2.175,5.157,3.384,8.315,0.721c1.596-1.345,4.1-1.232,5.659-0.27
			c3.229,1.993,6.614,1.587,10.021,1.642c2.926,0.048,5.678,0.158,8.569,1.419c2.896,1.262,6.385,1.228,9.553-0.33
			c1.213-0.596,2.374-1.704,4-0.266c2.016,1.784,4.7,1.04,7.129,1.184c3.772,0.224,7.971-2.33,11.186,1.853
			c0.384,0.498,2.039,0.433,2.889,0.092c5.991-2.4,11.928,0.51,17.874,0.031c3-0.241,5.9,0.178,8.68,1.163
			c3.733,1.323,7.354,1.407,10.947-0.321c0.859-0.413,1.734-1.429,2.594-0.323c1.789,2.304,4.241,1.3,6.447,1.494
			c4.114,0.364,8.271-1.451,12.386,1.66c1.783,1.348,5.425,0.802,8.187-0.174c0.888-0.313,2.189-0.788,2.782-0.398
			c8.04,5.283,17.042,1.758,25.53,2.702c4.238,0.472,7.93,3.011,12.427,2.313c3.622-0.563,7.621-1.843,10.803,1.671
			c0.4,0.442,1.604,0.291,2.416,0.209c13.726-1.392,26.943,2.266,40.395,3.642c6.961,0.713,13.775,3.226,20.893,2.362
			c1.405-0.17,2.643,0.214,3.681,1.002c3.583,2.724,7.286,4.345,11.747,2.055c2.191-1.125,2.4,1.897,4.396,2.096
			c5.925,0.59,11.776,1.899,17.672,2.829c1.464,0.231,3.373-0.491,4.422,0.208c7.873,5.246,17.317,3.497,25.632,6.132
			c4.484,1.42,8.849,3.376,13.53,4.548c8.378,2.1,16.929,4.258,24.75,7.574c9.114,3.864,18.637,6.476,27.796,10.144
			c8.79,3.519,17.602,7.303,26.834,9.966c6.949,2.004,13.342,6.104,19.796,9.611c8.142,4.425,16.132,9.133,24.114,13.84
			c4.822,2.844,8.305,7.231,11.993,11.302c1.057,1.165,0.673,3.115-0.739,4.484c-4.828,4.688-10.225,8.006-16.576,10.77
			c-7.67,3.336-15.846,4.924-23.448,8.396c-4.834,2.207-10.646,2.451-16.076,3.104c-3.257,0.39-6.433,0.374-9.089,2.723
			c-0.799,0.707-2.113,1.429-3.058,1.282c-7.836-1.219-15.365,1.438-22.865,2.5c-7.786,1.101-15.967,0.089-23.494,3.348
			c-1.556,0.673-3.611,0.207-5.438,0.233C1312.502,1368.956,1308.145,1368.227,1304.521,1371.108z"/>
		<path fill-rule="evenodd" clip-rule="evenodd" d="M858.725,410.722c-5.91,0-11.821,0-17.731,0
			c-0.002-0.166-0.004-0.332-0.007-0.497c5.868,0,11.734,0,17.603,0C858.635,410.39,858.68,410.556,858.725,410.722z"/>
	</g>
</g>
</svg>
