<?xml version="1.0" encoding="utf-8"?>
<!-- Generator: Adobe Illustrator 16.0.0, SVG Export Plug-In . SVG Version: 6.00 Build 0)  -->
<!DOCTYPE svg PUBLIC "-//W3C//DTD SVG 1.1//EN" "http://www.w3.org/Graphics/SVG/1.1/DTD/svg11.dtd">
<svg version="1.1" id="Layer_1" xmlns="http://www.w3.org/2000/svg" xmlns:xlink="http://www.w3.org/1999/xlink" x="0px" y="0px"
	 width="1279.84px" height="852.894px" viewBox="0 0 1279.84 852.894" enable-background="new 0 0 1279.84 852.894"
	 xml:space="preserve">
<g>
	<g>
		<path fill-rule="evenodd" clip-rule="evenodd" d="M1,853.894C1,571.161,1.012,288.43,0.883,5.697
			C0.881,1.538,1.851,0.896,5.799,0.896C430.813,1.007,855.825,1,1280.84,1c0,281.94,0,563.881,0,845.821
			c0,7.071-0.001,7.072-7.108,7.072C849.487,853.894,425.244,853.894,1,853.894z M641.025,20.998
			c-204.629,0-409.259,0.019-613.888-0.113c-4.92-0.004-6.272,1.009-6.269,6.154c0.147,266.951,0.148,533.903-0.006,800.854
			c-0.003,5.232,1.479,6.11,6.313,6.109c409.092-0.115,818.185-0.116,1227.277,0.007c5.091,0.001,6.519-1.117,6.516-6.404
			c-0.144-266.784-0.145-533.569,0.005-800.354c0.003-5.365-1.541-6.365-6.559-6.362C1049.951,21.016,845.489,20.998,641.025,20.998
			z"/>
		<path fill-rule="evenodd" clip-rule="evenodd" fill="none" d="M1,853.894c424.244,0,848.487,0,1272.731,0
			c7.107,0,7.108-0.001,7.108-7.072c0-281.94,0-563.881,0-845.821c0.308,0.218,1.043-0.506,1.011,0.5
			c-0.043,1.332-0.011,2.666-0.011,3.999c0,281.565-0.012,563.13,0.117,844.696c0.002,4.159-0.967,4.803-4.916,4.802
			c-423.848-0.11-847.695-0.102-1271.543-0.165C4.035,854.831,2.108,855.984,1,853.894z"/>
		<path fill-rule="evenodd" clip-rule="evenodd" fill="none" d="M641.025,20.998c204.464,0,408.926,0.019,613.389-0.109
			c5.018-0.003,6.562,0.998,6.559,6.362c-0.149,266.785-0.148,533.57-0.005,800.354c0.003,5.287-1.425,6.405-6.516,6.404
			c-409.092-0.123-818.185-0.122-1227.277-0.007c-4.834,0.001-6.316-0.877-6.313-6.109c0.154-266.951,0.153-533.903,0.006-800.854
			c-0.003-5.145,1.349-6.158,6.269-6.154C231.767,21.016,436.396,20.998,641.025,20.998z M582.495,463.577
			c-0.435,1.815-0.648,3.085-1.042,4.295c-8.408,25.824-16.83,51.643-25.267,77.457c-2.274,6.957-4.59,13.9-6.937,20.833
			c-0.285,0.841-0.53,1.715,0.054,2.326c0.774,0.813,1.403-0.034,2.061-0.503c9.239-6.596,18.556-13.084,27.729-19.771
			c18.866-13.752,37.657-27.607,56.478-41.422c13.819-10.145,27.607-20.329,41.495-30.378c1.396-1.01,2.139-1.505,1.463-3.396
			c-1.69-4.737-3.159-9.559-4.569-14.39c-0.748-2.56-1.509-3.282-3.996-1.361c-5.285,4.086-10.852,7.807-16.269,11.725
			c-16.135,11.667-32.241,23.376-48.384,35.032c-5.939,4.288-11.48,9.157-18.046,12.713c-0.351-1.361-0.403-2.422,0.004-3.607
			c3.908-11.356,7.771-22.729,11.571-34.123c0.547-1.638,1.035-3.323-1.007-4.69C592.828,470.97,587.958,467.424,582.495,463.577z
			 M789.592,394.994c-0.144-0.348-0.287-0.695-0.431-1.043c-1.764,0-3.527,0-5.29,0c-46.31,0-92.62-0.008-138.93,0.011
			c-5.152,0.003-11.463-1.643-15.146,0.728c-4.026,2.589-3.704,9.673-5.892,14.553c-1.89,4.213-0.204,4.789,3.681,4.774
			c31.816-0.12,63.633-0.067,95.451-0.067c1.661,0,3.322,0,6.422,0c-11.986,8.631-22.573,16.3-33.236,23.861
			c-1.099,0.779-2.573,1.118-2.037,2.807c1.767,5.567,3.628,11.105,5.472,16.648c0.615,1.851,1.555,2.146,3.219,0.897
			c5.315-3.988,10.726-7.853,16.093-11.773c17.134-12.522,34.252-25.061,51.398-37.565
			C776.743,404.173,783.182,399.602,789.592,394.994z M662.835,415.95c10.909,33.816,21.622,67.027,32.522,100.817
			c-1.622-0.53-2.356-0.59-2.861-0.962c-9.337-6.892-18.571-13.926-28.03-20.645c-1.729-1.229-3.471-4.218-6.603-1.713
			c-4.779,3.818-9.748,7.399-14.732,11.154c29.785,21.589,59.41,43.062,89.063,64.552c1.006-1.6,0.379-2.544,0.009-3.673
			c-7.448-22.723-14.852-45.46-22.191-68.218c-8.429-26.134-16.78-52.295-25.19-78.435c-0.575-1.789-1.47-3.023-3.833-2.942
			C675.173,416.083,669.347,415.95,662.835,415.95z M492.684,394.184c-0.162,0.296-0.323,0.593-0.484,0.889
			c5.795,4.049,11.67,7.988,17.37,12.168c18.048,13.238,35.968,26.651,54.054,39.838c17.542,12.788,35.387,25.166,52.744,38.198
			c4.612,3.462,7.554,3.587,11.376-0.502c1.968-2.106,4.528-3.839,7.121-5.142c4.03-2.026,3.373-3.47,0.173-5.72
			c-8.146-5.729-16.111-11.715-24.195-17.535c-11.386-8.195-22.871-16.259-34.208-24.523c-7.723-5.631-15.264-11.509-23.722-17.907
			c13.677,0,26.289,0.011,38.899-0.012c2.078-0.003,4.382,0.565,5.268-2.39c1.734-5.788,3.617-11.532,5.46-17.363
			C565.502,394.184,529.093,394.184,492.684,394.184z M641.256,286.062c-0.334,0-0.667-0.001-1.001-0.001
			c-1.596,5.281-3.098,10.594-4.802,15.841c-8.685,26.756-17.432,53.492-26.136,80.243c-5.889,18.1-11.724,36.217-17.642,54.308
			c-0.458,1.401-1.546,2.507,0.537,3.623c4.758,2.548,8.573,6.461,13.218,9.271c2.724,1.648,2.9,0.197,3.425-1.401
			c2.38-7.246,4.647-14.529,6.994-21.785c7.406-22.892,14.769-45.801,22.338-68.64c0.805-2.429,0.266-5.719,3.385-7.173
			c3.824,12.319,7.594,24.597,11.478,36.838c0.712,2.244,1.864,4.036,4.933,3.838c4.478-0.289,8.994-0.199,13.484-0.033
			c3.387,0.125,3.671-0.77,2.617-3.981c-6.599-20.091-12.827-40.303-19.326-60.426C650.384,313.036,645.765,299.567,641.256,286.062
			z"/>
		<path fill-rule="evenodd" clip-rule="evenodd" d="M582.495,463.577c5.464,3.847,10.333,7.393,15.337,10.739
			c2.042,1.367,1.554,3.053,1.007,4.69c-3.8,11.394-7.663,22.767-11.571,34.123c-0.408,1.186-0.355,2.246-0.004,3.607
			c6.566-3.556,12.107-8.425,18.046-12.713c16.144-11.656,32.25-23.365,48.384-35.032c5.417-3.918,10.983-7.639,16.269-11.725
			c2.487-1.921,3.248-1.198,3.996,1.361c1.41,4.831,2.879,9.652,4.569,14.39c0.676,1.892-0.067,2.387-1.463,3.396
			c-13.888,10.049-27.676,20.233-41.495,30.378c-18.821,13.814-37.612,27.67-56.478,41.422c-9.173,6.687-18.49,13.175-27.729,19.771
			c-0.657,0.469-1.286,1.315-2.061,0.503c-0.584-0.611-0.339-1.485-0.054-2.326c2.347-6.933,4.663-13.876,6.937-20.833
			c8.437-25.814,16.858-51.633,25.267-77.457C581.846,466.662,582.06,465.393,582.495,463.577z"/>
		<path fill-rule="evenodd" clip-rule="evenodd" d="M789.592,394.994c-6.41,4.608-12.849,9.179-19.227,13.83
			c-17.146,12.504-34.265,25.042-51.398,37.565c-5.367,3.921-10.777,7.785-16.093,11.773c-1.664,1.248-2.604,0.953-3.219-0.897
			c-1.844-5.543-3.705-11.081-5.472-16.648c-0.536-1.688,0.938-2.027,2.037-2.807c10.663-7.562,21.25-15.23,33.236-23.861
			c-3.1,0-4.761,0-6.422,0c-31.817,0-63.635-0.053-95.451,0.067c-3.885,0.015-5.571-0.561-3.681-4.774
			c2.188-4.879,1.865-11.963,5.892-14.553c3.684-2.37,9.994-0.725,15.146-0.728c46.31-0.019,92.62-0.011,138.93-0.011
			c1.763,0,3.526,0,5.29,0C789.305,394.298,789.448,394.646,789.592,394.994z"/>
		<path fill-rule="evenodd" clip-rule="evenodd" d="M662.835,415.95c6.512,0,12.338,0.133,18.152-0.064
			c2.363-0.081,3.258,1.153,3.833,2.942c8.41,26.14,16.762,52.301,25.19,78.435c7.34,22.758,14.743,45.495,22.191,68.218
			c0.37,1.129,0.997,2.073-0.009,3.673c-29.652-21.49-59.277-42.963-89.063-64.552c4.984-3.755,9.953-7.336,14.732-11.154
			c3.132-2.505,4.874,0.484,6.603,1.713c9.459,6.719,18.693,13.753,28.03,20.645c0.505,0.372,1.239,0.432,2.861,0.962
			C684.457,482.977,673.744,449.766,662.835,415.95z"/>
		<path fill-rule="evenodd" clip-rule="evenodd" d="M492.684,394.184c36.409,0,72.819,0,109.857,0
			c-1.844,5.831-3.727,11.575-5.46,17.363c-0.886,2.955-3.19,2.387-5.268,2.39c-12.61,0.022-25.222,0.012-38.899,0.012
			c8.458,6.398,15.999,12.276,23.722,17.907c11.336,8.265,22.821,16.328,34.208,24.523c8.084,5.82,16.049,11.807,24.195,17.535
			c3.2,2.25,3.857,3.693-0.173,5.72c-2.593,1.303-5.153,3.035-7.121,5.142c-3.823,4.089-6.765,3.964-11.376,0.502
			c-17.357-13.032-35.202-25.41-52.744-38.198c-18.086-13.187-36.006-26.6-54.054-39.838c-5.699-4.18-11.575-8.119-17.37-12.168
			C492.36,394.777,492.521,394.48,492.684,394.184z"/>
		<path fill-rule="evenodd" clip-rule="evenodd" d="M641.256,286.062c4.509,13.505,9.128,26.974,13.502,40.522
			c6.499,20.124,12.728,40.335,19.326,60.426c1.054,3.211,0.77,4.106-2.617,3.981c-4.49-0.166-9.007-0.256-13.484,0.033
			c-3.068,0.197-4.221-1.595-4.933-3.838c-3.884-12.242-7.653-24.52-11.478-36.838c-3.119,1.454-2.58,4.744-3.385,7.173
			c-7.569,22.839-14.932,45.748-22.338,68.64c-2.347,7.256-4.614,14.539-6.994,21.785c-0.525,1.599-0.701,3.05-3.425,1.401
			c-4.645-2.811-8.46-6.724-13.218-9.271c-2.083-1.116-0.995-2.222-0.537-3.623c5.917-18.09,11.752-36.208,17.642-54.308
			c8.704-26.75,17.452-53.486,26.136-80.243c1.704-5.247,3.207-10.56,4.802-15.841C640.589,286.061,640.922,286.062,641.256,286.062
			z"/>
	</g>
</g>
</svg>
