<?xml version="1.0" encoding="utf-8"?>
<!-- Generator: Adobe Illustrator 16.0.0, SVG Export Plug-In . SVG Version: 6.00 Build 0)  -->
<!DOCTYPE svg PUBLIC "-//W3C//DTD SVG 1.1//EN" "http://www.w3.org/Graphics/SVG/1.1/DTD/svg11.dtd">
<svg version="1.1" id="Layer_1" xmlns="http://www.w3.org/2000/svg" xmlns:xlink="http://www.w3.org/1999/xlink" x="0px" y="0px"
	 width="1279.84px" height="852.894px" viewBox="0 0 1279.84 852.894" enable-background="new 0 0 1279.84 852.894"
	 xml:space="preserve">
<g>
	<g>
		<path fill-rule="evenodd" clip-rule="evenodd" d="M1.002,853.717c0-284.087,0-568.35,0-852.665c426.526,0,853.056,0,1279.711,0
			c0,284.128,0,568.309,0,852.665C854.229,853.717,427.615,853.717,1.002,853.717z M21.232,833.555c413.351,0,826.333,0,1239.221,0
			c0-271.015,0-541.688,0-812.305c-413.255,0-826.121,0-1239.221,0C21.232,292.058,21.232,562.613,21.232,833.555z"/>
		<path fill-rule="evenodd" clip-rule="evenodd" fill="#FFFFFF" d="M21.232,833.555c0-270.941,0-541.497,0-812.305
			c413.1,0,825.966,0,1239.221,0c0,270.617,0,541.29,0,812.305C847.565,833.555,434.583,833.555,21.232,833.555z M582.698,463.699
			C571.315,498.76,560,533.613,548.686,568.466c0.368,0.213,0.735,0.427,1.102,0.64c43.069-31.274,86.137-62.55,129.399-93.965
			c-2.105-6.571-4.151-12.958-6.408-20.002c-28.933,20.992-57.038,41.385-85.998,62.397c0.244-2.355,0.169-3.38,0.471-4.276
			c3.835-11.38,7.818-22.714,11.479-34.149c0.441-1.376-0.244-3.958-1.331-4.83C592.829,470.615,587.91,467.385,582.698,463.699z
			 M789.508,394.955c-0.171-0.335-0.341-0.669-0.512-1.004c-17.821,0-35.642,0-53.461,0c-33.983,0-67.966-0.025-101.948,0.076
			c-1.672,0.005-4.382,0.689-4.836,1.789c-2.339,5.671-4.1,11.582-6.328,18.193c35.662,0,70.6,0,106.835,0
			c-12.489,9.067-23.82,17.295-35.495,25.771c2.191,6.444,4.418,12.992,6.764,19.895
			C730.888,437.591,760.198,416.273,789.508,394.955z M643.098,504.572c29.669,21.511,59.306,42.997,89.421,64.83
			c0-1.539,0.225-2.491-0.032-3.287c-10.614-32.984-21.258-65.959-31.931-98.925c-5.2-16.063-10.41-32.124-15.805-48.122
			c-0.435-1.292-2.288-2.91-3.558-2.978c-5.961-0.314-11.947-0.14-18.358-0.14c10.884,33.735,21.628,67.038,32.372,100.341
			c-0.306,0.202-0.612,0.405-0.918,0.607c-11.562-8.373-23.124-16.746-34.34-24.868C653.93,496.512,648.568,500.503,643.098,504.572
			z M638.783,476.743c-28.681-20.879-56.921-41.438-86.261-62.795c14.082,0,26.701,0.094,39.314-0.108
			c1.756-0.028,4.531-1.095,5.051-2.395c2.237-5.586,3.808-11.439,5.639-17.249c-37.045,0-73.449,0-111.279,0
			c44.282,32.151,87.513,63.54,130.671,94.875C627.464,485.018,632.712,481.182,638.783,476.743z M640.513,350.351
			c0.351-0.008,0.7-0.016,1.051-0.022c3.81,12.264,7.534,24.557,11.541,36.756c0.504,1.535,2.423,3.586,3.806,3.682
			c5.906,0.409,11.856,0.174,18.524,0.174c-11.525-35.5-22.815-70.268-34.529-106.348c-17.029,52.493-33.573,103.493-50.114,154.481
			c5.665,3.993,11.113,7.833,16.922,11.928C618.72,417.229,629.616,383.79,640.513,350.351z"/>
		<path fill-rule="evenodd" clip-rule="evenodd" d="M582.698,463.699c5.212,3.686,10.131,6.916,14.701,10.581
			c1.087,0.872,1.772,3.454,1.331,4.83c-3.661,11.436-7.644,22.77-11.479,34.149c-0.302,0.896-0.227,1.921-0.471,4.276
			c28.96-21.013,57.065-41.405,85.998-62.397c2.257,7.044,4.303,13.431,6.408,20.002c-43.262,31.415-86.33,62.69-129.399,93.965
			c-0.367-0.213-0.734-0.427-1.102-0.64C560,533.613,571.315,498.76,582.698,463.699z"/>
		<path fill-rule="evenodd" clip-rule="evenodd" d="M789.508,394.955c-29.31,21.318-58.62,42.636-88.981,64.719
			c-2.346-6.902-4.572-13.45-6.764-19.895c11.675-8.476,23.006-16.703,35.495-25.771c-36.235,0-71.174,0-106.835,0
			c2.228-6.611,3.989-12.522,6.328-18.193c0.454-1.1,3.165-1.784,4.836-1.789c33.982-0.102,67.965-0.076,101.948-0.076
			c17.819,0,35.64,0,53.461,0C789.167,394.286,789.337,394.62,789.508,394.955z"/>
		<path fill-rule="evenodd" clip-rule="evenodd" d="M643.098,504.572c5.47-4.069,10.832-8.061,16.852-12.54
			c11.216,8.122,22.778,16.495,34.34,24.868c0.306-0.202,0.612-0.405,0.918-0.607c-10.744-33.304-21.488-66.606-32.372-100.341
			c6.411,0,12.397-0.174,18.358,0.14c1.27,0.067,3.123,1.686,3.558,2.978c5.395,15.998,10.604,32.058,15.805,48.122
			c10.673,32.966,21.316,65.94,31.931,98.925c0.257,0.796,0.032,1.748,0.032,3.287C702.404,547.569,672.768,526.083,643.098,504.572
			z"/>
		<path fill-rule="evenodd" clip-rule="evenodd" d="M638.783,476.743c-6.071,4.438-11.319,8.274-16.864,12.328
			c-43.159-31.336-86.39-62.725-130.671-94.875c37.83,0,74.234,0,111.279,0c-1.831,5.81-3.402,11.663-5.639,17.249
			c-0.521,1.3-3.295,2.367-5.051,2.395c-12.613,0.202-25.233,0.108-39.314,0.108C581.862,435.306,610.103,455.864,638.783,476.743z"
			/>
		<path fill-rule="evenodd" clip-rule="evenodd" d="M640.513,350.351c-10.897,33.439-21.793,66.878-32.799,100.65
			c-5.81-4.095-11.257-7.935-16.922-11.928c16.541-50.988,33.084-101.988,50.114-154.481
			c11.714,36.081,23.004,70.849,34.529,106.348c-6.668,0-12.618,0.235-18.524-0.174c-1.383-0.096-3.302-2.147-3.806-3.682
			c-4.006-12.2-7.73-24.492-11.541-36.756C641.213,350.335,640.863,350.343,640.513,350.351z"/>
	</g>
</g>
</svg>
