<?xml version="1.0" encoding="utf-8"?>
<!-- Generator: Adobe Illustrator 16.0.0, SVG Export Plug-In . SVG Version: 6.00 Build 0)  -->
<!DOCTYPE svg PUBLIC "-//W3C//DTD SVG 1.1//EN" "http://www.w3.org/Graphics/SVG/1.1/DTD/svg11.dtd">
<svg version="1.1" id="Layer_1" xmlns="http://www.w3.org/2000/svg" xmlns:xlink="http://www.w3.org/1999/xlink" x="0px" y="0px"
	 width="1279.84px" height="852.893px" viewBox="0 0 1279.84 852.893" enable-background="new 0 0 1279.84 852.893"
	 xml:space="preserve">
<g>
	<g>
		<path fill-rule="evenodd" clip-rule="evenodd" d="M1,1.046c426.532,0,853.066,0,1279.72,0c0,284.138,0,568.323,0,852.677
			c-426.493,0-853.106,0-1279.72,0C1,569.62,1,285.355,1,1.046z M548.682,568.484c0.353,0.22,0.706,0.438,1.058,0.658
			c43.156-31.34,86.312-62.68,129.458-94.015c-2.18-6.798-4.184-13.053-6.41-19.997c-28.914,20.979-57.043,41.389-85.787,62.244
			c0-1.954-0.217-2.85,0.032-3.589c3.833-11.385,7.77-22.733,11.545-34.136c0.445-1.346,0.713-3.751-0.003-4.318
			c-5.139-4.072-10.556-7.795-15.885-11.63C571.205,499.09,559.944,533.787,548.682,568.484z M789.531,394.935
			c-0.121-0.328-0.241-0.656-0.362-0.984c-1.759,0-3.519,0-5.276,0c-27.986,0-55.972,0-83.958,0c-22.155,0-44.312-0.04-66.466,0.082
			c-1.651,0.009-4.314,0.768-4.773,1.888c-2.323,5.673-4.072,11.58-6.287,18.2c35.703,0,70.637,0,106.707,0
			c-12.398,9-23.744,17.237-35.322,25.642c2.162,6.468,4.331,12.957,6.67,19.959C730.731,437.705,760.132,416.32,789.531,394.935z
			 M662.827,415.953c10.95,33.922,21.663,67.112,32.377,100.302c-0.297,0.22-0.594,0.44-0.891,0.66
			c-11.553-8.368-23.107-16.735-34.363-24.887c-5.95,4.443-11.341,8.47-16.829,12.57c29.87,21.647,59.45,43.085,90.022,65.242
			c-0.459-2.228-0.56-3.162-0.846-4.037c-2.277-6.961-4.65-13.891-6.88-20.867c-8.218-25.72-16.35-51.468-24.597-77.177
			c-5.258-16.39-10.614-32.747-16.103-49.061c-0.392-1.164-2.192-2.569-3.394-2.623
			C675.351,415.806,669.359,415.953,662.827,415.953z M638.81,476.751c-28.809-20.964-56.979-41.465-86.301-62.803
			c3.026,0,4.615,0,6.205,0c11.163,0,22.328,0.115,33.486-0.123c1.706-0.036,4.357-1.318,4.892-2.682
			c2.155-5.495,3.651-11.249,5.351-16.777c-36.916,0-73.408,0-110.977,0c44.083,32.001,87.263,63.345,130.452,94.696
			C627.382,485.079,632.643,481.247,638.81,476.751z M607.698,451.02c11.063-33.91,21.985-67.391,32.907-100.874
			c4.819,12.608,8.563,24.894,12.546,37.102c0.471,1.444,2.189,3.437,3.43,3.512c6.038,0.366,12.109,0.165,18.848,0.165
			c-11.537-35.544-22.799-70.235-34.519-106.341c-17.024,52.474-33.593,103.542-50.122,154.49
			C596.449,443.074,601.763,446.827,607.698,451.02z"/>
		<path fill-rule="evenodd" clip-rule="evenodd" fill="#FFFFFF" d="M548.682,568.484c11.262-34.697,22.523-69.394,34.009-104.782
			c5.329,3.835,10.746,7.558,15.885,11.63c0.716,0.567,0.448,2.973,0.003,4.318c-3.776,11.402-7.713,22.751-11.545,34.136
			c-0.249,0.739-0.032,1.635-0.032,3.589c28.744-20.855,56.874-41.266,85.787-62.244c2.227,6.944,4.23,13.199,6.41,19.997
			c-43.147,31.335-86.303,62.675-129.458,94.015C549.387,568.922,549.035,568.704,548.682,568.484z"/>
		<path fill-rule="evenodd" clip-rule="evenodd" fill="#FFFFFF" d="M789.531,394.935c-29.399,21.385-58.8,42.77-89.068,64.786
			c-2.339-7.002-4.508-13.491-6.67-19.959c11.578-8.405,22.924-16.642,35.322-25.642c-36.069,0-71.004,0-106.707,0
			c2.215-6.62,3.964-12.527,6.287-18.2c0.459-1.12,3.122-1.879,4.773-1.888c22.154-0.122,44.311-0.082,66.466-0.082
			c27.986,0,55.972,0,83.958,0c1.758,0,3.518,0,5.276,0C789.29,394.279,789.41,394.607,789.531,394.935z"/>
		<path fill-rule="evenodd" clip-rule="evenodd" fill="#FFFFFF" d="M662.827,415.953c6.532,0,12.523-0.146,18.498,0.123
			c1.201,0.054,3.002,1.459,3.394,2.623c5.488,16.313,10.845,32.671,16.103,49.061c8.247,25.709,16.379,51.457,24.597,77.177
			c2.229,6.977,4.603,13.906,6.88,20.867c0.286,0.875,0.387,1.81,0.846,4.037c-30.572-22.157-60.152-43.595-90.022-65.242
			c5.488-4.101,10.878-8.127,16.829-12.57c11.256,8.151,22.811,16.519,34.363,24.887c0.297-0.22,0.594-0.44,0.891-0.66
			C684.49,483.065,673.777,449.875,662.827,415.953z"/>
		<path fill-rule="evenodd" clip-rule="evenodd" fill="#FFFFFF" d="M638.81,476.751c-6.167,4.495-11.427,8.327-16.892,12.311
			c-43.189-31.352-86.368-62.695-130.452-94.696c37.568,0,74.061,0,110.977,0c-1.7,5.529-3.196,11.283-5.351,16.777
			c-0.535,1.364-3.186,2.646-4.892,2.682c-11.158,0.238-22.323,0.123-33.486,0.123c-1.59,0-3.178,0-6.205,0
			C581.831,435.287,610.001,455.788,638.81,476.751z"/>
		<path fill-rule="evenodd" clip-rule="evenodd" fill="#FFFFFF" d="M607.698,451.02c-5.936-4.193-11.25-7.946-16.91-11.946
			c16.529-50.948,33.097-102.016,50.122-154.49c11.72,36.106,22.981,70.797,34.519,106.341c-6.738,0-12.81,0.201-18.848-0.165
			c-1.24-0.075-2.959-2.068-3.43-3.512c-3.982-12.208-7.727-24.494-12.546-37.102C629.683,383.629,618.761,417.11,607.698,451.02z"
			/>
	</g>
</g>
</svg>
