<?xml version="1.0" encoding="utf-8"?>
<!-- Generator: Adobe Illustrator 16.0.0, SVG Export Plug-In . SVG Version: 6.00 Build 0)  -->
<!DOCTYPE svg PUBLIC "-//W3C//DTD SVG 1.1//EN" "http://www.w3.org/Graphics/SVG/1.1/DTD/svg11.dtd">
<svg version="1.1" id="Layer_1" xmlns="http://www.w3.org/2000/svg" xmlns:xlink="http://www.w3.org/1999/xlink" x="0px" y="0px"
	 width="1279.84px" height="852.894px" viewBox="0 0 1279.84 852.894" enable-background="new 0 0 1279.84 852.894"
	 xml:space="preserve">
<g>
	<g>
		<path fill-rule="evenodd" clip-rule="evenodd" fill="none" d="M640.849,854.893c-211.782,0-423.564-0.012-635.345,0.093
			c-3.738,0.002-4.599-0.829-4.598-4.587C1.009,568.8,1.007,287.201,0.919,5.603c-0.001-3.555,0.495-4.712,4.476-4.71
			c424.064,0.114,848.128,0.113,1272.192,0.013c3.596-0.001,4.352,0.725,4.35,4.34c-0.105,281.764-0.108,563.53,0.017,845.294
			c0.002,4.07-1.273,4.431-4.76,4.43C1065.078,854.884,852.964,854.893,640.849,854.893z M640.389,833.896
			c204.63,0,409.26,0,613.888,0c6.564,0,6.565-0.002,6.565-6.615c0-266.618-0.015-533.236,0.108-799.855
			c0.003-5.017-0.995-6.561-6.36-6.559c-409.092,0.143-818.185,0.142-1227.277,0.008c-5.238-0.001-6.435,1.35-6.432,6.488
			c0.132,266.618,0.117,533.237,0.117,799.855c0,6.676,0.001,6.678,6.502,6.678C231.796,833.896,436.092,833.896,640.389,833.896z"
			/>
		<path fill-rule="evenodd" clip-rule="evenodd" d="M640.389,833.896c-204.297,0-408.592,0-612.889,0
			c-6.501,0-6.502-0.002-6.502-6.678c0-266.618,0.016-533.237-0.117-799.855c-0.003-5.138,1.193-6.489,6.432-6.488
			c409.093,0.134,818.186,0.135,1227.277-0.008c5.365-0.002,6.363,1.542,6.36,6.559c-0.123,266.619-0.108,533.237-0.108,799.855
			c0,6.613-0.001,6.615-6.565,6.615C1049.648,833.896,845.019,833.896,640.389,833.896z M582.59,463.996
			c-11.377,35.061-22.644,69.779-34.374,105.926c11.246-7.913,21.229-14.768,31.032-21.871
			c18.37-13.314,36.643-26.761,54.941-40.172c14.226-10.427,28.392-20.935,42.687-31.264c1.813-1.312,2.207-2.054,1.34-4.246
			c-1.728-4.363-3.038-8.916-4.197-13.475c-0.77-3.023-1.575-3.526-4.229-1.483c-5.289,4.073-10.889,7.74-16.303,11.654
			c-16.006,11.571-31.981,23.188-47.977,34.773c-5.993,4.341-11.578,9.283-18.6,13.052c0.105-1.579-0.091-2.665,0.275-3.506
			c4.814-11.049,7.093-22.96,11.582-34.122c0.588-1.461,1.445-3.512-0.767-4.713C592.554,471.592,588.412,466.727,582.59,463.996z
			 M727.813,413.948c0.108,0.306,0.218,0.611,0.326,0.917c-10.574,7.629-21.13,15.284-31.747,22.852
			c-1.186,0.845-2.76,1.047-2.06,3.146c1.797,5.396,3.424,10.847,5.229,16.238c0.623,1.861,1.601,3.044,3.415,0.771
			c0.782-0.98,1.942-1.679,2.989-2.423c13.695-9.737,27.535-19.277,41.059-29.247c9.726-7.168,19.282-14.551,29.188-21.489
			c4.497-3.15,9.593-5.819,13.588-10.762c-2.58,0-4.406,0-6.232,0c-46.477,0-92.953-0.012-139.43,0.017
			c-4.973,0.003-11.168-1.513-14.565,0.864c-3.265,2.284-3.658,8.7-5.261,13.317c-2.007,5.784-1.984,5.798,4.079,5.798
			C661.53,413.949,694.672,413.948,727.813,413.948z M643.154,504.345c10.726,8.028,20.791,16.143,31.438,23.403
			c18.831,12.841,36.792,26.87,55.498,39.868c0.752,0.523,1.402,1.826,2.417,0.881c0.753-0.701,0.181-1.74-0.153-2.731
			c-2.595-7.714-5.085-15.464-7.552-23.221c-7.935-24.953-16.284-49.771-24.104-74.766c-5.137-16.42-11.237-32.541-15.947-49.113
			c-0.344-1.21-0.813-2.805-2.938-2.758c-6.217,0.137-12.438,0.049-18.985,0.049c10.954,33.93,21.667,67.121,32.527,100.763
			c-1.341-0.427-2.057-0.479-2.549-0.837c-9.244-6.727-18.54-13.385-27.642-20.3c-3.228-2.45-5.513-4.189-9.321-0.368
			C652.214,498.853,647.436,501.344,643.154,504.345z M602.389,394.204c-36.889,0-73.286,0-109.77,0
			c0.181,1.58,1.242,2.061,2.158,2.724c15.339,11.101,30.688,22.191,45.986,33.347c15.312,11.164,30.467,22.546,45.893,33.55
			c9.436,6.73,19.179,13.016,28.143,20.411c6.348,5.238,6.456,5.094,13.276,0.117c2.24-1.635,4.362-3.533,6.814-4.753
			c4.085-2.032,3.281-3.472,0.114-5.696c-8.149-5.725-16.103-11.727-24.186-17.546c-11.384-8.197-22.872-16.252-34.208-24.515
			c-7.718-5.627-15.251-11.506-23.689-17.895c13.014,0,24.981-0.386,36.904,0.172c5.521,0.258,7.729-1.95,8.906-6.671
			C599.834,403.03,601.148,398.663,602.389,394.204z M641.324,349.563c4.093,13.164,7.869,25.439,11.752,37.68
			c0.721,2.273,1.93,3.997,4.971,3.78c4.143-0.295,8.335-0.262,12.483-0.017c3.756,0.223,4.901-0.333,3.494-4.56
			c-7.251-21.759-14.108-43.648-21.172-65.469c-3.779-11.674-7.699-23.303-11.555-34.952c-2.593,5.253-4.151,10.62-5.876,15.931
			c-8.69,26.755-17.44,53.491-26.137,80.243c-5.834,17.946-11.615,35.909-17.427,53.862c-0.456,1.41-1.997,2.594,0.384,4.082
			c4.148,2.592,8.032,5.613,11.967,8.534c3.122,2.317,4.106,1.316,5-2.232c1.104-4.384,2.664-8.688,4.05-13.013
			c7.395-23.056,15-46.046,22.732-68.992C637.573,359.747,638.237,354.666,641.324,349.563z"/>
		<path fill-rule="evenodd" clip-rule="evenodd" fill="none" d="M582.59,463.996c5.821,2.73,9.963,7.596,15.41,10.554
			c2.212,1.201,1.355,3.252,0.767,4.713c-4.489,11.162-6.768,23.073-11.582,34.122c-0.366,0.841-0.17,1.927-0.275,3.506
			c7.022-3.769,12.607-8.711,18.6-13.052c15.996-11.586,31.971-23.202,47.977-34.773c5.414-3.914,11.014-7.581,16.303-11.654
			c2.654-2.043,3.46-1.54,4.229,1.483c1.159,4.559,2.47,9.111,4.197,13.475c0.867,2.192,0.474,2.935-1.34,4.246
			c-14.295,10.329-28.461,20.837-42.687,31.264c-18.298,13.411-36.571,26.857-54.941,40.172
			c-9.803,7.104-19.787,13.958-31.032,21.871C559.946,533.775,571.213,499.057,582.59,463.996z"/>
		<path fill-rule="evenodd" clip-rule="evenodd" fill="none" d="M727.813,413.948c-33.141,0-66.282,0.001-99.423-0.001
			c-6.063,0-6.085-0.015-4.079-5.798c1.604-4.617,1.997-11.034,5.261-13.317c3.397-2.377,9.592-0.861,14.565-0.864
			c46.477-0.028,92.953-0.017,139.43-0.017c1.826,0,3.652,0,6.232,0c-3.995,4.943-9.091,7.612-13.588,10.762
			c-9.905,6.938-19.462,14.321-29.188,21.489c-13.523,9.97-27.363,19.51-41.059,29.247c-1.047,0.744-2.207,1.442-2.989,2.423
			c-1.814,2.273-2.792,1.091-3.415-0.771c-1.805-5.392-3.432-10.843-5.229-16.238c-0.7-2.1,0.874-2.302,2.06-3.146
			c10.617-7.567,21.173-15.223,31.747-22.852C728.03,414.56,727.921,414.254,727.813,413.948z"/>
		<path fill-rule="evenodd" clip-rule="evenodd" fill="none" d="M643.154,504.345c4.281-3.001,9.06-5.492,12.688-9.129
			c3.809-3.821,6.094-2.082,9.321,0.368c9.102,6.915,18.397,13.573,27.642,20.3c0.492,0.358,1.208,0.41,2.549,0.837
			c-10.86-33.643-21.573-66.833-32.527-100.763c6.548,0,12.769,0.088,18.985-0.049c2.126-0.047,2.595,1.548,2.938,2.758
			c4.71,16.572,10.811,32.693,15.947,49.113c7.819,24.995,16.169,49.813,24.104,74.766c2.467,7.757,4.957,15.507,7.552,23.221
			c0.334,0.991,0.906,2.03,0.153,2.731c-1.015,0.945-1.665-0.357-2.417-0.881c-18.706-12.998-36.667-27.027-55.498-39.868
			C663.945,520.487,653.88,512.373,643.154,504.345z"/>
		<path fill-rule="evenodd" clip-rule="evenodd" fill="none" d="M602.389,394.204c-1.24,4.459-2.555,8.826-3.658,13.246
			c-1.177,4.721-3.385,6.929-8.906,6.671c-11.922-0.558-23.89-0.172-36.904-0.172c8.438,6.389,15.972,12.268,23.689,17.895
			c11.335,8.263,22.823,16.317,34.208,24.515c8.083,5.819,16.036,11.821,24.186,17.546c3.167,2.225,3.971,3.664-0.114,5.696
			c-2.453,1.22-4.575,3.118-6.814,4.753c-6.82,4.977-6.928,5.121-13.276-0.117c-8.963-7.396-18.707-13.681-28.143-20.411
			c-15.426-11.004-30.582-22.386-45.893-33.55c-15.299-11.156-30.647-22.246-45.986-33.347c-0.916-0.663-1.977-1.145-2.158-2.724
			C529.103,394.204,565.5,394.204,602.389,394.204z"/>
		<path fill-rule="evenodd" clip-rule="evenodd" fill="none" d="M641.324,349.563c-3.087,5.102-3.751,10.184-5.333,14.878
			c-7.732,22.945-15.338,45.936-22.732,68.992c-1.387,4.325-2.946,8.629-4.05,13.013c-0.894,3.549-1.878,4.55-5,2.232
			c-3.935-2.921-7.819-5.942-11.967-8.534c-2.38-1.488-0.84-2.672-0.384-4.082c5.812-17.954,11.592-35.917,17.427-53.862
			c8.697-26.752,17.447-53.488,26.137-80.243c1.726-5.312,3.284-10.678,5.876-15.931c3.855,11.649,7.775,23.277,11.555,34.952
			c7.063,21.821,13.921,43.71,21.172,65.469c1.407,4.227,0.262,4.783-3.494,4.56c-4.148-0.245-8.341-0.278-12.483,0.017
			c-3.041,0.217-4.25-1.507-4.971-3.78C649.193,375.003,645.417,362.727,641.324,349.563z"/>
	</g>
</g>
</svg>
