<?xml version="1.0" encoding="utf-8"?>
<!-- Generator: Adobe Illustrator 16.0.0, SVG Export Plug-In . SVG Version: 6.00 Build 0)  -->
<!DOCTYPE svg PUBLIC "-//W3C//DTD SVG 1.1//EN" "http://www.w3.org/Graphics/SVG/1.1/DTD/svg11.dtd">
<svg version="1.1" id="Layer_1" xmlns="http://www.w3.org/2000/svg" xmlns:xlink="http://www.w3.org/1999/xlink" x="0px" y="0px"
	 width="239.97px" height="159.98px" viewBox="0 0 239.97 159.98" enable-background="new 0 0 239.97 159.98" xml:space="preserve">
<g>
	<g>
		<path fill-rule="evenodd" clip-rule="evenodd" d="M1,160.979C1,107.653,1,54.326,1,1c79.99,0,159.979,0,239.97,0
			c0,53.25,0,106.5,0,159.979C160.8,160.979,80.899,160.979,1,160.979z M185.171,28.337c-5.605,9.198-12.422,17.082-20.684,24.479
			c25.198,0,49.759,0,74.313,0c0.642-15.114,0.404-45.771-0.344-49.65c-78.452,0-156.872,0-235.284,0
			C2.533,18.026,2.768,48.939,3.507,52.81c26.474,0,52.912,0,79.875,0c-7.601-7.069-14.146-14.354-18.631-23.473
			c4.942-0.865,9.313-1.996,13.639-3.337c6.322,10.646,14.489,19.631,24.057,26.871c6.024,0,11.655,0,17.857,0
			c-1.46-8.841,1.043-17.394,0.715-26.092c-0.047-1.244-0.483-2.622,0.358-3.7c1.229,1.157,2.438,2.295,3.801,3.578
			c0,8.677,0,17.454,0,26.337c8.508,0,16.824-0.092,25.136,0.073c1.779,0.036,3.042-0.826,4.441-1.419
			c3.449-1.463,5.236-5.187,8.717-6.705c0.296-0.129,0.217-1.004,0.529-1.224c1.282-0.902,2.798-1.553,3.652-2.926
			c2.483-3.992,5.967-7.15,8.628-10.866C179.508,30.464,181.814,27.064,185.171,28.337z M3.167,108.075c0,17.188,0,33.965,0,50.683
			c78.693,0,157.22,0,235.666,0c0-16.996,0-33.772,0-50.546c-25.027,0-49.916,0-75.136,0c9.571,7.562,18.79,14.921,26.63,23.938
			c-2.57,1.606-4.944,2.657-7.445,3.429c-2.573,0.796-4.695,3.371-7.804,2.047c-1.336-0.688-1.154-2.248-2.092-3.226
			c-8.218-8.576-16.871-16.631-27.034-22.878c-2.346-1.441-4.924-3.077-7.539-3.381c-4.717-0.546-9.543-0.154-14.672-0.154
			c1.261,8.616-1.152,16.695-0.781,24.906c0.045,0.99,0.4,2.141-0.486,3.045c-2.496-2.334-4.814-4.615-6.487-8.166
			c0-2.786-0.105-6.288,0.031-9.779c0.128-3.306-0.674-6.671,0.68-10.006c-6.432,0-12.749,0-19.064,0
			c-0.667,0-1.386,0.163-1.989-0.031c-1.624-0.525-2.9,0.53-4.052,1.112c-6.383,3.228-12.021,7.573-17.428,12.231
			c-4.751,4.095-7.84,9.726-12.791,13.664c-1.844-0.855-3.34,2.308-5.653,0.288c4.047-10.532,9.818-19.953,19.865-27.176
			C50.896,108.075,27.125,108.075,3.167,108.075z M3.094,105.986c25.412,0,50.402,0,75.082,0c6.124-3.228,12.05-6.107,18.465-8.083
			c6.635-2.042,13.476-2.856,20.245-4.174c-0.303-1.239,1.002-1.691,1.081-2.638c0.083-0.992-0.03-2,0.026-2.996
			c0.353-6.192-0.969-12.475,1.096-18.405c-0.637-1.096-2.093-0.425-2.536-1.582c-0.052-0.136-0.601-0.106-0.92-0.113
			c-2.076-0.046-4.058-0.439-6.11-0.88c-9.104-1.955-16.754-6.578-24.091-11.965c-27.357,0-54.801,0-82.337,0
			C3.094,72.083,3.094,88.864,3.094,105.986z M238.866,55.139c-25.528,0-50.952,0-76.693,0
			c-11.101,8.398-23.894,13.281-38.049,14.007c0,8.405,0,16.516,0,24.708c13.074,0.688,24.822,4.894,35.447,11.933
			c26.483,0,52.893,0,79.295,0C238.866,88.819,238.866,72.051,238.866,55.139z M125.103,59.899
			c7.947,0.641,14.993-1.391,22.89-4.687c-8.301,0-15.535,0-22.89,0C125.103,56.701,125.103,58.154,125.103,59.899z M118.878,54.925
			c-3.994,0.259-7.894-0.285-12.912,0.557c5.035,1.327,8.557,3.881,12.912,3.442C118.878,57.491,118.878,56.384,118.878,54.925z
			 M103.19,105.823c4.541,0,9.082,0,13.477,0c0.424-0.611,0.372-1.06,0.1-1.599C112.131,103.011,107.758,105.856,103.19,105.823z
			 M123.877,106.147c2.87-0.49,5.42,0.304,7.95-0.523c0.021-0.007-0.026-0.219-0.119-0.929c-2.644,1.623-4.81-1.973-7.601-0.37
			C124.063,104.68,124.023,104.992,123.877,106.147z"/>
		<path fill-rule="evenodd" clip-rule="evenodd" fill="none" d="M1,160.979c79.899,0,159.8,0,239.97,0c0-53.479,0-106.729,0-159.979
			c0.333,0,0.666,0,1,0c0,1.5,0,3,0,4.5c0,52.16,0,104.32,0,156.48c-78.824,0-157.647,0-236.47,0c-1.5,0-3,0.002-4.499-0.041
			C0.992,161.938,1,161.313,1,160.979z"/>
		<path fill-rule="evenodd" clip-rule="evenodd" fill="none" d="M185.171,28.337c-3.356-1.273-5.663,2.126-8.889,1.589
			c-2.661,3.715-6.145,6.874-8.628,10.866c-0.854,1.373-2.37,2.023-3.652,2.926c-0.313,0.22-0.233,1.095-0.529,1.224
			c-3.48,1.518-5.268,5.242-8.717,6.705c-1.399,0.593-2.662,1.456-4.441,1.419c-8.312-0.165-16.628-0.073-25.136-0.073
			c0-8.883,0-17.661,0-26.337c-1.362-1.282-2.571-2.42-3.801-3.578c-0.842,1.078-0.405,2.456-0.358,3.7
			c0.328,8.698-2.175,17.251-0.715,26.092c-6.202,0-11.833,0-17.857,0C92.88,45.631,84.713,36.646,78.391,26
			c-4.327,1.342-8.697,2.473-13.639,3.337c4.485,9.118,11.03,16.403,18.631,23.473c-26.964,0-53.402,0-79.875,0
			c-0.74-3.871-0.975-34.784-0.335-49.643c78.412,0,156.832,0,235.284,0c0.748,3.879,0.985,34.536,0.344,49.65
			c-24.554,0-49.114,0-74.313,0C172.749,45.419,179.565,37.535,185.171,28.337z"/>
		<path fill-rule="evenodd" clip-rule="evenodd" fill="none" d="M3.167,108.075c23.958,0,47.73,0,72.418,0
			c-10.046,7.223-15.817,16.644-19.865,27.176c2.313,2.02,3.809-1.144,5.653-0.288c4.951-3.938,8.039-9.569,12.791-13.664
			c5.407-4.658,11.045-9.004,17.428-12.231c1.151-0.582,2.428-1.638,4.052-1.112c0.603,0.194,1.322,0.031,1.989,0.031
			c6.315,0,12.632,0,19.064,0c-1.354,3.335-0.551,6.7-0.68,10.006c-0.136,3.491-0.031,6.993-0.031,9.779
			c1.673,3.551,3.991,5.832,6.487,8.166c0.887-0.904,0.531-2.055,0.486-3.045c-0.371-8.211,2.042-16.29,0.781-24.906
			c5.129,0,9.955-0.392,14.672,0.154c2.615,0.304,5.193,1.939,7.539,3.381c10.163,6.247,18.816,14.302,27.034,22.878
			c0.938,0.978,0.756,2.537,2.092,3.226c3.108,1.324,5.23-1.251,7.804-2.047c2.501-0.771,4.875-1.822,7.445-3.429
			c-7.84-9.017-17.059-16.376-26.63-23.938c25.22,0,50.108,0,75.136,0c0,16.773,0,33.55,0,50.546c-78.445,0-156.972,0-235.666,0
			C3.167,142.04,3.167,125.263,3.167,108.075z"/>
		<path fill-rule="evenodd" clip-rule="evenodd" fill="none" d="M3.094,105.986c0-17.122,0-33.903,0-50.837
			c27.537,0,54.98,0,82.337,0c7.337,5.388,14.987,10.01,24.091,11.965c2.052,0.441,4.034,0.834,6.11,0.88
			c0.319,0.007,0.868-0.022,0.92,0.113c0.443,1.157,1.899,0.486,2.536,1.582c-2.064,5.931-0.743,12.213-1.096,18.405
			c-0.057,0.996,0.057,2.004-0.026,2.996c-0.079,0.946-1.384,1.398-1.081,2.638c-6.77,1.317-13.61,2.132-20.245,4.174
			c-6.415,1.976-12.341,4.855-18.465,8.083C53.496,105.986,28.505,105.986,3.094,105.986z"/>
		<path fill-rule="evenodd" clip-rule="evenodd" fill="none" d="M238.866,55.139c0,16.913,0,33.681,0,50.647
			c-26.402,0-52.812,0-79.295,0c-10.625-7.039-22.373-11.245-35.447-11.933c0-8.192,0-16.303,0-24.708
			c14.155-0.726,26.948-5.608,38.049-14.007C187.914,55.139,213.338,55.139,238.866,55.139z"/>
		<path fill-rule="evenodd" clip-rule="evenodd" fill="none" d="M125.103,59.899c0-1.746,0-3.199,0-4.687c7.354,0,14.589,0,22.89,0
			C140.096,58.508,133.05,60.54,125.103,59.899z"/>
		<path fill-rule="evenodd" clip-rule="evenodd" fill="none" d="M118.878,54.925c0,1.459,0,2.566,0,3.999
			c-4.355,0.439-7.876-2.115-12.912-3.442C110.984,54.64,114.885,55.184,118.878,54.925z"/>
		<path fill-rule="evenodd" clip-rule="evenodd" fill="none" d="M103.19,105.823c4.568,0.033,8.94-2.813,13.577-1.599
			c0.272,0.539,0.325,0.987-0.1,1.599C112.272,105.823,107.731,105.823,103.19,105.823z"/>
		<path fill-rule="evenodd" clip-rule="evenodd" fill="none" d="M123.877,106.147c0.146-1.155,0.186-1.468,0.23-1.822
			c2.791-1.603,4.957,1.993,7.601,0.37c0.093,0.71,0.14,0.922,0.119,0.929C129.297,106.451,126.747,105.657,123.877,106.147z"/>
	</g>
</g>
</svg>
