<?xml version="1.0" encoding="utf-8"?>
<!-- Generator: Adobe Illustrator 16.0.0, SVG Export Plug-In . SVG Version: 6.00 Build 0)  -->
<!DOCTYPE svg PUBLIC "-//W3C//DTD SVG 1.1//EN" "http://www.w3.org/Graphics/SVG/1.1/DTD/svg11.dtd">
<svg version="1.1" id="Layer_0_xA0_Image_1_" xmlns="http://www.w3.org/2000/svg" xmlns:xlink="http://www.w3.org/1999/xlink"
	 x="0px" y="0px" width="383.952px" height="526.934px" viewBox="0 0 383.952 526.934" enable-background="new 0 0 383.952 526.934"
	 xml:space="preserve">
<g>
	<g>
		<path fill-rule="evenodd" clip-rule="evenodd" fill="none" d="M0.976,265.056c0-86.799,0.032-173.598-0.11-260.396
			C0.86,0.9,1.827,0.379,5.28,0.382c125.45,0.102,250.9,0.102,376.35-0.001c3.47-0.003,4.406,0.545,4.404,4.285
			c-0.123,173.431-0.123,346.862-0.005,520.292c0.003,3.878-1.01,4.534-4.656,4.53c-125.284-0.105-250.567-0.105-375.85,0.001
			c-3.661,0.004-4.657-0.673-4.651-4.538C1.007,438.319,0.976,351.688,0.976,265.056z M39.812,372.547
			c-2.429,3.839-1.58,6.566,2.68,6.526c6.222-0.058,11.395,2.295,16.564,5.028c1.593,0.843,4.016-0.96,4.832,1.301
			c2.228,6.172,6.824,4.632,11.579,4.388c3.724-0.191,7.786,0.678,11.167,2.229c1.232,0.565,0.522,4.634,1.407,6.814
			c3.581,8.831,1.017,18.023,1.882,27c0.244,2.533-0.665,6.293,1.062,7.33c4.605,2.767,7.998,7.018,12.956,9.367
			c6.535,3.095,14.002,5.342,16.73,13.134c-3.816,3.333-8.642,3.271-13.208,2.581c-3.196-0.483-3.541,0.427-3.5,3.063
			c0.097,6.411-0.62,12.72-2.954,18.768c-0.739,1.915-2.463,4.517,0.078,5.646c2.359,1.049,5.009,3.79,8.169,0.979
			c1.41-1.254,3.16-2.389,4.948-2.892c2.507-0.704,5.749-0.435,5.582,2.871c-0.221,4.384,1.513,6.463,4.736,9.277
			c3.494,3.053,9.324,2.692,11.13,7.941c0.15,0.437,1.827,0.327,2.787,0.508c4.074,0.764,6.483,5.763,11.398,4.53
			c0.119-0.029,0.609,1.084,0.793,1.704c1.826,6.13,7.161,9.865,10.451,15.025c1.511,2.371,4.988,3.688,8.646,1.866
			c3.986-1.986,1.647-5.206,2.057-7.851c0.112-0.719-1.167-1.557-1.412-2.448c-0.56-2.047-1.071-4.174,0.402-6.122
			c1.404-1.857,3.188-2.351,5.218-1.204c2.003,1.131,3.437-0.357,5.094-0.871c4.334-1.342,4.55-6.352,7.625-8.635
			c2.704-2.006,2.822-5.002,4.104-7.547c0.138-0.273,0.121-0.641,0.124-0.965c0.076-6.923,0.076-6.907,7.089-7.491
			c4.85-0.402,9.414-2.018,13.016-5.129c2.662-2.3-0.083-5.538-0.086-8.366c-0.001-0.654-0.129-1.491,0.209-1.935
			c2.915-3.828,1.755-8.534,2.563-12.764c0.854-4.473-0.181-9.204,7.013-7.977c1.411,0.241,4.162-0.721,4.127-3.287
			c-0.027-2.025-2.018-2.247-3.526-2.504c-4.823-0.823-8.869-3.64-13.451-5.09c-4.226-1.338-4.58-5.386-5.172-8.852
			c-0.31-1.816,0.702-3.833,3.207-4.142c0.36-0.045,0.933-0.534,0.952-0.847c0.406-6.528,6.59-9.363,9.29-14.543
			c4.721-9.059,9.805-17.687,6.876-28.508c-0.355-1.313-0.427-2.876,0.556-4.305c1.212-1.76,1.259-3.526,0.609-5.854
			c-0.563-2.02-1.243-4.543-0.347-6.971c0.537-1.455,0.054-2.984-1.474-3.854c-2.229-1.271-4.369-2.787-6.74-3.695
			c-4.973-1.905-10.435-10.918-8.524-15.918c1.412-3.694-0.1-5.376-2.732-6.539c-4.825-2.132-5.332-7.711-6.368-11.004
			c-1.765-5.603-3.093-11.989-3.045-18.191c0.057-7.219,0.702-13.987,6.729-19.722c4.171-3.968,7.78-7.359,13.736-8.35
			c4.033-0.67,7.354-4.006,10.815-6.184c2.146-1.35,6.158-2.801,6.474-5.546c1.013-8.817,8.571-10.061,14.277-11.571
			c10.614-2.811,21.602-4.034,32.746-4.758c13.455-0.875,26.848-0.956,40.204-0.306c7.051,0.343,13.255-1.325,18.59-4.781
			c6.779-4.391,14.81-6.047,21.237-10.885c0.918-0.691,1.872-0.623,2.832-0.566c2.817,0.164,4.651-0.75,5.358-3.769
			c1.042-4.454,1.191-9.103,2.939-13.399c0.058-0.142,0.002-0.33-0.003-0.497c-0.156-5.24-0.508-10.343,3.523-14.836
			c1.005-1.119,2.862-3.274,2.452-5.515c-1.186-6.468,1.216-12.25,3.63-17.892c0.744-1.738-1.204-3.378,0.266-4.35
			c4.622-3.057,0.722-4.359-1.229-5.447c-4.837-2.697-9.793-5.083-10.38-11.55c-0.056-0.608-0.402-1.245-0.766-1.76
			c-2.914-4.133-5.086-8.502-5.562-13.682c-0.275-2.998-2.174-5.195-5.046-6.275c-4.639-1.745-9.326-3.357-13.98-5.062
			c-8.122-2.976-12.506-8.514-14.128-17.301c-1.288-6.979-4.517-13.658-11.689-17.142c-1-0.486-1.98-1.114-2.795-1.866
			c-8.799-8.133-15.153-20.163-29.953-18.675c-0.16,0.016-0.338-0.008-0.487-0.064c-8.912-3.293-18.349-4.511-27.462-6.992
			c-1.881-0.512-3.398-1.244-4.9-3.466c-3.108-4.601-7.327-8.394-14.006-8.654c-6.131-0.239-11.596-4.127-16.133-7.74
			c-3.328-2.65-6.245-5.976-9.977-8.445c-4.273-2.828-9.622-3.593-13.39-7.191c-6.915-6.603-15.22-11.217-22.934-16.685
			c-4.043-2.866-10.934-2.78-11.844-9.853c-0.164-1.276-2.782-1.971-4.718-1.899c-2.32,0.086-4.646,0.021-7.012,0.021
			c1.351,6.546-1.64,12.93-7.192,13.753c-4.771,0.707-8.357,3.209-12.062,5.638c-7.548,4.947-14.898,10.196-22.373,15.257
			c-6.53,4.421-13.013,8.308-15.077,17.236c-1.902,8.226-7.597,15.624-4.728,24.776c-3.871,5.423-3.505,12.577-7.263,17.993
			c-1.789,2.578-2.456,6.547-6.033,7.192c-3.315,0.598-4.031,2.863-4.63,5.243c-2.223,8.82-0.521,17.896-1.564,26.839
			c-0.748,6.412-1.151,12.291-7.579,16.2c-4.88,2.966-9.438,6.626-13.445,10.844c-1.365,1.437-1.817,2.478-1.457,4.803
			c0.578,3.73,2.679,7.521-0.496,11.78c-1.632,2.189-4.33,4.264-4.894,6.568c-1.494,6.103-6.85,6.59-10.949,8.758
			c-4.577,2.42-9.639,4.213-12.503,8.752c-1.594,2.525-3.54,4.26-6.104,5.274c-2.753,1.09-4.634,3.999-7.983,3.761
			c-0.222,4.575-4.596,6.903-6.434,11.41c4.182-1.177,4.398,2.999,6.895,3.98c6.667,2.621,13.376,5.147,19.952,7.982
			c2.455,1.06,6.237,0.903,6.444,4.833c0.192,3.647,0.821,7.49-4.098,9.197c-3.453,1.197-0.595,3.545-0.033,5.042
			c0.653,1.74,2.056,3.364,3.507,4.596c1.789,1.518-0.266,3.719,1.958,5.592c4.192,3.531,8.328,2.662,12.909,2.131
			c4.811-0.559,10.064-2.096,14.384,0.809c3.737,2.513,7.762,3.648,11.904,4.645c2.042,0.491,4.558,0.508,5.775,2.033
			c4.971,6.229,5.32,14.377,6.005,21.538c0.432,4.512-1.6,10.543-3.654,15.614c-0.596,1.474-1.574,2.896-2.69,2.75
			c-3.42-0.448-4.018,1.353-4.384,4.075c-0.516,3.834-4.972,1.985-6.336,3.827c-4.068,5.494-9.059,4.966-14.61,3.446
			c-3.24-0.886-12.236,5.385-13.038,8.719c-0.125,0.521,0.178,0.965,0.159,1.01c-1.126,2.691,1.06,7.396-0.401,7.814
			c-5.273,1.51-3.136,5.684-3.971,8.578c-1.627,5.642-0.782,11.662-1.679,17.33C36.022,372.914,37.442,372.552,39.812,372.547z
			 M21.964,479.317c1.068,6.007,3.173,12.269,7.172,17.558c1.903,2.517,5.669,3.157,7.922,0.652c2.389-2.656,4.182-6.616,3.204-10.1
			c-0.833-2.967-0.032-5.209,0.805-7.553c0.735-2.059,0.879-4.113,1.11-6.191c0.672-6.063-4.53-10.565-10.159-8.847
			C23.715,467.371,22.143,469.55,21.964,479.317z"/>
		<path fill-rule="evenodd" clip-rule="evenodd" d="M39.812,372.547c-2.369,0.005-3.79,0.367-3.184-3.459
			c0.897-5.668,0.052-11.688,1.679-17.33c0.835-2.895-1.302-7.068,3.971-8.578c1.461-0.419-0.725-5.123,0.401-7.814
			c0.019-0.045-0.284-0.489-0.159-1.01c0.802-3.334,9.798-9.604,13.038-8.719c5.551,1.52,10.542,2.048,14.61-3.446
			c1.365-1.842,5.82,0.007,6.336-3.827c0.366-2.723,0.964-4.523,4.384-4.075c1.116,0.146,2.094-1.276,2.69-2.75
			c2.055-5.071,4.086-11.103,3.654-15.614c-0.685-7.161-1.034-15.31-6.005-21.538c-1.218-1.525-3.734-1.542-5.775-2.033
			c-4.142-0.996-8.167-2.132-11.904-4.645c-4.32-2.904-9.574-1.367-14.384-0.809c-4.581,0.531-8.716,1.4-12.909-2.131
			c-2.223-1.873-0.169-4.075-1.958-5.592c-1.452-1.232-2.854-2.856-3.507-4.596c-0.562-1.497-3.42-3.845,0.033-5.042
			c4.919-1.707,4.29-5.55,4.098-9.197c-0.207-3.929-3.989-3.773-6.444-4.833c-6.575-2.835-13.285-5.362-19.952-7.982
			c-2.496-0.981-2.713-5.157-6.895-3.98c1.837-4.506,6.211-6.835,6.434-11.41c3.349,0.237,5.23-2.671,7.983-3.761
			c2.564-1.015,4.51-2.75,6.104-5.274c2.864-4.539,7.926-6.332,12.503-8.752c4.099-2.168,9.455-2.655,10.949-8.758
			c0.564-2.304,3.262-4.379,4.894-6.568c3.174-4.258,1.074-8.05,0.496-11.78c-0.36-2.325,0.092-3.367,1.457-4.803
			c4.007-4.218,8.565-7.878,13.445-10.844c6.428-3.91,6.831-9.788,7.579-16.2c1.042-8.943-0.659-18.019,1.564-26.839
			c0.599-2.38,1.315-4.645,4.63-5.243c3.577-0.646,4.244-4.615,6.033-7.192c3.758-5.416,3.392-12.57,7.263-17.993
			c-2.869-9.152,2.826-16.551,4.728-24.776c2.064-8.929,8.547-12.815,15.077-17.236c7.475-5.061,14.824-10.31,22.373-15.257
			c3.705-2.428,7.291-4.931,12.062-5.638c5.553-0.823,8.543-7.207,7.192-13.753c2.365,0,4.691,0.065,7.012-0.021
			c1.937-0.072,4.554,0.623,4.718,1.899c0.91,7.073,7.801,6.987,11.844,9.853c7.714,5.467,16.019,10.082,22.934,16.685
			c3.768,3.598,9.116,4.364,13.39,7.191c3.731,2.47,6.648,5.795,9.977,8.445c4.537,3.613,10.002,7.501,16.133,7.74
			c6.679,0.261,10.897,4.053,14.006,8.654c1.502,2.222,3.02,2.955,4.9,3.466c9.113,2.481,18.55,3.699,27.462,6.992
			c0.149,0.057,0.327,0.08,0.487,0.064c14.8-1.488,21.154,10.542,29.953,18.675c0.814,0.752,1.795,1.38,2.795,1.866
			c7.173,3.484,10.401,10.163,11.689,17.142c1.622,8.788,6.006,14.325,14.128,17.301c4.654,1.705,9.342,3.317,13.98,5.062
			c2.872,1.08,4.771,3.278,5.046,6.275c0.476,5.18,2.647,9.549,5.562,13.682c0.363,0.515,0.71,1.152,0.766,1.76
			c0.587,6.468,5.543,8.854,10.38,11.55c1.951,1.088,5.852,2.39,1.229,5.447c-1.47,0.972,0.479,2.612-0.266,4.35
			c-2.414,5.642-4.815,11.424-3.63,17.892c0.41,2.241-1.447,4.396-2.452,5.515c-4.031,4.493-3.68,9.596-3.523,14.836
			c0.005,0.167,0.061,0.355,0.003,0.497c-1.748,4.296-1.897,8.946-2.939,13.399c-0.707,3.019-2.541,3.933-5.358,3.769
			c-0.96-0.057-1.914-0.125-2.832,0.566c-6.428,4.838-14.458,6.494-21.237,10.885c-5.335,3.456-11.539,5.124-18.59,4.781
			c-13.356-0.65-26.749-0.569-40.204,0.306c-11.145,0.725-22.132,1.948-32.746,4.758c-5.706,1.51-13.265,2.753-14.277,11.571
			c-0.315,2.745-4.327,4.196-6.474,5.546c-3.461,2.178-6.782,5.514-10.815,6.184c-5.956,0.99-9.565,4.382-13.736,8.35
			c-6.026,5.734-6.672,12.503-6.729,19.722c-0.048,6.202,1.28,12.589,3.045,18.191c1.036,3.293,1.543,8.872,6.368,11.004
			c2.633,1.163,4.145,2.845,2.732,6.539c-1.91,5,3.552,14.013,8.524,15.918c2.371,0.908,4.512,2.425,6.74,3.695
			c1.527,0.87,2.011,2.399,1.474,3.854c-0.896,2.428-0.216,4.951,0.347,6.971c0.649,2.328,0.603,4.095-0.609,5.854
			c-0.982,1.429-0.911,2.991-0.556,4.305c2.929,10.821-2.155,19.449-6.876,28.508c-2.7,5.18-8.884,8.015-9.29,14.543
			c-0.02,0.313-0.592,0.802-0.952,0.847c-2.505,0.309-3.517,2.325-3.207,4.142c0.592,3.466,0.946,7.514,5.172,8.852
			c4.582,1.45,8.628,4.267,13.451,5.09c1.509,0.257,3.499,0.479,3.526,2.504c0.035,2.566-2.716,3.528-4.127,3.287
			c-7.193-1.228-6.158,3.504-7.013,7.977c-0.809,4.229,0.352,8.936-2.563,12.764c-0.338,0.443-0.21,1.28-0.209,1.935
			c0.003,2.828,2.748,6.066,0.086,8.366c-3.602,3.111-8.166,4.727-13.016,5.129c-7.013,0.584-7.013,0.568-7.089,7.491
			c-0.003,0.324,0.014,0.691-0.124,0.965c-1.282,2.545-1.4,5.541-4.104,7.547c-3.075,2.283-3.29,7.293-7.625,8.635
			c-1.657,0.514-3.091,2.002-5.094,0.871c-2.03-1.146-3.814-0.653-5.218,1.204c-1.473,1.948-0.961,4.075-0.402,6.122
			c0.244,0.892,1.523,1.729,1.412,2.448c-0.41,2.645,1.929,5.864-2.057,7.851c-3.658,1.822-7.135,0.505-8.646-1.866
			c-3.29-5.16-8.625-8.896-10.451-15.025c-0.185-0.62-0.674-1.733-0.793-1.704c-4.916,1.232-7.325-3.767-11.398-4.53
			c-0.96-0.181-2.637-0.071-2.787-0.508c-1.806-5.249-7.636-4.889-11.13-7.941c-3.223-2.814-4.958-4.894-4.736-9.277
			c0.167-3.306-3.074-3.575-5.582-2.871c-1.789,0.503-3.538,1.638-4.948,2.892c-3.161,2.812-5.81,0.07-8.169-0.979
			c-2.541-1.13-0.817-3.731-0.078-5.646c2.334-6.048,3.051-12.356,2.954-18.768c-0.04-2.636,0.304-3.546,3.5-3.063
			c4.566,0.69,9.392,0.752,13.208-2.581c-2.729-7.792-10.196-10.039-16.73-13.134c-4.958-2.35-8.351-6.601-12.956-9.367
			c-1.727-1.037-0.818-4.797-1.062-7.33c-0.865-8.977,1.699-18.169-1.882-27c-0.885-2.181-0.175-6.249-1.407-6.814
			c-3.381-1.552-7.443-2.421-11.167-2.229c-4.755,0.244-9.352,1.784-11.579-4.388c-0.816-2.261-3.238-0.458-4.832-1.301
			c-5.169-2.733-10.342-5.086-16.564-5.028C38.232,379.113,37.383,376.386,39.812,372.547z"/>
		<path fill-rule="evenodd" clip-rule="evenodd" d="M21.964,479.317c0.179-9.768,1.751-11.946,10.054-14.48
			c5.629-1.719,10.832,2.784,10.159,8.847c-0.231,2.078-0.375,4.133-1.11,6.191c-0.837,2.344-1.639,4.586-0.805,7.553
			c0.978,3.483-0.815,7.443-3.204,10.1c-2.253,2.505-6.019,1.864-7.922-0.652C25.137,491.586,23.032,485.324,21.964,479.317z"/>
	</g>
</g>
</svg>
