<?xml version="1.0" encoding="utf-8"?>
<!-- Generator: Adobe Illustrator 16.0.0, SVG Export Plug-In . SVG Version: 6.00 Build 0)  -->
<!DOCTYPE svg PUBLIC "-//W3C//DTD SVG 1.1//EN" "http://www.w3.org/Graphics/SVG/1.1/DTD/svg11.dtd">
<svg version="1.1" id="Layer_1" xmlns="http://www.w3.org/2000/svg" xmlns:xlink="http://www.w3.org/1999/xlink" x="0px" y="0px"
	 width="384px" height="527px" viewBox="0 0 384 527" enable-background="new 0 0 384 527" xml:space="preserve">
<g>
	<g>
		<path fill-rule="evenodd" clip-rule="evenodd" d="M385,168c0,0.667,0,1.333,0,2c-1.02,6.801-5.14,12.878-4.685,20.022
			c0.247,3.879-1.394,7.153-3.42,10.245c-1.703,2.598-2.794,5.41-2.598,8.459c0.36,5.583-1.83,10.776-2.158,16.27
			c-0.19,3.197-1.975,6.077-5.537,6.998c-8.115,2.098-15.286,6.366-22.599,10.168c-7.637,3.971-15.036,7.174-24.069,6.313
			c-14.396-1.372-28.959-0.961-43.278,0.365c-11.933,1.104-24.258,2.094-35.34,7.83c-1.91,0.988-3.271,2.459-3.885,4.364
			c-1.62,5.03-5.678,7.704-9.756,10.233c-5.061,3.14-10.592,5.361-16.018,7.785c-5.34,2.386-10.133,7.491-11.936,13.892
			c-1.26,4.476-2.115,9.068-1.023,13.809c1.557,6.752,1.16,14.142,5.371,20.024c4.039,5.642,7.272,11.077,7.264,18.533
			c-0.004,3.516,3.1,7.605,7.203,8.959c9.324,3.075,9.902,10.936,9.029,18.236c-0.813,6.816,0.375,13.589-0.814,20.314
			c-0.264,1.494-0.623,2.877-1.191,4.276c-4.103,10.108-11.086,18.448-16.912,27.486c-2.986,4.635-2.559,8.479,2.295,11.019
			c3.835,2.006,7.802,3.726,12.002,4.914c2.188,0.619,4.869,1.32,4.605,4.376c-0.24,2.787-2.631,3.952-4.992,4.061
			c-3.886,0.178-5.142,2.14-5.268,5.693c-0.256,7.267-3.301,14.233-2.221,21.691c0.375,2.59-1.584,4.202-3.742,5.417
			c-3.697,2.079-7.695,3.182-11.863,3.658c-3.66,0.418-5.43,1.89-5.656,6.019c-0.418,7.667-5.851,12.722-10.894,17.731
			c-1.82,1.808-4.457,1.867-7.067,1.768c-3.698-0.141-4.77,1.344-3.906,4.971c0.422,1.773,1.188,3.449,1.306,5.317
			c0.209,3.313-0.55,5.949-4.248,6.782c-1.667,0-3.333,0-5,0c-3.553-1.401-5.988-3.87-7.815-7.261
			c-2.03-3.767-5.332-6.658-7.74-10.25c-1.554-2.317-5.449-2.713-8.216-4.032c-6.613-3.154-12.262-7.57-18.273-11.533
			c-1.827-1.204-2.849-2.551-3.172-4.727c-0.905-6.093-2.232-6.79-7.708-3.599c-3.04,1.772-5.796,2.139-8.939,0.55
			c-2.659-1.345-3.641-3.342-2.795-6.147c1.825-6.055,3.366-12.061,3.192-18.552c-0.134-5.005,1.416-5.865,6.513-5.774
			c0.333,0.006,0.667,0.044,0.999,0.024c2.753-0.158,6.941,0.798,7.523-2.122c0.634-3.185-2.602-6.027-5.766-7.242
			c-7.44-2.857-13.76-7.358-19.833-12.354c-1.471-1.21-2.73-2.355-2.913-4.398c-0.412-4.614-0.859-9.355-0.529-13.847
			c0.538-7.326-0.545-14.224-2.233-21.212c-0.565-2.34-1.792-3.417-3.962-3.816c-2.625-0.484-5.257-0.928-7.939-0.79
			c-4.45,0.229-7.82-1.067-11.632-4.058c-4.64-3.639-10.729-5.87-16.954-6.71c-7.88-1.064-10.529-4.646-10.477-12.646
			c0.045-7.021,0.405-14.296,2.509-20.639c1.654-4.984,2.731-10.282,4.881-15.073c2.206-4.915,9.442-8.189,14.73-7.254
			c4.388,0.776,7.638-0.871,11.57-2.735c5.219-2.475,6.753-8.561,12.204-10.262c0.883-0.275,1.055-1.62,1.409-2.557
			c3.745-9.923,3.45-19.815-0.104-29.723c-1.172-3.267-3.229-5.278-6.738-5.911c-4.458-0.804-8.598-2.522-12.573-4.712
			c-4.213-2.321-8.777-1.426-13.214-0.958c-2.486,0.262-4.946,0.619-7.458,0.557c-2.459-0.062-4.805-0.757-6.267-2.643
			c-3.143-4.055-5.097-8.844-7.41-13.39c-0.986-1.937,0.668-3.285,2.063-4.611c4.613-4.387,3.75-8.838-2.209-10.986
			c-6.559-2.364-13.07-4.876-19.319-7.92c-3.241-1.578-6.918-3.284-7.771-7.575c3.042-5.72,6.149-11.318,12.799-13.754
			c3.031-1.11,5.297-3.336,7.217-5.964c3.285-4.497,8.107-6.938,13.118-8.775c7.864-2.885,11.697-9.495,15.479-16.104
			c1.55-2.709,0.345-5.952-0.212-8.813c-0.627-3.222,0.438-5.301,2.547-7.542c3.933-4.177,8.804-7.096,13.287-10.525
			c3.851-2.946,5.821-6.605,5.988-11.482c0.262-7.642,0.977-15.242,0.921-22.929c-0.039-5.419,0.642-11.528,7.193-14.177
			c1.388-0.561,2.33-1.969,2.959-3.309c4.253-9.049,9.834-17.735,8.013-28.509c-0.344-2.033,0.231-3.952,1.14-5.792
			c0.886-1.793,2.408-3.465,2.668-5.338c1.855-13.355,11.327-20.356,21.685-26.797c8.055-5.008,15.542-10.901,23.886-15.474
			c1.463-0.802,2.935-1.528,4.559-1.996c6.66-1.918,8.184-3.873,8.661-10.918C153.587,2.241,153.669,1.597,154,1
			c3.333,0,6.667,0,10,0c0.625,0.623,1.8,0.336,2.226,0.974c5.349,8.004,15.134,9.854,21.955,15.897
			c4.446,3.938,9.979,6.575,14.333,10.786c1.769,1.711,4.059,2.984,6.406,3.82c6.291,2.239,11.135,6.418,15.982,10.834
			c4.559,4.155,9.988,7.354,16.201,8.233c5.128,0.725,9.482,2.734,12.318,6.787c3.458,4.938,8.445,6.268,13.694,7.136
			c6.091,1.008,11.884,3.172,17.953,4.22c1.46,0.252,2.888,1.093,4.371,0.919c7.049-0.826,11.823,3.099,16.782,7.285
			c6.47,5.461,12.213,11.696,18.926,16.914c4.749,3.69,6.795,9.421,7.962,15.197c1.508,7.465,5.32,12.728,12.648,15.351
			c4.384,1.57,8.548,3.723,13.023,5.085c4.196,1.277,6.806,3.956,7.434,8.453c1.016,7.286,6.041,12.895,8.385,19.654
			c0.778,2.245,3.449,3.02,5.417,4.238C382.142,164.099,384.348,165.296,385,168z"/>
		<path fill-rule="evenodd" clip-rule="evenodd" fill="#FEFEFE" d="M169,528c4.268-2.841,3.906-6.613,1.907-10.511
			c-1.228-2.393-1.524-4.657,0.049-6.861c1.521-2.132,3.335-1.396,5.647-0.945c3.837,0.747,7.488-1.561,9.026-4.813
			c1.062-2.244,2.263-3.936,3.981-5.52c2.707-2.494,3.248-5.717,3.009-9.219c-0.166-2.423-0.536-4.561,3.162-5.296
			c5.196-1.034,10.657-1.316,15.405-4.331c2.135-1.355,3.635-3.045,2.71-5.184c-2.546-5.882,2.103-10.981,1.438-16.689
			c-0.164-1.406,0.509-3.456,0.674-5.236c0.293-3.163,0.24-6.706,5.202-5.398c1.589,0.419,2.825-0.585,4.151-1.134
			c0.941-0.391,1.502-1.138,1.658-2.271c0.247-1.792-1.385-1.87-2.186-2.123c-4.438-1.402-8.676-3.381-13.027-4.848
			c-4.846-1.633-6.258-4.762-6.938-9.015c-0.087-0.546-1.105-1.113-0.278-1.604c4.308-2.557,4.818-7.844,8.338-11.198
			c3.441-3.281,5.475-8.059,8.042-12.231c0.749-1.217,1.13-2.654,1.817-3.917c3.381-6.218,3.974-12.729,2.277-19.543
			c-0.234-0.942-0.462-2.321,0.021-2.936c2.822-3.585,0.351-7.504,0.961-11.154c0.923-5.519-2.688-7.861-6.572-9.806
			c-7.999-4.006-12.154-9.72-9.554-18.98c0.161-0.575,0.077-1.684-0.259-1.864c-4.674-2.512-6.166-7.176-8.678-11.353
			c-1.256-2.087-1.463-4.331-1.672-5.942c-1.057-8.121-3.857-16.164-1.492-24.624c0.622-2.225,1.608-4.839,2.676-5.958
			c3.027-3.176,6.352-6.019,8.504-9.948c0.129-0.236,0.568-0.491,0.814-0.45c7.496,1.264,12.362-4.426,18.04-7.416
			c3.222-1.696,7.147-4.116,8.278-8.856c0.744-3.117,2.397-6.404,6.887-5.855c2.949,0.361,4.41-2.596,7.295-3.353
			c8.497-2.231,17.262-2.425,25.793-4.273c4.048-0.877,8.904-0.129,13.357-0.409c10.342-0.649,20.742-0.636,30.968,0.312
			c9.982,0.926,17.398-3.895,25.684-7.62c6.736-3.028,12.671-7.997,20.479-8.726c3.682-0.343,4.416-4.28,4.764-6.807
			c1.333-9.695,0.359-19.843,6.489-28.435c0.284-0.397,0.992-0.792,0.938-1.085c-1.441-7.928,3.22-14.767,3.832-22.244
			c0.198-2.418,0.846-2.295,2.379-2.33c0,118-0.02,236,0.096,354c0.003,3.424-0.671,4.103-4.096,4.097
			C310.333,527.969,239.666,528,169,528z"/>
		<path fill-rule="evenodd" clip-rule="evenodd" fill="#FEFEFE" d="M2.117,221.041c0.832,3.064,4.306,5.018,5.946,5.547
			c4.877,1.572,8.777,5.073,13.938,6.063c4.045,0.776,7.984,2.688,11.648,4.688c2.866,1.563,1.86,9.362-1.462,10.881
			c-4.209,1.924-2.693,4.141-0.886,6.549c1.734,2.31,3.317,4.439,3.95,7.564c0.506,2.505,3.091,4.707,6.421,4.672
			c3.281-0.034,6.493-0.216,9.764-0.908c6.468-1.368,12.483,0.645,17.965,3.979c1.188,0.722,2.401,0.804,3.553,1.314
			c2.877,1.275,6.989,0.049,8.82,3.153c2.465,4.18,3.14,9.103,4.446,13.772c1.616,5.777,0.513,11.407-0.741,16.486
			c-0.745,3.015,0.122,10.354-7.343,9.243c-0.26-0.038-0.826,0.267-0.814,0.354c0.979,7.367-7.049,6.09-9.854,10.102
			c-2.349,3.358-7.283,2.135-10.801,1.191c-4.049-1.087-6.341,0.681-8.901,3.001c-3.771,3.419-2.557,4.335-4.303,6.608
			c-2.371,3.089,2.184,9.263-4.654,9.766c-0.278,0.021-0.766,0.715-0.724,1.038c1.073,8.161-2.58,16.097-1.351,24.05
			c0.291,1.881,0.802,4.919,2.277,6.71c0.807,0.979,2.594,1.73,4.585,1.606c7.131-0.442,12.601,5.34,19.622,5.65
			c0.284,0.012,0.651,0.631,0.791,1.033c2.057,5.915,6.675,4.45,11.202,4.313c3.588-0.108,7.213,0.996,10.822,1.553
			c0.828,0.128,1.009,0.793,1.094,1.413c1.109,8.128,4.069,15.95,2.645,24.502c-0.819,4.912-0.987,10.537,0.702,15.033
			c0.986,2.624,5.272,4.912,8.327,6.912c4.256,2.787,8.453,5.81,13.565,7.113c4.413,1.125,5.6,5.748,8.184,8.737
			c0.728,0.842-3.289,2.43-5.255,3.129c-1.585,0.563-3.593-0.125-5.414-0.145c-5.268-0.058-7.731,1.814-6.448,6.581
			c1.611,5.983-1.647,10.656-2.586,15.905c-0.348,1.944-1.874,4.257,0.318,5.154c2.208,0.904,4.611,3.567,7.325,1.447
			c1.695-1.324,3.479-2.37,5.403-3.178c3.368-1.412,6.158,0.258,6.067,3.703c-0.083,3.149,0.999,4.828,3.502,7.244
			c3.716,3.586,9.87,3.614,12.096,8.95c0.194,0.466,1.859,0.555,2.789,0.43c1.962-0.262,3.105,0.848,4.217,2.107
			c0.585,0.663,0.407,2.238,1.809,1.896c4.936-1.209,5.375,3.035,7.831,5.467c4.185,4.146,5.679,10.368,11.026,13.396
			c0.364,0.206,0.52,0.779,0.772,1.182c-52.944,0-105.888-0.056-158.831,0.116c-3.816,0.012-4.253-1.043-4.25-4.438
			C1.019,422.785,1,321.893,1,221C1.385,220.653,1.757,220.685,2.117,221.041z"/>
		<path fill-rule="evenodd" clip-rule="evenodd" fill="#FEFEFE" d="M2.117,221.041C1.744,221.027,1.372,221.014,1,221
			C1,149.097,1.029,77.192,0.912,5.289C0.906,1.809,1.473,0.878,5.2,0.891C54.799,1.055,104.4,1,154,1
			c2.198,5.741-0.64,12.576-6.518,13.641c-5.2,0.942-9.094,3.841-13.323,6.361c-8.13,4.844-15.584,10.707-23.753,15.556
			c-3.817,2.266-7.523,5.736-10.399,9.32c-1.935,2.411-2.083,6.27-2.978,9.494c-0.173,0.624,0.155,1.525-0.185,1.942
			c-4.899,6.007-4.897,12.757-4.051,20.068c0.46,3.978-3.551,7.14-4.374,11.408c-1.249,6.478-4.086,12.508-11.071,15.137
			c-2.291,0.862-1.595,3.216-2.304,4.849c-2.061,4.746-0.618,9.799-1.011,14.702c-0.471,5.89-0.579,11.809-1.079,17.694
			c-0.29,3.415-2.385,5.882-4.794,8.299c-3.77,3.783-8.371,6.66-12.548,9.66c-5.391,3.874-4.633,7.779-3.703,12.528
			c0.984,5.025-2.731,7.966-4.58,11.876c-4.128,8.732-13.21,9.646-19.877,14.252c-1.8,1.244-3.709,2.491-4.734,4.162
			c-3.192,5.207-8.093,7.532-13.589,9.047c-1.149,0.317-0.916,1.036-1.171,1.769C6.811,216.069,4.849,218.837,2.117,221.041z"/>
		<path fill-rule="evenodd" clip-rule="evenodd" fill="#FEFEFE" d="M385,168c-2.204-2.558-5.24-3.959-8.105-5.488
			c-2.832-1.513-4.556-3.492-4.908-6.701c-0.37-3.364-3.328-5.451-4.318-8.551c-0.727-2.276-2.52-4.457-2.511-6.676
			c0.022-5.837-3.439-8.009-8.189-9.607c-5.451-1.836-11.116-3.421-16.089-6.191c-4.924-2.744-7.821-7.684-8.867-13.394
			c-1.464-7.999-4.807-14.566-12.06-19.114c-4.346-2.725-7.404-7.178-11.462-10.493c-5.971-4.879-10.708-10.854-19.94-10.077
			c-4.837,0.407-9.972-2.055-14.882-3.523c-1.875-0.561-3.798-0.793-5.604-1.305c-5.177-1.467-11.075-0.793-14.717-6.748
			c-2.805-4.587-7.714-6.482-13.582-7.539c-5.899-1.063-11.795-3.99-16.27-9.251c-5.047-5.936-12.594-8.823-19.485-12.166
			c-4.222-2.048-6.925-5.691-10.792-8.145c-8.052-5.11-15.366-11.384-24.329-15.06c-0.96-0.395-2.01-1.044-1.809-2.076
			C167.61,3.173,165.522,2.309,164,1c72.334,0,144.667,0.031,217-0.097c3.425-0.006,4.106,0.672,4.098,4.097
			C384.959,59.333,385,113.667,385,168z"/>
		<path fill-rule="evenodd" clip-rule="evenodd" d="M42.76,472.593c-1.303,1.386-0.161,3.328-0.88,4.653
			c-1.918,3.536-2.611,7.371-1.73,11.055c0.883,3.697-1.779,5.793-2.763,8.57c-0.864,2.437-6.958,1.971-8.671-0.74
			c-5.023-7.948-7.962-16.46-5.684-26.031c0.68-2.859,8.715-6.573,12.956-6.099C38.979,464.336,42.706,469.063,42.76,472.593z"/>
	</g>
</g>
</svg>
