<?xml version="1.0" encoding="utf-8"?>
<!-- Generator: Adobe Illustrator 16.0.0, SVG Export Plug-In . SVG Version: 6.00 Build 0)  -->
<!DOCTYPE svg PUBLIC "-//W3C//DTD SVG 1.1//EN" "http://www.w3.org/Graphics/SVG/1.1/DTD/svg11.dtd">
<svg version="1.1" id="Layer_1" xmlns="http://www.w3.org/2000/svg" xmlns:xlink="http://www.w3.org/1999/xlink" x="0px" y="0px"
	 width="255.968px" height="255.968px" viewBox="0 0 255.968 255.968" enable-background="new 0 0 255.968 255.968"
	 xml:space="preserve">
<g>
	<g>
		<path fill-rule="evenodd" clip-rule="evenodd" fill="none" d="M236.97,1c6.333,0,12.667,0.084,18.997-0.055
			c1.739-0.038,2.36,0.315,2.021,2.058c-0.125,0.643-0.02,1.329-0.02,1.996c0,82.989-0.027,165.979,0.096,248.968
			c0.005,3.424-0.672,4.102-4.096,4.096c-82.989-0.123-165.979-0.123-248.968,0c-3.423,0.005-4.101-0.671-4.096-4.096
			C1.027,170.979,1.027,87.989,0.904,5C0.899,1.576,1.547,0.662,5.006,0.902C10.313,1.272,15.665,1,20.998,1
			c2.01,6.038,2.404,12.374,3.372,18.598c7.903,50.793,15.765,101.593,23.626,152.393c4.147,26.797,8.347,53.588,12.309,80.413
			c0.559,3.785,1.972,4.833,5.634,4.613c5.477-0.328,10.987-0.085,16.484-0.085c36.809,0,73.619-0.057,110.429,0.089
			c3.584,0.015,4.884-0.845,5.234-4.517c0.615-6.447,1.888-12.831,2.88-19.242c7.504-48.499,14.998-97,22.513-145.498
			C227.96,58.841,232.472,29.922,236.97,1z"/>
		<path fill-rule="evenodd" clip-rule="evenodd" d="M236.97,1c-4.498,28.922-9.01,57.841-13.491,86.765
			c-7.515,48.498-15.009,96.999-22.513,145.498c-0.992,6.411-2.265,12.795-2.88,19.242c-0.351,3.672-1.65,4.531-5.234,4.517
			c-36.81-0.146-73.62-0.089-110.429-0.089c-5.497,0-11.008-0.243-16.484,0.085c-3.662,0.22-5.075-0.828-5.634-4.613
			c-3.962-26.825-8.162-53.616-12.309-80.413c-7.861-50.8-15.724-101.6-23.626-152.393C23.401,13.374,23.008,7.038,20.998,1
			c4.666,0,9.332,0,13.998,0c1.785,1.837,3.988,0.754,6.021,0.864c2.622,0.674,5.951-1.183,7.82,2.186
			c4.583,28.914,9.247,57.815,13.643,86.758c0.553,3.638,2.278,5.592,5.204,7.2c11.424,6.278,25.753,4.005,35.183-5.787
			c1.414-1.468,1.954-2.472,4.04-0.403c13.834,13.723,31.143,13.005,44.832-1.931c1.096,1.241,2.098,2.554,3.276,3.684
			c9.958,9.538,25.693,10.565,36.709,2.5c2.533-1.854,4.16-3.954,4.523-7.305c0.646-5.945,1.809-11.834,2.758-17.747
			c3.69-22.989,7.382-45.979,11.073-68.969c2.295-0.039,4.588-0.078,6.882-0.116c1.667,0.006,3.334,0.012,5.001,0.018
			s3.332,0.011,4.999,0.017c2.013-0.262,4.244,0.825,6.011-0.969C234.304,1,235.637,1,236.97,1z M67.015,119.322
			c5.607,35.511,11.228,70.316,16.461,105.177c0.712,4.742,2.313,5.685,6.793,5.644c25.985-0.235,51.977-0.316,77.958,0.054
			c5.221,0.075,6.164-1.85,6.818-6.239c3.361-22.544,7.043-45.041,10.58-67.559c1.981-12.616,3.903-25.24,5.89-38.106
			c-14.922,5.985-28.35,5.613-39.886-6.286c-11.217,10.439-24.627,13.033-36.999,7.154c-4.425-2.103-14.62-2.075-18.919-0.112
			C86.42,123.29,77.011,122.853,67.015,119.322z"/>
		<path fill-rule="evenodd" clip-rule="evenodd" fill="none" d="M210.078,2.051c-3.691,22.989-7.383,45.979-11.073,68.969
			c-0.949,5.912-2.112,11.801-2.758,17.747c-0.363,3.351-1.99,5.451-4.523,7.305c-11.016,8.065-26.751,7.038-36.709-2.5
			c-1.179-1.13-2.181-2.443-3.276-3.684c-13.689,14.937-30.998,15.654-44.832,1.931c-2.086-2.069-2.626-1.065-4.04,0.403
			c-9.43,9.792-23.759,12.065-35.183,5.787c-2.926-1.608-4.651-3.562-5.204-7.2C58.083,61.865,53.419,32.964,48.836,4.05
			c0.053-1.018,0.105-2.034,0.157-3.05c53.66,0,107.32,0,160.98,0C210.009,1.351,210.044,1.7,210.078,2.051z M123.989,6.614
			c-10.396,11.363-11.65,33.31-2.694,44.856c3.996,5.151,6.467,10.828,6.894,17.346c0.289,4.402,0.51,8.809,0.837,14.555
			c6.498-10.089,9.324-19.885,8.663-30.602c-0.342-5.551-1.608-11.066-5.441-15.284c-6.562-7.221-7.805-15.907-7.884-25.068
			C124.349,10.651,125.163,8.848,123.989,6.614z M97.552,83.381c8.484-10.697,8.839-25.464,1.576-35.1
			c-2.476-3.286-3.823-6.991-4.142-11.049c-0.254-3.228-0.313-6.471-0.469-9.909c-6.692,6.471-9.334,22.73-3.871,30.206
			C96.209,65.14,98.319,73.185,97.552,83.381z M157.647,26.5c-8.336,10.703-8.733,24.681-1.604,34.673
			c2.379,3.334,3.846,6.976,4.2,11.043c0.295,3.394,0.5,6.795,0.761,10.404c7.812-9.075,8.461-24.863,1.51-33.853
			c-1.764-2.279-2.989-4.748-3.799-7.5C157.394,36.784,157.752,32.161,157.647,26.5z"/>
		<path fill-rule="evenodd" clip-rule="evenodd" fill="#4E4E4E" d="M48.994,1c-0.052,1.017-0.104,2.033-0.157,3.05
			c-1.869-3.369-5.198-1.512-7.82-2.186C41.002,1.577,40.995,1.288,40.995,1C43.661,1,46.328,1,48.994,1z"/>
		<path fill-rule="evenodd" clip-rule="evenodd" fill="#505050" d="M210.078,2.051c-0.034-0.351-0.069-0.7-0.104-1.051
			c2.333,0,4.666,0,6.999,0c0.003,0.312-0.001,0.623-0.013,0.935C214.666,1.973,212.373,2.012,210.078,2.051z"/>
		<path fill-rule="evenodd" clip-rule="evenodd" fill="#444444" d="M40.995,1c0,0.288,0.008,0.577,0.021,0.864
			C38.984,1.754,36.78,2.837,34.996,1C36.995,1,38.995,1,40.995,1z"/>
		<path fill-rule="evenodd" clip-rule="evenodd" fill="#2B2B2B" d="M232.971,1c-1.767,1.793-3.998,0.707-6.011,0.97
			c0.011-0.322,0.015-0.646,0.012-0.97C228.971,1,230.971,1,232.971,1z"/>
		<path fill-rule="evenodd" clip-rule="evenodd" fill="#454545" d="M216.96,1.935c0.012-0.312,0.016-0.623,0.013-0.935
			c1.666,0,3.333,0,4.999,0c0.003,0.317-0.001,0.635-0.011,0.952C220.294,1.946,218.627,1.94,216.96,1.935z"/>
		<path fill-rule="evenodd" clip-rule="evenodd" fill="#3A3A3A" d="M221.961,1.952c0.01-0.317,0.014-0.635,0.011-0.952
			c1.667,0,3.333,0,5,0c0.003,0.324-0.001,0.647-0.012,0.97C225.293,1.963,223.628,1.958,221.961,1.952z"/>
		<path fill-rule="evenodd" clip-rule="evenodd" fill="none" d="M67.015,119.322c9.996,3.531,19.406,3.968,28.696-0.273
			c4.3-1.962,14.495-1.991,18.919,0.112c12.371,5.878,25.782,3.285,36.999-7.154c11.536,11.899,24.964,12.271,39.886,6.286
			c-1.986,12.866-3.908,25.49-5.89,38.106c-3.537,22.518-7.219,45.015-10.58,67.559c-0.654,4.39-1.598,6.314-6.818,6.239
			c-25.981-0.37-51.973-0.289-77.958-0.054c-4.48,0.041-6.081-0.901-6.793-5.644C78.242,189.638,72.622,154.833,67.015,119.322z"/>
		<path fill-rule="evenodd" clip-rule="evenodd" fill="#010101" d="M123.989,6.614c1.173,2.233,0.359,4.037,0.375,5.803
			c0.079,9.161,1.322,17.847,7.884,25.068c3.833,4.218,5.1,9.733,5.441,15.284c0.661,10.717-2.165,20.512-8.663,30.602
			c-0.327-5.746-0.548-10.153-0.837-14.555c-0.427-6.519-2.898-12.195-6.894-17.346C112.339,39.924,113.593,17.977,123.989,6.614z"
			/>
		<path fill-rule="evenodd" clip-rule="evenodd" fill="#020202" d="M97.552,83.381c0.768-10.196-1.342-18.241-6.905-25.851
			c-5.464-7.476-2.821-23.735,3.871-30.206c0.155,3.438,0.214,6.681,0.469,9.909c0.319,4.058,1.666,7.763,4.142,11.049
			C106.391,57.917,106.036,72.684,97.552,83.381z"/>
		<path fill-rule="evenodd" clip-rule="evenodd" fill="#020202" d="M157.647,26.5c0.104,5.662-0.254,10.285,1.067,14.769
			c0.81,2.752,2.035,5.221,3.799,7.5c6.951,8.989,6.302,24.777-1.51,33.853c-0.261-3.609-0.466-7.01-0.761-10.404
			c-0.354-4.068-1.821-7.709-4.2-11.043C148.914,51.18,149.312,37.202,157.647,26.5z"/>
	</g>
</g>
</svg>
