<?xml version="1.0" encoding="utf-8"?>
<!-- Generator: Adobe Illustrator 16.0.0, SVG Export Plug-In . SVG Version: 6.00 Build 0)  -->
<!DOCTYPE svg PUBLIC "-//W3C//DTD SVG 1.1//EN" "http://www.w3.org/Graphics/SVG/1.1/DTD/svg11.dtd">
<svg version="1.1" id="Layer_1" xmlns="http://www.w3.org/2000/svg" xmlns:xlink="http://www.w3.org/1999/xlink" x="0px" y="0px"
	 width="258.076px" height="258.063px" viewBox="0 0 258.076 258.063" enable-background="new 0 0 258.076 258.063"
	 xml:space="preserve">
<g>
	<g>
		<path fill-rule="evenodd" clip-rule="evenodd" fill="none" d="M48.994,1c53.66,0,107.32,0,160.98,0
			c0.035,0.351,0.069,0.7,0.104,1.051c-4.031,25.135-8.115,50.262-12.082,75.408c-7.804,49.478-15.568,98.962-23.246,148.46
			c-0.503,3.244-1.67,4.214-5.009,4.195c-26.99-0.154-53.982-0.136-80.974-0.021c-3.177,0.014-4.457-0.58-5.009-4.123
			C72.226,151.979,60.514,78.018,48.836,4.05C48.889,3.033,48.941,2.017,48.994,1z"/>
		<path fill-rule="evenodd" clip-rule="evenodd" fill="none" d="M236.97,1c6.333,0,12.667,0.084,18.997-0.055
			c1.739-0.038,2.36,0.315,2.021,2.058c-0.125,0.643-0.02,1.329-0.02,1.996c0,82.989-0.027,165.979,0.096,248.968
			c0.005,3.424-0.672,4.102-4.096,4.096c-82.989-0.123-165.979-0.123-248.968,0c-3.423,0.005-4.101-0.671-4.096-4.096
			C1.027,170.979,1.027,87.989,0.904,5C0.899,1.576,1.547,0.662,5.006,0.902C10.313,1.272,15.665,1,20.998,1
			c2.01,6.037,2.404,12.374,3.372,18.598c7.902,50.793,15.765,101.593,23.626,152.392c4.147,26.798,8.347,53.589,12.309,80.414
			c0.559,3.784,1.971,4.833,5.633,4.613c5.477-0.329,10.988-0.085,16.484-0.085c36.81,0,73.62-0.057,110.429,0.089
			c3.583,0.015,4.884-0.845,5.234-4.517c0.615-6.447,1.888-12.831,2.88-19.242c7.504-48.499,14.998-97,22.513-145.498
			C227.96,58.841,232.472,29.922,236.97,1z"/>
		<path fill-rule="evenodd" clip-rule="evenodd" d="M236.97,1c-4.498,28.922-9.01,57.841-13.491,86.765
			c-7.515,48.498-15.009,96.999-22.513,145.498c-0.992,6.411-2.265,12.795-2.88,19.242c-0.351,3.672-1.651,4.531-5.234,4.517
			c-36.81-0.146-73.62-0.089-110.429-0.089c-5.497,0-11.007-0.244-16.484,0.085c-3.662,0.22-5.074-0.829-5.633-4.613
			c-3.962-26.825-8.162-53.616-12.309-80.414C40.135,121.191,32.272,70.392,24.37,19.598C23.401,13.374,23.008,7.037,20.998,1
			c4.666,0,9.332,0,13.998,0c1.785,1.837,3.988,0.754,6.021,0.864c2.622,0.674,5.951-1.183,7.82,2.186
			C60.514,78.018,72.226,151.979,83.759,225.97c0.552,3.543,1.832,4.137,5.009,4.123c26.991-0.114,53.983-0.133,80.974,0.021
			c3.339,0.019,4.506-0.951,5.009-4.195c7.678-49.498,15.442-98.982,23.246-148.46c3.967-25.146,8.051-50.273,12.082-75.408
			c2.294-0.039,4.588-0.078,6.882-0.116c1.667,0.006,3.334,0.012,5.001,0.018s3.332,0.011,4.999,0.017
			c2.013-0.262,4.244,0.825,6.011-0.969C234.304,1,235.637,1,236.97,1z"/>
		<path fill-rule="evenodd" clip-rule="evenodd" fill="#4E4E4E" d="M48.836,4.05c-1.869-3.369-5.198-1.512-7.82-2.186
			C41.002,1.577,40.995,1.288,40.995,1c2.667,0,5.333,0,7.999,0C48.941,2.017,48.889,3.033,48.836,4.05z"/>
		<path fill-rule="evenodd" clip-rule="evenodd" fill="#505050" d="M216.96,1.935c-2.294,0.038-4.588,0.077-6.882,0.116
			c-0.035-0.351-0.069-0.7-0.104-1.051c2.333,0,4.666,0,6.999,0C216.976,1.312,216.972,1.623,216.96,1.935z"/>
		<path fill-rule="evenodd" clip-rule="evenodd" fill="#444444" d="M40.995,1c0,0.288,0.008,0.577,0.021,0.864
			C38.984,1.754,36.78,2.837,34.996,1C36.995,1,38.995,1,40.995,1z"/>
		<path fill-rule="evenodd" clip-rule="evenodd" fill="#2B2B2B" d="M232.971,1c-1.767,1.793-3.998,0.707-6.011,0.97
			c0.011-0.322,0.015-0.646,0.012-0.97C228.971,1,230.971,1,232.971,1z"/>
		<path fill-rule="evenodd" clip-rule="evenodd" fill="#454545" d="M216.96,1.935c0.012-0.312,0.016-0.623,0.013-0.935
			c1.666,0,3.333,0,4.999,0c0.003,0.317-0.001,0.635-0.011,0.952C220.294,1.946,218.627,1.94,216.96,1.935z"/>
		<path fill-rule="evenodd" clip-rule="evenodd" fill="#3A3A3A" d="M221.961,1.952c0.01-0.317,0.014-0.635,0.011-0.952
			c1.667,0,3.333,0,5,0c0.003,0.324-0.001,0.647-0.012,0.97C225.293,1.963,223.628,1.958,221.961,1.952z"/>
	</g>
</g>
</svg>
