<?xml version="1.0" encoding="utf-8"?>
<!-- Generator: Adobe Illustrator 16.0.0, SVG Export Plug-In . SVG Version: 6.00 Build 0)  -->
<!DOCTYPE svg PUBLIC "-//W3C//DTD SVG 1.1//EN" "http://www.w3.org/Graphics/SVG/1.1/DTD/svg11.dtd">
<svg version="1.1" id="Layer_1" xmlns="http://www.w3.org/2000/svg" xmlns:xlink="http://www.w3.org/1999/xlink" x="0px" y="0px"
	 width="255.968px" height="255.968px" viewBox="0 0 255.968 255.968" enable-background="new 0 0 255.968 255.968"
	 xml:space="preserve">
<g>
	<g>
		<path fill-rule="evenodd" clip-rule="evenodd" fill="none" d="M236.97,1c6.333,0,12.667,0.084,18.997-0.055
			c1.739-0.038,2.36,0.315,2.021,2.058c-0.125,0.643-0.02,1.329-0.02,1.996c0,82.989-0.027,165.979,0.096,248.968
			c0.005,3.424-0.672,4.102-4.096,4.096c-82.989-0.123-165.979-0.123-248.968,0c-3.423,0.005-4.101-0.671-4.096-4.096
			C1.027,170.979,1.027,87.989,0.904,5C0.899,1.576,1.547,0.662,5.006,0.902C10.313,1.272,15.665,1,20.998,1
			c2.01,6.038,2.404,12.374,3.372,18.598c7.903,50.793,15.765,101.593,23.626,152.393c4.147,26.797,8.347,53.588,12.309,80.413
			c0.559,3.785,1.972,4.833,5.634,4.613c5.477-0.328,10.987-0.085,16.484-0.085c36.809,0,73.619-0.057,110.429,0.089
			c3.584,0.015,4.884-0.845,5.234-4.517c0.615-6.447,1.888-12.831,2.88-19.242c7.504-48.499,14.998-97,22.513-145.498
			C227.96,58.841,232.472,29.922,236.97,1z"/>
		<path fill-rule="evenodd" clip-rule="evenodd" d="M236.97,1c-4.498,28.922-9.01,57.841-13.491,86.765
			c-7.515,48.498-15.009,96.999-22.513,145.498c-0.992,6.411-2.265,12.795-2.88,19.242c-0.351,3.672-1.65,4.531-5.234,4.517
			c-36.81-0.146-73.62-0.089-110.429-0.089c-5.497,0-11.008-0.243-16.484,0.085c-3.662,0.22-5.075-0.828-5.634-4.613
			c-3.962-26.825-8.162-53.616-12.309-80.413c-7.861-50.8-15.724-101.6-23.626-152.393C23.401,13.374,23.008,7.038,20.998,1
			c4.666,0,9.332,0,13.998,0c1.785,1.837,3.988,0.754,6.021,0.864c2.622,0.674,5.951-1.183,7.82,2.186
			c4.583,28.914,9.247,57.815,13.643,86.758c0.553,3.638,2.278,5.592,5.204,7.2c11.424,6.277,25.753,4.005,35.183-5.787
			c1.414-1.468,1.954-2.472,4.04-0.403c13.834,13.723,31.144,13.005,44.832-1.932c1.096,1.242,2.098,2.555,3.276,3.685
			c9.958,9.538,25.693,10.565,36.709,2.5c2.532-1.854,4.16-3.954,4.523-7.305c0.646-5.945,1.809-11.834,2.758-17.747
			c3.69-22.989,7.382-45.979,11.073-68.97c2.295-0.038,4.588-0.077,6.882-0.115c1.667,0.006,3.334,0.012,5.001,0.018
			s3.332,0.011,4.999,0.017c2.013-0.262,4.244,0.825,6.011-0.969C234.304,1,235.637,1,236.97,1z M67.019,119.36
			c5.606,35.5,11.232,70.305,16.459,105.169c0.718,4.788,2.384,5.648,6.82,5.609c25.985-0.227,51.976-0.247,77.96,0.016
			c4.604,0.047,6.099-1.16,6.766-5.727c3.313-22.719,7.051-45.375,10.608-68.059c1.977-12.605,3.896-25.22,5.882-38.103
			c-14.96,6.048-28.377,5.603-39.913-6.274c-11.602,10.982-26.833,13.289-39.221,6.023c-2.754-1.616-4.829-5.479-7.247-5.537
			c-2.367-0.057-4.613,3.838-7.273,5.373C88.107,123.475,77.89,123.065,67.019,119.36z"/>
		<path fill-rule="evenodd" clip-rule="evenodd" fill="none" d="M210.078,2.05c-3.691,22.99-7.383,45.98-11.073,68.97
			c-0.949,5.912-2.112,11.801-2.758,17.747c-0.363,3.351-1.991,5.451-4.523,7.305c-11.016,8.065-26.751,7.038-36.709-2.5
			c-1.179-1.13-2.181-2.443-3.276-3.685c-13.688,14.938-30.998,15.655-44.832,1.932c-2.086-2.069-2.626-1.065-4.04,0.403
			c-9.43,9.792-23.759,12.064-35.183,5.787c-2.926-1.608-4.651-3.562-5.204-7.2C58.083,61.865,53.419,32.964,48.836,4.05
			c0.053-1.018,0.105-2.034,0.157-3.05c53.66,0,107.32,0,160.98,0C210.009,1.35,210.044,1.7,210.078,2.05z"/>
		<path fill-rule="evenodd" clip-rule="evenodd" fill="#4E4E4E" d="M48.994,1c-0.052,1.017-0.104,2.033-0.157,3.05
			c-1.869-3.369-5.198-1.512-7.82-2.186C41.002,1.577,40.995,1.288,40.995,1C43.661,1,46.328,1,48.994,1z"/>
		<path fill-rule="evenodd" clip-rule="evenodd" fill="#505050" d="M210.078,2.05c-0.034-0.35-0.069-0.7-0.104-1.05
			c2.333,0,4.666,0,6.999,0c0.003,0.312-0.001,0.623-0.013,0.935C214.666,1.973,212.373,2.012,210.078,2.05z"/>
		<path fill-rule="evenodd" clip-rule="evenodd" fill="#444444" d="M40.995,1c0,0.288,0.008,0.577,0.021,0.864
			C38.984,1.754,36.78,2.837,34.996,1C36.995,1,38.995,1,40.995,1z"/>
		<path fill-rule="evenodd" clip-rule="evenodd" fill="#2B2B2B" d="M232.971,1c-1.767,1.793-3.998,0.707-6.011,0.97
			c0.011-0.322,0.015-0.646,0.012-0.97C228.971,1,230.971,1,232.971,1z"/>
		<path fill-rule="evenodd" clip-rule="evenodd" fill="#454545" d="M216.96,1.935c0.012-0.312,0.016-0.623,0.013-0.935
			c1.666,0,3.333,0,4.999,0c0.003,0.317-0.001,0.635-0.011,0.952C220.294,1.946,218.627,1.94,216.96,1.935z"/>
		<path fill-rule="evenodd" clip-rule="evenodd" fill="#3A3A3A" d="M221.961,1.952c0.01-0.317,0.014-0.635,0.011-0.952
			c1.667,0,3.333,0,5,0c0.003,0.324-0.001,0.647-0.012,0.97C225.293,1.963,223.628,1.958,221.961,1.952z"/>
		<path fill-rule="evenodd" clip-rule="evenodd" fill="none" d="M67.019,119.36c10.871,3.706,21.088,4.115,30.841-1.508
			c2.661-1.534,4.906-5.429,7.273-5.373c2.418,0.058,4.493,3.92,7.247,5.537c12.388,7.266,27.619,4.959,39.221-6.025
			c11.536,11.878,24.953,12.324,39.913,6.276c-1.986,12.883-3.905,25.497-5.882,38.103c-3.558,22.684-7.295,45.34-10.608,68.059
			c-0.667,4.566-2.162,5.773-6.766,5.727c-25.984-0.263-51.975-0.242-77.96-0.016c-4.436,0.039-6.103-0.821-6.82-5.609
			C78.251,189.665,72.625,154.859,67.019,119.36z"/>
	</g>
</g>
</svg>
