<?xml version="1.0" encoding="utf-8"?>
<!-- Generator: Adobe Illustrator 16.0.0, SVG Export Plug-In . SVG Version: 6.00 Build 0)  -->
<!DOCTYPE svg PUBLIC "-//W3C//DTD SVG 1.1//EN" "http://www.w3.org/Graphics/SVG/1.1/DTD/svg11.dtd">
<svg version="1.1" id="Layer_1" xmlns="http://www.w3.org/2000/svg" xmlns:xlink="http://www.w3.org/1999/xlink" x="0px" y="0px"
	 width="600.928px" height="567.488px" viewBox="0 0 600.928 567.488" enable-background="new 0 0 600.928 567.488"
	 xml:space="preserve">
<g>
	<g>
		<path fill-rule="evenodd" clip-rule="evenodd" fill="#FFFFFF" d="M442.948,0c52.66,0,105.319,0,157.98,0
			c0,188.976,0,377.953,0,566.929c-198.809,0-397.617,0.007-596.425-0.142c-1.29-0.001-4.627,2.47-4.5-1.858
			c2.42,1.701,3.861,1.265,4.542-1.79c0.868-3.891,2.007-7.721,2.997-11.586c0.869-3.389,2.835-4.618,6.49-4.634
			c17.327-0.071,34.651-0.494,51.978-0.735c26.99-0.376,53.98-0.748,80.971-1.002c3.317-0.031,5.351-0.379,5.133-4.521
			c-0.306-5.814-0.14-11.661-0.003-17.49c0.284-12.094-1.54-24.389,2.807-36.112c0.956-2.575,2.758-5.191,4.88-6.919
			c7.493-6.104,16.236-9.656,25.796-11.029c4.08-0.586,5.268-2.62,5.295-6.715c0.192-27.991,0.652-55.98,1.044-83.969
			c0.029-2.104,0.2-4.208,0.336-6.953c41.452,0,82.343,0,124.446,0c0-9.813-0.125-18.961,0.025-28.105
			c0.359-21.821,0.768-43.642,1.403-65.456c0.068-2.339,1.104-5.568,2.823-6.78c6.918-4.876,14.102-9.447,21.517-13.532
			c14.14-7.789,27.979-14.659,45.673-12.064c11.36,1.666,23.558-2.383,35.38-3.879c0.149-0.019,0.292-0.255,0.424-0.241
			c1.758,0.187,4.335-0.265,5.13,0.719c3.783,4.682,5.462,2.25,7.354-1.528c5.614-11.222,13.862-19.87,25.269-25.36
			c1.494-0.718,3.09-1.432,4.288-2.532c9.424-8.648,20.322-14.334,32.844-17.025c1.398-0.3,3.1-1.497,3.703-2.742
			c1.641-3.382,2.768-7.015,4.443-11.468c-2.608-1.532-5.619-3.3-8.396-4.932c1.052-3.432,2.205-6.891,3.159-10.403
			c0.859-3.162,6.459-6.751,9.01-4.892c3.03,2.211,4.822,0.509,7.178-0.496c5.706-2.43,11.462-4.741,18.021-7.44
			c-0.393-1.715-1.012-4.427-1.661-7.268c17.505-4.227,34.815-3.874,52.103-0.091c6.38,1.396,8.396-0.531,7.905-7.074
			c-0.166-2.211,1.06-5.08,2.612-6.757c3.462-3.739,3.412-4.24-0.743-7.465c-4.137-3.211-7.904-6.928-11.61-10.646
			c-0.843-0.845-1.512-3.2-0.995-3.846c2.978-3.717-0.3-5.837-2.322-6.908c-5.027-2.662-4.892-6.451-3.032-10.503
			c1.865-4.066,3.06-7.429-3.027-8.95c0.98-5.18,2.792-10.053,2.57-14.832c-0.248-5.323-1.771-10.799-3.842-15.749
			c-1.381-3.3-1.904-5.953,0.186-9.039c-5.659-3.474-11.57-6.061-16.108-10.167c-5.072-4.59-9.562-6.272-15.99-3.218
			c-3.925,1.864-12.363-3.667-13.468-7.898c-0.436-1.666-1.557-3.154-2.365-4.722c-1.381,1.416-2.567,3.133-4.189,4.175
			c-2.368,1.521-5.096,3.681-7.585,3.574c-5.965-0.26-11.912-3.284-17.751,0.684c-0.394,0.268-1.235-0.2-1.868-0.195
			c-3.565,0.024-7.254-0.483-10.671,0.254c-8.679,1.873-16.956,1.232-24.515-3.38c-4.517-2.756-8.443-6.466-12.683-9.686
			c-4.603-3.494-5.344-6.043-3.361-11.301C443.781,1.699,443.169,0.776,442.948,0z"/>
		<path fill-rule="evenodd" clip-rule="evenodd" fill="#FFFFFF" d="M0.003,561.93c0-187.216,0-374.432,0-561.93
			c144.315,0,288.63,0,432.945,0c-4.692,1.53-9.432,2.931-14.052,4.656c-1.668,0.623-3.818,1.691-4.43,3.121
			c-3.71,8.678-6.755,17.642-10.555,26.278c-7.024,15.967-14.938,32.041-30.248,41.219c-12.947,7.763-27.769,12.376-41.679,18.57
			c-5.722,2.548-13.078,4.207-16.428,8.701c-6.206,8.331-13.691,14.816-21.44,21.344c-1.584,1.335-2.881,4.209-2.705,6.234
			c0.93,10.672-4.891,17.618-11.813,24.546c-3.991,3.995-6.745,9.243-9.906,14.024c-0.407,0.616,0.214,1.836,0.134,2.757
			c-0.751,8.723,3.609,17.941-2.721,25.963c0.406,0.638,0.62,1.09,0.937,1.454c9.806,11.263,11.056,14.539,4.154,26.296
			c-1.431,2.439-3.754,4.357-5.677,6.506c-0.621,0.693-1.434,1.266-1.892,2.05c-7.615,13.034-17.609,23.611-31.129,30.68
			c-5.121,2.678-11.223,4.652-14.862,8.739c-6.974,7.833-15.235,12.583-25.024,15.384c-3.906,1.117-7.659,2.966-11.625,3.634
			c-7.008,1.18-14.138,1.619-21.188,2.583c-1.714,0.234-3.843,0.852-4.874,2.064c-3.534,4.158-7.292,8.329-9.815,13.102
			c-4.578,8.661-7.779,18.074-12.645,26.547c-2.672,4.652-7.029,8.867-11.584,11.782c-7.201,4.608-16.1,6.498-21.913,13.417
			c-1.24,1.476-2.359,3.182-3.036,4.97c-1.391,3.675-2.186,7.586-3.688,11.208c-4.245,10.239-9.559,20.005-9.375,31.72
			c0.062,3.961-1.646,9.147-4.437,11.739c-9.352,8.688-19.403,16.656-29.505,24.488c-4.826,3.74-8.926,7.597-10.479,13.839
			c1.546,0.312,2.527,0.51,3.154,0.636c-2.351,4.659-4.632,9.067-6.802,13.527c-1.314,2.703-5.71,4.749-1.987,8.706
			c0.161,0.171-0.771,1.951-1.511,2.294c-4.087,1.892-4.578,5.645-5.603,9.393c-1.168,4.269-2.816,8.461-4.792,12.42
			c-0.596,1.193-3.003,1.445-4.536,2.217c-2.112,1.063-5.237,1.691-6.088,3.415c-3.705,7.504-7.29,15.016-7.758,23.796
			C3.064,544.693,1.234,553.296,0.003,561.93z"/>
		<path fill-rule="evenodd" clip-rule="evenodd" d="M0.003,561.93c1.23-8.634,3.061-17.236,3.524-25.911
			c0.468-8.78,4.053-16.292,7.758-23.796c0.851-1.724,3.976-2.352,6.088-3.415c1.533-0.771,3.94-1.023,4.536-2.217
			c1.976-3.959,3.624-8.151,4.792-12.42c1.025-3.748,1.516-7.501,5.603-9.393c0.741-0.343,1.672-2.123,1.511-2.294
			c-3.724-3.957,0.672-6.003,1.987-8.706c2.17-4.46,4.451-8.868,6.802-13.527c-0.627-0.126-1.608-0.324-3.154-0.636
			c1.553-6.242,5.653-10.099,10.479-13.839c10.103-7.832,20.153-15.801,29.505-24.488c2.791-2.592,4.499-7.777,4.437-11.739
			c-0.183-11.714,5.13-21.481,9.375-31.72c1.501-3.622,2.296-7.532,3.688-11.208c0.677-1.788,1.796-3.495,3.036-4.97
			c5.813-6.919,14.712-8.809,21.913-13.417c4.555-2.915,8.913-7.13,11.584-11.782c4.865-8.473,8.066-17.886,12.645-26.547
			c2.523-4.773,6.281-8.943,9.815-13.102c1.031-1.213,3.159-1.83,4.874-2.064c7.05-0.964,14.18-1.402,21.188-2.583
			c3.965-0.668,7.719-2.517,11.625-3.634c9.789-2.801,18.05-7.551,25.024-15.384c3.64-4.087,9.741-6.061,14.862-8.739
			c13.52-7.068,23.514-17.646,31.129-30.68c0.458-0.784,1.271-1.356,1.892-2.05c1.923-2.149,4.246-4.067,5.677-6.506
			c6.901-11.757,5.651-15.033-4.154-26.296c-0.316-0.364-0.53-0.816-0.937-1.454c6.33-8.022,1.97-17.241,2.721-25.963
			c0.08-0.921-0.541-2.141-0.134-2.757c3.161-4.781,5.915-10.03,9.906-14.024c6.922-6.928,12.742-13.874,11.813-24.546
			c-0.176-2.025,1.121-4.899,2.705-6.234c7.749-6.528,15.234-13.013,21.44-21.344c3.35-4.494,10.706-6.152,16.428-8.701
			c13.91-6.194,28.731-10.808,41.679-18.57c15.31-9.178,23.224-25.252,30.248-41.219c3.8-8.636,6.845-17.6,10.555-26.278
			c0.611-1.43,2.762-2.498,4.43-3.121c4.62-1.725,9.359-3.126,14.052-4.656c3.333,0,6.666,0,9.999,0
			c0.222,0.776,0.833,1.699,0.604,2.305c-1.982,5.258-1.241,7.808,3.361,11.301c4.239,3.219,8.166,6.93,12.683,9.686
			c7.559,4.613,15.836,5.253,24.515,3.38c3.417-0.737,7.105-0.229,10.671-0.254c0.633-0.005,1.475,0.463,1.868,0.195
			c5.839-3.967,11.786-0.943,17.751-0.684c2.489,0.107,5.217-2.053,7.585-3.574c1.622-1.042,2.809-2.759,4.189-4.175
			c0.809,1.568,1.93,3.056,2.365,4.722c1.104,4.231,9.543,9.762,13.468,7.898c6.429-3.054,10.918-1.372,15.99,3.218
			c4.538,4.106,10.449,6.692,16.108,10.167c-2.09,3.086-1.566,5.739-0.186,9.039c2.07,4.95,3.594,10.426,3.842,15.749
			c0.222,4.779-1.59,9.652-2.57,14.832c6.087,1.521,4.893,4.884,3.027,8.95c-1.859,4.052-1.995,7.842,3.032,10.503
			c2.022,1.07,5.3,3.191,2.322,6.908c-0.517,0.646,0.152,3,0.995,3.846c3.706,3.718,7.474,7.434,11.61,10.646
			c4.155,3.225,4.205,3.726,0.743,7.465c-1.553,1.677-2.778,4.545-2.612,6.757c0.491,6.543-1.525,8.471-7.905,7.074
			c-17.287-3.783-34.598-4.136-52.103,0.091c0.649,2.841,1.269,5.552,1.661,7.268c-6.56,2.699-12.315,5.01-18.021,7.44
			c-2.355,1.005-4.147,2.707-7.178,0.496c-2.551-1.859-8.15,1.73-9.01,4.892c-0.954,3.512-2.107,6.971-3.159,10.403
			c2.776,1.632,5.787,3.4,8.396,4.932c-1.676,4.454-2.803,8.086-4.443,11.468c-0.604,1.245-2.305,2.442-3.703,2.742
			c-12.521,2.691-23.42,8.376-32.844,17.025c-1.198,1.1-2.794,1.813-4.288,2.532c-11.406,5.491-19.654,14.138-25.269,25.36
			c-1.892,3.779-3.57,6.21-7.354,1.528c-0.795-0.983-3.372-0.532-5.13-0.719c-0.132-0.014-0.274,0.223-0.424,0.241
			c-11.822,1.497-24.02,5.545-35.38,3.879c-17.693-2.595-31.533,4.275-45.673,12.064c-7.415,4.085-14.599,8.656-21.517,13.532
			c-1.719,1.212-2.755,4.441-2.823,6.78c-0.636,21.814-1.044,43.635-1.403,65.456c-0.15,9.144-0.025,18.292-0.025,28.105
			c-42.103,0-82.994,0-124.446,0c-0.137,2.745-0.307,4.848-0.336,6.953c-0.392,27.989-0.853,55.978-1.044,83.969
			c-0.028,4.095-1.216,6.129-5.295,6.715c-9.56,1.373-18.303,4.926-25.796,11.029c-2.122,1.728-3.924,4.344-4.88,6.919
			c-4.347,11.724-2.523,24.019-2.807,36.112c-0.137,5.829-0.303,11.676,0.003,17.49c0.218,4.143-1.816,4.49-5.133,4.521
			c-26.991,0.254-53.981,0.626-80.971,1.002c-17.326,0.241-34.651,0.664-51.978,0.735c-3.654,0.016-5.621,1.245-6.49,4.634
			c-0.99,3.865-2.129,7.695-2.997,11.586c-0.682,3.055-2.123,3.491-4.542,1.79C0.003,563.93,0.003,562.93,0.003,561.93z"/>
	</g>
</g>
</svg>
