<?xml version="1.0" encoding="utf-8"?>
<!-- Generator: Adobe Illustrator 16.0.0, SVG Export Plug-In . SVG Version: 6.00 Build 0)  -->
<!DOCTYPE svg PUBLIC "-//W3C//DTD SVG 1.1//EN" "http://www.w3.org/Graphics/SVG/1.1/DTD/svg11.dtd">
<svg version="1.1" id="Layer_1" xmlns="http://www.w3.org/2000/svg" xmlns:xlink="http://www.w3.org/1999/xlink" x="0px" y="0px"
	 width="682.915px" height="720.91px" viewBox="0 0 682.915 720.91" enable-background="new 0 0 682.915 720.91"
	 xml:space="preserve">
<g>
	<g>
		<path fill-rule="evenodd" clip-rule="evenodd" d="M1,721.91c0-12.332,0-24.664,0-36.995c22.992,0,45.985,0.009,68.977-0.007
			c5.548-0.003,4.988,0.512,5.048-5.144c0.535-50.479,1.082-100.958,1.611-151.437c0.134-12.829,0.225-25.657,0.319-38.486
			c0.014-1.895,0.644-4.143-2.65-4.035c-1.473,0.049-1.108-1.306-1.028-2.257c0.263-3.13,1.27-5.795,4.37-7.237
			c2.763-1.286,3.476-3.486,3.411-6.484c-0.189-8.827-0.099-17.661-0.026-26.491c0.009-1.15-0.755-3.178,1.212-3.228
			c3.606-0.092,2.736-2.578,2.784-4.535c0.469-18.82,0.881-37.644,1.332-56.464c1.517-63.459,3.013-126.918,4.644-190.374
			c0.093-3.614-0.872-6.005-4.036-7.67c-1.796-0.944-3.111-2.194-3.033-4.663c0.184-5.826,0.173-11.665,0.009-17.492
			c-0.076-2.702,1.087-3.17,3.296-2.566c2.864,0.781,5.37,0.353,8.067-1.15c80.982-45.109,162.013-90.135,243.031-135.18
			c4.4-2.447,4.971-6.307,1.47-10.194c-1.848-2.052-2.22-4.143-0.254-6.184c1.767-1.833,3.932-1.896,5.793-0.174
			c2.057,1.902,1.862,3.983,0.135,6.187c-3.964,5.056-3.357,7.91,2.182,10.988c80.15,44.551,160.31,89.088,240.435,133.688
			c3.155,1.755,6.115,3.27,9.836,2c2.587-0.884,3.068,0.566,3.024,2.838c-0.107,5.497-0.156,11.001,0.021,16.493
			c0.08,2.466-0.635,4.264-2.818,5.283c-3.751,1.748-4.348,4.711-4.231,8.55c0.755,24.812,1.346,49.63,1.919,74.448
			c1.149,49.802,2.247,99.606,3.383,149.408c0.175,7.662,0.396,15.323,0.689,22.981c0.05,1.295-0.774,3.464,1.515,3.511
			c3.002,0.063,2.476,2.007,2.48,3.753c0.02,7.164,0.147,14.333-0.037,21.493c-0.137,5.255-0.558,10.434,5.61,12.861
			c0.292,0.115,0.625,0.37,0.745,0.645c0.978,2.238,2.278,6.403,0.979,6.686c-5.571,1.212-3.169,5.207-3.147,7.818
			c0.504,62.143,1.179,124.283,1.828,186.425c0.063,5.977-0.685,5.383,5.297,5.389c21.16,0.022,42.32-0.007,63.48,0.019
			c5.934,0.008,5.203-0.632,5.232,5.423c0.042,8.331,0.012,16.662,0.011,24.993c-0.001,6.568-0.002,6.569-6.604,6.569
			C451.873,721.91,226.437,721.91,1,721.91z M342.182,242.984c-42.493,0-84.987,0-127.479,0.001c-1.667,0-3.333,0.01-4.999,0.019
			c-3.024,0.017-4.657,1.488-4.732,4.559c-0.029,1.166-0.023,2.333-0.023,3.499c0,61.325,0.001,122.649,0.004,183.976
			c0,1.165,0.025,2.331,0.033,3.497c0.01,1.624,0.772,2.358,2.444,2.42c1.893,0.069,2.805-0.698,2.817-2.573
			c0.009-1.333,0.029-2.666,0.029-3.998c0.003-59.991,0.003-119.98,0.01-179.971c0-5.965,0.017-5.979,5.975-5.98
			c43.989-0.001,87.978,0.006,131.967,0.007c39.494,0.001,78.987-0.01,118.48,0.002c8.083,0.002,6.902-0.405,6.907,7.021
			c0.039,59.658,0.024,119.315,0.03,178.973c0,1.498,0.013,2.999,0.093,4.495c0.076,1.411,0.883,2.017,2.302,2.005
			c1.436-0.011,2.741-0.121,2.85-1.953c0.079-1.33,0.075-2.665,0.075-3.997c0.005-61.158,0.006-122.316,0.008-183.475
			c0-1.167-0.02-2.333-0.007-3.5c0.034-3.244-1.464-5.005-4.804-5.009c-1-0.001-2-0.014-2.999-0.014
			C428.167,242.986,385.175,242.986,342.182,242.984z M250.872,413.171c0,8.161-0.036,16.323,0.02,24.484
			c0.02,2.851,1.66,4.082,3.92,3.167c1.988-0.805,1.176-2.565,1.182-3.895c0.066-14.823,0.038-29.647,0.051-44.472
			c0.001-1.963-0.479-4.159,1.514-5.494c3.731-2.499,4.273-5.914,3.58-10.058c-0.434-2.596-0.175-5.316-0.145-7.98
			c0.363-32.209,18.288-55.683,49.322-64.017c23.917-6.422,47.872-5.157,71.5,1.482c12.576,3.535,23.477,10.294,31.611,20.813
			c11.491,14.86,15.056,31.986,13.688,50.333c-0.28,3.759-0.229,6.973,3.232,9.209c2.176,1.404,2.055,3.549,2.05,5.768
			c-0.034,14.821,0.027,29.644-0.026,44.464c-0.009,2.417,0.011,4.125,3.307,4.06c3.148-0.063,2.937-1.87,2.935-3.937
			c-0.017-15.654-0.038-31.31,0.003-46.965c0.007-2.979-0.521-5.621-3.087-7.501c-1.611-1.182-2.267-2.708-1.973-4.771
			c0.807-5.654,0.342-11.305-0.324-16.938c-3.523-29.797-18.98-50.423-47.611-60.01c-27.427-9.182-55.163-7.822-82.513,0.575
			c-15.613,4.793-28.146,14.293-36.75,28.422c-8.511,13.977-11.412,29.338-10.565,45.506c0.17,3.258,0.333,6.256-2.829,8.418
			c-1.969,1.346-2.121,3.598-2.106,5.849C250.905,397.513,250.875,405.342,250.872,413.171z M298.181,639.216
			c0.279,0,0.558,0,0.837,0c0,13.995-0.01,27.989,0.007,41.983c0.004,3.387,1.497,4.615,4.412,3.628
			c2.511-0.853,1.504-3.071,1.455-4.664c-0.804-26.146-0.902-52.302-1.038-78.457c-0.018-3.292-0.519-6.623,2.081-9.436
			c1.025-1.108,0.644-2.838,0.473-4.352c-1.021-9.031-0.277-17.995,1.703-26.802c2.365-10.518,6.538-20.278,16.726-25.456
			c15.912-8.088,42.384-6.313,50.317,19.463c3.228,10.485,4.309,21.171,3.448,32.072c-0.145,1.834-0.801,3.896,0.513,5.305
			c2.373,2.545,1.965,5.517,1.948,8.476c-0.151,26.82-0.188,53.643-1.149,80.452c-0.07,1.971-0.139,3.538,2.697,3.561
			c2.717,0.021,3.32-1.029,3.309-3.52c-0.13-27.822,0.218-55.643,0.821-83.458c0.043-1.998,0.296-4.185-1.074-5.776
			c-1.851-2.146-1.748-4.563-1.658-7.063c0.317-8.847,0.087-17.657-2.112-26.295c-6.361-24.988-21.291-33.842-43.761-32.468
			c-16.899,1.032-27.569,10.4-33.183,25.988c-3.729,10.355-4.452,21.111-4.1,32.006c0.068,2.121,0.802,4.491-0.678,6.309
			c-2.109,2.59-2.006,5.519-2.002,8.528C298.193,612.566,298.181,625.891,298.181,639.216z M205.072,641.778
			c0.175,0,0.351,0,0.526,0c0,1.999,0.002,3.998,0,5.996c-0.017,10.99-0.069,21.981-0.019,32.971c0.008,1.776-0.807,4.201,2.583,4.2
			c3.404-0.001,2.55-2.315,2.5-4.163c-0.049-1.825-0.422-3.642-0.44-5.465c-0.236-23.151-0.438-46.302-0.631-69.453
			c-0.014-1.648-0.38-3.432,0.694-4.855c1.668-2.208,1.413-4.602,1.28-7.146c-0.661-12.595,0.265-24.979,5.842-36.579
			c4.693-9.764,12.922-14.235,23.353-14.298c10.633-0.063,18.946,4.441,23.835,14.354c2.915,5.907,4.069,12.255,5.318,18.645
			c1.81,9.255-1.428,18.914,2.426,27.969c0.18,0.422,0.025,0.989,0.019,1.489c-0.339,23.811,0.063,47.631-0.955,71.434
			c-0.085,1.988,0.113,3.989,0.172,5.984c0.042,1.401,0.671,2.044,2.153,2.065c1.645,0.024,2.509-0.551,2.497-2.256
			c-0.005-0.665,0.093-1.331,0.084-1.996c-0.348-25.486,0.443-50.962,0.628-76.444c0.011-1.494,0.333-3.174-0.552-4.399
			c-2.065-2.856-1.552-6.023-1.495-9.152c0.221-12.098-0.863-23.979-6.103-35.108c-6.041-12.832-16.514-18.119-30.332-17.375
			c-11.964,0.645-20.244,6.778-25.347,17.441c-1.295,2.707-2.339,5.509-3.146,8.41c-2.528,9.078-3.169,18.342-2.892,27.708
			c0.049,1.66,0.563,3.685-0.175,4.924c-2.888,4.854-1.731,10.053-1.791,15.125C204.99,621.794,205.072,631.786,205.072,641.778z
			 M407.978,642.026c0.214,0,0.427,0,0.64,0c0,12.165-0.005,24.328,0.006,36.491c0.001,1.499,0.097,2.998,0.121,4.498
			c0.025,1.555,0.949,1.896,2.301,1.895c1.356,0,2.249-0.338,2.258-1.912c0.009-1.498,0.228-2.999,0.171-4.492
			c-0.92-24.316-0.604-48.648-0.912-72.973c-0.019-1.491-0.34-3.136,0.614-4.379c1.814-2.364,1.466-4.922,1.329-7.626
			c-0.602-11.917,0.339-23.64,5.157-34.765c4.632-10.695,13.109-15.811,24.438-15.782c11.141,0.028,19.471,5.144,24.025,15.621
			c1.06,2.436,2.06,4.937,2.718,7.503c2.377,9.263,3.324,18.68,2.467,28.229c-0.197,2.203-0.384,4.341,1.056,6.22
			c1.233,1.609,0.975,3.477,0.959,5.291c-0.21,23.994-0.438,47.989-0.646,71.982c-0.017,1.83,0.041,3.663,0.152,5.489
			c0.101,1.671,1.396,1.55,2.568,1.568c1.249,0.02,1.802-0.646,1.827-1.831c0.015-0.666-0.007-1.333-0.001-1.999
			c0.228-25.16,0.46-50.319,0.679-75.479c0.016-1.826,0.549-3.909-0.435-5.415c-2.213-3.387-1.63-7.027-1.59-10.643
			c0.131-11.601-1.028-22.979-5.982-33.654c-5.954-12.828-16.249-18.36-30.16-17.679c-12.205,0.599-20.589,6.766-25.738,17.64
			c-1.285,2.715-2.311,5.522-3.113,8.426c-2.513,9.089-3.109,18.358-2.837,27.729c0.058,1.973,0.634,4.122-0.557,5.869
			c-1.64,2.405-1.52,5.024-1.518,7.689C407.982,617.701,407.978,629.864,407.978,642.026z M161.979,460.894
			c0-2.991-0.084-5.987,0.026-8.976c0.09-2.454-0.779-4.724-3.194-4.655c-1.94,0.056-2.914,2.194-2.869,4.506
			c0.119,6.148,0.113,12.301,0.003,18.448c-0.042,2.329,0.975,4.347,2.968,4.412c2.061,0.067,3.141-1.962,3.083-4.262
			C161.917,467.211,161.977,464.052,161.979,460.894z M167.985,460.873c0,3.325,0.011,6.648-0.004,9.973
			c-0.009,2.127,1.236,3.848,3.049,3.799c1.768-0.048,2.973-1.762,2.959-3.909c-0.043-6.482-0.068-12.965,0.015-19.447
			c0.028-2.169-1.152-3.975-2.837-4.038c-2.121-0.08-3.232,1.849-3.196,4.149C168.021,454.557,167.983,457.716,167.985,460.873z
			 M185.976,461.423c0-3.157-0.083-6.318,0.027-9.474c0.085-2.445-0.761-4.728-3.166-4.686c-1.935,0.034-2.945,2.149-2.899,4.473
			c0.121,6.148,0.119,12.301,0.001,18.448c-0.044,2.331,0.989,4.43,2.932,4.437c2.388,0.008,3.228-2.286,3.131-4.723
			C185.89,467.077,185.976,464.249,185.976,461.423z M197.975,460.938c0-2.991-0.085-5.986,0.026-8.975
			c0.091-2.441-0.754-4.729-3.152-4.699c-1.936,0.024-2.957,2.133-2.911,4.46c0.121,6.147,0.121,12.301,0,18.448
			c-0.046,2.33,0.982,4.433,2.92,4.449c2.394,0.021,3.234-2.27,3.143-4.709C197.89,466.924,197.975,463.93,197.975,460.938z
			 M209.97,460.866c0-3.157-0.036-6.316,0.012-9.475c0.035-2.301-1.083-4.229-3.204-4.143c-1.675,0.068-2.86,1.87-2.83,4.044
			c0.087,6.316,0.096,12.634-0.005,18.948c-0.037,2.322,0.981,4.343,2.986,4.388c2.057,0.046,3.125-1.988,3.063-4.289
			C209.907,467.184,209.971,464.024,209.97,460.866z M221.971,461.435c0-3.157-0.083-6.318,0.027-9.474
			c0.085-2.441-0.755-4.729-3.154-4.697c-1.936,0.025-2.956,2.134-2.91,4.461c0.121,6.148,0.121,12.301,0,18.448
			c-0.045,2.33,0.982,4.433,2.921,4.448c2.393,0.019,3.237-2.271,3.141-4.711C221.886,467.089,221.971,464.261,221.971,461.435z
			 M233.967,460.85c0-3.157-0.032-6.316,0.01-9.475c0.031-2.298-1.09-4.227-3.216-4.125c-1.676,0.081-2.847,1.893-2.816,4.063
			c0.088,6.315,0.093,12.634-0.003,18.948c-0.036,2.32,0.991,4.34,3,4.369c2.046,0.03,3.117-2.002,3.05-4.308
			C233.899,467.168,233.968,464.008,233.967,460.85z M239.971,461.009c0,2.992,0.082,5.986-0.025,8.975
			c-0.088,2.456,0.801,4.717,3.209,4.639c1.946-0.063,2.897-2.216,2.853-4.522c-0.119-6.147-0.111-12.3-0.005-18.449
			c0.04-2.324-0.981-4.341-2.978-4.395c-2.062-0.056-3.132,1.979-3.073,4.278C240.035,454.691,239.973,457.851,239.971,461.009z
			 M257.966,460.688c0-2.99-0.113-5.988,0.036-8.974c0.116-2.333-0.949-4.354-2.923-4.457c-2.084-0.109-3.147,1.913-3.126,4.217
			c0.057,6.316,0.057,12.633,0,18.947c-0.021,2.309,1.049,4.325,3.135,4.207c1.972-0.11,3.025-2.136,2.915-4.468
			C257.854,467.009,257.966,463.847,257.966,460.688z M263.971,460.924c0,3.158,0.054,6.317-0.018,9.474
			c-0.052,2.302,1.005,4.249,3.12,4.239c1.707-0.008,2.933-1.785,2.912-3.953c-0.064-6.481-0.068-12.964,0.002-19.446
			c0.023-2.165-1.186-3.955-2.88-3.988c-2.122-0.042-3.205,1.89-3.153,4.201C264.024,454.607,263.971,457.767,263.971,460.924z
			 M281.963,460.688c0-2.99-0.113-5.988,0.036-8.974c0.116-2.333-0.949-4.354-2.923-4.457c-2.084-0.109-3.147,1.913-3.126,4.217
			c0.057,6.316,0.057,12.633,0,18.947c-0.021,2.309,1.049,4.325,3.135,4.207c1.972-0.11,3.025-2.136,2.915-4.468
			C281.851,467.009,281.963,463.847,281.963,460.688z M293.962,461.435c0-3.157-0.083-6.318,0.027-9.474
			c0.085-2.441-0.756-4.729-3.154-4.697c-1.937,0.025-2.956,2.134-2.91,4.461c0.121,6.148,0.121,12.301,0,18.448
			c-0.045,2.33,0.982,4.433,2.921,4.448c2.392,0.019,3.237-2.271,3.141-4.711C293.877,467.089,293.962,464.261,293.962,461.435z
			 M305.961,460.949c0-2.991-0.085-5.986,0.026-8.975c0.091-2.438-0.75-4.729-3.142-4.711c-1.939,0.016-2.967,2.119-2.922,4.448
			c0.12,6.148,0.121,12.301,0,18.448c-0.046,2.328,0.973,4.436,2.91,4.461c2.398,0.031,3.245-2.255,3.154-4.697
			C305.876,466.936,305.961,463.941,305.961,460.949z M311.962,460.462c0,3.158,0.084,6.318-0.026,9.474
			c-0.086,2.446,0.761,4.728,3.165,4.686c1.935-0.034,2.945-2.148,2.899-4.473c-0.121-6.147-0.119-12.3-0.001-18.448
			c0.045-2.33-0.989-4.43-2.932-4.437c-2.387-0.008-3.227,2.287-3.131,4.723C312.048,454.808,311.962,457.637,311.962,460.462z
			 M329.956,460.962c0-3.157-0.055-6.316,0.018-9.474c0.053-2.301-1.005-4.25-3.119-4.24c-1.708,0.008-2.935,1.786-2.913,3.952
			c0.063,6.482,0.066,12.966-0.002,19.447c-0.023,2.164,1.179,3.963,2.882,3.992c2.113,0.037,3.206-1.887,3.152-4.203
			C329.9,467.279,329.955,464.121,329.956,460.962z M335.962,461.029c0,3.158,0.034,6.316-0.012,9.474
			c-0.033,2.302,1.094,4.229,3.211,4.136c1.672-0.073,2.852-1.885,2.822-4.058c-0.087-6.315-0.093-12.633,0.004-18.948
			c0.036-2.318-0.983-4.341-2.993-4.377c-2.053-0.036-3.119,1.998-3.056,4.299C336.027,454.711,335.961,457.871,335.962,461.029z
			 M353.951,461.221c0-3.323-0.066-6.65,0.023-9.973c0.059-2.163-1.147-3.881-2.877-4.007c-1.846-0.136-3.122,1.591-3.127,3.7
			c-0.015,6.649,0,13.298-0.011,19.946c-0.004,2.142,1.268,3.844,3.084,3.761c1.742-0.081,2.981-1.784,2.928-3.953
			C353.892,467.539,353.951,464.38,353.951,461.221z M359.961,460.872c0,3.325,0.011,6.648-0.004,9.974
			c-0.009,2.128,1.236,3.85,3.051,3.8c1.761-0.049,2.972-1.759,2.957-3.907c-0.044-6.482-0.068-12.966,0.015-19.448
			c0.027-2.169-1.151-3.976-2.836-4.04c-2.121-0.082-3.233,1.848-3.197,4.147C359.996,454.556,359.959,457.715,359.961,460.872z
			 M377.949,461.354c0-3.324-0.032-6.648,0.011-9.973c0.03-2.298-1.087-4.228-3.211-4.131c-1.68,0.076-2.851,1.887-2.821,4.057
			c0.086,6.482,0.054,12.965,0.02,19.447c-0.012,2.138,1.193,3.858,2.972,3.891c1.811,0.033,3.042-1.697,3.032-3.817
			C377.937,467.669,377.947,464.512,377.949,461.354z M383.965,460.569c0,3.49,0.022,6.98-0.01,10.471
			c-0.018,1.97,1.305,3.501,2.761,3.61c1.912,0.145,3.187-1.552,3.203-3.611c0.056-6.648,0.013-13.297,0.033-19.945
			c0.007-2.122-1.204-3.855-3.001-3.854s-3.018,1.734-3,3.855C383.978,454.253,383.958,457.412,383.965,460.569z M401.949,461.423
			c0-3.157-0.084-6.318,0.026-9.474c0.086-2.445-0.761-4.728-3.165-4.686c-1.936,0.034-2.945,2.149-2.898,4.473
			c0.12,6.148,0.118,12.301,0,18.448c-0.045,2.331,0.989,4.43,2.933,4.437c2.387,0.008,3.227-2.286,3.131-4.723
			C401.863,467.077,401.949,464.249,401.949,461.423z M413.943,461.248c0-3.324-0.074-6.65,0.026-9.972
			c0.066-2.17-1.126-3.89-2.854-4.036c-1.858-0.159-3.138,1.583-3.147,3.673c-0.028,6.649-0.005,13.298-0.018,19.946
			c-0.004,2.132,1.246,3.845,3.062,3.784c1.76-0.058,2.99-1.767,2.946-3.922C413.896,467.564,413.943,464.406,413.943,461.248z
			 M425.944,461.61c0-3.324-0.091-6.652,0.031-9.973c0.086-2.322-0.979-4.342-2.988-4.382c-2.054-0.04-3.086,1.994-3.061,4.294
			c0.069,6.315,0.049,12.632,0.012,18.947c-0.014,2.3,1.084,4.229,3.207,4.138c1.681-0.072,2.906-1.876,2.825-4.051
			C425.859,467.597,425.942,464.603,425.944,461.61z M437.939,461.035c0-3.324-0.014-6.648,0.005-9.974
			c0.012-2.124-1.226-3.854-3.03-3.825c-1.772,0.028-2.986,1.75-2.975,3.888c0.034,6.483,0.067,12.967-0.021,19.448
			c-0.029,2.171,1.141,3.982,2.817,4.063c2.125,0.102,3.246-1.827,3.216-4.125C437.909,467.352,437.941,464.193,437.939,461.035z
			 M443.947,460.274c0,3.325,0.091,6.652-0.031,9.973c-0.086,2.323,0.979,4.342,2.988,4.382c2.054,0.04,3.086-1.993,3.061-4.294
			c-0.069-6.314-0.049-12.631-0.012-18.947c0.014-2.299-1.084-4.229-3.207-4.138c-1.681,0.072-2.906,1.877-2.825,4.051
			C444.032,454.288,443.949,457.283,443.947,460.274z M461.937,461.067c0-3.323-0.019-6.647,0.007-9.973
			c0.017-2.122-1.203-3.854-3-3.855s-3.008,1.732-3.002,3.854c0.02,6.482,0.066,12.966-0.027,19.446
			c-0.031,2.172,1.125,3.992,2.789,4.094c2.13,0.129,3.268-1.795,3.243-4.092C461.913,467.384,461.938,464.227,461.937,461.067z
			 M473.94,460.873c0-2.991-0.081-5.986,0.025-8.975c0.087-2.455-0.806-4.715-3.212-4.636c-1.947,0.064-2.896,2.219-2.852,4.525
			c0.119,6.147,0.11,12.3,0.006,18.448c-0.039,2.323,0.979,4.342,2.982,4.392c2.06,0.052,3.129-1.981,3.068-4.281
			C473.876,467.19,473.938,464.031,473.94,460.873z M107.992,460.873c0,3.325,0.011,6.648-0.004,9.973
			c-0.009,2.127,1.236,3.848,3.049,3.799c1.767-0.048,2.973-1.762,2.958-3.909c-0.043-6.482-0.068-12.965,0.015-19.447
			c0.028-2.169-1.152-3.975-2.837-4.038c-2.122-0.08-3.233,1.849-3.196,4.149C108.028,454.557,107.99,457.716,107.992,460.873z
			 M497.935,460.97c0-3.157-0.056-6.317,0.018-9.474c0.055-2.301-1.003-4.253-3.109-4.253c-1.707,0-2.941,1.779-2.921,3.946
			c0.062,6.482,0.066,12.966-0.004,19.447c-0.023,2.163,1.178,3.96,2.871,3.999c2.121,0.049,3.212-1.878,3.162-4.191
			C497.883,467.287,497.934,464.129,497.935,460.97z M509.923,460.773c0-3.323-0.014-6.648,0.005-9.973
			c0.011-1.962-1.323-3.49-2.794-3.566c-1.887-0.098-3.162,1.566-3.174,3.654c-0.034,6.649-0.008,13.298-0.021,19.946
			c-0.004,2.121,1.228,3.849,3.037,3.81c1.775-0.038,2.999-1.756,2.968-3.898C509.896,467.422,509.931,464.099,509.923,460.773z
			 M521.933,461.121c0-3.158-0.096-6.32,0.031-9.474c0.094-2.325-0.976-4.343-2.979-4.392c-2.059-0.049-3.093,1.986-3.068,4.284
			c0.066,6.316,0.05,12.633,0.01,18.948c-0.015,2.301,1.078,4.229,3.198,4.146c1.685-0.064,2.906-1.867,2.833-4.041
			C521.851,467.439,521.93,464.279,521.933,461.121z M533.933,461.405c0-3.157-0.083-6.318,0.026-9.474
			c0.086-2.45-0.77-4.727-3.182-4.669c-1.936,0.047-2.927,2.175-2.882,4.491c0.12,6.148,0.117,12.301,0.003,18.448
			c-0.043,2.33,0.967,4.348,2.953,4.426c2.074,0.082,3.154-1.948,3.098-4.248C533.874,467.39,533.931,464.397,533.933,461.405z
			 M545.918,460.778c0-3.324-0.014-6.648,0.006-9.974c0.013-1.963-1.324-3.495-2.788-3.574c-1.885-0.101-3.168,1.563-3.18,3.652
			c-0.036,6.648-0.009,13.298-0.021,19.946c-0.004,2.12,1.223,3.851,3.033,3.815c1.778-0.033,3-1.754,2.971-3.894
			C545.893,467.428,545.926,464.103,545.918,460.778z M485.938,461.173c0-3.157-0.109-6.321,0.036-9.473
			c0.107-2.334-0.957-4.352-2.938-4.443c-2.079-0.098-3.133,1.932-3.112,4.231c0.058,6.316,0.059,12.634,0,18.949
			c-0.021,2.315,1.068,4.318,3.146,4.192c1.968-0.119,3.021-2.152,2.903-4.482C485.823,467.162,485.938,464.165,485.938,461.173z
			 M563.933,460.906c0,3.158,0.057,6.317-0.019,9.474c-0.054,2.3,0.997,4.251,3.104,4.257c1.714,0.006,2.945-1.772,2.926-3.936
			c-0.058-6.481-0.067-12.964,0.006-19.446c0.024-2.163-1.165-3.964-2.864-4.007c-2.12-0.052-3.217,1.874-3.169,4.185
			C563.982,454.59,563.934,457.749,563.933,460.906z M581.927,460.938c0-2.991-0.085-5.986,0.026-8.975
			c0.091-2.441-0.755-4.729-3.152-4.699c-1.938,0.024-2.957,2.133-2.912,4.46c0.121,6.148,0.121,12.301,0,18.448
			c-0.044,2.33,0.982,4.433,2.921,4.449c2.394,0.021,3.234-2.27,3.144-4.709C581.842,466.924,581.927,463.93,581.927,460.938z
			 M125.979,461.035c0-3.324-0.014-6.648,0.005-9.974c0.012-2.124-1.225-3.854-3.029-3.825c-1.774,0.028-2.987,1.75-2.976,3.888
			c0.034,6.483,0.067,12.967-0.02,19.447c-0.029,2.172,1.14,3.983,2.817,4.063c2.126,0.102,3.247-1.827,3.216-4.125
			C125.949,467.352,125.98,464.193,125.979,461.035z M137.979,461.248c0-3.324-0.075-6.65,0.026-9.972
			c0.065-2.17-1.127-3.89-2.854-4.036c-1.858-0.159-3.138,1.583-3.147,3.673c-0.029,6.649-0.005,13.298-0.018,19.946
			c-0.004,2.132,1.246,3.845,3.061,3.784c1.76-0.058,2.991-1.768,2.948-3.922C137.931,467.564,137.978,464.406,137.979,461.248z
			 M149.98,460.876c0-2.991-0.082-5.986,0.025-8.975c0.088-2.455-0.801-4.717-3.209-4.639c-1.946,0.063-2.898,2.217-2.853,4.522
			c0.119,6.148,0.111,12.301,0.005,18.449c-0.04,2.325,0.981,4.341,2.978,4.395c2.063,0.056,3.132-1.979,3.073-4.278
			C149.917,467.193,149.979,464.035,149.98,460.876z M551.938,460.873c0,3.325,0.011,6.648-0.004,9.973
			c-0.01,2.127,1.235,3.848,3.048,3.799c1.769-0.048,2.974-1.762,2.959-3.909c-0.043-6.482-0.067-12.965,0.016-19.447
			c0.027-2.169-1.152-3.975-2.838-4.038c-2.121-0.08-3.231,1.849-3.195,4.149C551.973,454.557,551.936,457.716,551.938,460.873z"/>
		<path fill-rule="evenodd" clip-rule="evenodd" fill="none" d="M1,721.91c225.437,0,450.873,0,676.311,0
			c6.603,0,6.604-0.001,6.604-6.569c0.001-8.331,0.031-16.662-0.011-24.993c-0.029-6.055,0.701-5.415-5.232-5.423
			c-21.16-0.025-42.32,0.004-63.48-0.019c-5.981-0.006-5.234,0.588-5.297-5.389c-0.649-62.142-1.324-124.282-1.828-186.425
			c-0.021-2.611-2.424-6.606,3.147-7.818c1.299-0.282-0.002-4.447-0.979-6.686c-0.12-0.274-0.453-0.529-0.745-0.645
			c-6.168-2.428-5.747-7.606-5.61-12.861c0.185-7.16,0.057-14.329,0.037-21.493c-0.005-1.746,0.521-3.69-2.48-3.753
			c-2.289-0.047-1.465-2.216-1.515-3.511c-0.294-7.658-0.515-15.319-0.689-22.981c-1.136-49.802-2.233-99.605-3.383-149.408
			c-0.573-24.817-1.164-49.636-1.919-74.448c-0.116-3.838,0.48-6.802,4.231-8.55c2.184-1.019,2.898-2.816,2.818-5.283
			c-0.178-5.492-0.129-10.997-0.021-16.493c0.044-2.272-0.438-3.722-3.024-2.838c-3.721,1.271-6.681-0.244-9.836-2
			c-80.125-44.599-160.284-89.137-240.435-133.688c-5.539-3.078-6.146-5.932-2.182-10.988c1.728-2.204,1.922-4.285-0.135-6.187
			c-1.861-1.722-4.026-1.66-5.793,0.174c-1.966,2.042-1.594,4.132,0.254,6.184c3.5,3.887,2.93,7.747-1.47,10.194
			c-81.019,45.045-162.049,90.071-243.031,135.18c-2.698,1.503-5.203,1.932-8.067,1.15c-2.209-0.604-3.372-0.136-3.296,2.566
			c0.164,5.827,0.175,11.666-0.009,17.492c-0.078,2.468,1.237,3.718,3.033,4.663c3.164,1.665,4.129,4.056,4.036,7.67
			c-1.631,63.456-3.126,126.915-4.644,190.374c-0.45,18.82-0.863,37.644-1.332,56.464c-0.048,1.957,0.822,4.443-2.784,4.535
			c-1.967,0.05-1.203,2.077-1.212,3.228c-0.072,8.83-0.163,17.664,0.026,26.491c0.064,2.998-0.648,5.198-3.411,6.484
			c-3.1,1.442-4.106,4.107-4.37,7.237c-0.08,0.951-0.444,2.306,1.028,2.257c3.293-0.107,2.664,2.141,2.65,4.035
			c-0.094,12.829-0.185,25.657-0.319,38.486c-0.529,50.479-1.076,100.958-1.611,151.437c-0.06,5.655,0.5,5.141-5.048,5.144
			c-22.992,0.016-45.985,0.007-68.977,0.007C1,458.443,1,231.971,1,5.5c0-1,0.087-2.01-0.022-2.997
			C0.841,1.265,1.116,0.728,2.505,0.968C3.476,1.136,4.499,1,5.499,1c224.972,0,449.944,0,674.915,0c1,0,2.01,0.087,2.998-0.022
			c1.237-0.136,1.775,0.138,1.535,1.527c-0.168,0.971-0.032,1.994-0.032,2.994c0,237.637,0,475.275,0,712.911
			c0,1-0.087,2.01,0.021,2.998c0.137,1.236-0.136,1.775-1.526,1.535c-0.971-0.168-1.994-0.032-2.994-0.032
			c-224.972,0-449.944,0.003-674.916-0.062C4.037,722.848,2.109,724.002,1,721.91z"/>
		<path fill-rule="evenodd" clip-rule="evenodd" fill="none" d="M342.181,242.985c42.994,0.001,85.986,0.001,128.98,0.002
			c0.999,0,1.999,0.013,2.999,0.014c3.34,0.004,4.838,1.766,4.804,5.009c-0.013,1.167,0.007,2.333,0.007,3.5
			c-0.002,61.158-0.003,122.316-0.008,183.475c0,1.332,0.004,2.667-0.075,3.997c-0.108,1.832-1.414,1.942-2.85,1.953
			c-1.419,0.012-2.226-0.594-2.302-2.005c-0.08-1.496-0.093-2.997-0.093-4.495c-0.006-59.658,0.009-119.315-0.03-178.973
			c-0.005-7.427,1.176-7.02-6.907-7.021c-39.493-0.012-78.986-0.001-118.48-0.002c-43.989-0.001-87.978-0.008-131.967-0.007
			c-5.958,0.001-5.974,0.016-5.975,5.98c-0.006,59.991-0.006,119.98-0.01,179.971c0,1.332-0.021,2.665-0.029,3.998
			c-0.012,1.875-0.924,2.643-2.817,2.573c-1.672-0.062-2.435-0.796-2.444-2.42c-0.007-1.166-0.033-2.332-0.033-3.497
			c-0.003-61.326-0.004-122.65-0.004-183.976c0-1.166-0.005-2.333,0.023-3.499c0.076-3.071,1.708-4.542,4.732-4.559
			c1.666-0.009,3.333-0.019,4.999-0.019C257.195,242.984,299.688,242.984,342.181,242.985z"/>
		<path fill-rule="evenodd" clip-rule="evenodd" fill="none" d="M250.874,413.171c0.001-7.829,0.031-15.658-0.017-23.486
			c-0.014-2.251,0.138-4.503,2.106-5.849c3.162-2.162,2.999-5.16,2.829-8.418c-0.847-16.168,2.055-31.529,10.565-45.506
			c8.604-14.129,21.137-23.629,36.75-28.422c27.35-8.397,55.086-9.757,82.513-0.575c28.631,9.587,44.088,30.213,47.611,60.01
			c0.666,5.634,1.131,11.284,0.324,16.938c-0.294,2.063,0.361,3.589,1.973,4.771c2.565,1.88,3.094,4.521,3.087,7.501
			c-0.041,15.655-0.02,31.311-0.003,46.965c0.002,2.066,0.214,3.874-2.935,3.937c-3.296,0.065-3.315-1.643-3.307-4.06
			c0.054-14.82-0.008-29.643,0.026-44.464c0.005-2.219,0.126-4.363-2.05-5.768c-3.461-2.236-3.513-5.45-3.232-9.209
			c1.368-18.347-2.196-35.473-13.688-50.333c-8.135-10.519-19.035-17.279-31.611-20.813c-23.628-6.64-47.583-7.904-71.5-1.482
			c-31.035,8.334-48.959,31.808-49.322,64.017c-0.03,2.664-0.29,5.385,0.145,7.98c0.693,4.144,0.151,7.559-3.58,10.058
			c-1.994,1.335-1.513,3.531-1.514,5.494c-0.013,14.824,0.015,29.648-0.051,44.472c-0.006,1.329,0.806,3.09-1.182,3.895
			c-2.26,0.915-3.9-0.316-3.92-3.167C250.836,429.494,250.872,421.332,250.874,413.171z"/>
		<path fill-rule="evenodd" clip-rule="evenodd" fill="none" d="M298.181,639.216c0-13.325,0.012-26.649-0.009-39.975
			c-0.004-3.01-0.107-5.938,2.002-8.528c1.48-1.817,0.746-4.188,0.678-6.309c-0.352-10.895,0.372-21.65,4.1-32.006
			c5.614-15.588,16.283-24.956,33.183-25.988c22.47-1.374,37.399,7.479,43.761,32.468c2.199,8.638,2.43,17.448,2.112,26.295
			c-0.09,2.499-0.192,4.916,1.658,7.063c1.37,1.592,1.117,3.778,1.074,5.776c-0.604,27.815-0.951,55.636-0.821,83.458
			c0.012,2.49-0.592,3.54-3.309,3.52c-2.836-0.022-2.768-1.59-2.697-3.561c0.962-26.81,0.998-53.632,1.149-80.452
			c0.017-2.959,0.425-5.931-1.948-8.476c-1.313-1.408-0.657-3.471-0.513-5.305c0.86-10.901-0.221-21.587-3.448-32.072
			c-7.933-25.775-34.405-27.551-50.317-19.463c-10.188,5.178-14.36,14.938-16.726,25.456c-1.98,8.807-2.723,17.771-1.703,26.802
			c0.171,1.514,0.552,3.243-0.473,4.352c-2.599,2.813-2.098,6.144-2.081,9.436c0.136,26.155,0.233,52.311,1.038,78.457
			c0.049,1.593,1.056,3.812-1.455,4.664c-2.915,0.987-4.407-0.241-4.412-3.628c-0.018-13.994-0.007-27.988-0.007-41.983
			C298.739,639.216,298.46,639.216,298.181,639.216z"/>
		<path fill-rule="evenodd" clip-rule="evenodd" fill="none" d="M205.072,641.778c0-9.992-0.082-19.984,0.034-29.976
			c0.059-5.072-1.098-10.271,1.791-15.125c0.738-1.239,0.224-3.264,0.175-4.924c-0.277-9.366,0.364-18.63,2.892-27.708
			c0.808-2.901,1.851-5.703,3.146-8.41c5.103-10.663,13.383-16.797,25.347-17.441c13.818-0.744,24.292,4.543,30.332,17.375
			c5.239,11.129,6.324,23.011,6.103,35.108c-0.058,3.129-0.57,6.296,1.495,9.152c0.885,1.226,0.563,2.905,0.552,4.399
			c-0.185,25.482-0.977,50.958-0.628,76.444c0.009,0.665-0.089,1.331-0.084,1.996c0.012,1.705-0.852,2.28-2.497,2.256
			c-1.482-0.021-2.111-0.664-2.153-2.065c-0.059-1.995-0.257-3.996-0.172-5.984c1.017-23.803,0.615-47.623,0.955-71.434
			c0.007-0.5,0.161-1.067-0.019-1.489c-3.854-9.055-0.616-18.714-2.426-27.969c-1.25-6.39-2.403-12.737-5.318-18.645
			c-4.889-9.912-13.202-14.417-23.835-14.354c-10.431,0.063-18.659,4.534-23.353,14.298c-5.577,11.6-6.503,23.984-5.842,36.579
			c0.133,2.544,0.389,4.938-1.28,7.146c-1.074,1.424-0.708,3.207-0.694,4.855c0.193,23.151,0.395,46.302,0.631,69.453
			c0.019,1.823,0.392,3.64,0.44,5.465c0.049,1.848,0.903,4.162-2.5,4.163c-3.39,0.001-2.575-2.424-2.583-4.2
			c-0.051-10.989,0.001-21.98,0.019-32.971c0.003-1.998,0-3.997,0-5.996C205.423,641.778,205.247,641.778,205.072,641.778z"/>
		<path fill-rule="evenodd" clip-rule="evenodd" fill="none" d="M407.978,642.026c0-12.162,0.005-24.325-0.003-36.487
			c-0.002-2.665-0.122-5.284,1.518-7.689c1.19-1.747,0.614-3.896,0.557-5.869c-0.272-9.371,0.324-18.641,2.837-27.729
			c0.803-2.903,1.828-5.711,3.113-8.426c5.149-10.874,13.533-17.041,25.738-17.64c13.911-0.682,24.206,4.851,30.16,17.679
			c4.954,10.676,6.113,22.054,5.982,33.654c-0.04,3.615-0.623,7.256,1.59,10.643c0.983,1.506,0.45,3.589,0.435,5.415
			c-0.219,25.16-0.451,50.319-0.679,75.479c-0.006,0.666,0.016,1.333,0.001,1.999c-0.025,1.185-0.578,1.851-1.827,1.831
			c-1.173-0.019-2.468,0.103-2.568-1.568c-0.111-1.826-0.169-3.659-0.152-5.489c0.208-23.993,0.437-47.988,0.646-71.982
			c0.016-1.814,0.274-3.682-0.959-5.291c-1.439-1.879-1.253-4.017-1.056-6.22c0.857-9.55-0.09-18.967-2.467-28.229
			c-0.658-2.566-1.658-5.067-2.718-7.503c-4.555-10.478-12.885-15.593-24.025-15.621c-11.329-0.028-19.807,5.087-24.438,15.782
			c-4.818,11.125-5.759,22.848-5.157,34.765c0.137,2.704,0.485,5.262-1.329,7.626c-0.954,1.243-0.633,2.888-0.614,4.379
			c0.309,24.324-0.008,48.656,0.912,72.973c0.057,1.493-0.162,2.994-0.171,4.492c-0.009,1.574-0.901,1.912-2.258,1.912
			c-1.352,0.001-2.275-0.34-2.301-1.895c-0.024-1.5-0.12-2.999-0.121-4.498c-0.011-12.163-0.006-24.326-0.006-36.491
			C408.404,642.026,408.191,642.026,407.978,642.026z"/>
		<path fill-rule="evenodd" clip-rule="evenodd" fill="none" d="M161.978,460.894c-0.001,3.158-0.061,6.317,0.019,9.474
			c0.058,2.3-1.022,4.329-3.083,4.262c-1.993-0.065-3.01-2.083-2.968-4.412c0.11-6.147,0.116-12.3-0.003-18.448
			c-0.045-2.312,0.929-4.45,2.869-4.506c2.415-0.068,3.284,2.201,3.194,4.655C161.895,454.906,161.979,457.902,161.978,460.894z"/>
		<path fill-rule="evenodd" clip-rule="evenodd" fill="none" d="M167.984,460.873c-0.001-3.157,0.037-6.316-0.014-9.474
			c-0.037-2.301,1.075-4.229,3.196-4.149c1.686,0.063,2.865,1.869,2.837,4.038c-0.083,6.482-0.058,12.965-0.015,19.447
			c0.014,2.147-1.191,3.861-2.959,3.909c-1.813,0.049-3.058-1.672-3.049-3.799C167.996,467.521,167.985,464.198,167.984,460.873z"/>
		<path fill-rule="evenodd" clip-rule="evenodd" fill="none" d="M185.976,461.423c0,2.826-0.086,5.654,0.026,8.476
			c0.097,2.437-0.743,4.73-3.131,4.723c-1.942-0.007-2.976-2.105-2.932-4.437c0.118-6.147,0.12-12.3-0.001-18.448
			c-0.046-2.323,0.964-4.438,2.899-4.473c2.404-0.042,3.251,2.24,3.166,4.686C185.893,455.104,185.976,458.266,185.976,461.423z"/>
		<path fill-rule="evenodd" clip-rule="evenodd" fill="none" d="M197.975,460.938c0,2.992-0.085,5.986,0.026,8.975
			c0.091,2.439-0.75,4.729-3.143,4.709c-1.938-0.017-2.966-2.119-2.92-4.449c0.12-6.147,0.121-12.301,0-18.448
			c-0.046-2.327,0.975-4.436,2.911-4.46c2.398-0.029,3.243,2.258,3.152,4.699C197.89,454.951,197.975,457.946,197.975,460.938z"/>
		<path fill-rule="evenodd" clip-rule="evenodd" fill="none" d="M209.97,460.866c0,3.158-0.063,6.317,0.021,9.474
			c0.062,2.301-1.006,4.335-3.063,4.289c-2.005-0.045-3.023-2.065-2.986-4.388c0.101-6.314,0.093-12.632,0.005-18.948
			c-0.03-2.174,1.155-3.976,2.83-4.044c2.121-0.087,3.239,1.842,3.204,4.143C209.934,454.55,209.97,457.709,209.97,460.866z"/>
		<path fill-rule="evenodd" clip-rule="evenodd" fill="none" d="M221.971,461.435c0,2.826-0.085,5.654,0.026,8.476
			c0.096,2.439-0.749,4.729-3.141,4.711c-1.939-0.016-2.967-2.118-2.921-4.448c0.12-6.147,0.121-12.3,0-18.448
			c-0.046-2.327,0.974-4.436,2.91-4.461c2.399-0.031,3.24,2.256,3.154,4.697C221.888,455.116,221.971,458.277,221.971,461.435z"/>
		<path fill-rule="evenodd" clip-rule="evenodd" fill="none" d="M233.967,460.85c0,3.158-0.068,6.318,0.023,9.474
			c0.067,2.306-1.003,4.338-3.05,4.308c-2.009-0.029-3.035-2.049-3-4.369c0.097-6.314,0.091-12.633,0.003-18.948
			c-0.03-2.171,1.14-3.982,2.816-4.063c2.126-0.102,3.247,1.827,3.216,4.125C233.935,454.533,233.967,457.692,233.967,460.85z"/>
		<path fill-rule="evenodd" clip-rule="evenodd" fill="none" d="M239.972,461.009c0.001-3.158,0.063-6.317-0.02-9.475
			c-0.059-2.299,1.011-4.334,3.073-4.278c1.996,0.054,3.018,2.07,2.978,4.395c-0.106,6.149-0.114,12.302,0.005,18.449
			c0.045,2.307-0.907,4.459-2.853,4.522c-2.408,0.078-3.297-2.183-3.209-4.639C240.053,466.995,239.971,464.001,239.972,461.009z"/>
		<path fill-rule="evenodd" clip-rule="evenodd" fill="none" d="M257.966,460.688c0,3.159-0.112,6.321,0.037,9.473
			c0.11,2.332-0.943,4.357-2.915,4.468c-2.086,0.118-3.156-1.898-3.135-4.207c0.057-6.314,0.057-12.631,0-18.947
			c-0.021-2.304,1.042-4.326,3.126-4.217c1.974,0.104,3.04,2.124,2.923,4.457C257.853,454.699,257.966,457.697,257.966,460.688z"/>
		<path fill-rule="evenodd" clip-rule="evenodd" fill="none" d="M263.971,460.924c0-3.157,0.053-6.316-0.018-9.474
			c-0.052-2.312,1.032-4.243,3.153-4.201c1.695,0.033,2.904,1.823,2.88,3.988c-0.07,6.482-0.066,12.965-0.002,19.446
			c0.021,2.168-1.206,3.945-2.912,3.953c-2.115,0.01-3.172-1.938-3.12-4.239C264.024,467.241,263.971,464.082,263.971,460.924z"/>
		<path fill-rule="evenodd" clip-rule="evenodd" fill="none" d="M281.963,460.688c0,3.159-0.112,6.321,0.037,9.473
			c0.11,2.332-0.943,4.357-2.915,4.468c-2.086,0.118-3.156-1.898-3.135-4.207c0.057-6.314,0.057-12.631,0-18.947
			c-0.021-2.304,1.042-4.326,3.126-4.217c1.974,0.104,3.04,2.124,2.923,4.457C281.85,454.699,281.963,457.697,281.963,460.688z"/>
		<path fill-rule="evenodd" clip-rule="evenodd" fill="none" d="M293.962,461.435c0,2.826-0.085,5.654,0.026,8.476
			c0.096,2.439-0.749,4.729-3.141,4.711c-1.939-0.016-2.967-2.118-2.921-4.448c0.12-6.147,0.12-12.3,0-18.448
			c-0.046-2.327,0.973-4.436,2.91-4.461c2.398-0.031,3.24,2.256,3.154,4.697C293.879,455.116,293.962,458.277,293.962,461.435z"/>
		<path fill-rule="evenodd" clip-rule="evenodd" fill="none" d="M305.961,460.949c0,2.992-0.084,5.986,0.026,8.975
			c0.091,2.442-0.755,4.729-3.154,4.697c-1.937-0.025-2.956-2.133-2.91-4.461c0.121-6.147,0.12-12.3,0-18.448
			c-0.045-2.329,0.982-4.433,2.922-4.448c2.392-0.019,3.232,2.272,3.142,4.711C305.876,454.963,305.961,457.958,305.961,460.949z"/>
		<path fill-rule="evenodd" clip-rule="evenodd" fill="none" d="M311.962,460.462c0-2.825,0.086-5.654-0.026-8.476
			c-0.096-2.436,0.744-4.73,3.131-4.723c1.943,0.007,2.977,2.106,2.932,4.437c-0.118,6.148-0.12,12.301,0.001,18.448
			c0.046,2.324-0.964,4.438-2.899,4.473c-2.404,0.042-3.251-2.239-3.165-4.686C312.046,466.78,311.962,463.62,311.962,460.462z"/>
		<path fill-rule="evenodd" clip-rule="evenodd" fill="none" d="M329.955,460.962c0,3.159-0.055,6.317,0.019,9.475
			c0.054,2.316-1.039,4.24-3.152,4.203c-1.703-0.029-2.905-1.828-2.882-3.992c0.068-6.481,0.065-12.965,0.002-19.447
			c-0.021-2.166,1.205-3.944,2.913-3.952c2.114-0.01,3.171,1.939,3.119,4.24C329.901,454.646,329.956,457.805,329.955,460.962z"/>
		<path fill-rule="evenodd" clip-rule="evenodd" fill="none" d="M335.962,461.029c-0.001-3.158,0.065-6.318-0.023-9.475
			c-0.063-2.301,1.003-4.335,3.056-4.299c2.01,0.036,3.029,2.059,2.993,4.377c-0.097,6.315-0.091,12.633-0.004,18.948
			c0.03,2.173-1.15,3.984-2.822,4.058c-2.118,0.094-3.245-1.834-3.211-4.136C335.996,467.346,335.962,464.188,335.962,461.029z"/>
		<path fill-rule="evenodd" clip-rule="evenodd" fill="none" d="M353.951,461.221c0,3.159-0.06,6.318,0.021,9.475
			c0.054,2.169-1.186,3.872-2.928,3.953c-1.816,0.083-3.088-1.619-3.084-3.761c0.011-6.648-0.004-13.297,0.011-19.946
			c0.005-2.109,1.281-3.836,3.127-3.7c1.729,0.126,2.936,1.844,2.877,4.007C353.885,454.57,353.951,457.897,353.951,461.221z"/>
		<path fill-rule="evenodd" clip-rule="evenodd" fill="none" d="M359.96,460.872c-0.001-3.157,0.036-6.316-0.014-9.475
			c-0.036-2.3,1.076-4.229,3.197-4.147c1.685,0.064,2.863,1.871,2.836,4.04c-0.083,6.482-0.059,12.966-0.015,19.448
			c0.015,2.148-1.196,3.858-2.957,3.907c-1.814,0.05-3.06-1.672-3.051-3.8C359.972,467.521,359.961,464.197,359.96,460.872z"/>
		<path fill-rule="evenodd" clip-rule="evenodd" fill="none" d="M377.948,461.354c-0.001,3.158-0.012,6.315,0.003,9.474
			c0.01,2.12-1.222,3.851-3.032,3.817c-1.778-0.032-2.983-1.753-2.972-3.891c0.034-6.482,0.066-12.965-0.02-19.447
			c-0.029-2.17,1.142-3.98,2.821-4.057c2.124-0.097,3.241,1.833,3.211,4.131C377.917,454.705,377.949,458.029,377.948,461.354z"/>
		<path fill-rule="evenodd" clip-rule="evenodd" fill="none" d="M383.961,460.569c-0.003-3.157,0.017-6.316-0.01-9.475
			c-0.018-2.121,1.203-3.854,3-3.855s3.008,1.732,3.001,3.854c-0.021,6.648,0.022,13.297-0.033,19.945
			c-0.017,2.06-1.291,3.756-3.203,3.611c-1.456-0.109-2.778-1.641-2.761-3.61C383.987,467.55,383.965,464.06,383.961,460.569z"/>
		<path fill-rule="evenodd" clip-rule="evenodd" fill="none" d="M401.949,461.423c0,2.826-0.086,5.654,0.026,8.476
			c0.096,2.437-0.744,4.73-3.131,4.723c-1.943-0.007-2.978-2.105-2.933-4.437c0.118-6.147,0.12-12.3,0-18.448
			c-0.047-2.323,0.963-4.438,2.898-4.473c2.404-0.042,3.251,2.24,3.165,4.686C401.865,455.104,401.949,458.266,401.949,461.423z"/>
		<path fill-rule="evenodd" clip-rule="evenodd" fill="none" d="M413.943,461.248c0,3.158-0.048,6.316,0.016,9.474
			c0.044,2.155-1.187,3.864-2.946,3.922c-1.815,0.061-3.065-1.652-3.062-3.784c0.013-6.648-0.011-13.297,0.018-19.946
			c0.01-2.09,1.289-3.832,3.147-3.673c1.728,0.146,2.92,1.866,2.854,4.036C413.869,454.598,413.943,457.924,413.943,461.248z"/>
		<path fill-rule="evenodd" clip-rule="evenodd" fill="none" d="M425.943,461.61c-0.001,2.992-0.084,5.986,0.027,8.974
			c0.081,2.175-1.145,3.979-2.825,4.051c-2.123,0.091-3.221-1.838-3.207-4.138c0.037-6.315,0.058-12.632-0.012-18.947
			c-0.025-2.3,1.007-4.334,3.061-4.294c2.009,0.04,3.074,2.06,2.988,4.382C425.854,454.958,425.944,458.286,425.943,461.61z"/>
		<path fill-rule="evenodd" clip-rule="evenodd" fill="none" d="M437.94,461.035c0.001,3.158-0.031,6.316,0.012,9.475
			c0.03,2.298-1.091,4.227-3.216,4.125c-1.677-0.08-2.847-1.892-2.817-4.063c0.088-6.481,0.055-12.965,0.021-19.448
			c-0.012-2.138,1.202-3.859,2.975-3.888c1.805-0.029,3.042,1.701,3.03,3.825C437.926,454.387,437.939,457.711,437.94,461.035z"/>
		<path fill-rule="evenodd" clip-rule="evenodd" fill="none" d="M443.948,460.274c0.001-2.991,0.084-5.986-0.027-8.974
			c-0.081-2.174,1.145-3.979,2.825-4.051c2.123-0.091,3.221,1.839,3.207,4.138c-0.037,6.316-0.058,12.633,0.012,18.947
			c0.025,2.301-1.007,4.334-3.061,4.294c-2.009-0.04-3.074-2.059-2.988-4.382C444.038,466.927,443.947,463.6,443.948,460.274z"/>
		<path fill-rule="evenodd" clip-rule="evenodd" fill="none" d="M461.938,461.067c0.001,3.159-0.024,6.316,0.009,9.475
			c0.024,2.297-1.113,4.221-3.243,4.092c-1.664-0.102-2.82-1.922-2.789-4.094c0.094-6.48,0.047-12.964,0.027-19.446
			c-0.006-2.122,1.205-3.855,3.002-3.854s3.017,1.733,3,3.855C461.918,454.42,461.937,457.744,461.938,461.067z"/>
		<path fill-rule="evenodd" clip-rule="evenodd" fill="none" d="M473.939,460.873c-0.001,3.158-0.063,6.317,0.02,9.474
			c0.061,2.3-1.009,4.333-3.068,4.281c-2.003-0.05-3.021-2.068-2.982-4.392c0.104-6.148,0.113-12.301-0.006-18.448
			c-0.045-2.307,0.904-4.461,2.852-4.525c2.406-0.079,3.299,2.181,3.212,4.636C473.859,454.887,473.94,457.882,473.939,460.873z"/>
		<path fill-rule="evenodd" clip-rule="evenodd" fill="none" d="M107.991,460.873c-0.001-3.157,0.037-6.316-0.014-9.474
			c-0.037-2.301,1.075-4.229,3.196-4.149c1.685,0.063,2.865,1.869,2.837,4.038c-0.083,6.482-0.058,12.965-0.015,19.447
			c0.014,2.147-1.191,3.861-2.958,3.909c-1.813,0.049-3.059-1.672-3.049-3.799C108.003,467.521,107.992,464.198,107.991,460.873z"/>
		<path fill-rule="evenodd" clip-rule="evenodd" fill="none" d="M497.934,460.97c0,3.159-0.051,6.317,0.018,9.475
			c0.05,2.313-1.041,4.24-3.162,4.191c-1.693-0.039-2.895-1.836-2.871-3.999c0.07-6.481,0.065-12.965,0.004-19.447
			c-0.021-2.167,1.214-3.946,2.921-3.946c2.106,0,3.164,1.952,3.109,4.253C497.879,454.652,497.935,457.813,497.934,460.97z"/>
		<path fill-rule="evenodd" clip-rule="evenodd" fill="none" d="M509.927,460.773c0.004,3.325-0.031,6.648,0.018,9.973
			c0.031,2.143-1.192,3.86-2.968,3.898c-1.81,0.039-3.041-1.688-3.037-3.81c0.013-6.648-0.014-13.297,0.021-19.946
			c0.012-2.088,1.287-3.752,3.174-3.654c1.471,0.076,2.805,1.604,2.794,3.566C509.909,454.125,509.923,457.45,509.927,460.773z"/>
		<path fill-rule="evenodd" clip-rule="evenodd" fill="none" d="M521.931,461.121c-0.001,3.158-0.08,6.318,0.026,9.473
			c0.073,2.174-1.148,3.977-2.833,4.041c-2.12,0.082-3.213-1.846-3.198-4.146c0.04-6.315,0.057-12.632-0.01-18.948
			c-0.024-2.298,1.01-4.333,3.068-4.284c2.004,0.049,3.073,2.066,2.979,4.392C521.837,454.801,521.933,457.963,521.931,461.121z"/>
		<path fill-rule="evenodd" clip-rule="evenodd" fill="none" d="M533.932,461.405c-0.001,2.992-0.058,5.984,0.018,8.975
			c0.057,2.3-1.023,4.33-3.098,4.248c-1.986-0.078-2.996-2.096-2.953-4.426c0.114-6.147,0.117-12.3-0.003-18.448
			c-0.045-2.316,0.946-4.444,2.882-4.491c2.412-0.058,3.268,2.219,3.182,4.669C533.85,455.087,533.933,458.248,533.932,461.405z"/>
		<path fill-rule="evenodd" clip-rule="evenodd" fill="none" d="M545.922,460.778c0.004,3.324-0.029,6.649,0.017,9.973
			c0.029,2.14-1.192,3.86-2.971,3.894c-1.811,0.035-3.037-1.695-3.033-3.815c0.013-6.648-0.015-13.298,0.021-19.946
			c0.012-2.089,1.295-3.753,3.18-3.652c1.464,0.079,2.801,1.611,2.788,3.574C545.904,454.13,545.918,457.454,545.922,460.778z"/>
		<path fill-rule="evenodd" clip-rule="evenodd" fill="none" d="M485.938,461.173c0,2.992-0.114,5.989,0.036,8.975
			c0.118,2.33-0.936,4.363-2.903,4.482c-2.078,0.126-3.168-1.877-3.146-4.192c0.059-6.315,0.058-12.633,0-18.949
			c-0.021-2.3,1.033-4.329,3.112-4.231c1.98,0.092,3.045,2.109,2.938,4.443C485.828,454.852,485.938,458.016,485.938,461.173z"/>
		<path fill-rule="evenodd" clip-rule="evenodd" fill="none" d="M563.934,460.906c0-3.157,0.049-6.316-0.017-9.474
			c-0.048-2.311,1.049-4.236,3.169-4.185c1.699,0.043,2.889,1.844,2.864,4.007c-0.073,6.482-0.063,12.965-0.006,19.446
			c0.02,2.163-1.212,3.941-2.926,3.936c-2.107-0.006-3.158-1.957-3.104-4.257C563.989,467.224,563.933,464.064,563.934,460.906z"/>
		<path fill-rule="evenodd" clip-rule="evenodd" fill="none" d="M581.927,460.938c0,2.992-0.085,5.986,0.026,8.975
			c0.091,2.439-0.75,4.729-3.144,4.709c-1.938-0.017-2.965-2.119-2.921-4.449c0.121-6.147,0.121-12.3,0-18.448
			c-0.045-2.327,0.975-4.436,2.912-4.46c2.397-0.029,3.243,2.258,3.152,4.699C581.842,454.951,581.927,457.946,581.927,460.938z"/>
		<path fill-rule="evenodd" clip-rule="evenodd" fill="none" d="M125.979,461.035c0.001,3.158-0.031,6.316,0.012,9.475
			c0.031,2.298-1.09,4.227-3.216,4.125c-1.677-0.08-2.846-1.892-2.817-4.063c0.087-6.48,0.054-12.964,0.02-19.447
			c-0.011-2.138,1.202-3.859,2.976-3.888c1.804-0.029,3.041,1.701,3.029,3.825C125.965,454.387,125.979,457.711,125.979,461.035z"/>
		<path fill-rule="evenodd" clip-rule="evenodd" fill="none" d="M137.978,461.248c0,3.158-0.047,6.316,0.016,9.474
			c0.043,2.154-1.188,3.864-2.948,3.922c-1.815,0.061-3.065-1.652-3.061-3.784c0.013-6.648-0.011-13.297,0.018-19.946
			c0.009-2.09,1.289-3.832,3.147-3.673c1.728,0.146,2.92,1.866,2.854,4.036C137.904,454.598,137.979,457.924,137.978,461.248z"/>
		<path fill-rule="evenodd" clip-rule="evenodd" fill="none" d="M149.979,460.876c-0.001,3.159-0.063,6.317,0.019,9.475
			c0.06,2.3-1.01,4.334-3.073,4.278c-1.996-0.054-3.018-2.069-2.978-4.395c0.106-6.148,0.114-12.301-0.005-18.449
			c-0.045-2.306,0.907-4.459,2.853-4.522c2.408-0.078,3.297,2.184,3.209,4.639C149.899,454.89,149.98,457.885,149.979,460.876z"/>
		<path fill-rule="evenodd" clip-rule="evenodd" fill="none" d="M551.937,460.873c-0.001-3.157,0.036-6.316-0.014-9.474
			c-0.036-2.301,1.074-4.229,3.195-4.149c1.686,0.063,2.865,1.869,2.838,4.038c-0.083,6.482-0.059,12.965-0.016,19.447
			c0.015,2.147-1.19,3.861-2.959,3.909c-1.813,0.049-3.058-1.672-3.048-3.799C551.948,467.521,551.938,464.198,551.937,460.873z"/>
	</g>
</g>
</svg>
