<?xml version="1.0" encoding="utf-8"?>
<!-- Generator: Adobe Illustrator 16.0.0, SVG Export Plug-In . SVG Version: 6.00 Build 0)  -->
<!DOCTYPE svg PUBLIC "-//W3C//DTD SVG 1.1//EN" "http://www.w3.org/Graphics/SVG/1.1/DTD/svg11.dtd">
<svg version="1.1" id="Layer_1" xmlns="http://www.w3.org/2000/svg" xmlns:xlink="http://www.w3.org/1999/xlink" x="0px" y="0px"
	 width="295.963px" height="279.965px" viewBox="0 0 295.963 279.965" enable-background="new 0 0 295.963 279.965"
	 xml:space="preserve">
<g>
	<g>
		<path fill-rule="evenodd" clip-rule="evenodd" fill="none" d="M150.981,1c47.827,0,95.654,0.036,143.481-0.085
			c2.998-0.008,3.587,0.587,3.584,3.584c-0.104,91.321-0.104,182.644,0,273.965c0.003,2.997-0.586,3.587-3.584,3.584
			c-96.654-0.102-193.309-0.102-289.963,0c-2.997,0.003-3.591-0.585-3.585-3.584C1.03,221.972,1,165.479,1,108.986
			c0.374-0.029,0.747-0.058,1.12-0.087c0.806,0.12,1.81-0.027,2.39,0.399c27.46,20.202,54.885,40.454,82.313,60.699
			c-6.134,6.121-1.239,12.697-0.787,19.09c-1.235,4.496-2.272,9.059-3.738,13.477c-8.364,25.208-16.843,50.377-25.207,75.585
			c-0.256,0.771,0.31,1.816,0.492,2.734c0.601-0.396,1.217-0.771,1.8-1.189c35.792-25.721,71.892-51.031,107.116-77.507
			c7.224-5.43,18.462-7.707,20.35-19.164c0.646-0.009,1.29-0.018,1.935-0.026c3.029,9.761,6.087,19.514,9.077,29.287
			c1.661,5.43,3.21,10.895,4.809,16.345c-4.265-2.978-8.388-6.189-12.822-8.886c-11.253-6.845-21.116-23.21-36.248-5.033
			c-2.259,2.714-0.58,3.506,0.303,4.144c28.149,20.318,56.389,40.511,84.626,60.707c0.642,0.458,1.403,0.748,2.108,1.116
			c0.096-0.972,0.52-2.052,0.239-2.898c-4.231-12.747-8.701-25.416-12.824-38.198c-7.142-22.139-14.083-44.342-21.108-66.519
			c0.066-0.808,0.133-1.615,0.199-2.423c1.256-0.071,2.855,0.335,3.716-0.285c26.65-19.197,53.257-38.457,79.769-57.845
			c2.408-1.761,4.137-4.451,6.182-6.708c-3.01-0.271-6.019-0.773-9.027-0.776c-48.593-0.049-97.186-0.056-145.778,0.05
			c-1.707,0.003-4.553-1.735-5.133,1.877c-0.68-0.001-1.359-0.002-2.039-0.004c4.079-13.939,8.157-27.88,12.236-41.821
			c1.281-0.006,2.563-0.012,3.844-0.018c1.36,4.939,2.354,10.017,4.154,14.789c4.413,11.699,4.104,28.61,24.808,23.234
			c2.395-0.622,3.834-0.841,2.972-3.422c-4.311-12.907-8.891-25.727-13.05-38.683C163.385,41.063,157.239,21.013,150.981,1z"/>
		<path fill-rule="evenodd" clip-rule="evenodd" fill="none" d="M1,104.987C1,71.558,1.062,38.129,0.903,4.701
			C0.887,1.415,1.678,0.908,4.784,0.916C52.183,1.037,99.582,1,146.981,1c-4.929,15.991-9.746,32.018-14.814,47.964
			c-6.361,20.016-12.928,39.967-19.406,59.945c-0.958-1.291-1.916-2.583-2.874-3.875C73.592,105.019,37.296,105.002,1,104.987z"/>
		<path fill-rule="evenodd" clip-rule="evenodd" d="M1,104.987c36.296,0.016,72.592,0.032,108.888,0.049
			c-0.262,1.993-0.523,3.987-0.785,5.979c-0.788,3.3-1.575,6.598-2.363,9.897c-0.532,0.706-1.063,1.413-1.595,2.12
			c-0.18,3.089-2.564,1.955-4.098,1.965c-12.14,0.079-24.279,0.033-36.419,0.064c-1.095,0.002-2.19,0.275-3.286,0.423
			c0.642,0.923,1.093,2.106,1.953,2.73c23.362,16.951,46.559,34.142,70.245,50.631c13.129,9.142,14.132,9.788,7.465,14.318
			c-4.421,1.517-7.255,9.2-12.162,6.101c-14.416-9.106-28.069-19.424-42.02-29.267C59.395,149.753,31.971,129.5,4.51,109.299
			c-0.581-0.427-1.584-0.279-2.39-0.399c-0.373-0.638-0.747-1.275-1.12-1.913C1,106.32,1,105.654,1,104.987z"/>
		<path fill-rule="evenodd" clip-rule="evenodd" d="M112.762,108.909c6.478-19.978,13.045-39.929,19.406-59.945
			c5.068-15.947,9.885-31.973,14.814-47.964c1.333,0,2.666,0,4,0c6.258,20.013,12.403,40.063,18.813,60.027
			c4.159,12.956,8.739,25.775,13.05,38.683c0.862,2.581-0.577,2.8-2.972,3.422c-20.703,5.376-20.395-11.535-24.808-23.234
			c-1.801-4.772-2.794-9.85-4.154-14.789c-0.545-0.68-1.089-1.36-1.634-2.04c-0.736,0.686-1.473,1.371-2.21,2.057
			c-4.079,13.941-8.157,27.881-12.236,41.822c-0.54,0.701-1.081,1.402-1.622,2.104c-5.448,17.288-10.896,34.575-16.345,51.862
			c-1.011,0.065-2.021,0.132-3.032,0.197c-6.285-5.118-18.266-6.39-12.188-19.619c2.654-5.778,3.715-12.288,5.499-18.465
			c0.55-0.697,1.1-1.394,1.65-2.091c0.784-3.303,1.567-6.606,2.351-9.909C111.683,110.321,112.222,109.615,112.762,108.909z"/>
		<path fill-rule="evenodd" clip-rule="evenodd" fill="#C0AFAD" d="M1,106.986c0.374,0.638,0.747,1.275,1.12,1.913
			c-0.373,0.029-0.747,0.058-1.12,0.087C1,108.319,1,107.653,1,106.986z"/>
		<path fill-rule="evenodd" clip-rule="evenodd" d="M136.87,106.951c0.58-3.613,3.426-1.875,5.133-1.877
			c48.593-0.105,97.186-0.099,145.778-0.05c3.009,0.003,6.018,0.506,9.027,0.776c-2.045,2.257-3.773,4.947-6.182,6.708
			c-26.512,19.388-53.118,38.648-79.769,57.845c-0.86,0.62-2.46,0.214-3.716,0.285c1.51-7.748-10.1-15.695,0.114-23.212
			c8.688-6.394,17.699-12.346,26.507-18.578c1.151-0.814,1.947-2.13,2.907-3.213c-1.227-0.198-2.453-0.568-3.679-0.567
			c-13.986,0.001-27.972,0.06-41.958,0.103c-6.704-0.002-13.408-0.004-20.112-0.005c-10.598-0.04-21.247-0.743-31.774,0.093
			c-8.169,0.648-8.423-2.226-5.878-8.327c1.038-2.488,1.475-5.228,2.185-7.854C135.926,108.369,136.398,107.66,136.87,106.951z"/>
		<path fill-rule="evenodd" clip-rule="evenodd" d="M186.851,183.023c-1.889,11.457-13.127,13.734-20.351,19.164
			c-35.225,26.476-71.324,51.786-107.116,77.507c-0.583,0.419-1.2,0.794-1.8,1.189c-0.183-0.918-0.749-1.963-0.492-2.734
			c8.364-25.208,16.843-50.377,25.207-75.585c1.466-4.418,2.503-8.98,3.738-13.477c0.66-2.011,1.32-4.022,1.979-6.034
			c0.269-0.353,0.538-0.705,0.807-1.058c0.421-2.514,1.687-7.037,3.942-4.688c4.757,4.955,16.231,5.267,13.568,15.543
			c-2.879,11.106-7.406,21.782-11.141,32.672c-0.298,0.87-0.076,1.942,0.053,2.901c0.014,0.104,1.196,0.323,1.53,0.076
			c15.087-11.202,30.14-22.45,45.197-33.691c9.704-6.861,19.249-13.972,29.21-20.438c3.11-2.02,4.96-6.878,10.005-5.419
			C183.074,173.644,184.963,178.333,186.851,183.023z"/>
		<path fill-rule="evenodd" clip-rule="evenodd" d="M206.943,173.062c7.025,22.177,13.967,44.38,21.108,66.519
			c4.123,12.782,8.593,25.451,12.824,38.198c0.28,0.847-0.144,1.927-0.239,2.898c-0.705-0.368-1.467-0.658-2.108-1.116
			c-28.237-20.196-56.477-40.389-84.626-60.707c-0.883-0.638-2.562-1.43-0.303-4.144c15.132-18.177,24.995-1.812,36.248,5.033
			c4.435,2.696,8.558,5.908,12.822,8.886c-1.599-5.45-3.147-10.915-4.809-16.345c-2.99-9.773-6.048-19.526-9.077-29.287
			c-1.803-4.715-3.605-9.429-5.408-14.145c-0.473-2.003-0.856-4.034-1.433-6.009c-3.314-11.35-6.675-22.687-10.019-34.029
			c6.369-0.004,12.739-0.009,19.108-0.013c0.645,0.956,1.536,1.827,1.896,2.879C197.645,145.46,202.285,159.265,206.943,173.062z"/>
		<path fill-rule="evenodd" clip-rule="evenodd" fill="none" d="M88.016,183.054c-0.659,2.012-1.319,4.023-1.979,6.034
			c-0.452-6.393-5.347-12.969,0.787-19.09c13.951,9.843,27.604,20.16,42.02,29.267c4.907,3.1,7.74-4.584,12.162-6.101
			c0.322,0.549,0.645,1.097,0.967,1.646c-15.057,11.241-30.11,22.489-45.197,33.691c-0.333,0.247-1.516,0.028-1.53-0.076
			c-0.128-0.959-0.351-2.031-0.053-2.901c3.735-10.89,8.262-21.565,11.141-32.672c2.664-10.276-8.811-10.588-13.568-15.543
			c-2.256-2.35-3.521,2.174-3.942,4.688C88.554,182.349,88.285,182.701,88.016,183.054z"/>
		<path fill-rule="evenodd" clip-rule="evenodd" fill="none" d="M206.943,173.062c-4.658-13.797-9.299-27.602-14.014-41.38
			c-0.36-1.053-1.252-1.923-1.896-2.879c0-1.211,0.001-2.421,0.001-3.631c13.986-0.043,27.972-0.102,41.958-0.103
			c1.226-0.001,2.452,0.369,3.679,0.567c-0.96,1.083-1.756,2.399-2.907,3.213c-8.808,6.231-17.819,12.184-26.507,18.578
			c-10.214,7.517,1.396,15.464-0.114,23.212C207.076,171.446,207.01,172.254,206.943,173.062z"/>
		<path fill-rule="evenodd" clip-rule="evenodd" fill="none" d="M183.376,168.853c1.803,4.716,3.605,9.43,5.408,14.145
			c-0.645,0.009-1.289,0.018-1.935,0.026c-1.887-4.69-3.775-9.38-5.662-14.071C181.917,168.919,182.646,168.886,183.376,168.853z"/>
		<path fill-rule="evenodd" clip-rule="evenodd" fill="#3E2E27" d="M147.067,65.126c0.737-0.687,1.474-1.372,2.21-2.057
			c0.545,0.68,1.089,1.36,1.634,2.04C149.63,65.115,148.349,65.121,147.067,65.126z"/>
		<path fill-rule="evenodd" clip-rule="evenodd" fill="#CFC1C1" d="M136.87,106.951c-0.472,0.709-0.944,1.418-1.415,2.127
			c-0.749-0.009-1.497-0.018-2.246-0.026c0.541-0.701,1.082-1.402,1.622-2.104C135.511,106.949,136.19,106.95,136.87,106.951z"/>
		<path fill-rule="evenodd" clip-rule="evenodd" fill="#CABBBB" d="M112.762,108.909c-0.54,0.706-1.079,1.412-1.618,2.117
			c-0.68-0.003-1.36-0.007-2.04-0.011c0.262-1.993,0.523-3.987,0.785-5.979C110.846,106.327,111.804,107.618,112.762,108.909z"/>
		<path fill-rule="evenodd" clip-rule="evenodd" fill="none" d="M133.209,109.052c0.749,0.009,1.498,0.018,2.246,0.026
			c-0.711,2.625-1.147,5.366-2.186,7.854c-2.545,6.102-2.291,8.976,5.878,8.327c10.527-0.836,21.177-0.133,31.774-0.093
			c0.334,1.217,0.668,2.433,1.003,3.649c3.344,11.342,6.704,22.679,10.019,34.029c0.576,1.975,0.96,4.006,1.433,6.009
			c-0.729,0.033-1.459,0.066-2.188,0.1c-5.046-1.459-6.896,3.399-10.006,5.419c-9.961,6.467-19.506,13.577-29.21,20.438
			c-0.322-0.549-0.645-1.097-0.967-1.646c6.667-4.53,5.665-5.177-7.465-14.318c-23.686-16.489-46.882-33.681-70.245-50.631
			c-0.859-0.624-1.311-1.807-1.953-2.73c1.095-0.147,2.19-0.421,3.286-0.423c12.14-0.031,24.28,0.015,36.419-0.064
			c1.534-0.01,3.918,1.124,4.098-1.965c0.666-0.002,1.332-0.003,1.998-0.005c-1.784,6.177-2.845,12.687-5.499,18.465
			c-6.078,13.229,5.903,14.501,12.188,19.619c0.69,0.624,1.38,1.248,2.071,1.872c0.32-0.689,0.641-1.379,0.961-2.069
			C122.313,143.627,127.761,126.34,133.209,109.052z"/>
		<path fill-rule="evenodd" clip-rule="evenodd" fill="none" d="M109.104,111.015c0.68,0.004,1.36,0.008,2.04,0.011
			c-0.783,3.304-1.567,6.607-2.351,9.91c-0.684-0.008-1.368-0.016-2.052-0.023C107.528,117.613,108.316,114.315,109.104,111.015z"/>
		<path fill-rule="evenodd" clip-rule="evenodd" fill="#D0C1C2" d="M106.741,120.913c0.684,0.008,1.368,0.016,2.052,0.023
			c-0.55,0.697-1.1,1.395-1.65,2.091c-0.666,0.002-1.332,0.003-1.998,0.005C105.677,122.326,106.209,121.619,106.741,120.913z"/>
		<path fill-rule="evenodd" clip-rule="evenodd" fill="#6E5A56" d="M116.864,160.914c-0.32,0.69-0.641,1.38-0.961,2.069
			c-0.69-0.624-1.38-1.248-2.071-1.872C114.843,161.046,115.853,160.979,116.864,160.914z"/>
		<path fill-rule="evenodd" clip-rule="evenodd" fill="#CFC1C1" d="M171.925,128.815c-0.335-1.216-0.669-2.432-1.003-3.649
			c6.704,0.001,13.408,0.003,20.112,0.005c0,1.21-0.001,2.42-0.001,3.631C184.664,128.806,178.294,128.811,171.925,128.815z"/>
		<path fill-rule="evenodd" clip-rule="evenodd" fill="none" d="M88.016,183.054c0.269-0.353,0.538-0.705,0.807-1.058
			C88.554,182.349,88.285,182.701,88.016,183.054z"/>
	</g>
</g>
</svg>
