<?xml version="1.0" encoding="utf-8"?>
<!-- Generator: Adobe Illustrator 16.0.0, SVG Export Plug-In . SVG Version: 6.00 Build 0)  -->
<!DOCTYPE svg PUBLIC "-//W3C//DTD SVG 1.1//EN" "http://www.w3.org/Graphics/SVG/1.1/DTD/svg11.dtd">
<svg version="1.1" id="Layer_1" xmlns="http://www.w3.org/2000/svg" xmlns:xlink="http://www.w3.org/1999/xlink" x="0px" y="0px"
	 width="100.435px" height="99.908px" viewBox="0 0 100.435 99.908" enable-background="new 0 0 100.435 99.908"
	 xml:space="preserve">
<g>
	<g>
		<path fill-rule="evenodd" clip-rule="evenodd" fill="none" d="M75.375-9.877c11.499,0,22.997,0.028,34.496-0.039
			c1.301-0.008,1.539,0.239,1.537,1.539c-0.046,39.329-0.046,78.658,0,117.986c0.002,1.3-0.238,1.539-1.537,1.538
			c-39.329-0.047-78.657-0.047-117.986,0c-1.299,0.001-1.547-0.237-1.539-1.538c0.068-11.499,0.04-22.997,0.04-34.496
			c0.333,0,0.667,0,1,0c-0.121,0.841,0.636,1.11,1.068,1.545C2.9,87.133,13.361,97.593,23.837,108.039
			c0.434,0.434,0.704,1.19,1.545,1.069c-0.114,0.632,0.275,0.982,0.791,0.983c16.138,0.021,32.275,0.021,48.413,0
			c0.515-0.001,0.904-0.352,0.79-0.983c0.841,0.121,1.111-0.636,1.545-1.069c10.477-10.445,20.937-20.905,31.382-31.382
			c0.434-0.435,1.19-0.704,1.069-1.545c0.631,0.113,0.982-0.275,0.982-0.79c0.021-16.138,0.021-32.276,0-48.414
			c0-0.515-0.352-0.903-0.982-0.79c-0.84,0.121-1.11-0.636-1.545-1.069C97.351,13.604,86.89,3.143,76.445-7.333
			c-0.433-0.435-1.19-0.704-1.069-1.544C75.375-9.21,75.375-9.544,75.375-9.877z"/>
		<path fill-rule="evenodd" clip-rule="evenodd" fill="none" d="M-9.614,25.118c0-11.166,0.029-22.331-0.04-33.496
			c-0.008-1.3,0.239-1.547,1.539-1.539C3.051-9.848,14.217-9.877,25.382-9.877c0,0.333,0,0.667,0,1
			c0.121,0.84-0.636,1.11-1.069,1.544C13.868,3.143,3.407,13.604-7.069,24.049c-0.434,0.434-0.704,1.19-1.544,1.069
			C-8.947,25.118-9.28,25.118-9.614,25.118z"/>
		<path fill-rule="evenodd" clip-rule="evenodd" fill="#414141" d="M25.382-8.877c0-0.333,0-0.667,0-1c16.665,0,33.33,0,49.994,0
			c0,0.333,0,0.667,0,1C58.711-8.877,42.046-8.877,25.382-8.877z"/>
		<path fill-rule="evenodd" clip-rule="evenodd" fill="#202020" d="M-9.614,25.118c0.333,0,0.667,0,1,0c0,16.665,0,33.329,0,49.994
			c-0.333,0-0.667,0-1,0C-9.614,58.447-9.614,41.783-9.614,25.118z"/>
		<path fill-rule="evenodd" clip-rule="evenodd" fill="none" d="M-8.614,75.112c0-16.665,0-33.329,0-49.994
			c0.84,0.121,1.11-0.636,1.544-1.069C3.407,13.604,13.868,3.143,24.313-7.333c0.433-0.435,1.19-0.704,1.069-1.544
			c16.665,0,33.33,0,49.994,0c-0.121,0.84,0.637,1.11,1.069,1.544C86.89,3.143,97.351,13.604,107.827,24.049
			c0.435,0.434,0.705,1.19,1.545,1.069c0,16.665,0,33.329,0,49.994c0.121,0.841-0.636,1.11-1.069,1.545
			C97.857,87.133,87.397,97.593,76.92,108.039c-0.434,0.434-0.704,1.19-1.545,1.069c-16.664,0-33.329,0-49.994,0
			c-0.841,0.121-1.111-0.636-1.545-1.069C13.361,97.593,2.9,87.133-7.545,76.657C-7.978,76.222-8.735,75.953-8.614,75.112z
			 M50.08,100.109c6.493,0,12.985-0.038,19.477,0.027c1.572,0.017,2.73-0.36,3.889-1.535c8.417-8.531,16.893-17.007,25.425-25.424
			c1.176-1.159,1.535-2.321,1.529-3.89c-0.047-12.484-0.058-24.97,0.013-37.455c0.009-1.625-0.497-2.728-1.628-3.849
			c-8.868-8.788-17.699-17.613-26.478-26.49c-1.028-1.04-2.006-1.414-3.443-1.407C56.211,0.146,43.56,0.145,30.909,0.089
			c-1.429-0.006-2.415,0.347-3.45,1.394C18.921,10.128,10.336,18.729,1.673,27.25c-1.094,1.077-1.309,2.115-1.306,3.485
			C0.396,43.72,0.421,56.705,0.335,69.688c-0.01,1.504,0.503,2.421,1.497,3.407c8.505,8.443,16.987,16.912,25.419,25.43
			c1.123,1.134,2.227,1.648,3.853,1.623C37.428,100.051,43.754,100.109,50.08,100.109z"/>
		<path fill-rule="evenodd" clip-rule="evenodd" fill="#414141" d="M109.372,75.112c0-16.665,0-33.329,0-49.994
			c0.631-0.113,0.982,0.275,0.982,0.79c0.021,16.138,0.021,32.276,0,48.414C110.354,74.836,110.002,75.225,109.372,75.112z"/>
		<path fill-rule="evenodd" clip-rule="evenodd" fill="#202020" d="M25.382,109.108c16.665,0,33.33,0,49.994,0
			c0.114,0.632-0.275,0.982-0.79,0.983c-16.138,0.021-32.275,0.021-48.413,0C25.657,110.09,25.268,109.74,25.382,109.108z"/>
		<path fill-rule="evenodd" clip-rule="evenodd" d="M50.08,100.109c-6.325,0-12.651-0.058-18.976,0.039
			c-1.625,0.025-2.73-0.489-3.853-1.623c-8.433-8.518-16.914-16.986-25.419-25.43c-0.993-0.986-1.506-1.903-1.497-3.407
			C0.421,56.705,0.396,43.72,0.367,30.736c-0.003-1.37,0.212-2.408,1.306-3.485c8.663-8.521,17.248-17.123,25.786-25.768
			c1.035-1.047,2.021-1.399,3.45-1.394c12.65,0.056,25.302,0.058,37.954-0.002c1.438-0.007,2.415,0.367,3.443,1.407
			c8.778,8.877,17.609,17.702,26.478,26.49c1.131,1.121,1.637,2.224,1.628,3.849c-0.07,12.485-0.06,24.97-0.013,37.455
			c0.006,1.568-0.354,2.73-1.529,3.89c-8.532,8.417-17.008,16.893-25.425,25.424c-1.158,1.175-2.316,1.552-3.889,1.535
			C63.065,100.071,56.573,100.109,50.08,100.109z M65.731,64.114c5.33,0,10.67-0.185,15.985,0.091
			c2.134,0.11,2.947-1.161,3.377-2.424c0.999-2.938,1.595-6.017,2.266-9.059c0.506-2.293-0.136-4.588-1.076-6.533
			c-1.303-2.692-1.78-6.07-5.439-7.268c-1.145-0.375-1.594-0.579-2.854-0.083c-4.012,1.583-5.96,4.718-7.207,8.429
			c-0.933,2.776-0.906,5.601,1.488,7.811c0.242,0.224,0.909,0.085,0.955,0.648c0.008,0.106-0.517,0.37-0.797,0.371
			c-5.663,0.022-11.326,0.021-16.989,0.011c-0.73-0.001-1.257-0.099-0.561-1.021c1.541-2.043,1.329-4.466,1.595-6.859
			c0.35-3.146-1.723-4.764-3.644-5.93c-1.803-1.094-4.06,0.197-5.654,1.57c-3.57,3.072-6.595,6.652-8.72,10.869
			c-0.395,0.782-0.371,1.401-1.452,1.395c-5.996-0.037-11.993,0.015-17.988-0.038c-1.731-0.015-2.559-0.922-2.617-2.724
			c-0.069-2.163,0.013-4.331-0.038-6.495c-0.012-0.513-0.405-0.893-1.008-0.75c-0.294,0.069-0.735,0.172-0.819,0.377
			c-0.638,1.569-1.041,3.254-1.835,4.731c-0.934,1.737,0.698,3.998-1.261,5.435c1.492,1.674,0.988,4.372,2.846,5.799
			c1.522,1.169,3.276,1.721,5.305,1.686c6.162-0.107,12.327,0.047,18.487-0.083c2.368-0.05,4.891,0.795,7.12-0.907
			c0.373-0.284,1.526-0.162,1.829,0.191c1.103,1.287,2.477,0.717,3.716,0.733C55.737,64.152,60.735,64.114,65.731,64.114z
			 M85.032,31.314c-0.952-0.631-2.312-1.047-2.784-1.935c-1.769-3.329-4.83,1.267-6.662-1.23c-0.173-0.235-1.067-0.219-1.417,0.007
			c-0.802,0.517-1.477,1.233-2.2,1.872c-0.123,0.108-0.311,0.217-0.337,0.352c-0.084,0.439-0.32,1.087-0.119,1.306
			c1.105,1.201,2.205,2.482,3.555,3.351c0.642,0.412,1.811,0.253,2.636-0.663c0.7-0.777,1.327,0.241,2.021,0.511
			C81.429,35.546,84.572,33.459,85.032,31.314z M53.363,34.633c-0.222-0.231-0.438-0.468-0.664-0.694
			c-0.927-0.931-1.931-1.797-2.768-2.801c-1.105-1.328-2.027-1.317-3.113,0.012c-0.724,0.884-2.219,1.62-2.244,2.457
			c-0.024,0.787,1.424,1.62,2.227,2.432c0.346,0.35,0.739,0.663,1.036,1.051c1.051,1.374,2.017,1.326,3.103-0.003
			C51.665,36.201,52.549,35.447,53.363,34.633z"/>
		<path fill-rule="evenodd" clip-rule="evenodd" fill="none" d="M65.731,64.114c-4.996,0-9.994,0.038-14.99-0.026
			c-1.239-0.017-2.613,0.554-3.716-0.733c-0.303-0.354-1.457-0.476-1.829-0.191c-2.229,1.702-4.751,0.857-7.12,0.907
			c-6.16,0.13-12.326-0.024-18.487,0.083c-2.029,0.035-3.783-0.517-5.305-1.686c-1.858-1.427-1.354-4.125-2.846-5.799
			c1.958-1.437,0.327-3.697,1.261-5.435c0.794-1.478,1.197-3.163,1.835-4.731c0.084-0.205,0.524-0.308,0.819-0.377
			c0.604-0.143,0.997,0.237,1.008,0.75c0.05,2.165-0.031,4.332,0.038,6.495c0.058,1.802,0.886,2.709,2.617,2.724
			c5.996,0.053,11.993,0.001,17.988,0.038c1.081,0.007,1.058-0.612,1.452-1.395c2.125-4.217,5.15-7.797,8.72-10.869
			c1.595-1.373,3.852-2.664,5.654-1.57c1.921,1.166,3.993,2.784,3.644,5.93c-0.266,2.393-0.054,4.816-1.595,6.859
			c-0.696,0.923-0.17,1.021,0.561,1.021c5.663,0.011,11.326,0.012,16.989-0.011c0.28-0.001,0.805-0.265,0.797-0.371
			c-0.046-0.563-0.713-0.425-0.955-0.648c-2.395-2.21-2.421-5.035-1.488-7.811c1.247-3.711,3.195-6.847,7.207-8.429
			c1.26-0.496,1.709-0.292,2.854,0.083c3.659,1.198,4.137,4.575,5.439,7.268c0.94,1.945,1.582,4.24,1.076,6.533
			c-0.671,3.042-1.267,6.121-2.266,9.059c-0.43,1.263-1.243,2.534-3.377,2.424C76.401,63.929,71.061,64.114,65.731,64.114z
			 M49.435,49.114c-0.286,0.1-0.644,0.125-0.846,0.315c-0.954,0.897-1.856,1.848-2.793,2.763c-0.543,0.531-0.705,1.239-0.127,1.648
			c0.878,0.622,1.088,2.045,2.763,1.805c1.821-0.261,1.895-1.823,2.65-2.823C51.696,52.006,50.232,49.073,49.435,49.114z
			 M79.692,49.113c1.157,0.148,1.811-0.123,1.714-1.528c-0.106-1.551-0.986-2.241-2.329-2.448c-1.248-0.192-2.738,1.013-2.701,2.042
			C76.416,48.282,77.835,49.111,79.692,49.113z"/>
		<path fill-rule="evenodd" clip-rule="evenodd" fill="none" d="M85.032,31.314c-0.46,2.145-3.603,4.232-5.309,3.57
			c-0.693-0.27-1.32-1.288-2.021-0.511c-0.825,0.916-1.994,1.075-2.636,0.663c-1.35-0.869-2.449-2.15-3.555-3.351
			c-0.201-0.219,0.035-0.867,0.119-1.306c0.026-0.135,0.214-0.243,0.337-0.352c0.724-0.639,1.398-1.355,2.2-1.872
			c0.35-0.226,1.244-0.242,1.417-0.007c1.832,2.497,4.894-2.098,6.662,1.23C82.72,30.267,84.08,30.683,85.032,31.314z"/>
		<path fill-rule="evenodd" clip-rule="evenodd" fill="none" d="M53.362,34.634c-0.813,0.813-1.697,1.567-2.422,2.452
			c-1.086,1.329-2.052,1.377-3.103,0.003c-0.297-0.388-0.69-0.701-1.036-1.051c-0.803-0.813-2.251-1.645-2.227-2.432
			c0.025-0.837,1.52-1.572,2.244-2.457c1.086-1.329,2.008-1.34,3.113-0.012c0.837,1.004,1.841,1.871,2.768,2.801
			C52.924,34.165,53.141,34.401,53.362,34.634z"/>
		<path fill-rule="evenodd" clip-rule="evenodd" fill="#1B1B1B" d="M49.435,49.114c0.797-0.041,2.261,2.892,1.646,3.708
			c-0.755,1-0.829,2.563-2.65,2.823c-1.675,0.24-1.885-1.183-2.763-1.805c-0.578-0.409-0.417-1.117,0.127-1.648
			c0.937-0.915,1.84-1.865,2.793-2.763C48.792,49.24,49.149,49.214,49.435,49.114z"/>
		<path fill-rule="evenodd" clip-rule="evenodd" fill="#1B1B1B" d="M79.692,49.114c-1.856-0.003-3.276-0.832-3.316-1.935
			c-0.037-1.029,1.453-2.234,2.701-2.042c1.343,0.207,2.223,0.896,2.329,2.448C81.502,48.99,80.849,49.261,79.692,49.114z"/>
	</g>
</g>
</svg>
