<?xml version="1.0" encoding="utf-8"?>
<!-- Generator: Adobe Illustrator 16.0.0, SVG Export Plug-In . SVG Version: 6.00 Build 0)  -->
<!DOCTYPE svg PUBLIC "-//W3C//DTD SVG 1.1//EN" "http://www.w3.org/Graphics/SVG/1.1/DTD/svg11.dtd">
<svg version="1.1" id="Layer_1" xmlns="http://www.w3.org/2000/svg" xmlns:xlink="http://www.w3.org/1999/xlink" x="0px" y="0px"
	 width="543.932px" height="481.939px" viewBox="0 0 543.932 481.939" enable-background="new 0 0 543.932 481.939"
	 xml:space="preserve">
<g>
	<g>
		<path fill-rule="evenodd" clip-rule="evenodd" d="M1,333.958c0-3.333,0-6.666,0-9.999c1.729-9.051,4.061-17.894,11.032-24.513
			c6.032-5.727,11.952-11.683,18.596-16.63c18.471-13.756,39.955-20.83,61.877-26.813c2.691-0.734,5.573-1.952,7.576-3.801
			c6.142-5.67,12.162-11.517,17.762-17.717c30.918-34.237,63.12-67.358,91.114-104.147c10.256-13.477,20.293-27.117,30.77-41.139
			c-5.758-6.456-11.086-12.073-15.936-18.077c-1.494-1.851-2.363-4.757-2.357-7.178c0.037-14.827,0.419-29.651,0.661-44.476
			c0.165-10.055,3.198-13.975,13.085-16.063c3.888-0.821,7.924-1.375,11.885-1.33c16.813,0.193,33.668,0.069,50.416,1.304
			c7.055,0.521,14.014,3.8,20.726,6.537c1.725,0.703,3.344,4.113,3.32,6.262c-0.16,14.656-0.995,29.306-1.13,43.962
			c-0.056,6.028-1.51,10.896-5.979,15.123c-3.119,2.949-5.397,6.769-8.313,9.959c-2.176,2.379-2.321,4.5-0.441,7.01
			c7.771,10.372,14.707,21.499,23.396,31.028c37.501,41.134,74.054,83.043,108.152,127.065c1.304,1.683,3.551,2.953,5.617,3.674
			c12.875,4.49,26.008,8.293,38.708,13.219c22.566,8.751,42.499,21.375,56.569,41.763c5.645,8.18,8.282,17.439,6.055,27.021
			c-2.887,12.416-6.626,24.699-10.986,36.68c-2.034,5.592-5.622,11.11-9.842,15.321c-12.066,12.039-27.087,20.17-42.577,26.46
			c-12.532,5.087-23.315,11.616-32.317,21.497c-2.799,3.072-5.848,5.95-9.022,8.636c-2.764,2.339-5.697,4.58-8.845,6.35
			c-37.051,20.826-77.863,27.61-119.38,30.762c-19.202,1.458-38.595,0.723-57.895,0.507c-33.615-0.375-66.734-4.706-98.977-14.416
			c-26.275-7.912-50.849-18.943-68.892-40.886c-2.002-2.435-4.256-4.729-6.697-6.717c-2.787-2.27-5.688-4.63-8.931-6.068
			c-16.791-7.448-33.173-15.533-47.166-27.71c-9.489-8.257-15.625-18.425-17.685-30.97C3.77,348.262,2.325,341.119,1,333.958z"/>
		<path fill-rule="evenodd" clip-rule="evenodd" fill="#FFFFFF" d="M1,333.958c1.325,7.161,2.77,14.304,3.95,21.488
			c2.06,12.545,8.196,22.713,17.685,30.97c13.993,12.177,30.375,20.262,47.166,27.71c3.243,1.438,6.144,3.799,8.931,6.068
			c2.44,1.987,4.695,4.282,6.697,6.717c18.043,21.942,42.617,32.974,68.892,40.886c32.242,9.71,65.361,14.041,98.977,14.416
			c19.3,0.216,38.692,0.951,57.895-0.507c41.517-3.151,82.329-9.936,119.38-30.762c3.147-1.77,6.081-4.011,8.845-6.35
			c3.175-2.686,6.224-5.563,9.022-8.636c9.002-9.881,19.785-16.41,32.317-21.497c15.49-6.29,30.511-14.421,42.577-26.46
			c4.22-4.211,7.808-9.729,9.842-15.321c4.36-11.98,8.1-24.264,10.986-36.68c2.228-9.581-0.41-18.841-6.055-27.021
			c-14.07-20.388-34.003-33.012-56.569-41.763c-12.7-4.926-25.833-8.729-38.708-13.219c-2.066-0.721-4.313-1.991-5.617-3.674
			c-34.099-44.022-70.651-85.932-108.152-127.065c-8.689-9.53-15.625-20.656-23.396-31.028c-1.88-2.509-1.734-4.631,0.441-7.01
			c2.915-3.191,5.193-7.011,8.313-9.959c4.47-4.226,5.924-9.095,5.979-15.123c0.135-14.656,0.97-29.306,1.13-43.962
			c0.023-2.148-1.596-5.559-3.32-6.262C311.494,7.18,304.535,3.9,297.48,3.379c-16.748-1.235-33.603-1.111-50.416-1.304
			c-3.961-0.046-7.997,0.508-11.885,1.33c-9.887,2.089-12.92,6.008-13.085,16.063c-0.242,14.825-0.624,29.649-0.661,44.476
			c-0.006,2.42,0.863,5.327,2.357,7.178c4.85,6.004,10.178,11.621,15.936,18.077c-10.477,14.022-20.514,27.663-30.77,41.139
			c-27.994,36.79-60.196,69.91-91.114,104.147c-5.6,6.2-11.62,12.047-17.762,17.717c-2.003,1.849-4.885,3.066-7.576,3.801
			c-21.922,5.983-43.406,13.058-61.877,26.813c-6.645,4.947-12.564,10.903-18.596,16.63C5.061,306.065,2.729,314.908,1,323.959
			C1,216.306,1,108.653,1,1c181.644,0,363.287,0,544.932,0c0,160.979,0,321.959,0,482.939c-181.645,0-363.288,0-544.932,0
			C1,433.945,1,383.952,1,333.958z"/>
	</g>
</g>
</svg>
