<?xml version="1.0" encoding="utf-8"?>
<!-- Generator: Adobe Illustrator 16.0.0, SVG Export Plug-In . SVG Version: 6.00 Build 0)  -->
<!DOCTYPE svg PUBLIC "-//W3C//DTD SVG 1.1//EN" "http://www.w3.org/Graphics/SVG/1.1/DTD/svg11.dtd">
<svg version="1.1" id="Layer_1" xmlns="http://www.w3.org/2000/svg" xmlns:xlink="http://www.w3.org/1999/xlink" x="0px" y="0px"
	 width="99.667px" height="100px" viewBox="0 0 99.667 100" enable-background="new 0 0 99.667 100" xml:space="preserve">
<g>
	<g>
		<path fill-rule="evenodd" clip-rule="evenodd" fill="none" d="M74.823-10c11.999,0,23.997,0,35.996,0c0,40.328,0,80.657,0,120.985
			c-40.329,0-80.657,0-120.985,0c0-11.999,0-23.997,0-35.996c0.333,0,0.667,0,1,0c-0.121,0.841,0.636,1.11,1.068,1.545
			c10.446,10.477,20.906,20.937,31.382,31.382c0.434,0.434,0.704,1.19,1.545,1.069c-0.114,0.632,0.275,0.982,0.791,0.983
			c16.138,0.021,32.275,0.021,48.413,0c0.515-0.001,0.904-0.352,0.79-0.983c0.841,0.121,1.111-0.636,1.545-1.069
			c10.477-10.445,20.937-20.905,31.382-31.382c0.434-0.435,1.19-0.704,1.069-1.545c0.631,0.113,0.982-0.275,0.982-0.79
			c0.021-16.138,0.021-32.276,0-48.414c0-0.515-0.352-0.903-0.982-0.79c-0.84,0.121-1.11-0.636-1.545-1.069
			C96.798,13.481,86.337,3.021,75.892-7.456C75.459-7.89,74.702-8.16,74.823-9C74.823-9.333,74.823-9.667,74.823-10z"/>
		<path fill-rule="evenodd" clip-rule="evenodd" fill="none" d="M-10.167,24.996c0-11.666,0-23.33,0-34.996
			c11.665,0,23.331,0,34.996,0c0,0.333,0,0.667,0,1c0.121,0.84-0.636,1.11-1.069,1.544C13.315,3.021,2.854,13.481-7.622,23.926
			c-0.434,0.434-0.704,1.19-1.544,1.069C-9.5,24.996-9.833,24.996-10.167,24.996z"/>
		<path fill-rule="evenodd" clip-rule="evenodd" d="M24.829-9c0-0.333,0-0.667,0-1c16.665,0,33.33,0,49.994,0c0,0.333,0,0.667,0,1
			C58.159-9,41.494-9,24.829-9z"/>
		<path fill-rule="evenodd" clip-rule="evenodd" d="M-10.167,24.996c0.333,0,0.667,0,1,0c0,16.665,0,33.329,0,49.994
			c-0.333,0-0.667,0-1,0C-10.167,58.324-10.167,41.661-10.167,24.996z"/>
		<path fill-rule="evenodd" clip-rule="evenodd" fill="none" d="M-9.167,74.989c0-16.665,0-33.329,0-49.994
			c0.84,0.121,1.11-0.636,1.544-1.069C2.854,13.481,13.315,3.021,23.76-7.456C24.193-7.89,24.95-8.16,24.829-9
			c16.665,0,33.33,0,49.994,0c-0.121,0.84,0.637,1.11,1.069,1.544c10.445,10.476,20.906,20.937,31.382,31.382
			c0.435,0.434,0.705,1.19,1.545,1.069c0,16.665,0,33.329,0,49.994c0.121,0.841-0.636,1.11-1.069,1.545
			c-10.445,10.477-20.905,20.937-31.382,31.382c-0.434,0.434-0.704,1.19-1.545,1.069c-16.664,0-33.329,0-49.994,0
			c-0.841,0.121-1.111-0.636-1.545-1.069C12.808,97.471,2.348,87.011-8.098,76.534C-8.531,76.1-9.288,75.83-9.167,74.989z
			 M-0.142,71.067c9.77,9.769,19.289,19.288,28.857,28.856c14.137,0,28.435,0,42.016,0c9.902-9.902,19.414-19.413,28.989-28.989
			c0-13.729,0-27.684,0-41.504C89.836,19.543,80.07,9.773,70.465,0.165c-14.263,0-28.367,0-42.06,0
			C18.708,9.86,9.3,19.267-0.142,28.707C-0.142,42.924-0.142,57.232-0.142,71.067z"/>
		<path fill-rule="evenodd" clip-rule="evenodd" d="M108.819,74.989c0-16.665,0-33.329,0-49.994c0.631-0.113,0.982,0.275,0.982,0.79
			c0.021,16.138,0.021,32.276,0,48.414C109.801,74.714,109.45,75.103,108.819,74.989z"/>
		<path fill-rule="evenodd" clip-rule="evenodd" d="M24.829,108.985c16.665,0,33.33,0,49.994,0c0.114,0.632-0.275,0.982-0.79,0.983
			c-16.138,0.021-32.275,0.021-48.413,0C25.104,109.968,24.715,109.617,24.829,108.985z"/>
		<path fill-rule="evenodd" clip-rule="evenodd" d="M-0.142,71.067c0-13.835,0-28.144,0-42.36C9.3,19.267,18.708,9.86,28.405,0.165
			c13.693,0,27.797,0,42.06,0C80.07,9.773,89.836,19.543,99.72,29.431c0,13.82,0,27.775,0,41.504
			c-9.575,9.576-19.087,19.087-28.989,28.989c-13.581,0-27.879,0-42.016,0C19.146,90.355,9.627,80.836-0.142,71.067z M52.289,42.097
			c-2.003-0.656-3.933,0.179-5.288,1.35c-4.014,3.47-7.655,7.33-9.523,12.545c-6.2,0-12.342-0.041-18.483,0.033
			c-1.284,0.016-2.218-0.332-3.305-1.821c0-2.407,0-5.315,0-8.205c-0.679,0-1.009,0-1.346,0c-2.068,3.193-2.251,7.025-3.264,10.824
			c0.129,0.179,0.693,0.461,0.785,1.256c0.468,4.048,3.257,6.102,7.588,5.964c6.314-0.201,12.641,0.023,18.959-0.096
			c2.032-0.038,4.248,0.82,6.119-0.907c0.333-0.308,1.569-0.233,1.849,0.107c0.921,1.124,2.071,0.835,3.181,0.836
			c11.294,0.013,22.588,0.008,33.831,0.008c5.066-11.778,4.336-19.029-2.461-25.003c-2.378,0.063-4.859-0.383-7.071,1.446
			c0.385,2.501-2.866,2.845-3.279,5.515c-0.34,2.192-0.673,4.364-0.718,6.583c1.12,0.884,1.063,2.807,2.801,3.288
			c-6.227,0-12.453,0-18.836,0c0.897-1.129,0.857-2.539,1.979-3.302c0-2.309,0-4.631,0-6.904
			C54.619,44.428,53.448,43.257,52.289,42.097z M55.789,34.379c-1.41-1.498-2.625-2.788-4.429-4.704
			c-0.526-0.197-1.491,0.906-2.623,1.336c-1.015-0.438-1.849-1.329-3.319-0.952c-0.936,0.75-2.044,1.627-2.437,2.391
			c1.516,1.632,2.799,3.011,4.247,4.569c1.194,0.087,0.11-1.826,1.011-1.986c0.868,0,1.517,0,2.25,0
			c0.205,0.584,0.407,1.158,0.649,1.847c0.734,0,1.515,0,2.321,0C54.159,35.84,55.569,35.344,55.789,34.379z M79.278,35.062
			c1.153-1.208,2.281-2.392,3.038-3.186c-1.516-1.514-3.091-3.09-4.508-4.506c-0.962,1.047-2.154,2.344-2.98,3.242
			C75.845,31.628,77.42,33.205,79.278,35.062z"/>
		<path fill-rule="evenodd" clip-rule="evenodd" fill="none" d="M52.289,42.097c1.159,1.16,2.33,2.331,3.517,3.517
			c0,2.273,0,4.596,0,6.904c-1.122,0.763-1.082,2.173-1.979,3.302c6.383,0,12.609,0,18.836,0c-1.737-0.481-1.681-2.404-2.801-3.288
			c0.045-2.219,0.378-4.391,0.718-6.583c0.413-2.67,3.664-3.014,3.279-5.515c2.212-1.829,4.693-1.383,7.071-1.446
			c6.797,5.974,7.527,13.225,2.461,25.003c-11.243,0-22.537,0.005-33.831-0.008c-1.11-0.001-2.26,0.288-3.181-0.836
			c-0.279-0.341-1.516-0.415-1.849-0.107c-1.871,1.728-4.086,0.869-6.119,0.907c-6.318,0.119-12.645-0.105-18.959,0.096
			c-4.331,0.138-7.12-1.916-7.588-5.964c-0.092-0.795-0.656-1.077-0.785-1.256c1.013-3.799,1.196-7.631,3.264-10.824
			c0.337,0,0.667,0,1.346,0c0,2.89,0,5.798,0,8.205c1.087,1.489,2.021,1.837,3.305,1.821c6.141-0.074,12.283-0.033,18.483-0.033
			c1.868-5.215,5.51-9.075,9.523-12.545C48.356,42.276,50.286,41.441,52.289,42.097z M49.013,48.393
			c-1.596,1.444-2.967,2.903-4.768,4.676c1.395,0.896,2.522,1.62,3.756,2.413c1.106-0.653,2.488-1.73,2.817-3.632
			C50.311,50.878,49.819,49.936,49.013,48.393z M75.713,47.337c0.558,0.283,1.277,0.648,1.998,1.014
			c0.711,0.551,1.982,1.022,2.962,0.302c0.506-1.805-0.044-3.166-1.627-3.6C77.538,44.638,76.271,45.319,75.713,47.337z"/>
		<path fill-rule="evenodd" clip-rule="evenodd" fill="none" d="M55.789,34.379c-0.22,0.964-1.63,1.46-2.329,2.5
			c-0.807,0-1.587,0-2.321,0c-0.242-0.688-0.444-1.263-0.649-1.847c-0.733,0-1.383,0-2.25,0c-0.9,0.16,0.184,2.073-1.011,1.986
			c-1.447-1.558-2.73-2.937-4.247-4.569c0.393-0.764,1.501-1.641,2.437-2.391c1.47-0.377,2.304,0.515,3.319,0.952
			c1.131-0.43,2.096-1.533,2.623-1.336C53.164,31.591,54.378,32.881,55.789,34.379z"/>
		<path fill-rule="evenodd" clip-rule="evenodd" fill="none" d="M79.278,35.062c-1.857-1.857-3.433-3.433-4.45-4.45
			c0.826-0.898,2.019-2.195,2.98-3.242c1.417,1.416,2.992,2.992,4.508,4.506C81.559,32.669,80.431,33.853,79.278,35.062z"/>
		<path fill-rule="evenodd" clip-rule="evenodd" d="M49.013,48.393c0.806,1.542,1.298,2.485,1.806,3.458
			c-0.329,1.901-1.711,2.979-2.817,3.632c-1.234-0.793-2.362-1.518-3.756-2.413C46.046,51.296,47.417,49.837,49.013,48.393z"/>
		<path fill-rule="evenodd" clip-rule="evenodd" d="M75.713,47.337c0.558-2.018,1.824-2.7,3.333-2.285
			c1.583,0.435,2.133,1.795,1.627,3.6c-0.979,0.72-2.251,0.249-2.962-0.302C76.991,47.986,76.271,47.621,75.713,47.337z"/>
	</g>
</g>
</svg>
